  0
SECTION
  2
HEADER
  9
$ACADVER
  1
AC1015
  9
$ACADMAINTVER
 70
     6
  9
$DWGCODEPAGE
  3
ANSI_1252
  9
$INSBASE
 10
0.0
 20
0.0
 30
0.0
  9
$EXTMIN
 10
0.6647315999
 20
-0.4918038223
 30
0.0
  9
$EXTMAX
 10
0.7720992908
 20
-0.4748934129
 30
0.0
  9
$LIMMIN
 10
0.0
 20
0.0
  9
$LIMMAX
 10
420.0
 20
297.0
  9
$ORTHOMODE
 70
     0
  9
$REGENMODE
 70
     1
  9
$FILLMODE
 70
     1
  9
$QTEXTMODE
 70
     0
  9
$MIRRTEXT
 70
     1
  9
$LTSCALE
 40
1.0
  9
$ATTMODE
 70
     1
  9
$TEXTSIZE
 40
0.0035
  9
$TRACEWID
 40
1.0
  9
$TEXTSTYLE
  7
Standard
  9
$CLAYER
  8
0
  9
$CELTYPE
  6
ByLayer
  9
$CECOLOR
 62
   256
  9
$CELTSCALE
 40
1.0
  9
$DISPSILH
 70
     0
  9
$DIMSCALE
 40
1.0
  9
$DIMASZ
 40
0.003556
  9
$DIMEXO
 40
0.0
  9
$DIMDLI
 40
3.75
  9
$DIMRND
 40
0.0
  9
$DIMDLE
 40
0.0
  9
$DIMEXE
 40
0.001
  9
$DIMTP
 40
0.0
  9
$DIMTM
 40
0.0
  9
$DIMTXT
 40
0.0035
  9
$DIMCEN
 40
2.5
  9
$DIMTSZ
 40
0.0
  9
$DIMTOL
 70
     0
  9
$DIMLIM
 70
     0
  9
$DIMTIH
 70
     1
  9
$DIMTOH
 70
     1
  9
$DIMSE1
 70
     0
  9
$DIMSE2
 70
     0
  9
$DIMTAD
 70
     1
  9
$DIMZIN
 70
     1
  9
$DIMBLK
  1

  9
$DIMASO
 70
     1
  9
$DIMSHO
 70
     1
  9
$DIMPOST
  1

  9
$DIMAPOST
  1

  9
$DIMALT
 70
     0
  9
$DIMALTD
 70
     3
  9
$DIMALTF
 40
39.3700787402
  9
$DIMLFAC
 40
1.0
  9
$DIMTOFL
 70
     1
  9
$DIMTVP
 40
0.0
  9
$DIMTIX
 70
     0
  9
$DIMSOXD
 70
     0
  9
$DIMSAH
 70
     0
  9
$DIMBLK1
  1

  9
$DIMBLK2
  1

  9
$DIMSTYLE
  2
ISO-25
  9
$DIMCLRD
 70
     0
  9
$DIMCLRE
 70
     0
  9
$DIMCLRT
 70
     0
  9
$DIMTFAC
 40
1.0
  9
$DIMGAP
 40
0.001524
  9
$DIMJUST
 70
     0
  9
$DIMSD1
 70
     0
  9
$DIMSD2
 70
     0
  9
$DIMTOLJ
 70
     0
  9
$DIMTZIN
 70
     1
  9
$DIMALTZ
 70
     0
  9
$DIMALTTZ
 70
     0
  9
$DIMUPT
 70
     0
  9
$DIMDEC
 70
     2
  9
$DIMTDEC
 70
     2
  9
$DIMALTU
 70
     2
  9
$DIMALTTD
 70
     3
  9
$DIMTXSTY
  7
Standard
  9
$DIMAUNIT
 70
     0
  9
$DIMADEC
 70
     2
  9
$DIMALTRND
 40
0.0
  9
$DIMAZIN
 70
     0
  9
$DIMDSEP
 70
    44
  9
$DIMATFIT
 70
     3
  9
$DIMFRAC
 70
     0
  9
$DIMLDRBLK
  1

  9
$DIMLUNIT
 70
     2
  9
$DIMLWD
 70
    -2
  9
$DIMLWE
 70
    -2
  9
$DIMTMOVE
 70
     0
  9
$LUNITS
 70
     2
  9
$LUPREC
 70
     2
  9
$SKETCHINC
 40
1.0
  9
$FILLETRAD
 40
0.0
  9
$AUNITS
 70
     0
  9
$AUPREC
 70
     2
  9
$MENU
  1
.
  9
$ELEVATION
 40
0.0
  9
$PELEVATION
 40
0.0
  9
$THICKNESS
 40
0.0
  9
$LIMCHECK
 70
     0
  9
$CHAMFERA
 40
0.0
  9
$CHAMFERB
 40
0.0
  9
$CHAMFERC
 40
0.0
  9
$CHAMFERD
 40
0.0
  9
$SKPOLY
 70
     0
  9
$TDCREATE
 40
2460421.899650903
  9
$TDUCREATE
 40
2460421.670484236
  9
$TDUPDATE
 40
2460421.901210313
  9
$TDUUPDATE
 40
2460421.672043646
  9
$TDINDWG
 40
0.0000000116
  9
$TDUSRTIMER
 40
0.0000000116
  9
$USRTIMER
 70
     1
  9
$ANGBASE
 50
0.0
  9
$ANGDIR
 70
     0
  9
$PDMODE
 70
     0
  9
$PDSIZE
 40
-1.0
  9
$PLINEWID
 40
0.0
  9
$SPLFRAME
 70
     0
  9
$SPLINETYPE
 70
     6
  9
$SPLINESEGS
 70
     8
  9
$HANDSEED
  5
E1
  9
$SURFTAB1
 70
     6
  9
$SURFTAB2
 70
     6
  9
$SURFTYPE
 70
     6
  9
$SURFU
 70
     6
  9
$SURFV
 70
     6
  9
$UCSBASE
  2

  9
$UCSNAME
  2

  9
$UCSORG
 10
0.0
 20
0.0
 30
0.0
  9
$UCSXDIR
 10
1.0
 20
0.0
 30
0.0
  9
$UCSYDIR
 10
0.0
 20
1.0
 30
0.0
  9
$UCSORTHOREF
  2

  9
$UCSORTHOVIEW
 70
     0
  9
$UCSORGTOP
 10
0.0
 20
0.0
 30
0.0
  9
$UCSORGBOTTOM
 10
0.0
 20
0.0
 30
0.0
  9
$UCSORGLEFT
 10
0.0
 20
0.0
 30
0.0
  9
$UCSORGRIGHT
 10
0.0
 20
0.0
 30
0.0
  9
$UCSORGFRONT
 10
0.0
 20
0.0
 30
0.0
  9
$UCSORGBACK
 10
0.0
 20
0.0
 30
0.0
  9
$PUCSBASE
  2

  9
$PUCSNAME
  2

  9
$PUCSORG
 10
0.0
 20
0.0
 30
0.0
  9
$PUCSXDIR
 10
1.0
 20
0.0
 30
0.0
  9
$PUCSYDIR
 10
0.0
 20
1.0
 30
0.0
  9
$PUCSORTHOREF
  2

  9
$PUCSORTHOVIEW
 70
     0
  9
$PUCSORGTOP
 10
0.0
 20
0.0
 30
0.0
  9
$PUCSORGBOTTOM
 10
0.0
 20
0.0
 30
0.0
  9
$PUCSORGLEFT
 10
0.0
 20
0.0
 30
0.0
  9
$PUCSORGRIGHT
 10
0.0
 20
0.0
 30
0.0
  9
$PUCSORGFRONT
 10
0.0
 20
0.0
 30
0.0
  9
$PUCSORGBACK
 10
0.0
 20
0.0
 30
0.0
  9
$USERI1
 70
     0
  9
$USERI2
 70
     0
  9
$USERI3
 70
     0
  9
$USERI4
 70
     0
  9
$USERI5
 70
     0
  9
$USERR1
 40
0.0
  9
$USERR2
 40
0.0
  9
$USERR3
 40
0.0
  9
$USERR4
 40
0.0
  9
$USERR5
 40
0.0
  9
$WORLDVIEW
 70
     1
  9
$SHADEDGE
 70
     3
  9
$SHADEDIF
 70
    70
  9
$TILEMODE
 70
     1
  9
$MAXACTVP
 70
    64
  9
$PINSBASE
 10
0.0
 20
0.0
 30
0.0
  9
$PLIMCHECK
 70
     0
  9
$PEXTMIN
 10
1.0000000000E+20
 20
1.0000000000E+20
 30
1.0000000000E+20
  9
$PEXTMAX
 10
-1.0000000000E+20
 20
-1.0000000000E+20
 30
-1.0000000000E+20
  9
$PLIMMIN
 10
0.0
 20
0.0
  9
$PLIMMAX
 10
420.0
 20
297.0
  9
$UNITMODE
 70
     0
  9
$VISRETAIN
 70
     1
  9
$PLINEGEN
 70
     0
  9
$PSLTSCALE
 70
     1
  9
$TREEDEPTH
 70
  3020
  9
$CMLSTYLE
  2
Standard
  9
$CMLJUST
 70
     0
  9
$CMLSCALE
 40
20.0
  9
$PROXYGRAPHICS
 70
     1
  9
$MEASUREMENT
 70
     1
  9
$CELWEIGHT
370
    -1
  9
$ENDCAPS
280
     0
  9
$JOINSTYLE
280
     0
  9
$LWDISPLAY
290
     1
  9
$INSUNITS
 70
     6
  9
$HYPERLINKBASE
  1

  9
$STYLESHEET
  1

  9
$XEDIT
290
     1
  9
$CEPSNTYPE
380
     0
  9
$PSTYLEMODE
290
     1
  9
$FINGERPRINTGUID
  2
{ca09c90f-b99a-4a4e-8a03-387db13777ca}
  9
$VERSIONGUID
  2
{FAEB1C32-E019-11D5-929B-00C0DF256EC4}
  9
$EXTNAMES
290
     1
  9
$PSVPSCALE
 40
0.0
  9
$OLESTARTUP
290
     0
  0
ENDSEC
  0
SECTION
  2
CLASSES
  0
CLASS
  1
ACDBDICTIONARYWDFLT
  2
AcDbDictionaryWithDefault
  3
ObjectDBX Classes
 90
        0
280
     0
281
     0
  0
CLASS
  1
VISUALSTYLE
  2
AcDbVisualStyle
  3
ObjectDBX Classes
 90
     4095
280
     0
281
     0
  0
CLASS
  1
MATERIAL
  2
AcDbMaterial
  3
ObjectDBX Classes
 90
     1153
280
     0
281
     0
  0
CLASS
  1
SCALE
  2
AcDbScale
  3
ObjectDBX Classes
 90
     1153
280
     0
281
     0
  0
CLASS
  1
TABLESTYLE
  2
AcDbTableStyle
  3
ObjectDBX Classes
 90
     4095
280
     0
281
     0
  0
CLASS
  1
MLEADERSTYLE
  2
AcDbMLeaderStyle
  3
ACDB_MLEADERSTYLE_CLASS
 90
     4095
280
     0
281
     0
  0
CLASS
  1
SUN
  2
AcDbSun
  3
SCENEOE
 90
     1153
280
     0
281
     0
  0
CLASS
  1
ACDBPLACEHOLDER
  2
AcDbPlaceHolder
  3
ObjectDBX Classes
 90
        0
280
     0
281
     0
  0
CLASS
  1
LAYOUT
  2
AcDbLayout
  3
ObjectDBX Classes
 90
        0
280
     0
281
     0
  0
ENDSEC
  0
SECTION
  2
TABLES
  0
TABLE
  2
VPORT
  5
8
330
0
100
AcDbSymbolTable
 70
     1
  0
VPORT
  5
29
330
8
100
AcDbSymbolTableRecord
100
AcDbViewportTableRecord
  2
*Active
 70
     0
 10
0.0
 20
0.0
 11
1.0
 21
1.0
 12
0.7184154453
 22
-0.4833486176
 13
0.0
 23
0.0
 14
10.0
 24
10.0
 15
10.0
 25
10.0
 16
0.0
 26
0.0
 36
1.0
 17
0.0
 27
0.0
 37
0.0
 40
0.0172486176
 41
6.3492070692
 42
50.0
 43
0.0
 44
0.0
 50
0.0
 51
0.0
 71
     0
 72
   100
 73
     1
 74
     3
 75
     0
 76
     0
 77
     0
 78
     0
281
     0
 65
     1
110
0.0
120
0.0
130
0.0
111
1.0
121
0.0
131
0.0
112
0.0
122
1.0
132
0.0
 79
     0
146
0.0
  0
ENDTAB
  0
TABLE
  2
LTYPE
  5
5
330
0
100
AcDbSymbolTable
 70
     6
  0
LTYPE
  5
14
330
5
100
AcDbSymbolTableRecord
100
AcDbLinetypeTableRecord
  2
ByBlock
 70
     0
  3

 72
    65
 73
     0
 40
0.0
  0
LTYPE
  5
15
330
5
100
AcDbSymbolTableRecord
100
AcDbLinetypeTableRecord
  2
ByLayer
 70
     0
  3

 72
    65
 73
     0
 40
0.0
  0
LTYPE
  5
16
330
5
100
AcDbSymbolTableRecord
100
AcDbLinetypeTableRecord
  2
Continuous
 70
     0
  3
Solid line
 72
    65
 73
     0
 40
0.0
  0
LTYPE
  5
5E
330
5
100
AcDbSymbolTableRecord
100
AcDbLinetypeTableRecord
  2
HIDDEN
 70
     0
  3
Hidden __ __ __ __ __ __ __ __ __ __ __ __ __ __
 72
    65
 73
     2
 40
0.001905
 49
0.00127
 74
     0
 49
-0.000635
 74
     0
  0
LTYPE
  5
5F
330
5
100
AcDbSymbolTableRecord
100
AcDbLinetypeTableRecord
  2
PHANTOM
 70
     0
  3
Phantom ______  __  __  ______  __  __  ______
 72
    65
 73
     6
 40
0.0127
 49
0.00635
 74
     0
 49
-0.00127
 74
     0
 49
0.00127
 74
     0
 49
-0.00127
 74
     0
 49
0.00127
 74
     0
 49
-0.00127
 74
     0
  0
LTYPE
  5
60
330
5
100
AcDbSymbolTableRecord
100
AcDbLinetypeTableRecord
  2
CENTER
 70
     0
  3
Center ____ _ ____ _ ____ _ ____ _ ____ _ ____
 72
    65
 73
     4
 40
0.01016
 49
0.00635
 74
     0
 49
-0.00127
 74
     0
 49
0.00127
 74
     0
 49
-0.00127
 74
     0
  0
LTYPE
  5
61
330
5
100
AcDbSymbolTableRecord
100
AcDbLinetypeTableRecord
  2
CENTERX2
 70
     0
  3
Center (2x) ________  __  ________  __  _____
 72
    65
 73
     4
 40
0.02032
 49
0.0127
 74
     0
 49
-0.00254
 74
     0
 49
0.00254
 74
     0
 49
-0.00254
 74
     0
  0
LTYPE
  5
62
330
5
100
AcDbSymbolTableRecord
100
AcDbLinetypeTableRecord
  2
DOT2
 70
     0
  3
Dot (.5x) ........................................
 72
    65
 73
     2
 40
0.000635
 49
0.0
 74
     0
 49
-0.000635
 74
     0
  0
ENDTAB
  0
TABLE
  2
LAYER
  5
2
330
0
100
AcDbSymbolTable
 70
     1
  0
LAYER
  5
10
330
2
100
AcDbSymbolTableRecord
100
AcDbLayerTableRecord
  2
0
 70
     0
 62
     7
  6
Continuous
370
    -3
390
F
  0
ENDTAB
  0
TABLE
  2
STYLE
  5
3
330
0
100
AcDbSymbolTable
 70
     1
  0
STYLE
  5
11
330
3
100
AcDbSymbolTableRecord
100
AcDbTextStyleTableRecord
  2
Standard
 70
     0
 40
0.0
 41
1.0
 50
0.0
 71
     0
 42
0.0035
  3
txt
  4

  0
ENDTAB
  0
TABLE
  2
VIEW
  5
6
330
0
100
AcDbSymbolTable
 70
     0
  0
ENDTAB
  0
TABLE
  2
UCS
  5
7
330
0
100
AcDbSymbolTable
 70
     0
  0
ENDTAB
  0
TABLE
  2
APPID
  5
9
330
0
100
AcDbSymbolTable
 70
     1
  0
APPID
  5
12
330
9
100
AcDbSymbolTableRecord
100
AcDbRegAppTableRecord
  2
ACAD
 70
     0
  0
ENDTAB
  0
TABLE
  2
DIMSTYLE
  5
A
330
0
100
AcDbSymbolTable
 70
     1
100
AcDbDimStyleTable
  0
DIMSTYLE
105
27
330
A
100
AcDbSymbolTableRecord
100
AcDbDimStyleTableRecord
  2
ISO-25
 70
     0
 41
2.5
 42
0.625
 43
3.75
 44
1.25
 73
     0
 74
     0
 77
     1
 78
     8
140
2.5
141
2.5
143
0.0393700787
147
0.625
171
     3
172
     1
178
     0
271
     2
272
     2
274
     3
278
    44
283
     0
284
     8
340
11
  0
ENDTAB
  0
TABLE
  2
BLOCK_RECORD
  5
1
330
0
100
AcDbSymbolTable
 70
     1
  0
BLOCK_RECORD
  5
1F
330
1
100
AcDbSymbolTableRecord
100
AcDbBlockTableRecord
  2
*Model_Space
340
22
  0
BLOCK_RECORD
  5
1B
330
1
100
AcDbSymbolTableRecord
100
AcDbBlockTableRecord
  2
*Paper_Space
340
1E
  0
BLOCK_RECORD
  5
23
330
1
100
AcDbSymbolTableRecord
100
AcDbBlockTableRecord
  2
*Paper_Space0
340
26
  0
ENDTAB
  0
ENDSEC
  0
SECTION
  2
BLOCKS
  0
BLOCK
  5
20
330
1F
100
AcDbEntity
  8
0
100
AcDbBlockBegin
  2
*Model_Space
 70
     0
 10
0.0
 20
0.0
 30
0.0
  3
*Model_Space
  1

  0
ENDBLK
  5
21
330
1F
100
AcDbEntity
  8
0
100
AcDbBlockEnd
  0
BLOCK
  5
1C
330
1B
100
AcDbEntity
 67
     1
  8
0
100
AcDbBlockBegin
  2
*Paper_Space
 70
     0
 10
0.0
 20
0.0
 30
0.0
  3
*Paper_Space
  1

  0
ENDBLK
  5
1D
330
1B
100
AcDbEntity
 67
     1
  8
0
100
AcDbBlockEnd
  0
BLOCK
  5
24
330
23
100
AcDbEntity
  8
0
100
AcDbBlockBegin
  2
*Paper_Space0
 70
     0
 10
0.0
 20
0.0
 30
0.0
  3
*Paper_Space0
  1

  0
ENDBLK
  5
25
330
23
100
AcDbEntity
  8
0
100
AcDbBlockEnd
  0
ENDSEC
  0
SECTION
  2
ENTITIES
  0
SPLINE
  5
64
330
1F
100
AcDbEntity
  8
0
  6
Continuous
 62
     7
370
    25
100
AcDbSpline
210
0.0
220
0.0
230
1.0
 70
     8
 71
     3
 72
    23
 73
    19
 74
     0
 42
0.00000001
 43
0.00000001
 40
0.0
 40
0.0
 40
0.0
 40
0.0
 40
0.0178205368102617
 40
0.1326185109957561
 40
0.2371369247558306
 40
0.3313769373724944
 40
0.4410030776300879
 40
0.5322526690106602
 40
0.6049200758556593
 40
0.6788135668931322
 40
0.6909159552562923
 40
0.7012816267309291
 40
0.7131746312365214
 40
0.7280870316725627
 40
0.7692630526036099
 40
0.8275603543958386
 40
0.9042705127608912
 40
1.0
 40
1.0
 40
1.0
 40
1.0
 10
0.7686736305247622
 20
-0.491406987414963
 30
0.0
 10
0.7687091387327754
 20
-0.4914065993159745
 30
0.0
 10
0.768973386983261
 20
-0.4914037111252015
 30
0.0
 10
0.7693695980245272
 20
-0.4913961569320497
 30
0.0
 10
0.7698400029128595
 20
-0.4913840129665213
 30
0.0
 10
0.7702193514720466
 20
-0.4913681546484255
 30
0.0
 10
0.7705083520600934
 20
-0.49134743444768
 30
0.0
 10
0.7707099545104932
 20
-0.4913200630283231
 30
0.0
 10
0.770853462440407
 20
-0.4912818567910062
 30
0.0
 10
0.7709376787294582
 20
-0.4912442271584855
 30
0.0
 10
0.7710258434144681
 20
-0.4911920711868772
 30
0.0
 10
0.7710694852893087
 20
-0.4911656491408509
 30
0.0
 10
0.7711403003961198
 20
-0.4911221286728023
 30
0.0
 10
0.7712754868031452
 20
-0.4910315694059137
 30
0.0
 10
0.7714975092562225
 20
-0.4908517134945946
 30
0.0
 10
0.7717765382674716
 20
-0.490527194504293
 30
0.0
 10
0.772037975431753
 20
-0.4900387591914737
 30
0.0
 10
0.7720768489828583
 20
-0.4896453860659614
 30
0.0
 10
0.7720984295486348
 20
-0.4894270058468011
 30
0.0
  0
SPLINE
  5
65
330
1F
100
AcDbEntity
  8
0
  6
Continuous
 62
     7
370
    25
100
AcDbSpline
210
0.0
220
0.0
230
1.0
 70
     8
 71
     3
 72
    21
 73
    17
 74
     0
 42
0.00000001
 43
0.00000001
 40
0.0
 40
0.0
 40
0.0
 40
0.0
 40
0.0725823878391305
 40
0.1341055897600253
 40
0.1846950128428761
 40
0.2249603670567589
 40
0.2561189470953941
 40
0.3014072798627411
 40
0.3642231660399461
 40
0.4350774416538673
 40
0.5199198665964048
 40
0.6186672176377294
 40
0.7019352333065129
 40
0.7931756153669756
 40
0.8925208773773958
 40
1.0
 40
1.0
 40
1.0
 40
1.0
 10
0.7720970743009394
 20
-0.4769272242897972
 30
0.0
 10
0.772074288137288
 20
-0.4767054621999824
 30
0.0
 10
0.7720321876773028
 20
-0.4762957273217783
 30
0.0
 10
0.7717558437472327
 20
-0.4758049226477983
 30
0.0
 10
0.7714493168517758
 20
-0.4754767843231731
 30
0.0
 10
0.771165704880505
 20
-0.475277204026557
 30
0.0
 10
0.7708978460891219
 20
-0.4751467249408349
 30
0.0
 10
0.7706756171055977
 20
-0.475089261688133
 30
0.0
 10
0.7703811636831014
 20
-0.4750395914865104
 30
0.0
 10
0.7699908091803886
 20
-0.4750055179182593
 30
0.0
 10
0.7694663093383121
 20
-0.4749791972292992
 30
0.0
 10
0.7688260425166893
 20
-0.4749619168442054
 30
0.0
 10
0.7680857912683956
 20
-0.4749499894920422
 30
0.0
 10
0.7672738142494665
 20
-0.4749421794353783
 30
0.0
 10
0.766327834002708
 20
-0.4749370982786192
 30
0.0
 10
0.7656428682423257
 20
-0.4749362709277343
 30
0.0
 10
0.7652869164086816
 20
-0.4749358409835215
 30
0.0
  0
SPLINE
  5
66
330
1F
100
AcDbEntity
  8
0
  6
Continuous
 62
     7
370
    25
100
AcDbSpline
210
0.0
220
0.0
230
1.0
 70
     8
 71
     3
 72
    13
 73
     9
 74
     0
 42
0.00000001
 43
0.00000001
 40
0.0
 40
0.0
 40
0.0
 40
0.0
 40
0.1849708500799135
 40
0.3627475757844125
 40
0.5332244036759402
 40
0.6962845563724094
 40
0.8518675082003245
 40
1.0
 40
1.0
 40
1.0
 40
1.0
 10
0.6985795593606814
 20
-0.4749992197665791
 30
0.0
 10
0.6979400386202659
 20
-0.4750307311525205
 30
0.0
 10
0.6966858702031917
 20
-0.4750925283430232
 30
0.0
 10
0.6948600466723492
 20
-0.4754998725486649
 30
0.0
 10
0.6931441561314929
 20
-0.4760933650454173
 30
0.0
 10
0.6915529785000035
 20
-0.4768674086531198
 30
0.0
 10
0.6900874968842953
 20
-0.4777711759309661
 30
0.0
 10
0.6891953040906647
 20
-0.4784954564902938
 30
0.0
 10
0.6887601509087661
 20
-0.4788487130871063
 30
0.0
  0
SPLINE
  5
67
330
1F
100
AcDbEntity
  8
0
  6
Continuous
 62
     7
370
    25
100
AcDbSpline
210
0.0
220
0.0
230
1.0
 70
     8
 71
     3
 72
    17
 73
    13
 74
     0
 42
0.00000001
 43
0.00000001
 40
0.0
 40
0.0
 40
0.0
 40
0.0
 40
0.1325432257673617
 40
0.2583931534373052
 40
0.3772562986750276
 40
0.4890330046051394
 40
0.5936997318155265
 40
0.6912582104358388
 40
0.7817242237590455
 40
0.865134991393182
 40
0.9415620200763756
 40
1.0
 40
1.0
 40
1.0
 40
1.0
 10
0.7338440768660162
 20
-0.491416696226336
 30
0.0
 10
0.7342058835385153
 20
-0.4914166298104971
 30
0.0
 10
0.7349112260145301
 20
-0.4914165003327516
 30
0.0
 10
0.7359030000870668
 20
-0.4914149533902166
 30
0.0
 10
0.7367817480836436
 20
-0.4914119113980444
 30
0.0
 10
0.7375339783229392
 20
-0.4914067034715556
 30
0.0
 10
0.7381556851345121
 20
-0.4913986702678177
 30
0.0
 10
0.7386487084363595
 20
-0.4913867732008782
 30
0.0
 10
0.7390222063687895
 20
-0.4913706337543685
 30
0.0
 10
0.7392811292097243
 20
-0.4913472038761115
 30
0.0
 10
0.7394493490112374
 20
-0.4913230229892588
 30
0.0
 10
0.7394845590161299
 20
-0.4912922087913741
 30
0.0
 10
0.7394998157649358
 20
-0.4912788567774162
 30
0.0
  0
SPLINE
  5
68
330
1F
100
AcDbEntity
  8
0
  6
Continuous
 62
     7
370
    25
100
AcDbSpline
210
0.0
220
0.0
230
1.0
 70
     8
 71
     3
 72
    14
 73
    10
 74
     0
 42
0.00000001
 43
0.00000001
 40
0.0
 40
0.0
 40
0.0
 40
0.0
 40
0.1223532930340342
 40
0.2623428882948343
 40
0.4200858422871422
 40
0.5501100273081092
 40
0.6901372403050952
 40
0.8401212499489772
 40
1.0
 40
1.0
 40
1.0
 40
1.0
 10
0.6887601931613123
 20
-0.4788486786432432
 30
0.0
 10
0.6884121489152685
 20
-0.4791354585697141
 30
0.0
 10
0.6876658924762515
 20
-0.4797503555810638
 30
0.0
 10
0.6863918554818296
 20
-0.4805796404174627
 30
0.0
 10
0.6850407189164649
 20
-0.4812846456908709
 30
0.0
 10
0.6836434156562496
 20
-0.4818409666811189
 30
0.0
 10
0.6822389688308742
 20
-0.482246485091419
 30
0.0
 10
0.6807078404521608
 20
-0.4825310358005065
 30
0.0
 10
0.679641603097039
 20
-0.4825687792833901
 30
0.0
 10
0.6790914605250098
 20
-0.4825882536496285
 30
0.0
  0
SPLINE
  5
6B
330
1F
100
AcDbEntity
  8
0
  6
Continuous
 62
     7
370
    25
100
AcDbSpline
210
0.0
220
0.0
230
1.0
 70
     8
 71
     3
 72
    15
 73
    11
 74
     0
 42
0.00000001
 43
0.00000001
 40
0.0
 40
0.0
 40
0.0
 40
0.0
 40
0.0996226111278135
 40
0.1993313314025555
 40
0.3048918322278145
 40
0.4201459695251684
 40
0.5469555644494773
 40
0.6859082515915463
 40
0.8369936885817507
 40
1.0
 40
1.0
 40
1.0
 40
1.0
 10
0.6647325048772368
 20
-0.4896220946027049
 30
0.0
 10
0.6647441150291553
 20
-0.4897820872865267
 30
0.0
 10
0.664767345368267
 20
-0.4901022109443973
 30
0.0
 10
0.6649362562141826
 20
-0.4905251291492619
 30
0.0
 10
0.665170975642242
 20
-0.4908668260218104
 30
0.0
 10
0.6654682323326503
 20
-0.4911302674764856
 30
0.0
 10
0.6658201681107162
 20
-0.4913249354181814
 30
0.0
 10
0.6662312848338209
 20
-0.4914610768843712
 30
0.0
 10
0.666705309232232
 20
-0.4915519993160816
 30
0.0
 10
0.6670677117049856
 20
-0.4915829948247641
 30
0.0
 10
0.6672557901585958
 20
-0.4915990807727921
 30
0.0
  0
SPLINE
  5
6C
330
1F
100
AcDbEntity
  8
0
  6
Continuous
 62
     7
370
    25
100
AcDbSpline
210
0.0
220
0.0
230
1.0
 70
     8
 71
     3
 72
    16
 73
    12
 74
     0
 42
0.00000001
 43
0.00000001
 40
0.0
 40
0.0
 40
0.0
 40
0.0
 40
0.1831133368235279
 40
0.3502814036442133
 40
0.5004978082574818
 40
0.6329056232913408
 40
0.746955527452635
 40
0.8431886599531
 40
0.9248050501303878
 40
0.9625914229027277
 40
1.0
 40
1.0
 40
1.0
 40
1.0
 10
0.6684445996148275
 20
-0.4826365563609436
 30
0.0
 10
0.668106520100291
 20
-0.4826527541994959
 30
0.0
 10
0.667459800593403
 20
-0.4826837393899938
 30
0.0
 10
0.6666698472131772
 20
-0.4827752366087049
 30
0.0
 10
0.666045959948357
 20
-0.4829115332157324
 30
0.0
 10
0.6655689491459266
 20
-0.4831046443431483
 30
0.0
 10
0.665210577512562
 20
-0.4833639911328197
 30
0.0
 10
0.6649492401456033
 20
-0.483696992309706
 30
0.0
 10
0.6648027434050185
 20
-0.4840596526664463
 30
0.0
 10
0.6647408187455331
 20
-0.4843781716622129
 30
0.0
 10
0.6647349048637957
 20
-0.4845411224014563
 30
0.0
 10
0.6647319627792367
 20
-0.4846221884212172
 30
0.0
  0
SPLINE
  5
6F
330
1F
100
AcDbEntity
  8
0
  6
Continuous
 62
     7
370
    25
100
AcDbSpline
210
0.0
220
0.0
230
1.0
 70
     8
 71
     3
 72
    14
 73
    10
 74
     0
 42
0.00000001
 43
0.00000001
 40
0.0
 40
0.0
 40
0.0
 40
0.0
 40
0.25
 40
0.25
 40
0.5
 40
0.5
 40
0.75
 40
0.75
 40
1.0
 40
1.0
 40
1.0
 40
1.0
 10
0.712117266457001
 20
-0.4913994264724457
 30
0.0
 10
0.7119595066197755
 20
-0.4913982074092508
 30
0.0
 10
0.7118018032105542
 20
-0.4913449350904997
 30
0.0
 10
0.7115102793168719
 20
-0.4911423134872537
 30
0.0
 10
0.711376573534615
 20
-0.4909930439257078
 30
0.0
 10
0.7111534272918537
 20
-0.490621086147937
 30
0.0
 10
0.7110640746298674
 20
-0.4903985442812144
 30
0.0
 10
0.7109432780306687
 20
-0.4899138775287906
 30
0.0
 10
0.7109118816217599
 20
-0.48965194333876
 30
0.0
 10
0.7109118532375459
 20
-0.4893901485349998
 30
0.0
  0
SPLINE
  5
70
330
1F
100
AcDbEntity
  8
0
  6
Continuous
 62
     7
370
    25
100
AcDbSpline
210
0.0
220
0.0
230
1.0
 70
     8
 71
     3
 72
     8
 73
     4
 74
     0
 42
0.00000001
 43
0.00000001
 40
0.0
 40
0.0
 40
0.0
 40
0.0
 40
1.0
 40
1.0
 40
1.0
 40
1.0
 10
0.7153755001400001
 20
-0.489381325672109
 30
0.0
 10
0.713785552
 20
-0.4893811679751088
 30
0.0
 10
0.712181483806
 20
-0.4893843385831088
 30
0.0
 10
0.710911853237
 20
-0.489390148535109
 30
0.0
  0
SPLINE
  5
71
330
1F
100
AcDbEntity
  8
0
  6
Continuous
 62
     7
370
    25
100
AcDbSpline
210
0.0
220
0.0
230
1.0
 70
     8
 71
     3
 72
    11
 73
     7
 74
     0
 42
0.00000001
 43
0.00000001
 40
0.0
 40
0.0
 40
0.0
 40
0.0
 40
0.25
 40
0.5
 40
0.75
 40
1.0
 40
1.0
 40
1.0
 40
1.0
 10
0.715305585673
 20
-0.491393124427
 30
0.0
 10
0.7153147658393331
 20
-0.4913915753896666
 30
0.0
 10
0.7153331724761588
 20
-0.4912828156631118
 30
0.0
 10
0.7153564054440144
 20
-0.4908355212511004
 30
0.0
 10
0.715371880652909
 20
-0.4901689823583619
 30
0.0
 10
0.7153755285240002
 20
-0.4896431204756667
 30
0.0
 10
0.7153755001400001
 20
-0.489381325672
 30
0.0
  0
SPLINE
  5
74
330
1F
100
AcDbEntity
  8
0
  6
Continuous
 62
     7
370
    25
100
AcDbSpline
210
0.0
220
0.0
230
1.0
 70
     8
 71
     3
 72
     8
 73
     4
 74
     0
 42
0.00000001
 43
0.00000001
 40
0.0
 40
0.0
 40
0.0
 40
0.0
 40
1.0
 40
1.0
 40
1.0
 40
1.0
 10
0.71091049799
 20
-0.476890366978
 30
0.0
 10
0.7121801285589999
 20
-0.476884557026
 30
0.0
 10
0.713784196752
 20
-0.476881386418
 30
0.0
 10
0.715374144892
 20
-0.476881544115
 30
0.0
  0
SPLINE
  5
79
330
1F
100
AcDbEntity
  8
0
  6
Continuous
 62
     7
370
    25
100
AcDbSpline
210
0.0
220
0.0
230
1.0
 70
     8
 71
     3
 72
    11
 73
     7
 74
     0
 42
0.00000001
 43
0.00000001
 40
0.0
 40
0.0
 40
0.0
 40
0.0
 40
0.25
 40
0.5
 40
0.75
 40
1.0
 40
1.0
 40
1.0
 40
1.0
 10
0.7653447503892293
 20
-0.489386281801
 30
0.0
 10
0.7653447787735629
 20
-0.4896480766046667
 30
0.0
 10
0.7653411309026558
 20
-0.4901739384873595
 30
0.0
 10
0.7653256556937155
 20
-0.4908404773801328
 30
0.0
 10
0.7653024227258696
 20
-0.4912877717923595
 30
0.0
 10
0.7652840160888394
 20
-0.4913965315193333
 30
0.0
 10
0.7652748359221644
 20
-0.491398080557
 30
0.0
  0
SPLINE
  5
7B
330
1F
100
AcDbEntity
  8
0
  6
Continuous
 62
     7
370
    25
100
AcDbSpline
210
0.0
220
0.0
230
1.0
 70
     8
 71
     3
 72
    11
 73
     7
 74
     0
 42
0.00000001
 43
0.00000001
 40
0.0
 40
0.0
 40
0.0
 40
0.0
 40
0.25
 40
0.5
 40
0.75
 40
1.0
 40
1.0
 40
1.0
 40
1.0
 10
0.715374144891977
 20
-0.4768815441149998
 30
0.0
 10
0.7153741165076438
 20
-0.4766197493113334
 30
0.0
 10
0.7153703547425349
 20
-0.4760951377113748
 30
0.0
 10
0.7153547355681378
 20
-0.4754338456043126
 30
0.0
 10
0.7153314064595384
 20
-0.474994407956375
 30
0.0
 10
0.7153129769126493
 20
-0.4748918638716665
 30
0.0
 10
0.7153037967459838
 20
-0.474893412909
 30
0.0
  0
SPLINE
  5
7C
330
1F
100
AcDbEntity
  8
0
  6
Continuous
 62
     7
370
    25
100
AcDbSpline
210
0.0
220
0.0
230
1.0
 70
     8
 71
     3
 72
    14
 73
    10
 74
     0
 42
0.00000001
 43
0.00000001
 40
0.0
 40
0.0
 40
0.0
 40
0.0
 40
0.25
 40
0.25
 40
0.5
 40
0.5
 40
0.75
 40
0.75
 40
1.0
 40
1.0
 40
1.0
 40
1.0
 10
0.7109104979900354
 20
-0.476890366977998
 30
0.0
 10
0.7109104696057763
 20
-0.4766285721742339
 30
0.0
 10
0.7109418092685491
 20
-0.476367122766878
 30
0.0
 10
0.7110625009732902
 20
-0.4758843220756075
 30
0.0
 10
0.7111518055282267
 20
-0.4756631607531491
 30
0.0
 10
0.7113748714882487
 20
-0.4752946510068006
 30
0.0
 10
0.7115085451264044
 20
-0.4751474475757599
 30
0.0
 10
0.7118000255713842
 20
-0.4749493310426787
 30
0.0
 10
0.7119577176930998
 20
-0.4748984958910344
 30
0.0
 10
0.7121154775303274
 20
-0.4748997149542465
 30
0.0
  0
SPLINE
  5
80
330
1F
100
AcDbEntity
  8
0
  6
Continuous
 62
     7
370
    25
100
AcDbSpline
210
0.0
220
0.0
230
1.0
 70
     8
 71
     3
 72
     8
 73
     4
 74
     0
 42
0.00000001
 43
0.00000001
 40
0.0
 40
0.0
 40
0.0
 40
0.0
 40
1.0
 40
1.0
 40
1.0
 40
1.0
 10
0.670675401009
 20
-0.491589068452
 30
0.0
 10
0.6700237324219981
 20
-0.4915839737787369
 30
0.0
 10
0.6694785993249668
 20
-0.4906691586497146
 30
0.0
 10
0.6694763471997395
 20
-0.4895797618886412
 30
0.0
  0
LWPOLYLINE
  5
89
330
1F
100
AcDbEntity
  8
0
  6
Continuous
 62
     7
370
    25
100
AcDbPolyline
 90
       19
 70
   128
 43
0.0
 10
0.7678220056
 20
-0.4914521834
 10
0.7683826591
 20
-0.49144962
 10
0.7688785213
 20
-0.4914466235
 10
0.7692998105
 20
-0.491443253
 10
0.7696382163
 20
-0.4914395752
 10
0.769887063
 20
-0.4914356624
 10
0.7700414417
 20
-0.4914315919
 10
0.7700983071
 20
-0.491427444
 10
0.7700565374
 20
-0.4914233004
 10
0.7699169567
 20
-0.4914192431
 10
0.7696823182
 20
-0.4914153519
 10
0.7693572508
 20
-0.4914117036
 10
0.7689481667
 20
-0.4914083703
 10
0.7684631358
 20
-0.4914054176
 10
0.7679117261
 20
-0.4914029038
 10
0.767304815
 20
-0.4914008786
 10
0.7666543747
 20
-0.4913993818
 10
0.7659732362
 20
-0.4913984429
 10
0.7652748359
 20
-0.4913980806
  0
LWPOLYLINE
  5
8C
330
1F
100
AcDbEntity
  8
0
  6
Continuous
 62
     7
370
    25
100
AcDbPolyline
 90
       13
 70
   128
 43
0.0
 10
0.6738861218
 20
-0.4917676714
 10
0.673903348
 20
-0.4917562087
 10
0.6738191749
 20
-0.4917447674
 10
0.6736338333
 20
-0.4917333789
 10
0.6733478311
 20
-0.4917220742
 10
0.6729619522
 20
-0.4917108845
 10
0.6724772544
 20
-0.4916998404
 10
0.6718950661
 20
-0.4916889722
 10
0.6712169831
 20
-0.4916783096
 10
0.6704448639
 20
-0.4916678819
 10
0.669580825
 20
-0.4916577176
 10
0.6686272345
 20
-0.4916478447
 10
0.6675867062
 20
-0.4916382902
  0
LWPOLYLINE
  5
8D
330
1F
100
AcDbEntity
  8
0
  6
Continuous
 62
     7
370
    25
100
AcDbPolyline
 90
       12
 70
   128
 43
0.0
 10
0.6675867062
 20
-0.4916382902
 10
0.6672433482
 20
-0.4916348172
 10
0.6669843579
 20
-0.4916310903
 10
0.6668146027
 20
-0.4916271794
 10
0.6667372732
 20
-0.491623158
 10
0.6667538228
 20
-0.4916191017
 10
0.6668639404
 20
-0.4916150868
 10
0.6670655564
 20
-0.4916111886
 10
0.6673548816
 20
-0.4916074806
 10
0.667726478
 20
-0.4916040323
 10
0.6681733617
 20
-0.4916009086
 10
0.6686871338
 20
-0.4915981682
  0
LWPOLYLINE
  5
92
330
1F
100
AcDbEntity
  8
0
  6
Continuous
 62
     7
370
    25
100
AcDbPolyline
 90
       22
 70
   128
 43
0.0
 10
0.7338579463
 20
-0.4914541682
 10
0.7346970661
 20
-0.4914545531
 10
0.7355204344
 20
-0.4914555331
 10
0.7363161127
 20
-0.4914570938
 10
0.7370725641
 20
-0.4914592127
 10
0.7377788202
 20
-0.4914618591
 10
0.7384246407
 20
-0.4914649946
 10
0.7390006613
 20
-0.4914685736
 10
0.7394985301
 20
-0.4914725444
 10
0.7399110281
 20
-0.4914768493
 10
0.7402321743
 20
-0.491481426
 10
0.7404573121
 20
-0.491486208
 10
0.7405831772
 20
-0.491491126
 10
0.7406079446
 20
-0.4914961088
 10
0.7405312552
 20
-0.491501084
 10
0.7403542208
 20
-0.4915059796
 10
0.7400794085
 20
-0.4915107245
 10
0.7397108029
 20
-0.4915152499
 10
0.7392537487
 20
-0.4915194903
 10
0.738714873
 20
-0.4915233842
 10
0.7381019891
 20
-0.491526875
 10
0.7374239838
 20
-0.4915299122
  0
SPLINE
  5
97
330
1F
100
AcDbEntity
  8
0
  6
Continuous
 62
     7
370
    25
100
AcDbSpline
210
0.0
220
0.0
230
1.0
 70
     8
 71
     3
 72
    30
 73
    26
 74
     0
 42
0.00000001
 43
0.00000001
 40
0.0
 40
0.0
 40
0.0
 40
0.0
 40
0.0156523730950295
 40
0.0312729142263688
 40
0.0468994083219759
 40
0.0625695972474126
 40
0.0938212614506296
 40
0.1251204705653594
 40
0.1563721347689512
 40
0.1876713438833245
 40
0.2501465069654624
 40
0.3126216700475946
 40
0.3750968331297348
 40
0.4375719962118703
 40
0.5000471592940064
 40
0.5625223223761422
 40
0.624997485458282
 40
0.6874726485404142
 40
0.7499478116225456
 40
0.8124229747046896
 40
0.8748981377868223
 40
0.9061498019922005
 40
0.9374490111047722
 40
0.9687126282231778
 40
1.0
 40
1.0
 40
1.0
 40
1.0
 10
0.7652292505729998
 20
-0.4914057725100245
 30
0.0
 10
0.7652897638931031
 20
-0.4914057835566956
 30
0.0
 10
0.7654106674684049
 20
-0.4914058056275722
 30
0.0
 10
0.765591152043302
 20
-0.4914059054679226
 30
0.0
 10
0.7657705422533909
 20
-0.4914060542230259
 30
0.0
 10
0.7660075150691485
 20
-0.4914063230871277
 30
0.0
 10
0.766298942045585
 20
-0.4914067874516653
 30
0.0
 10
0.7666367204544003
 20
-0.491407546738673
 30
0.0
 10
0.766960000708441
 20
-0.4914084990290318
 30
0.0
 10
0.7673665375348936
 20
-0.4914100143030875
 30
0.0
 10
0.76782349221865
 20
-0.4914123459858972
 30
0.0
 10
0.7682664238217415
 20
-0.491415730577119
 30
0.0
 10
0.7685877909110094
 20
-0.4914195740837232
 30
0.0
 10
0.7687750679226742
 20
-0.4914237284492857
 30
0.0
 10
0.7688211045952736
 20
-0.4914280341157168
 30
0.0
 10
0.7687241200921334
 20
-0.4914323255922801
 30
0.0
 10
0.768487841348188
 20
-0.4914364379616099
 30
0.0
 10
0.7681213608679256
 20
-0.4914402131953624
 30
0.0
 10
0.7676387132969797
 20
-0.4914435061694386
 30
0.0
 10
0.7670586310654732
 20
-0.4914461904943651
 30
0.0
 10
0.7665119880046635
 20
-0.4914478339114929
 30
0.0
 10
0.7660504021656945
 20
-0.4914487560442337
 30
0.0
 10
0.7656947472845943
 20
-0.4914492401502599
 30
0.0
 10
0.7653332059482937
 20
-0.4914495330776569
 30
0.0
 10
0.7650909424764704
 20
-0.4914495493420014
 30
0.0
 10
0.7649697647389996
 20
-0.4914495574772616
 30
0.0
  0
SPLINE
  5
98
330
1F
100
AcDbEntity
  8
0
  6
Continuous
 62
     7
370
    25
100
AcDbSpline
210
0.0
220
0.0
230
1.0
 70
     8
 71
     3
 72
    30
 73
    26
 74
     0
 42
0.00000001
 43
0.00000001
 40
0.0
 40
0.0
 40
0.0
 40
0.0
 40
0.0156523730936329
 40
0.0312729142245044
 40
0.0468994083205772
 40
0.0625695972473907
 40
0.0938212614516513
 40
0.1251204705653721
 40
0.15637213477265
 40
0.1876713438833256
 40
0.2501465069654614
 40
0.3126216700475935
 40
0.3750968331297345
 40
0.4375719962118703
 40
0.5000471592940079
 40
0.5625223223761415
 40
0.6249974854582839
 40
0.6874726485404159
 40
0.7499478116225468
 40
0.8124229747046919
 40
0.8748981377868243
 40
0.9061498019898501
 40
0.9374490111047453
 40
0.9687126282203677
 40
0.9999999999999999
 40
0.9999999999999999
 40
0.9999999999999999
 40
0.9999999999999999
 10
0.7649697647390001
 20
-0.4914495574772615
 30
0.0
 10
0.764909251418902
 20
-0.4914495464305904
 30
0.0
 10
0.7647883478436077
 20
-0.491449524359714
 30
0.0
 10
0.764607863268716
 20
-0.4914494245193635
 30
0.0
 10
0.7644284730586215
 20
-0.4914492757642598
 30
0.0
 10
0.7641915002428529
 20
-0.4914490069001586
 30
0.0
 10
0.7639000732664081
 20
-0.4914485425356206
 30
0.0
 10
0.7635622948575835
 20
-0.4914477832486132
 30
0.0
 10
0.7632390146035487
 20
-0.4914468309582541
 30
0.0
 10
0.7628324777770946
 20
-0.4914453156841985
 30
0.0
 10
0.7623755230933507
 20
-0.491442984001389
 30
0.0
 10
0.7619325914902583
 20
-0.491439599410167
 30
0.0
 10
0.7616112244009907
 20
-0.491435755903563
 30
0.0
 10
0.7614239473893256
 20
-0.4914316015380004
 30
0.0
 10
0.7613779107167264
 20
-0.4914272958715692
 30
0.0
 10
0.7614748952198663
 20
-0.4914230043950059
 30
0.0
 10
0.7617111739638123
 20
-0.4914188920256762
 30
0.0
 10
0.7620776544440742
 20
-0.4914151167919235
 30
0.0
 10
0.7625603020150203
 20
-0.4914118238178476
 30
0.0
 10
0.7631403842465271
 20
-0.491409139492921
 30
0.0
 10
0.7636870273073276
 20
-0.4914074960757934
 30
0.0
 10
0.7641486131462982
 20
-0.4914065739430524
 30
0.0
 10
0.764504268027386
 20
-0.4914060898370262
 30
0.0
 10
0.7648658093636951
 20
-0.4914057969096288
 30
0.0
 10
0.7651080728355187
 20
-0.491405780645285
 30
0.0
 10
0.7652292505730004
 20
-0.4914057725100245
 30
0.0
  0
SPLINE
  5
99
330
1F
100
AcDbEntity
  8
0
  6
Continuous
 62
     7
370
    25
100
AcDbSpline
210
0.0
220
0.0
230
1.0
 70
     8
 71
     3
 72
    30
 73
    26
 74
     0
 42
0.00000001
 43
0.00000001
 40
0.0
 40
0.0
 40
0.0
 40
0.0
 40
0.0156523730951537
 40
0.0312729142265498
 40
0.0468994083221094
 40
0.0625695972474233
 40
0.0938212614518464
 40
0.1251204705653664
 40
0.1563721347701446
 40
0.187671343883325
 40
0.250146506965456
 40
0.3126216700475857
 40
0.3750968331297274
 40
0.4375719962118623
 40
0.5000471592939967
 40
0.562522322376133
 40
0.6249974854582688
 40
0.68747264854041
 40
0.7499478116225291
 40
0.8124229747046767
 40
0.8748981377868092
 40
0.9061498019909675
 40
0.9374490111047741
 40
0.9687126282232545
 40
0.9999999999999999
 40
0.9999999999999999
 40
0.9999999999999999
 40
0.9999999999999999
 10
0.6790127897879998
 20
-0.4917462745317653
 30
0.0
 10
0.6790733031081037
 20
-0.4917462855784362
 30
0.0
 10
0.6791942066834062
 20
-0.4917463076493128
 30
0.0
 10
0.6793746912583036
 20
-0.4917464074896633
 30
0.0
 10
0.6795540814683926
 20
-0.4917465562447671
 30
0.0
 10
0.6797910542841534
 20
-0.4917468251088681
 30
0.0
 10
0.6800824812605902
 20
-0.4917472894734062
 30
0.0
 10
0.6804202596694089
 20
-0.4917480487604137
 30
0.0
 10
0.6807435399234437
 20
-0.4917490010507725
 30
0.0
 10
0.6811500767498978
 20
-0.4917505163248286
 30
0.0
 10
0.6816070314336496
 20
-0.4917528480076379
 30
0.0
 10
0.6820499630367418
 20
-0.4917562325988598
 30
0.0
 10
0.682371330126009
 20
-0.491760076105464
 30
0.0
 10
0.6825586071376745
 20
-0.4917642304710264
 30
0.0
 10
0.6826046438102734
 20
-0.4917685361374575
 30
0.0
 10
0.6825076593071339
 20
-0.491772827614021
 30
0.0
 10
0.6822713805631877
 20
-0.4917769399833506
 30
0.0
 10
0.6819049000829258
 20
-0.4917807152171034
 30
0.0
 10
0.6814222525119795
 20
-0.4917840081911791
 30
0.0
 10
0.6808421702804737
 20
-0.4917866925161063
 30
0.0
 10
0.6802955272196671
 20
-0.4917883359332335
 30
0.0
 10
0.6798339413806999
 20
-0.4917892580659745
 30
0.0
 10
0.6794782864995987
 20
-0.4917897421720008
 30
0.0
 10
0.6791167451632932
 20
-0.4917900350993977
 30
0.0
 10
0.6788744816914699
 20
-0.4917900513637419
 30
0.0
 10
0.6787533039539996
 20
-0.4917900594990024
 30
0.0
  0
SPLINE
  5
9A
330
1F
100
AcDbEntity
  8
0
  6
Continuous
 62
     7
370
    25
100
AcDbSpline
210
0.0
220
0.0
230
1.0
 70
     8
 71
     3
 72
    30
 73
    26
 74
     0
 42
0.00000001
 43
0.00000001
 40
0.0
 40
0.0
 40
0.0
 40
0.0
 40
0.0156523730946279
 40
0.0312729142258336
 40
0.0468994083215741
 40
0.0625695972473976
 40
0.0938212614535004
 40
0.1251204705653712
 40
0.1563721347725161
 40
0.1876713438833076
 40
0.2501465069654551
 40
0.3126216700475872
 40
0.3750968331297208
 40
0.4375719962118608
 40
0.5000471592939977
 40
0.5625223223761343
 40
0.6249974854582738
 40
0.6874726485404093
 40
0.7499478116225416
 40
0.8124229747046777
 40
0.8748981377868282
 40
0.9061498019899059
 40
0.9374490111047498
 40
0.9687126282208932
 40
1.0
 40
1.0
 40
1.0
 40
1.0
 10
0.678753303954
 20
-0.4917900594990023
 30
0.0
 10
0.6786927906338981
 20
-0.4917900484523313
 30
0.0
 10
0.6785718870585986
 20
-0.4917900263814547
 30
0.0
 10
0.6783914024837031
 20
-0.4917899265411044
 30
0.0
 10
0.6782120122736125
 20
-0.4917897777860006
 30
0.0
 10
0.6779750394578422
 20
-0.4917895089218994
 30
0.0
 10
0.677683612481402
 20
-0.4917890445573613
 30
0.0
 10
0.6773458340725769
 20
-0.4917882852703539
 30
0.0
 10
0.6770225538185503
 20
-0.4917873329799949
 30
0.0
 10
0.6766160169920942
 20
-0.4917858177059393
 30
0.0
 10
0.6761590623083509
 20
-0.4917834860231297
 30
0.0
 10
0.6757161307052582
 20
-0.4917801014319078
 30
0.0
 10
0.6753947636159909
 20
-0.4917762579253038
 30
0.0
 10
0.6752074866043255
 20
-0.491772103559741
 30
0.0
 10
0.6751614499317263
 20
-0.4917677978933099
 30
0.0
 10
0.6752584344348663
 20
-0.4917635064167467
 30
0.0
 10
0.6754947131788123
 20
-0.491759394047417
 30
0.0
 10
0.6758611936590739
 20
-0.4917556188136642
 30
0.0
 10
0.6763438412300204
 20
-0.4917523258395885
 30
0.0
 10
0.6769239234615264
 20
-0.4917496415146616
 30
0.0
 10
0.6774705665223283
 20
-0.491747998097534
 30
0.0
 10
0.6779321523612978
 20
-0.4917470759647931
 30
0.0
 10
0.6782878072423885
 20
-0.4917465918587671
 30
0.0
 10
0.6786493485786973
 20
-0.4917462989313698
 30
0.0
 10
0.6788916120505206
 20
-0.4917462826670256
 30
0.0
 10
0.6790127897880004
 20
-0.4917462745317653
 30
0.0
  0
SPLINE
  5
9B
330
1F
100
AcDbEntity
  8
0
  6
Continuous
 62
     7
370
    25
100
AcDbSpline
210
0.0
220
0.0
230
1.0
 70
     8
 71
     3
 72
    30
 73
    26
 74
     0
 42
0.00000001
 43
0.00000001
 40
0.0
 40
0.0
 40
0.0
 40
0.0
 40
0.0156523730953437
 40
0.0312729142267866
 40
0.0468994083223011
 40
0.0625695972474364
 40
0.0938212614509624
 40
0.1251204705654084
 40
0.1563721347655508
 40
0.1876713438833552
 40
0.250146506965486
 40
0.3126216700476096
 40
0.3750968331297397
 40
0.4375719962118668
 40
0.5000471592939936
 40
0.5625223223761205
 40
0.6249974854582495
 40
0.6874726485403739
 40
0.7499478116225056
 40
0.8124229747046348
 40
0.8748981377867606
 40
0.9061498019894462
 40
0.937449011104749
 40
0.9687126282227098
 40
0.9999999999999999
 40
0.9999999999999999
 40
0.9999999999999999
 40
0.9999999999999999
 10
0.7152600003230011
 20
-0.4914008163807089
 30
0.0
 10
0.7153205136431169
 20
-0.4914008274273798
 30
0.0
 10
0.7154414172184425
 20
-0.4914008494982561
 30
0.0
 10
0.715621901793377
 20
-0.4914009493386064
 30
0.0
 10
0.7158012920035031
 20
-0.4914010980937098
 30
0.0
 10
0.7160382648193123
 20
-0.4914013669578109
 30
0.0
 10
0.7163296917958168
 20
-0.4914018313223483
 30
0.0
 10
0.7166674702047077
 20
-0.4914025906093556
 30
0.0
 10
0.7169907504588319
 20
-0.4914035428997143
 30
0.0
 10
0.7173972872854083
 20
-0.4914050581737698
 30
0.0
 10
0.7178542419693125
 20
-0.4914073898565796
 30
0.0
 10
0.7182971735725505
 20
-0.4914107744478016
 30
0.0
 10
0.7186185406619289
 20
-0.4914146179544062
 30
0.0
 10
0.7188058176736627
 20
-0.4914187723199696
 30
0.0
 10
0.7188518543462816
 20
-0.4914230779864012
 30
0.0
 10
0.7187548698431129
 20
-0.4914273694629654
 30
0.0
 10
0.7185185910990911
 20
-0.4914314818322957
 30
0.0
 10
0.7181521106187121
 20
-0.4914352570660487
 30
0.0
 10
0.7176694630476176
 20
-0.4914385500401252
 30
0.0
 10
0.7170893808159432
 20
-0.4914412343650517
 30
0.0
 10
0.7165427377549973
 20
-0.4914428777821791
 30
0.0
 10
0.71608115191592
 20
-0.4914437999149195
 30
0.0
 10
0.7157254970347423
 20
-0.4914442840209454
 30
0.0
 10
0.7153639556983584
 20
-0.4914445769483418
 30
0.0
 10
0.715121692226494
 20
-0.4914445932126857
 30
0.0
 10
0.7150005144890008
 20
-0.4914446013479459
 30
0.0
  0
SPLINE
  5
9C
330
1F
100
AcDbEntity
  8
0
  6
Continuous
 62
     7
370
    25
100
AcDbSpline
210
0.0
220
0.0
230
1.0
 70
     8
 71
     3
 72
    30
 73
    26
 74
     0
 42
0.00000001
 43
0.00000001
 40
0.0
 40
0.0
 40
0.0
 40
0.0
 40
0.0156523730943979
 40
0.0312729142255268
 40
0.0468994083213617
 40
0.0625695972474011
 40
0.093821261454694
 40
0.1251204705653922
 40
0.1563721347746224
 40
0.1876713438833252
 40
0.2501465069654539
 40
0.3126216700475916
 40
0.3750968331297305
 40
0.4375719962118673
 40
0.5000471592940009
 40
0.5625223223761366
 40
0.6249974854582674
 40
0.6874726485404071
 40
0.7499478116225373
 40
0.8124229747046788
 40
0.8748981377868107
 40
0.9061498019919823
 40
0.937449011104766
 40
0.9687126282233791
 40
1.0
 40
1.0
 40
1.0
 40
1.0
 10
0.7150005144890001
 20
-0.491444601347946
 30
0.0
 10
0.7149400011688992
 20
-0.4914445903012751
 30
0.0
 10
0.7148190975936008
 20
-0.4914445682303986
 30
0.0
 10
0.7146386130187065
 20
-0.4914444683900484
 30
0.0
 10
0.7144592228086145
 20
-0.4914443196349444
 30
0.0
 10
0.7142222499928386
 20
-0.4914440507708431
 30
0.0
 10
0.7139308230163964
 20
-0.4914435864063053
 30
0.0
 10
0.7135930446075657
 20
-0.4914428271192976
 30
0.0
 10
0.7132697643535438
 20
-0.4914418748289388
 30
0.0
 10
0.7128632275270876
 20
-0.4914403595548829
 30
0.0
 10
0.712406272843351
 20
-0.4914380278720735
 30
0.0
 10
0.7119633412402581
 20
-0.4914346432808517
 30
0.0
 10
0.7116419741509907
 20
-0.4914307997742474
 30
0.0
 10
0.7114546971393253
 20
-0.491426645408685
 30
0.0
 10
0.7114086604667264
 20
-0.4914223397422537
 30
0.0
 10
0.7115056449698663
 20
-0.4914180482656906
 30
0.0
 10
0.7117419237138122
 20
-0.4914139358963606
 30
0.0
 10
0.7121084041940741
 20
-0.4914101606626082
 30
0.0
 10
0.7125910517650207
 20
-0.4914068676885323
 30
0.0
 10
0.7131711339965264
 20
-0.4914041833636054
 30
0.0
 10
0.7137177770573361
 20
-0.4914025399464778
 30
0.0
 10
0.7141793628963043
 20
-0.4914016178137369
 30
0.0
 10
0.7145350177774057
 20
-0.4914011337077106
 30
0.0
 10
0.7148965591137072
 20
-0.4914008407803137
 30
0.0
 10
0.7151388225855306
 20
-0.4914008245159694
 30
0.0
 10
0.7152600003230005
 20
-0.491400816380709
 30
0.0
  0
SPLINE
  5
9D
330
1F
100
AcDbEntity
  8
0
  6
Continuous
 62
     7
370
    25
100
AcDbSpline
210
0.0
220
0.0
230
1.0
 70
     8
 71
     3
 72
    30
 73
    26
 74
     0
 42
0.00000001
 43
0.00000001
 40
0.0
 40
0.0
 40
0.0
 40
0.0
 40
0.0156523730954389
 40
0.0312729142269097
 40
0.0468994083223953
 40
0.0625695972474544
 40
0.0938212614542045
 40
0.1251204705654243
 40
0.1563721347729958
 40
0.1876713438833897
 40
0.2501465069655167
 40
0.3126216700476449
 40
0.3750968331297778
 40
0.4375719962119076
 40
0.5000471592940338
 40
0.56252232237616
 40
0.6249974854582936
 40
0.6874726485404113
 40
0.7499478116225325
 40
0.8124229747046705
 40
0.8748981377868013
 40
0.9061498019915388
 40
0.9374490111047523
 40
0.9687126282219648
 40
0.9999999999999999
 40
0.9999999999999999
 40
0.9999999999999999
 40
0.9999999999999999
 10
0.6718621017040007
 20
-0.4915994093551024
 30
0.0
 10
0.6719226150241168
 20
-0.4915994204017732
 30
0.0
 10
0.6720435185994428
 20
-0.4915994424726494
 30
0.0
 10
0.6722240031743782
 20
-0.4915995423130002
 30
0.0
 10
0.6724033933845035
 20
-0.4915996910681031
 30
0.0
 10
0.6726403662003247
 20
-0.4915999599322045
 30
0.0
 10
0.6729317931768307
 20
-0.4916004242967419
 30
0.0
 10
0.673269571585744
 20
-0.491601183583749
 30
0.0
 10
0.6735928518398581
 20
-0.4916021358741078
 30
0.0
 10
0.6739993886664285
 20
-0.4916036511481636
 30
0.0
 10
0.6744563433503123
 20
-0.491605982830973
 30
0.0
 10
0.6748992749535501
 20
-0.491609367422195
 30
0.0
 10
0.6752206420429289
 20
-0.4916132109287997
 30
0.0
 10
0.6754079190546627
 20
-0.491617365294363
 30
0.0
 10
0.6754539557272815
 20
-0.4916216709607946
 30
0.0
 10
0.675356971224113
 20
-0.4916259624373588
 30
0.0
 10
0.6751206924800905
 20
-0.4916300748066892
 30
0.0
 10
0.6747542119997123
 20
-0.4916338500404425
 30
0.0
 10
0.6742715644286179
 20
-0.4916371430145184
 30
0.0
 10
0.6736914821969429
 20
-0.4916398273394452
 30
0.0
 10
0.6731448391359915
 20
-0.4916414707565726
 30
0.0
 10
0.6726832532969106
 20
-0.4916423928893129
 30
0.0
 10
0.6723275984157376
 20
-0.4916428769953389
 30
0.0
 10
0.6719660570793616
 20
-0.4916431699227354
 30
0.0
 10
0.671723793607497
 20
-0.4916431861870792
 30
0.0
 10
0.671602615870001
 20
-0.4916431943223394
 30
0.0
  0
SPLINE
  5
9E
330
1F
100
AcDbEntity
  8
0
  6
Continuous
 62
     7
370
    25
100
AcDbSpline
210
0.0
220
0.0
230
1.0
 70
     8
 71
     3
 72
    30
 73
    26
 74
     0
 42
0.00000001
 43
0.00000001
 40
0.0
 40
0.0
 40
0.0
 40
0.0
 40
0.0156523730951721
 40
0.031272914226558
 40
0.0468994083221262
 40
0.0625695972474205
 40
0.0938212614547662
 40
0.1251204705653965
 40
0.1563721347730624
 40
0.1876713438833226
 40
0.2501465069654665
 40
0.3126216700476019
 40
0.3750968331297314
 40
0.4375719962118684
 40
0.5000471592940071
 40
0.5625223223761436
 40
0.6249974854582712
 40
0.6874726485404162
 40
0.7499478116225516
 40
0.8124229747046848
 40
0.8748981377868321
 40
0.9061498019919836
 40
0.9374490111047754
 40
0.9687126282231983
 40
0.9999999999999999
 40
0.9999999999999999
 40
0.9999999999999999
 40
0.9999999999999999
 10
0.6716026158700007
 20
-0.4916431943223394
 30
0.0
 10
0.6715421025498968
 20
-0.4916431832756685
 30
0.0
 10
0.6714211989745943
 20
-0.491643161204792
 30
0.0
 10
0.6712407143996968
 20
-0.4916430613644414
 30
0.0
 10
0.6710613241896078
 20
-0.4916429126093381
 30
0.0
 10
0.6708243513738363
 20
-0.4916426437452365
 30
0.0
 10
0.6705329243973973
 20
-0.4916421793806984
 30
0.0
 10
0.6701951459885712
 20
-0.4916414200936912
 30
0.0
 10
0.6698718657345492
 20
-0.491640467803332
 30
0.0
 10
0.6694653289080928
 20
-0.4916389525292764
 30
0.0
 10
0.6690083742243512
 20
-0.4916366208464669
 30
0.0
 10
0.6685654426212582
 20
-0.4916332362552452
 30
0.0
 10
0.6682440755319913
 20
-0.4916293927486409
 30
0.0
 10
0.6680567985203254
 20
-0.4916252383830781
 30
0.0
 10
0.6680107618477266
 20
-0.4916209327166473
 30
0.0
 10
0.6681077463508662
 20
-0.4916166412400839
 30
0.0
 10
0.6683440250948122
 20
-0.4916125288707543
 30
0.0
 10
0.6687105055750742
 20
-0.4916087536370017
 30
0.0
 10
0.6691931531460202
 20
-0.4916054606629255
 30
0.0
 10
0.6697732353775265
 20
-0.4916027763379989
 30
0.0
 10
0.6703198784383361
 20
-0.4916011329208714
 30
0.0
 10
0.6707814642773047
 20
-0.4916002107881303
 30
0.0
 10
0.6711371191584048
 20
-0.4915997266821042
 30
0.0
 10
0.6714986604947065
 20
-0.491599433754707
 30
0.0
 10
0.6717409239665298
 20
-0.491599417490363
 30
0.0
 10
0.6718621017040004
 20
-0.4915994093551025
 30
0.0
  0
SPLINE
  5
9F
330
1F
100
AcDbEntity
  8
0
  6
Continuous
 62
     7
370
    25
100
AcDbSpline
210
0.0
220
0.0
230
1.0
 70
     8
 71
     3
 72
    12
 73
     8
 74
     0
 42
0.00000001
 43
0.00000001
 40
0.0
 40
0.0
 40
0.0
 40
0.0
 40
0.1786158320783547
 40
0.4445691352620053
 40
0.7105224384456208
 40
0.9764757416292538
 40
1.0
 40
1.0
 40
1.0
 40
1.0
 10
0.7652805278487889
 20
-0.4749395163498057
 30
0.0
 10
0.7654559506259165
 20
-0.4749393992166076
 30
0.0
 10
0.7658925723487813
 20
-0.4749391076757966
 30
0.0
 10
0.7665015402247102
 20
-0.4749366355304941
 30
0.0
 10
0.7669449545395595
 20
-0.4749328147203975
 30
0.0
 10
0.7671389767511437
 20
-0.4749295304125687
 30
0.0
 10
0.7670894311171603
 20
-0.474927883644783
 30
0.0
 10
0.767085404814435
 20
-0.4749277498209707
 30
0.0
  0
SPLINE
  5
A1
330
1F
100
AcDbEntity
  8
0
  6
Continuous
 62
     7
370
    25
100
AcDbSpline
210
0.0
220
0.0
230
1.0
 70
     8
 71
     3
 72
     8
 73
     4
 74
     0
 42
0.00000001
 43
0.00000001
 40
0.0
 40
0.0
 40
0.0
 40
0.0
 40
1.0
 40
1.0
 40
1.0
 40
1.0
 10
0.6694758051951191
 20
-0.484579855707635
 30
0.0
 10
0.6694692693028329
 20
-0.4834904786056128
 30
0.0
 10
0.670017333530877
 20
-0.4825841625466424
 30
0.0
 10
0.6706744249280756
 20
-0.48258923231113
 30
0.0
  0
SPLINE
  5
A4
330
1F
100
AcDbEntity
  8
0
  6
Continuous
 62
     7
370
    25
100
AcDbSpline
210
0.0
220
0.0
230
1.0
 70
     8
 71
     3
 72
    11
 73
     7
 74
     0
 42
0.00000001
 43
0.00000001
 40
0.0
 40
0.0
 40
0.0
 40
0.0
 40
0.25
 40
0.5
 40
0.75
 40
1.0
 40
1.0
 40
1.0
 40
1.0
 10
0.668687126488761
 20
-0.4915981682039224
 30
0.0
 10
0.6685276784986067
 20
-0.4915969569296986
 30
0.0
 10
0.668207767864498
 20
-0.4914888748545902
 30
0.0
 10
0.6678033573286989
 20
-0.49104243701529
 30
0.0
 10
0.6675332501063068
 20
-0.4903764701461026
 30
0.0
 10
0.6674688451131985
 20
-0.4898507445734915
 30
0.0
 10
0.6674688167288652
 20
-0.4895889497694914
 30
0.0
  0
SPLINE
  5
A9
330
1F
100
AcDbEntity
  8
0
  6
Continuous
 62
     7
370
    25
100
AcDbSpline
210
0.0
220
0.0
230
1.0
 70
     8
 71
     3
 72
    11
 73
     7
 74
     0
 42
0.00000001
 43
0.00000001
 40
0.0
 40
0.0
 40
0.0
 40
0.0
 40
0.1411823371955238
 40
0.4274548914637056
 40
0.7137274457318731
 40
1.0
 40
1.0
 40
1.0
 40
1.0
 10
0.7652866575882947
 20
-0.4749732320642973
 30
0.0
 10
0.7652911528949013
 20
-0.4749905949194211
 30
0.0
 10
0.7653047632433044
 20
-0.4750431640828155
 30
0.0
 10
0.7653237858484147
 20
-0.4754486630431399
 30
0.0
 10
0.7653401653523915
 20
-0.4760992805381906
 30
0.0
 10
0.7653423185455354
 20
-0.4766240936753969
 30
0.0
 10
0.765343395142107
 20
-0.476886500244
 30
0.0
  0
SPLINE
  5
AA
330
1F
100
AcDbEntity
  8
0
  6
Continuous
 62
     7
370
    25
100
AcDbSpline
210
0.0
220
0.0
230
1.0
 70
     8
 71
     3
 72
    11
 73
     7
 74
     0
 42
0.00000001
 43
0.00000001
 40
0.0
 40
0.0
 40
0.0
 40
0.0
 40
0.2863400180666545
 40
0.572680036133342
 40
0.8590200542000007
 40
1.0
 40
1.0
 40
1.0
 40
1.0
 10
0.697613078515675
 20
-0.476951217252999
 30
0.0
 10
0.6976310617221522
 20
-0.47668877186214
 30
0.0
 10
0.697667028135107
 20
-0.476163881080422
 30
0.0
 10
0.6979472228271418
 20
-0.4755126946036254
 30
0.0
 10
0.6982731990952589
 20
-0.4751065931990816
 30
0.0
 10
0.6985068494303295
 20
-0.4750535420070173
 30
0.0
 10
0.6985839345523919
 20
-0.4750360395385761
 30
0.0
  0
SPLINE
  5
AB
330
1F
100
AcDbEntity
  8
0
  6
Continuous
 62
     7
370
    25
100
AcDbSpline
210
0.0
220
0.0
230
1.0
 70
     8
 71
     3
 72
    17
 73
    13
 74
     0
 42
0.00000001
 43
0.00000001
 40
0.0
 40
0.0
 40
0.0
 40
0.0
 40
0.0730698711648548
 40
0.1760621077020895
 40
0.2790543442393281
 40
0.3820465807765648
 40
0.4850388173137976
 40
0.5880310538510393
 40
0.6910232903882686
 40
0.7940155269255069
 40
0.8970077634627459
 40
1.0
 40
1.0
 40
1.0
 40
1.0
 10
0.7720812564917792
 20
-0.4894269465501155
 30
0.0
 10
0.7720799306786374
 20
-0.4894253964942125
 30
0.0
 10
0.7720767361272801
 20
-0.4894216616291444
 30
0.0
 10
0.7718692801587057
 20
-0.4894158584962271
 30
0.0
 10
0.7714939874273044
 20
-0.4894097244934308
 30
0.0
 10
0.7709527684667546
 20
-0.4894040404963605
 30
0.0
 10
0.7702670970565159
 20
-0.4893989464920506
 30
0.0
 10
0.7694519481935533
 20
-0.4893945718512354
 30
0.0
 10
0.7685282841819056
 20
-0.4893910189288785
 30
0.0
 10
0.7675188624364402
 20
-0.4893884016769696
 30
0.0
 10
0.7664494827979552
 20
-0.4893866912965746
 30
0.0
 10
0.7657129945253185
 20
-0.4893864182994301
 30
0.0
 10
0.7653447503890002
 20
-0.489386281800858
 30
0.0
  0
SPLINE
  5
AC
330
1F
100
AcDbEntity
  8
0
  6
Continuous
 62
     7
370
    25
100
AcDbSpline
210
0.0
220
0.0
230
1.0
 70
     8
 71
     3
 72
    17
 73
    13
 74
     0
 42
0.00000001
 43
0.00000001
 40
0.0
 40
0.0
 40
0.0
 40
0.0
 40
0.1029922365412521
 40
0.2059844730825415
 40
0.3089767096238432
 40
0.41196894616514
 40
0.5149611827064309
 40
0.6179534192477252
 40
0.7209456557890224
 40
0.8239378923303182
 40
0.9269301288716123
 40
1.0
 40
1.0
 40
1.0
 40
1.0
 10
0.765343395142
 20
-0.476886500243893
 30
0.0
 10
0.7657116392783134
 20
-0.4768866367424653
 30
0.0
 10
0.7664481275509406
 20
-0.4768869097396098
 30
0.0
 10
0.7675175071893962
 20
-0.4768886201200054
 30
0.0
 10
0.7685269289348229
 20
-0.4768912373719147
 30
0.0
 10
0.7694505929464225
 20
-0.4768947902942719
 30
0.0
 10
0.7702657418093292
 20
-0.4768991649350873
 30
0.0
 10
0.7709514132195062
 20
-0.4769042589393978
 30
0.0
 10
0.7714926321799905
 20
-0.4769099429364678
 30
0.0
 10
0.7718679249113203
 20
-0.4769160769392647
 30
0.0
 10
0.7720753808798154
 20
-0.476921880072181
 30
0.0
 10
0.7720785754311391
 20
-0.4769256149372482
 30
0.0
 10
0.7720799012442662
 20
-0.4769271649931504
 30
0.0
  0
LWPOLYLINE
  5
AD
330
1F
100
AcDbEntity
  8
0
  6
Continuous
 62
     7
370
    25
100
AcDbPolyline
 90
        6
 70
   128
 43
0.0
 10
0.678419737
 20
-0.4916153536
 10
0.6784021355
 20
-0.4916169501
 10
0.6784168742
 20
-0.4916221399
 10
0.6785412774
 20
-0.4916272661
 10
0.6787733898
 20
-0.4916322482
 10
0.6791095637
 20
-0.4916370078
  0
SPLINE
  5
AE
330
1F
100
AcDbEntity
  8
0
  6
Continuous
 62
     7
370
    25
100
AcDbSpline
210
0.0
220
0.0
230
1.0
 70
     8
 71
     3
 72
    13
 73
     9
 74
     0
 42
0.00000001
 43
0.00000001
 40
0.0
 40
0.0
 40
0.0
 40
0.0
 40
0.183960341566052
 40
0.3680504392314265
 40
0.5521524580469518
 40
0.736345848788002
 40
0.9202965585770341
 40
0.9999999999999999
 40
0.9999999999999999
 40
0.9999999999999999
 40
0.9999999999999999
 10
0.6888434058258259
 20
-0.480366293880006
 30
0.0
 10
0.6887835050171556
 20
-0.4802468039585278
 30
0.0
 10
0.6886636611488867
 20
-0.4800077398335682
 30
0.0
 10
0.6885643738643281
 20
-0.4796667527816784
 30
0.0
 10
0.6885309876407514
 20
-0.479358376629974
 30
0.0
 10
0.6885734741203215
 20
-0.4791020996495964
 30
0.0
 10
0.6886541916897463
 20
-0.478930762016728
 30
0.0
 10
0.6887411943051305
 20
-0.4788745526109445
 30
0.0
 10
0.6887674954569503
 20
-0.478857560338831
 30
0.0
  0
SPLINE
  5
B0
330
1F
100
AcDbEntity
  8
0
  6
Continuous
 62
     7
370
    25
100
AcDbSpline
210
0.0
220
0.0
230
1.0
 70
     8
 71
     3
 72
    11
 73
     7
 74
     0
 42
0.00000001
 43
0.00000001
 40
0.0
 40
0.0
 40
0.0
 40
0.0
 40
0.2863641956349974
 40
0.5727283912700939
 40
0.8590925869051488
 40
1.0
 40
1.0
 40
1.0
 40
1.0
 10
0.678124916754665
 20
-0.484540276060002
 30
0.0
 10
0.6781428998780327
 20
-0.4842778302539825
 30
0.0
 10
0.6781788661247679
 20
-0.4837529386419431
 30
0.0
 10
0.6784590620722546
 20
-0.4831017583345343
 30
0.0
 10
0.6787849958391379
 20
-0.4826956854830688
 30
0.0
 10
0.6790185983976238
 20
-0.4826426367945486
 30
0.0
 10
0.6790956368236178
 20
-0.4826251421768049
 30
0.0
  0
SPLINE
  5
B1
330
1F
100
AcDbEntity
  8
0
  6
Continuous
 62
     7
370
    25
100
AcDbSpline
210
0.0
220
0.0
230
1.0
 70
     8
 71
     3
 72
     9
 73
     5
 74
     0
 42
0.00000001
 43
0.00000001
 40
0.0
 40
0.0
 40
0.0
 40
0.0
 40
0.9650158158471462
 40
0.9999999999999999
 40
0.9999999999999999
 40
0.9999999999999999
 40
0.9999999999999999
 10
0.692717202216018
 20
-0.491706476482337
 30
0.0
 10
0.6925680833710343
 20
-0.4916996305557019
 30
0.0
 10
0.6924135586031135
 20
-0.4916925364474785
 30
0.0
 10
0.6922918906458988
 20
-0.4915399896642111
 30
0.0
 10
0.692287634191678
 20
-0.4915346529394534
 30
0.0
  0
SPLINE
  5
B2
330
1F
100
AcDbEntity
  8
0
  6
Continuous
 62
     7
370
    25
100
AcDbSpline
210
0.0
220
0.0
230
1.0
 70
     8
 71
     3
 72
    11
 73
     7
 74
     0
 42
0.00000001
 43
0.00000001
 40
0.0
 40
0.0
 40
0.0
 40
0.0
 40
0.2868840351207785
 40
0.5728418119856581
 40
0.8587995888403
 40
1.0
 40
1.0
 40
1.0
 40
1.0
 10
0.66746828484
 20
-0.484589043541
 30
0.0
 10
0.6674866537468128
 20
-0.4843262711200164
 30
0.0
 10
0.6675233322530197
 20
-0.4838015746874919
 30
0.0
 10
0.667805921816589
 20
-0.4831503478202019
 30
0.0
 10
0.6681352378134178
 20
-0.48274534014122
 30
0.0
 10
0.6683711531744932
 20
-0.4826919447879603
 30
0.0
 10
0.6684491368042527
 20
-0.4826742945449218
 30
0.0
  0
SPLINE
  5
B4
330
1F
100
AcDbEntity
  8
0
  6
Continuous
 62
     7
370
    25
100
AcDbSpline
210
0.0
220
0.0
230
1.0
 70
     8
 71
     3
 72
    12
 73
     8
 74
     0
 42
0.00000001
 43
0.00000001
 40
0.0
 40
0.0
 40
0.0
 40
0.0
 40
0.2059500697951513
 40
0.4119001395903374
 40
0.6178502093855174
 40
0.8238002791806988
 40
1.0
 40
1.0
 40
1.0
 40
1.0
 10
0.6674688269379492
 20
-0.489588949722092
 30
0.0
 10
0.6671344429723117
 20
-0.4895906850065712
 30
0.0
 10
0.666465675041037
 20
-0.4895941555755293
 30
0.0
 10
0.6656882707496824
 20
-0.4896006338530162
 30
0.0
 10
0.6651210781634668
 20
-0.4896077640847257
 30
0.0
 10
0.6647836221418645
 20
-0.4896150309297758
 30
0.0
 10
0.6647589040611849
 20
-0.4896198693652398
 30
0.0
 10
0.6647475071717404
 20
-0.4896221002469487
 30
0.0
  0
SPLINE
  5
B5
330
1F
100
AcDbEntity
  8
0
  6
Continuous
 62
     7
370
    25
100
AcDbSpline
210
0.0
220
0.0
230
1.0
 70
     8
 71
     3
 72
    12
 73
     8
 74
     0
 42
0.00000001
 43
0.00000001
 40
0.0
 40
0.0
 40
0.0
 40
0.0
 40
0.1761997208431058
 40
0.3821497906323334
 40
0.5880998604215636
 40
0.7940499302107923
 40
1.0
 40
1.0
 40
1.0
 40
1.0
 10
0.664746965073427
 20
-0.48462219406589
 30
0.0
 10
0.6647583619628826
 20
-0.4846199631842037
 30
0.0
 10
0.6647830800435834
 20
-0.4846151247487891
 30
0.0
 10
0.6651205360652344
 20
-0.4846078579038152
 30
0.0
 10
0.6656877286514917
 20
-0.484600727672186
 30
0.0
 10
0.6664651329428861
 20
-0.4845942493947795
 30
0.0
 10
0.6671339008741853
 20
-0.4845907788258752
 30
0.0
 10
0.667468284839835
 20
-0.484589043541423
 30
0.0
  0
LINE
  5
B8
330
1F
100
AcDbEntity
  8
0
  6
Continuous
 62
     7
370
    25
100
AcDbLine
 10
0.7720992908
 20
-0.4894269411
 30
0.0
 11
0.7720979355
 21
-0.4769271595
 31
0.0
  0
LINE
  5
B9
330
1F
100
AcDbEntity
  8
0
  6
Continuous
 62
     7
370
    25
100
AcDbLine
 10
0.6686773329
 20
-0.4825983187
 30
0.0
 11
0.6793298963
 21
-0.482549624
 31
0.0
  0
LINE
  5
BA
330
1F
100
AcDbEntity
  8
0
  6
Continuous
 62
     7
370
    25
100
AcDbLine
 10
0.6647315999
 20
-0.4846221896
 30
0.0
 11
0.664732142
 21
-0.4896220958
 31
0.0
  0
LINE
  5
BB
330
1F
100
AcDbEntity
  8
0
  6
Continuous
 62
     7
370
    25
100
AcDbLine
 10
0.6672557902
 20
-0.4915990808
 30
0.0
 11
0.6674278352
 21
-0.491600656
 31
0.0
  0
LINE
  5
BC
330
1F
100
AcDbEntity
  8
0
  6
Continuous
 62
     7
370
    25
100
AcDbLine
 10
0.7153055857
 20
-0.4913931244
 30
0.0
 11
0.7121172665
 21
-0.4913994265
 31
0.0
  0
LINE
  5
BD
330
1F
100
AcDbEntity
  8
0
  6
Continuous
 62
     7
370
    25
100
AcDbLine
 10
0.7153755001
 20
-0.4893813257
 30
0.0
 11
0.7153741449
 21
-0.4768815441
 31
0.0
  0
LINE
  5
BE
330
1F
100
AcDbEntity
  8
0
  6
Continuous
 62
     7
370
    25
100
AcDbLine
 10
0.7109118532
 20
-0.4893901485
 30
0.0
 11
0.710910498
 21
-0.476890367
 31
0.0
  0
LINE
  5
BF
330
1F
100
AcDbEntity
  8
0
  6
Continuous
 62
     7
370
    25
100
AcDbLine
 10
0.7653433951
 20
-0.4768865002
 30
0.0
 11
0.7653447504
 21
-0.4893862818
 31
0.0
  0
LINE
  5
C0
330
1F
100
AcDbEntity
  8
0
  6
Continuous
 62
     7
370
    25
100
AcDbLine
 10
0.7653447504
 20
-0.4893862818
 30
0.0
 11
0.7153755001
 21
-0.4893813257
 31
0.0
  0
LINE
  5
C1
330
1F
100
AcDbEntity
  8
0
  6
Continuous
 62
     7
370
    25
100
AcDbLine
 10
0.7153741449
 20
-0.4768815441
 30
0.0
 11
0.7653433951
 21
-0.4768865002
 31
0.0
  0
LINE
  5
C2
330
1F
100
AcDbEntity
  8
0
  6
Continuous
 62
     7
370
    25
100
AcDbLine
 10
0.7652748359
 20
-0.4913980806
 30
0.0
 11
0.7153055857
 21
-0.4913931244
 31
0.0
  0
LINE
  5
C3
330
1F
100
AcDbEntity
  8
0
  6
Continuous
 62
     7
370
    25
100
AcDbLine
 10
0.7153037967
 20
-0.4748934129
 30
0.0
 11
0.7121154775
 21
-0.474899715
 31
0.0
  0
LINE
  5
C4
330
1F
100
AcDbEntity
  8
0
  6
Continuous
 62
     7
370
    25
100
AcDbLine
 10
0.7153037967
 20
-0.4748934129
 30
0.0
 11
0.765273047
 21
-0.474898369
 31
0.0
  0
LINE
  5
C5
330
1F
100
AcDbEntity
  8
0
  6
Continuous
 62
     7
370
    25
100
AcDbLine
 10
0.765273047
 20
-0.474898369
 30
0.0
 11
0.7652866576
 21
-0.4749732321
 31
0.0
  0
LINE
  5
C6
330
1F
100
AcDbEntity
  8
0
  6
Continuous
 62
     7
370
    25
100
AcDbLine
 10
0.7121172665
 20
-0.4913994265
 30
0.0
 11
0.6686871338
 21
-0.4915981682
 31
0.0
  0
LINE
  5
C7
330
1F
100
AcDbEntity
  8
0
  6
Continuous
 62
     7
370
    25
100
AcDbLine
 10
0.7109118532
 20
-0.4893901485
 30
0.0
 11
0.6674688269
 21
-0.4895889497
 31
0.0
  0
LINE
  5
C8
330
1F
100
AcDbEntity
  8
0
  6
Continuous
 62
     7
370
    25
100
AcDbLine
 10
0.710910498
 20
-0.476890367
 30
0.0
 11
0.6976130785
 21
-0.4769512173
 31
0.0
  0
LINE
  5
C9
330
1F
100
AcDbEntity
  8
0
  6
Continuous
 62
     7
370
    25
100
AcDbLine
 10
0.6694763087
 20
-0.4895797616
 30
0.0
 11
0.6694757667
 21
-0.4845798554
 31
0.0
  0
LINE
  5
CA
330
1F
100
AcDbEntity
  8
0
  6
Continuous
 62
     7
370
    25
100
AcDbLine
 10
0.6674682848
 20
-0.4845890435
 30
0.0
 11
0.6781249168
 21
-0.4845402761
 31
0.0
  0
LINE
  5
CB
330
1F
100
AcDbEntity
  8
0
  6
Continuous
 62
     7
370
    25
100
AcDbLine
 10
0.6988180581
 20
-0.4749605652
 30
0.0
 11
0.7121154775
 21
-0.474899715
 31
0.0
  0
LINE
  5
CC
330
1F
100
AcDbEntity
  8
0
  6
Continuous
 62
     7
370
    25
100
AcDbLine
 10
0.6985839346
 20
-0.4750360395
 30
0.0
 11
0.6988180581
 21
-0.4749605652
 31
0.0
  0
LINE
  5
CD
330
1F
100
AcDbEntity
  8
0
  6
Continuous
 62
     7
370
    25
100
AcDbLine
 10
0.7678220056
 20
-0.4914521834
 30
0.0
 11
0.6816055448
 21
-0.4917926854
 31
0.0
  0
LINE
  5
CE
330
1F
100
AcDbEntity
  8
0
  6
Continuous
 62
     7
370
    25
100
AcDbLine
 10
0.6821653755
 20
-0.4916840576
 30
0.0
 11
0.6791095637
 21
-0.4916370078
 31
0.0
  0
LINE
  5
CF
330
1F
100
AcDbEntity
  8
0
  6
Continuous
 62
     7
370
    25
100
AcDbLine
 10
0.6927172022
 20
-0.4917064765
 30
0.0
 11
0.7374239838
 21
-0.4915299122
 31
0.0
  0
LINE
  5
D0
330
1F
100
AcDbEntity
  8
0
  6
Continuous
 62
     7
370
    25
100
AcDbLine
 10
0.718184502
 20
-0.4914526136
 30
0.0
 11
0.7338579463
 21
-0.4914541682
 31
0.0
  0
LINE
  5
D1
330
1F
100
AcDbEntity
  8
0
  6
Continuous
 62
     7
370
    25
100
AcDbLine
 10
0.718184502
 20
-0.4914526136
 30
0.0
 11
0.7041558974
 21
-0.4914803426
 31
0.0
  0
LINE
  5
D2
330
1F
100
AcDbEntity
  8
0
  6
Continuous
 62
     7
370
    25
100
AcDbLine
 10
0.6811765851
 20
-0.4915854982
 30
0.0
 11
0.7041558974
 21
-0.4914803426
 31
0.0
  0
LINE
  5
D3
330
1F
100
AcDbEntity
  8
0
  6
Continuous
 62
     7
370
    25
100
AcDbLine
 10
0.6790956368
 20
-0.4826251422
 30
0.0
 11
0.6793298963
 21
-0.482549624
 31
0.0
  0
LINE
  5
D4
330
1F
100
AcDbEntity
  8
0
  6
Continuous
 62
     7
370
    25
100
AcDbLine
 10
0.6674688269
 20
-0.4895889497
 30
0.0
 11
0.6674682848
 21
-0.4845890435
 31
0.0
  0
LINE
  5
D5
330
1F
100
AcDbEntity
  8
0
  6
Continuous
 62
     7
370
    25
100
AcDbLine
 10
0.6684491368
 20
-0.4826742945
 30
0.0
 11
0.668686158
 21
-0.482598332
 31
0.0
  0
LINE
  5
D6
330
1F
100
AcDbEntity
  8
0
  6
Continuous
 62
     7
370
    25
100
AcDbLine
 10
0.6738861218
 20
-0.4917676714
 30
0.0
 11
0.6737581451
 21
-0.4917420723
 31
0.0
  0
LINE
  5
D7
330
1F
100
AcDbEntity
  8
0
  6
Continuous
 62
     7
370
    25
100
AcDbLine
 10
0.7374239838
 20
-0.4915299122
 30
0.0
 11
0.7371013265
 21
-0.4914091425
 31
0.0
  0
LINE
  5
D8
330
1F
100
AcDbEntity
  8
0
  6
Continuous
 62
     7
370
    25
100
AcDbLine
 10
0.6792784134
 20
-0.4915989238
 30
0.0
 11
0.6791095637
 21
-0.4916370078
 31
0.0
  0
LINE
  5
D9
330
1F
100
AcDbEntity
  8
0
  6
Continuous
 62
     7
370
    25
100
AcDbLine
 10
0.6675867062
 20
-0.4916382902
 30
0.0
 11
0.6672618345
 21
-0.4915613329
 31
0.0
  0
LINE
  5
DA
330
1F
100
AcDbEntity
  8
0
  6
Continuous
 62
     7
370
    25
100
AcDbLine
 10
0.6826689514
 20
-0.491578669
 30
0.0
 11
0.6821653755
 21
-0.4916840576
 31
0.0
  0
ARC
  5
DB
330
1F
100
AcDbEntity
  8
0
  6
Continuous
 62
     7
370
    25
100
AcDbCircle
 10
0.6778472492
 20
-0.4679780967
 30
0.0
 40
0.0165645067814728
100
AcDbArc
 50
270.960482948
 51
311.5932763207
  0
ARC
  5
DC
330
1F
100
AcDbEntity
  8
0
  6
Continuous
 62
     7
370
    25
100
AcDbCircle
 10
0.6978273305
 20
-0.4904688863
 30
0.0
 40
0.0135193668653458
100
AcDbArc
 50
90.9080488654
 51
131.6457104412
  0
ARC
  5
DD
330
1F
100
AcDbEntity
  8
0
  6
Continuous
 62
     7
370
    25
100
AcDbCircle
 10
0.6788502304
 20
-0.1509592125
 30
0.0
 40
0.3408446097643337
100
AcDbArc
 50
269.1655067489
 51
270.4631717815
  0
ARC
  5
DE
330
1F
100
AcDbEntity
  8
0
  6
Continuous
 62
     7
370
    25
100
AcDbCircle
 10
0.6889570642
 20
0.2217294895
 30
0.0
 40
0.7134458747825726
100
AcDbArc
 50
269.4545613215
 51
270.3019725044
  0
ARC
  5
DF
330
1F
100
AcDbEntity
  8
0
  6
Continuous
 62
     7
370
    25
100
AcDbCircle
 10
0.6808046683
 20
-0.5845412599
 30
0.0
 40
0.0929565057904889
100
AcDbArc
 50
89.7707603396
 51
91.4701659972
  0
ENDSEC
  0
SECTION
  2
OBJECTS
  0
DICTIONARY
  5
C
330
0
100
AcDbDictionary
281
     1
  3
ACAD_GROUP
350
D
  3
ACAD_LAYOUT
350
1A
  3
ACAD_MLINESTYLE
350
17
  3
ACAD_PLOTSETTINGS
350
19
  3
ACAD_PLOTSTYLENAME
350
E
  3
ACAD_SCALELIST
350
47
  3
DWGPROPS
350
E0
  0
DICTIONARY
  5
D
102
{ACAD_REACTORS
330
C
102
}
330
C
100
AcDbDictionary
281
     1
  0
DICTIONARY
  5
1A
102
{ACAD_REACTORS
330
C
102
}
330
C
100
AcDbDictionary
281
     1
  3
Layout1
350
1E
  3
Layout2
350
26
  3
Model
350
22
  0
DICTIONARY
  5
17
102
{ACAD_REACTORS
330
C
102
}
330
C
100
AcDbDictionary
281
     1
  3
Standard
350
18
  0
DICTIONARY
  5
19
102
{ACAD_REACTORS
330
C
102
}
330
C
100
AcDbDictionary
281
     1
  0
ACDBDICTIONARYWDFLT
  5
E
102
{ACAD_REACTORS
330
C
102
}
330
C
100
AcDbDictionary
281
     1
  3
Normal
350
F
100
AcDbDictionaryWithDefault
340
F
  0
DICTIONARY
  5
47
102
{ACAD_REACTORS
330
C
102
}
330
C
100
AcDbDictionary
281
     1
  3
A0
350
48
  3
A1
350
49
  3
A2
350
4A
  3
A3
350
4B
  3
A4
350
4C
  3
A5
350
4D
  3
A6
350
4E
  3
A7
350
4F
  3
A8
350
50
  3
A9
350
51
  3
B0
350
52
  3
B1
350
53
  3
B2
350
54
  3
B3
350
55
  3
B4
350
56
  3
B5
350
57
  3
B6
350
58
  0
XRECORD
  5
E0
102
{ACAD_REACTORS
330
C
102
}
330
C
100
AcDbXrecord
280
     1
  1
DWGPROPS COOKIE
  2

  3

  4

  6

  7

  8
ppare
  9

300
=
301
=
302
=
303
=
304
=
305
=
306
=
307
=
308
=
309
=
 40
0.0
 41
2460421.670484236
 42
2460421.672043646
  1

 90
        0
  0
LAYOUT
  5
1E
102
{ACAD_REACTORS
330
1A
102
}
330
1A
100
AcDbPlotSettings
  1

  2
none_device
  4

  6

 40
0.0
 41
0.0
 42
0.0
 43
0.0
 44
0.0
 45
0.0
 46
0.0
 47
0.0
 48
0.0
 49
0.0
140
0.0
141
0.0
142
1.0
143
1.0
 70
   688
 72
     1
 73
     0
 74
     5
  7

 75
    16
147
1.0
148
0.0
149
0.0
100
AcDbLayout
  1
Layout1
 70
     1
 71
     1
 10
0.0
 20
0.0
 11
420.0
 21
297.0
 12
0.0
 22
0.0
 32
0.0
 14
1.0000000000E+20
 24
1.0000000000E+20
 34
1.0000000000E+20
 15
-1.0000000000E+20
 25
-1.0000000000E+20
 35
-1.0000000000E+20
146
0.0
 13
0.0
 23
0.0
 33
0.0
 16
1.0
 26
0.0
 36
0.0
 17
0.0
 27
1.0
 37
0.0
 76
     0
330
1B
  0
LAYOUT
  5
26
102
{ACAD_REACTORS
330
1A
102
}
330
1A
100
AcDbPlotSettings
  1

  2
none_device
  4

  6

 40
0.0
 41
0.0
 42
0.0
 43
0.0
 44
0.0
 45
0.0
 46
0.0
 47
0.0
 48
0.0
 49
0.0
140
0.0
141
0.0
142
1.0
143
1.0
 70
   688
 72
     1
 73
     0
 74
     5
  7

 75
    16
147
1.0
148
0.0
149
0.0
100
AcDbLayout
  1
Layout2
 70
     1
 71
     2
 10
0.0
 20
0.0
 11
0.0
 21
0.0
 12
0.0
 22
0.0
 32
0.0
 14
0.0
 24
0.0
 34
0.0
 15
0.0
 25
0.0
 35
0.0
146
0.0
 13
0.0
 23
0.0
 33
0.0
 16
1.0
 26
0.0
 36
0.0
 17
0.0
 27
1.0
 37
0.0
 76
     0
330
23
  0
LAYOUT
  5
22
102
{ACAD_REACTORS
330
1A
102
}
330
1A
100
AcDbPlotSettings
  1

  2
none_device
  4
ANSI_A_(11.00_x_8.50_Inches)
  6

 40
6.35
 41
19.05
 42
6.35000508
 43
19.05000254
 44
279.4
 45
215.9
 46
-1717.4677022941
 47
1334.1268134249
 48
0.0
 49
0.0
140
0.0
141
0.0
142
101.4271603518
143
1.0
 70
  1696
 72
     0
 73
     0
 74
     0
  7

 75
     0
147
0.0179189148
148
-1300.4909072572
149
0.0
100
AcDbLayout
  1
Model
 70
     1
 71
     0
 10
0.0
 20
0.0
 11
420.0
 21
297.0
 12
0.0
 22
0.0
 32
0.0
 14
0.6647315999
 24
-0.4918038223
 34
0.0
 15
0.7720992908
 25
-0.4748934129
 35
0.0
146
0.0
 13
0.0
 23
0.0
 33
0.0
 16
1.0
 26
0.0
 36
0.0
 17
0.0
 27
1.0
 37
0.0
 76
     0
330
1F
331
29
  0
MLINESTYLE
  5
18
102
{ACAD_REACTORS
330
17
102
}
330
17
100
AcDbMlineStyle
  2
Standard
 70
     0
  3

 62
   256
 51
90.0
 52
90.0
 71
     2
 49
0.5
 62
   256
  6
BYLAYER
 49
-0.5
 62
   256
  6
BYLAYER
  0
ACDBPLACEHOLDER
  5
F
102
{ACAD_REACTORS
330
E
102
}
330
E
  0
SCALE
  5
48
102
{ACAD_REACTORS
330
47
102
}
330
47
100
AcDbScale
 70
     0
300
1:1
140
1.0
141
1.0
290
     1
  0
SCALE
  5
49
102
{ACAD_REACTORS
330
47
102
}
330
47
100
AcDbScale
 70
     0
300
1:2
140
1.0
141
2.0
290
     0
  0
SCALE
  5
4A
102
{ACAD_REACTORS
330
47
102
}
330
47
100
AcDbScale
 70
     0
300
1:4
140
1.0
141
4.0
290
     0
  0
SCALE
  5
4B
102
{ACAD_REACTORS
330
47
102
}
330
47
100
AcDbScale
 70
     0
300
1:5
140
1.0
141
5.0
290
     0
  0
SCALE
  5
4C
102
{ACAD_REACTORS
330
47
102
}
330
47
100
AcDbScale
 70
     0
300
1:8
140
1.0
141
8.0
290
     0
  0
SCALE
  5
4D
102
{ACAD_REACTORS
330
47
102
}
330
47
100
AcDbScale
 70
     0
300
1:10
140
1.0
141
10.0
290
     0
  0
SCALE
  5
4E
102
{ACAD_REACTORS
330
47
102
}
330
47
100
AcDbScale
 70
     0
300
1:16
140
1.0
141
16.0
290
     0
  0
SCALE
  5
4F
102
{ACAD_REACTORS
330
47
102
}
330
47
100
AcDbScale
 70
     0
300
1:20
140
1.0
141
20.0
290
     0
  0
SCALE
  5
50
102
{ACAD_REACTORS
330
47
102
}
330
47
100
AcDbScale
 70
     0
300
1:30
140
1.0
141
30.0
290
     0
  0
SCALE
  5
51
102
{ACAD_REACTORS
330
47
102
}
330
47
100
AcDbScale
 70
     0
300
1:40
140
1.0
141
40.0
290
     0
  0
SCALE
  5
52
102
{ACAD_REACTORS
330
47
102
}
330
47
100
AcDbScale
 70
     0
300
1:50
140
1.0
141
50.0
290
     0
  0
SCALE
  5
53
102
{ACAD_REACTORS
330
47
102
}
330
47
100
AcDbScale
 70
     0
300
1:100
140
1.0
141
100.0
290
     0
  0
SCALE
  5
54
102
{ACAD_REACTORS
330
47
102
}
330
47
100
AcDbScale
 70
     0
300
2:1
140
2.0
141
1.0
290
     0
  0
SCALE
  5
55
102
{ACAD_REACTORS
330
47
102
}
330
47
100
AcDbScale
 70
     0
300
4:1
140
4.0
141
1.0
290
     0
  0
SCALE
  5
56
102
{ACAD_REACTORS
330
47
102
}
330
47
100
AcDbScale
 70
     0
300
8:1
140
8.0
141
1.0
290
     0
  0
SCALE
  5
57
102
{ACAD_REACTORS
330
47
102
}
330
47
100
AcDbScale
 70
     0
300
10:1
140
10.0
141
1.0
290
     0
  0
SCALE
  5
58
102
{ACAD_REACTORS
330
47
102
}
330
47
100
AcDbScale
 70
     0
300
100:1
140
100.0
141
1.0
290
     0
  0
ENDSEC
  0
EOF
