  0
SECTION
  2
HEADER
  9
$ACADVER
  1
AC1015
  9
$ACADMAINTVER
 70
     6
  9
$DWGCODEPAGE
  3
ANSI_1252
  9
$INSBASE
 10
0.0
 20
0.0
 30
0.0
  9
$EXTMIN
 10
0.1641953774
 20
-0.2500995116
 30
0.0
  9
$EXTMAX
 10
0.2610644428
 20
-0.2053557374
 30
0.0
  9
$LIMMIN
 10
0.0
 20
0.0
  9
$LIMMAX
 10
420.0
 20
297.0
  9
$ORTHOMODE
 70
     0
  9
$REGENMODE
 70
     1
  9
$FILLMODE
 70
     1
  9
$QTEXTMODE
 70
     0
  9
$MIRRTEXT
 70
     1
  9
$LTSCALE
 40
1.0
  9
$ATTMODE
 70
     1
  9
$TEXTSIZE
 40
0.0035
  9
$TRACEWID
 40
1.0
  9
$TEXTSTYLE
  7
Standard
  9
$CLAYER
  8
0
  9
$CELTYPE
  6
ByLayer
  9
$CECOLOR
 62
   256
  9
$CELTSCALE
 40
1.0
  9
$DISPSILH
 70
     0
  9
$DIMSCALE
 40
1.0
  9
$DIMASZ
 40
0.003556
  9
$DIMEXO
 40
0.0
  9
$DIMDLI
 40
3.75
  9
$DIMRND
 40
0.0
  9
$DIMDLE
 40
0.0
  9
$DIMEXE
 40
0.001
  9
$DIMTP
 40
0.0
  9
$DIMTM
 40
0.0
  9
$DIMTXT
 40
0.0035
  9
$DIMCEN
 40
2.5
  9
$DIMTSZ
 40
0.0
  9
$DIMTOL
 70
     0
  9
$DIMLIM
 70
     0
  9
$DIMTIH
 70
     1
  9
$DIMTOH
 70
     1
  9
$DIMSE1
 70
     0
  9
$DIMSE2
 70
     0
  9
$DIMTAD
 70
     1
  9
$DIMZIN
 70
     1
  9
$DIMBLK
  1

  9
$DIMASO
 70
     1
  9
$DIMSHO
 70
     1
  9
$DIMPOST
  1

  9
$DIMAPOST
  1

  9
$DIMALT
 70
     0
  9
$DIMALTD
 70
     3
  9
$DIMALTF
 40
39.3700787402
  9
$DIMLFAC
 40
1.0
  9
$DIMTOFL
 70
     1
  9
$DIMTVP
 40
0.0
  9
$DIMTIX
 70
     0
  9
$DIMSOXD
 70
     0
  9
$DIMSAH
 70
     0
  9
$DIMBLK1
  1

  9
$DIMBLK2
  1

  9
$DIMSTYLE
  2
ISO-25
  9
$DIMCLRD
 70
     0
  9
$DIMCLRE
 70
     0
  9
$DIMCLRT
 70
     0
  9
$DIMTFAC
 40
1.0
  9
$DIMGAP
 40
0.001524
  9
$DIMJUST
 70
     0
  9
$DIMSD1
 70
     0
  9
$DIMSD2
 70
     0
  9
$DIMTOLJ
 70
     0
  9
$DIMTZIN
 70
     1
  9
$DIMALTZ
 70
     0
  9
$DIMALTTZ
 70
     0
  9
$DIMUPT
 70
     0
  9
$DIMDEC
 70
     2
  9
$DIMTDEC
 70
     2
  9
$DIMALTU
 70
     2
  9
$DIMALTTD
 70
     3
  9
$DIMTXSTY
  7
Standard
  9
$DIMAUNIT
 70
     0
  9
$DIMADEC
 70
     2
  9
$DIMALTRND
 40
0.0
  9
$DIMAZIN
 70
     0
  9
$DIMDSEP
 70
    44
  9
$DIMATFIT
 70
     3
  9
$DIMFRAC
 70
     0
  9
$DIMLDRBLK
  1

  9
$DIMLUNIT
 70
     2
  9
$DIMLWD
 70
    -2
  9
$DIMLWE
 70
    -2
  9
$DIMTMOVE
 70
     0
  9
$LUNITS
 70
     2
  9
$LUPREC
 70
     2
  9
$SKETCHINC
 40
1.0
  9
$FILLETRAD
 40
0.0
  9
$AUNITS
 70
     0
  9
$AUPREC
 70
     2
  9
$MENU
  1
.
  9
$ELEVATION
 40
0.0
  9
$PELEVATION
 40
0.0
  9
$THICKNESS
 40
0.0
  9
$LIMCHECK
 70
     0
  9
$CHAMFERA
 40
0.0
  9
$CHAMFERB
 40
0.0
  9
$CHAMFERC
 40
0.0
  9
$CHAMFERD
 40
0.0
  9
$SKPOLY
 70
     0
  9
$TDCREATE
 40
2460421.89965426
  9
$TDUCREATE
 40
2460421.670487593
  9
$TDUPDATE
 40
2460421.901212304
  9
$TDUUPDATE
 40
2460421.672045637
  9
$TDINDWG
 40
0.0000000116
  9
$TDUSRTIMER
 40
0.0000000116
  9
$USRTIMER
 70
     1
  9
$ANGBASE
 50
0.0
  9
$ANGDIR
 70
     0
  9
$PDMODE
 70
     0
  9
$PDSIZE
 40
-1.0
  9
$PLINEWID
 40
0.0
  9
$SPLFRAME
 70
     0
  9
$SPLINETYPE
 70
     6
  9
$SPLINESEGS
 70
     8
  9
$HANDSEED
  5
12F
  9
$SURFTAB1
 70
     6
  9
$SURFTAB2
 70
     6
  9
$SURFTYPE
 70
     6
  9
$SURFU
 70
     6
  9
$SURFV
 70
     6
  9
$UCSBASE
  2

  9
$UCSNAME
  2

  9
$UCSORG
 10
0.0
 20
0.0
 30
0.0
  9
$UCSXDIR
 10
1.0
 20
0.0
 30
0.0
  9
$UCSYDIR
 10
0.0
 20
1.0
 30
0.0
  9
$UCSORTHOREF
  2

  9
$UCSORTHOVIEW
 70
     0
  9
$UCSORGTOP
 10
0.0
 20
0.0
 30
0.0
  9
$UCSORGBOTTOM
 10
0.0
 20
0.0
 30
0.0
  9
$UCSORGLEFT
 10
0.0
 20
0.0
 30
0.0
  9
$UCSORGRIGHT
 10
0.0
 20
0.0
 30
0.0
  9
$UCSORGFRONT
 10
0.0
 20
0.0
 30
0.0
  9
$UCSORGBACK
 10
0.0
 20
0.0
 30
0.0
  9
$PUCSBASE
  2

  9
$PUCSNAME
  2

  9
$PUCSORG
 10
0.0
 20
0.0
 30
0.0
  9
$PUCSXDIR
 10
1.0
 20
0.0
 30
0.0
  9
$PUCSYDIR
 10
0.0
 20
1.0
 30
0.0
  9
$PUCSORTHOREF
  2

  9
$PUCSORTHOVIEW
 70
     0
  9
$PUCSORGTOP
 10
0.0
 20
0.0
 30
0.0
  9
$PUCSORGBOTTOM
 10
0.0
 20
0.0
 30
0.0
  9
$PUCSORGLEFT
 10
0.0
 20
0.0
 30
0.0
  9
$PUCSORGRIGHT
 10
0.0
 20
0.0
 30
0.0
  9
$PUCSORGFRONT
 10
0.0
 20
0.0
 30
0.0
  9
$PUCSORGBACK
 10
0.0
 20
0.0
 30
0.0
  9
$USERI1
 70
     0
  9
$USERI2
 70
     0
  9
$USERI3
 70
     0
  9
$USERI4
 70
     0
  9
$USERI5
 70
     0
  9
$USERR1
 40
0.0
  9
$USERR2
 40
0.0
  9
$USERR3
 40
0.0
  9
$USERR4
 40
0.0
  9
$USERR5
 40
0.0
  9
$WORLDVIEW
 70
     1
  9
$SHADEDGE
 70
     3
  9
$SHADEDIF
 70
    70
  9
$TILEMODE
 70
     1
  9
$MAXACTVP
 70
    64
  9
$PINSBASE
 10
0.0
 20
0.0
 30
0.0
  9
$PLIMCHECK
 70
     0
  9
$PEXTMIN
 10
1.0000000000E+20
 20
1.0000000000E+20
 30
1.0000000000E+20
  9
$PEXTMAX
 10
-1.0000000000E+20
 20
-1.0000000000E+20
 30
-1.0000000000E+20
  9
$PLIMMIN
 10
0.0
 20
0.0
  9
$PLIMMAX
 10
420.0
 20
297.0
  9
$UNITMODE
 70
     0
  9
$VISRETAIN
 70
     1
  9
$PLINEGEN
 70
     0
  9
$PSLTSCALE
 70
     1
  9
$TREEDEPTH
 70
  3020
  9
$CMLSTYLE
  2
Standard
  9
$CMLJUST
 70
     0
  9
$CMLSCALE
 40
20.0
  9
$PROXYGRAPHICS
 70
     1
  9
$MEASUREMENT
 70
     1
  9
$CELWEIGHT
370
    -1
  9
$ENDCAPS
280
     0
  9
$JOINSTYLE
280
     0
  9
$LWDISPLAY
290
     1
  9
$INSUNITS
 70
     6
  9
$HYPERLINKBASE
  1

  9
$STYLESHEET
  1

  9
$XEDIT
290
     1
  9
$CEPSNTYPE
380
     0
  9
$PSTYLEMODE
290
     1
  9
$FINGERPRINTGUID
  2
{87e515f3-01b4-4bca-b36d-1387a96a131b}
  9
$VERSIONGUID
  2
{FAEB1C32-E019-11D5-929B-00C0DF256EC4}
  9
$EXTNAMES
290
     1
  9
$PSVPSCALE
 40
0.0
  9
$OLESTARTUP
290
     0
  0
ENDSEC
  0
SECTION
  2
CLASSES
  0
CLASS
  1
ACDBDICTIONARYWDFLT
  2
AcDbDictionaryWithDefault
  3
ObjectDBX Classes
 90
        0
280
     0
281
     0
  0
CLASS
  1
VISUALSTYLE
  2
AcDbVisualStyle
  3
ObjectDBX Classes
 90
     4095
280
     0
281
     0
  0
CLASS
  1
MATERIAL
  2
AcDbMaterial
  3
ObjectDBX Classes
 90
     1153
280
     0
281
     0
  0
CLASS
  1
SCALE
  2
AcDbScale
  3
ObjectDBX Classes
 90
     1153
280
     0
281
     0
  0
CLASS
  1
TABLESTYLE
  2
AcDbTableStyle
  3
ObjectDBX Classes
 90
     4095
280
     0
281
     0
  0
CLASS
  1
MLEADERSTYLE
  2
AcDbMLeaderStyle
  3
ACDB_MLEADERSTYLE_CLASS
 90
     4095
280
     0
281
     0
  0
CLASS
  1
SUN
  2
AcDbSun
  3
SCENEOE
 90
     1153
280
     0
281
     0
  0
CLASS
  1
ACDBPLACEHOLDER
  2
AcDbPlaceHolder
  3
ObjectDBX Classes
 90
        0
280
     0
281
     0
  0
CLASS
  1
LAYOUT
  2
AcDbLayout
  3
ObjectDBX Classes
 90
        0
280
     0
281
     0
  0
ENDSEC
  0
SECTION
  2
TABLES
  0
TABLE
  2
VPORT
  5
8
330
0
100
AcDbSymbolTable
 70
     1
  0
VPORT
  5
29
330
8
100
AcDbSymbolTableRecord
100
AcDbViewportTableRecord
  2
*Active
 70
     0
 10
0.0
 20
0.0
 11
1.0
 21
1.0
 12
0.2126299101
 22
-0.2277276245
 13
0.0
 23
0.0
 14
10.0
 24
10.0
 15
10.0
 25
10.0
 16
0.0
 26
0.0
 36
1.0
 17
0.0
 27
0.0
 37
0.0
 40
0.0456386497
 41
2.164973052
 42
50.0
 43
0.0
 44
0.0
 50
0.0
 51
0.0
 71
     0
 72
   100
 73
     1
 74
     3
 75
     0
 76
     0
 77
     0
 78
     0
281
     0
 65
     1
110
0.0
120
0.0
130
0.0
111
1.0
121
0.0
131
0.0
112
0.0
122
1.0
132
0.0
 79
     0
146
0.0
  0
ENDTAB
  0
TABLE
  2
LTYPE
  5
5
330
0
100
AcDbSymbolTable
 70
     6
  0
LTYPE
  5
14
330
5
100
AcDbSymbolTableRecord
100
AcDbLinetypeTableRecord
  2
ByBlock
 70
     0
  3

 72
    65
 73
     0
 40
0.0
  0
LTYPE
  5
15
330
5
100
AcDbSymbolTableRecord
100
AcDbLinetypeTableRecord
  2
ByLayer
 70
     0
  3

 72
    65
 73
     0
 40
0.0
  0
LTYPE
  5
16
330
5
100
AcDbSymbolTableRecord
100
AcDbLinetypeTableRecord
  2
Continuous
 70
     0
  3
Solid line
 72
    65
 73
     0
 40
0.0
  0
LTYPE
  5
5E
330
5
100
AcDbSymbolTableRecord
100
AcDbLinetypeTableRecord
  2
HIDDEN
 70
     0
  3
Hidden __ __ __ __ __ __ __ __ __ __ __ __ __ __
 72
    65
 73
     2
 40
0.001905
 49
0.00127
 74
     0
 49
-0.000635
 74
     0
  0
LTYPE
  5
5F
330
5
100
AcDbSymbolTableRecord
100
AcDbLinetypeTableRecord
  2
PHANTOM
 70
     0
  3
Phantom ______  __  __  ______  __  __  ______
 72
    65
 73
     6
 40
0.0127
 49
0.00635
 74
     0
 49
-0.00127
 74
     0
 49
0.00127
 74
     0
 49
-0.00127
 74
     0
 49
0.00127
 74
     0
 49
-0.00127
 74
     0
  0
LTYPE
  5
60
330
5
100
AcDbSymbolTableRecord
100
AcDbLinetypeTableRecord
  2
CENTER
 70
     0
  3
Center ____ _ ____ _ ____ _ ____ _ ____ _ ____
 72
    65
 73
     4
 40
0.01016
 49
0.00635
 74
     0
 49
-0.00127
 74
     0
 49
0.00127
 74
     0
 49
-0.00127
 74
     0
  0
LTYPE
  5
61
330
5
100
AcDbSymbolTableRecord
100
AcDbLinetypeTableRecord
  2
CENTERX2
 70
     0
  3
Center (2x) ________  __  ________  __  _____
 72
    65
 73
     4
 40
0.02032
 49
0.0127
 74
     0
 49
-0.00254
 74
     0
 49
0.00254
 74
     0
 49
-0.00254
 74
     0
  0
LTYPE
  5
62
330
5
100
AcDbSymbolTableRecord
100
AcDbLinetypeTableRecord
  2
DOT2
 70
     0
  3
Dot (.5x) ........................................
 72
    65
 73
     2
 40
0.000635
 49
0.0
 74
     0
 49
-0.000635
 74
     0
  0
ENDTAB
  0
TABLE
  2
LAYER
  5
2
330
0
100
AcDbSymbolTable
 70
     1
  0
LAYER
  5
10
330
2
100
AcDbSymbolTableRecord
100
AcDbLayerTableRecord
  2
0
 70
     0
 62
     7
  6
Continuous
370
    -3
390
F
  0
ENDTAB
  0
TABLE
  2
STYLE
  5
3
330
0
100
AcDbSymbolTable
 70
     2
  0
STYLE
  5
11
330
3
100
AcDbSymbolTableRecord
100
AcDbTextStyleTableRecord
  2
Standard
 70
     0
 40
0.0
 41
1.0
 50
0.0
 71
     0
 42
0.0035
  3
txt
  4

  0
STYLE
  5
12B
330
3
100
AcDbSymbolTableRecord
100
AcDbTextStyleTableRecord
  2
SLDTEXTSTYLE0
 70
     0
 40
0.0
 41
0.7
 50
0.0
 71
     0
 42
0.0035
  3
TXT
  4

  0
ENDTAB
  0
TABLE
  2
VIEW
  5
6
330
0
100
AcDbSymbolTable
 70
     0
  0
ENDTAB
  0
TABLE
  2
UCS
  5
7
330
0
100
AcDbSymbolTable
 70
     0
  0
ENDTAB
  0
TABLE
  2
APPID
  5
9
330
0
100
AcDbSymbolTable
 70
     1
  0
APPID
  5
12
330
9
100
AcDbSymbolTableRecord
100
AcDbRegAppTableRecord
  2
ACAD
 70
     0
  0
ENDTAB
  0
TABLE
  2
DIMSTYLE
  5
A
330
0
100
AcDbSymbolTable
 70
     1
100
AcDbDimStyleTable
  0
DIMSTYLE
105
27
330
A
100
AcDbSymbolTableRecord
100
AcDbDimStyleTableRecord
  2
ISO-25
 70
     0
 41
2.5
 42
0.625
 43
3.75
 44
1.25
 73
     0
 74
     0
 77
     1
 78
     8
140
2.5
141
2.5
143
0.0393700787
147
0.625
171
     3
172
     1
178
     0
271
     2
272
     2
274
     3
278
    44
283
     0
284
     8
340
11
  0
ENDTAB
  0
TABLE
  2
BLOCK_RECORD
  5
1
330
0
100
AcDbSymbolTable
 70
     1
  0
BLOCK_RECORD
  5
1F
330
1
100
AcDbSymbolTableRecord
100
AcDbBlockTableRecord
  2
*Model_Space
340
22
  0
BLOCK_RECORD
  5
1B
330
1
100
AcDbSymbolTableRecord
100
AcDbBlockTableRecord
  2
*Paper_Space
340
1E
  0
BLOCK_RECORD
  5
23
330
1
100
AcDbSymbolTableRecord
100
AcDbBlockTableRecord
  2
*Paper_Space0
340
26
  0
ENDTAB
  0
ENDSEC
  0
SECTION
  2
BLOCKS
  0
BLOCK
  5
20
330
1F
100
AcDbEntity
  8
0
100
AcDbBlockBegin
  2
*Model_Space
 70
     0
 10
0.0
 20
0.0
 30
0.0
  3
*Model_Space
  1

  0
ENDBLK
  5
21
330
1F
100
AcDbEntity
  8
0
100
AcDbBlockEnd
  0
BLOCK
  5
1C
330
1B
100
AcDbEntity
 67
     1
  8
0
100
AcDbBlockBegin
  2
*Paper_Space
 70
     0
 10
0.0
 20
0.0
 30
0.0
  3
*Paper_Space
  1

  0
ENDBLK
  5
1D
330
1B
100
AcDbEntity
 67
     1
  8
0
100
AcDbBlockEnd
  0
BLOCK
  5
24
330
23
100
AcDbEntity
  8
0
100
AcDbBlockBegin
  2
*Paper_Space0
 70
     0
 10
0.0
 20
0.0
 30
0.0
  3
*Paper_Space0
  1

  0
ENDBLK
  5
25
330
23
100
AcDbEntity
  8
0
100
AcDbBlockEnd
  0
ENDSEC
  0
SECTION
  2
ENTITIES
  0
SPLINE
  5
64
330
1F
100
AcDbEntity
  8
0
  6
Continuous
 62
     7
370
    25
100
AcDbSpline
210
0.0
220
0.0
230
1.0
 70
     8
 71
     3
 72
    21
 73
    17
 74
     0
 42
0.00000001
 43
0.00000001
 40
0.0
 40
0.0
 40
0.0
 40
0.0
 40
0.0991526768038329
 40
0.1894060322204215
 40
0.2708637981332901
 40
0.3437303468319271
 40
0.4278964682462788
 40
0.4976987690436825
 40
0.5535057329304448
 40
0.5979190543035545
 40
0.6511263126920604
 40
0.7178034760939388
 40
0.7767475847464262
 40
0.8434137478387294
 40
0.9178401251489935
 40
1.0
 40
1.0
 40
1.0
 40
1.0
 10
0.1871417756481772
 20
-0.2492485257175799
 30
0.0
 10
0.1873345074523667
 20
-0.2493300376079148
 30
0.0
 10
0.1877026726647534
 20
-0.2494857453933702
 30
0.0
 10
0.1883265232088505
 20
-0.2496714821739181
 30
0.0
 10
0.1889352276426809
 20
-0.2498141754521414
 30
0.0
 10
0.1895667364954317
 20
-0.2499277369316673
 30
0.0
 10
0.1901954872391945
 20
-0.2500102684476585
 30
0.0
 10
0.1907941235495092
 20
-0.2500623361922499
 30
0.0
 10
0.19128611776781
 20
-0.2500883029585337
 30
0.0
 10
0.1917322300364975
 20
-0.2500998992161646
 30
0.0
 10
0.1922116881601331
 20
-0.2501002261306803
 30
0.0
 10
0.1927330573995667
 20
-0.2500845529091282
 30
0.0
 10
0.1932880183225004
 20
-0.2500499743910854
 30
0.0
 10
0.1938542176379198
 20
-0.2499954343435977
 30
0.0
 10
0.194469077765204
 20
-0.2499139736269994
 30
0.0
 10
0.1948714093117599
 20
-0.2498357515896902
 30
0.0
 10
0.1950825102804426
 20
-0.2497947089521202
 30
0.0
  0
SPLINE
  5
66
330
1F
100
AcDbEntity
  8
0
  6
Continuous
 62
     7
370
    25
100
AcDbSpline
210
0.0
220
0.0
230
1.0
 70
     8
 71
     3
 72
    24
 73
    20
 74
     0
 42
0.00000001
 43
0.00000001
 40
0.0
 40
0.0
 40
0.0
 40
0.0
 40
0.0957106209106518
 40
0.178432788023341
 40
0.2481717396758416
 40
0.3049353057027596
 40
0.34873104781533
 40
0.3753261935900719
 40
0.3933519246889315
 40
0.4107730737074755
 40
0.4305869620636613
 40
0.4527925478230205
 40
0.4773886414633992
 40
0.5337446366510409
 40
0.6012312941150819
 40
0.6816482054667148
 40
0.7749544738897348
 40
0.881095316450904
 40
1.0
 40
1.0
 40
1.0
 40
1.0
 10
0.1694005768833526
 20
-0.2449767498815373
 30
0.0
 10
0.1700823339886118
 20
-0.245053921226401
 30
0.0
 10
0.1713533300378348
 20
-0.2451977913433068
 30
0.0
 10
0.1730709247047487
 20
-0.2454397643905473
 30
0.0
 10
0.1744883807264575
 20
-0.2456645556033717
 30
0.0
 10
0.1756175858829698
 20
-0.2458629785503072
 30
0.0
 10
0.1764454299434125
 20
-0.2460198085200059
 30
0.0
 10
0.1770131459487757
 20
-0.2461330441159551
 30
0.0
 10
0.1774076861284347
 20
-0.2462142916844335
 30
0.0
 10
0.1777562170014831
 20
-0.2462878874834152
 30
0.0
 10
0.1781279956847215
 20
-0.2463684648692535
 30
0.0
 10
0.1785406877906441
 20
-0.2464605503610527
 30
0.0
 10
0.1791728192255524
 20
-0.246606193534944
 30
0.0
 10
0.1800654754931036
 20
-0.2468234075928723
 30
0.0
 10
0.1812535482482395
 20
-0.247137307795594
 30
0.0
 10
0.1825963481013925
 20
-0.247527667430749
 30
0.0
 10
0.1840680546855872
 20
-0.2480071253567029
 30
0.0
 10
0.1856373841478831
 20
-0.2485822666582931
 30
0.0
 10
0.1866217027125062
 20
-0.2490181978374592
 30
0.0
 10
0.1871417756482404
 20
-0.2492485257173502
 30
0.0
  0
SPLINE
  5
67
330
1F
100
AcDbEntity
  8
0
  6
Continuous
 62
     7
370
    25
100
AcDbSpline
210
0.0
220
0.0
230
1.0
 70
     8
 71
     3
 72
    17
 73
    13
 74
     0
 42
0.00000001
 43
0.00000001
 40
0.0
 40
0.0
 40
0.0
 40
0.0
 40
0.0791215077912802
 40
0.1528476328417787
 40
0.2835485416866649
 40
0.3918500517517658
 40
0.4783776016752096
 40
0.5734013450157094
 40
0.6923358834015255
 40
0.8347327497509474
 40
0.9146162154906753
 40
0.9999999999999999
 40
0.9999999999999999
 40
0.9999999999999999
 40
0.9999999999999999
 10
0.2004272057787641
 20
-0.2374850105678266
 30
0.0
 10
0.2002339588311645
 20
-0.2375236037127479
 30
0.0
 10
0.1998606426581158
 20
-0.2375981582935415
 30
0.0
 10
0.1991151264666734
 20
-0.237705317176041
 30
0.0
 10
0.1982482356374368
 20
-0.2377872771205997
 30
0.0
 10
0.1973157742217634
 20
-0.237822372687872
 30
0.0
 10
0.196482237710117
 20
-0.2378171288187699
 30
0.0
 10
0.1956314740911585
 20
-0.2377766246021994
 30
0.0
 10
0.1946629871550407
 20
-0.2376810945464666
 30
0.0
 10
0.1938133527101857
 20
-0.2375365499546651
 30
0.0
 10
0.1931255490139048
 20
-0.2373726766536997
 30
0.0
 10
0.1928053957581697
 20
-0.2372686146948206
 30
0.0
 10
0.192639991562502
 20
-0.237214852053649
 30
0.0
  0
SPLINE
  5
68
330
1F
100
AcDbEntity
  8
0
  6
Continuous
 62
     7
370
    25
100
AcDbSpline
210
0.0
220
0.0
230
1.0
 70
     8
 71
     3
 72
    13
 73
     9
 74
     0
 42
0.00000001
 43
0.00000001
 40
0.0
 40
0.0
 40
0.0
 40
0.0
 40
0.1656495853495853
 40
0.3318831196760761
 40
0.4986085130168396
 40
0.6656557282608606
 40
0.8328360318658847
 40
1.0
 40
1.0
 40
1.0
 40
1.0
 10
0.2142431103951206
 20
-0.230941628940601
 30
0.0
 10
0.2137295551372239
 20
-0.2314216141448029
 30
0.0
 10
0.2127006342331533
 20
-0.232383276600116
 30
0.0
 10
0.2110392872763013
 20
-0.233618161434421
 30
0.0
 10
0.2093129060365858
 20
-0.2346935238218052
 30
0.0
 10
0.2075306326818926
 20
-0.2355802075373491
 30
0.0
 10
0.2057137015792339
 20
-0.2362916180906719
 30
0.0
 10
0.2044915703688377
 20
-0.2365940282527085
 30
0.0
 10
0.2038805346192264
 20
-0.2367452259461136
 30
0.0
  0
SPLINE
  5
6A
330
1F
100
AcDbEntity
  8
0
  6
Continuous
 62
     7
370
    25
100
AcDbSpline
210
0.0
220
0.0
230
1.0
 70
     8
 71
     3
 72
    10
 73
     6
 74
     0
 42
0.00000001
 43
0.00000001
 40
0.0
 40
0.0
 40
0.0
 40
0.0
 40
0.3335422653085506
 40
0.6668764976819305
 40
1.0
 40
1.0
 40
1.0
 40
1.0
 10
0.192639991562444
 20
-0.2372148520536373
 30
0.0
 10
0.19195541627805
 20
-0.2369855135277392
 30
0.0
 10
0.1905866926842532
 20
-0.2365269795161862
 30
0.0
 10
0.1883865471455851
 20
-0.2358915740994425
 30
0.0
 10
0.1868326576464647
 20
-0.2355059633284094
 30
0.0
 10
0.1860559585623107
 20
-0.235313218906833
 30
0.0
  0
SPLINE
  5
6C
330
1F
100
AcDbEntity
  8
0
  6
Continuous
 62
     7
370
    25
100
AcDbSpline
210
0.0
220
0.0
230
1.0
 70
     8
 71
     3
 72
    14
 73
    10
 74
     0
 42
0.00000001
 43
0.00000001
 40
0.0
 40
0.0
 40
0.0
 40
0.0
 40
0.1995924119277309
 40
0.3111162035961982
 40
0.4312144666308536
 40
0.5602731411816818
 40
0.698397777499445
 40
0.8452782523783018
 40
1.0
 40
1.0
 40
1.0
 40
1.0
 10
0.1677584221249171
 20
-0.2334322877964186
 30
0.0
 10
0.1673736818520076
 20
-0.2335417221557247
 30
0.0
 10
0.1667739649994375
 20
-0.2337123038030001
 30
0.0
 10
0.166035553397602
 20
-0.2340659460758138
 30
0.0
 10
0.165478620028116
 20
-0.2344158498713662
 30
0.0
 10
0.1649703206164492
 20
-0.2348576054296697
 30
0.0
 10
0.1645528794285585
 20
-0.2353965177038579
 30
0.0
 10
0.1642545488052861
 20
-0.2360291135615664
 30
0.0
 10
0.1642164927833153
 20
-0.2364952071612333
 30
0.0
 10
0.1641969700683365
 20
-0.236734312880342
 30
0.0
  0
SPLINE
  5
6D
330
1F
100
AcDbEntity
  8
0
  6
Continuous
 62
     7
370
    25
100
AcDbSpline
210
0.0
220
0.0
230
1.0
 70
     8
 71
     3
 72
    14
 73
    10
 74
     0
 42
0.00000001
 43
0.00000001
 40
0.0
 40
0.0
 40
0.0
 40
0.0
 40
0.1155169226240211
 40
0.2517898963076753
 40
0.408673119180838
 40
0.5397385996606373
 40
0.6821074925575937
 40
0.8355895823097341
 40
1.0
 40
1.0
 40
1.0
 40
1.0
 10
0.2244949279055917
 20
-0.2252426226189173
 30
0.0
 10
0.2240719365933692
 20
-0.2253429012998527
 30
0.0
 10
0.2231499509983217
 20
-0.2255614767094209
 30
0.0
 10
0.2216672393613174
 20
-0.2260688647764307
 30
0.0
 10
0.2201521987646132
 20
-0.2267278317984155
 30
0.0
 10
0.2186512858347303
 20
-0.2275329862631414
 30
0.0
 10
0.2172065619197821
 20
-0.2284558739467974
 30
0.0
 10
0.2157038659978326
 20
-0.2295787691734755
 30
0.0
 10
0.2147410940334286
 20
-0.2304770238012535
 30
0.0
 10
0.2142431592375391
 20
-0.2309415909586658
 30
0.0
  0
SPLINE
  5
6E
330
1F
100
AcDbEntity
  8
0
  6
Continuous
 62
     7
370
    25
100
AcDbSpline
210
0.0
220
0.0
230
1.0
 70
     8
 71
     3
 72
    20
 73
    16
 74
     0
 42
0.00000001
 43
0.00000001
 40
0.0
 40
0.0
 40
0.0
 40
0.0
 40
0.095434098010172
 40
0.1810053902443309
 40
0.2564923951211461
 40
0.3221521587956245
 40
0.3957849667194492
 40
0.4610282327562235
 40
0.520602101872751
 40
0.5749061434429137
 40
0.625824543397332
 40
0.690990043007661
 40
0.7752906057239124
 40
0.8784194680972247
 40
1.0
 40
1.0
 40
1.0
 40
1.0
 10
0.1642248346387833
 20
-0.2414515870660943
 30
0.0
 10
0.1642418036888547
 20
-0.2416641645698658
 30
0.0
 10
0.1642739880924827
 20
-0.242067350379022
 30
0.0
 10
0.1644851987155874
 20
-0.2425975456534495
 30
0.0
 10
0.1647485553274914
 20
-0.243022040010001
 30
0.0
 10
0.1650593863566204
 20
-0.2433792583533126
 30
0.0
 10
0.1653866157084289
 20
-0.2436649170055262
 30
0.0
 10
0.1657379998350891
 20
-0.2439076156267737
 30
0.0
 10
0.1660815155672732
 20
-0.2441017061733247
 30
0.0
 10
0.1664134586295291
 20
-0.2442589189941859
 30
0.0
 10
0.1667652790203096
 20
-0.2444014157655678
 30
0.0
 10
0.1671867347383484
 20
-0.2445463358232291
 30
0.0
 10
0.167753268095348
 20
-0.2447034737420222
 30
0.0
 10
0.1684961436530993
 20
-0.2448624131262447
 30
0.0
 10
0.1690830352371938
 20
-0.2449366068612702
 30
0.0
 10
0.1694005768833422
 20
-0.2449767498815356
 30
0.0
  0
SPLINE
  5
70
330
1F
100
AcDbEntity
  8
0
  6
Continuous
 62
     7
370
    25
100
AcDbSpline
210
0.0
220
0.0
230
1.0
 70
     8
 71
     3
 72
    12
 73
     8
 74
     0
 42
0.00000001
 43
0.00000001
 40
0.0
 40
0.0
 40
0.0
 40
0.0
 40
0.1747897997878344
 40
0.3593083476770522
 40
0.5525547943532586
 40
0.7536515742382525
 40
1.0
 40
1.0
 40
1.0
 40
1.0
 10
0.1860559585623927
 20
-0.2353132189068502
 30
0.0
 10
0.1859185709070522
 20
-0.2352782319828916
 30
0.0
 10
0.1856361486404694
 20
-0.2352063107732262
 30
0.0
 10
0.1853050191395844
 20
-0.2351019412354557
 30
0.0
 10
0.1850440424314727
 20
-0.2350162096313488
 30
0.0
 10
0.1848481812786623
 20
-0.2349547197520296
 30
0.0
 10
0.1847988796128789
 20
-0.2349760849761135
 30
0.0
 10
0.1847717357579445
 20
-0.2349878479568152
 30
0.0
  0
SPLINE
  5
72
330
1F
100
AcDbEntity
  8
0
  6
Continuous
 62
     7
370
    25
100
AcDbSpline
210
0.0
220
0.0
230
1.0
 70
     8
 71
     3
 72
    20
 73
    16
 74
     0
 42
0.00000001
 43
0.00000001
 40
0.0
 40
0.0
 40
0.0
 40
0.0
 40
0.104912356986756
 40
0.1924755324967939
 40
0.2624555707639616
 40
0.3146548598597484
 40
0.3489200262342718
 40
0.3705768015115439
 40
0.4027521877530731
 40
0.4569509409809922
 40
0.5291598984394811
 40
0.6194626652328685
 40
0.7279595349343536
 40
0.854765887725756
 40
1.0
 40
1.0
 40
1.0
 40
1.0
 10
0.2328593229778178
 20
-0.2218417221935892
 30
0.0
 10
0.232723561114542
 20
-0.2219663477610942
 30
0.0
 10
0.2324744881008637
 20
-0.2221949897738862
 30
0.0
 10
0.2320390407786946
 20
-0.2225066571124845
 30
0.0
 10
0.2316477934073755
 20
-0.2227546651424986
 30
0.0
 10
0.2313271162461987
 20
-0.2229392045939073
 30
0.0
 10
0.2310927994642405
 20
-0.2230659454574814
 30
0.0
 10
0.2308903532112338
 20
-0.2231711543848126
 30
0.0
 10
0.2306222806933914
 20
-0.2233049604984555
 30
0.0
 10
0.2302069076736723
 20
-0.2234995584614824
 30
0.0
 10
0.2295977744282092
 20
-0.2237604195278712
 30
0.0
 10
0.2287771357261432
 20
-0.2240748162016111
 30
0.0
 10
0.2277084891795614
 20
-0.2244317756734918
 30
0.0
 10
0.2263630649792495
 20
-0.2248207137965602
 30
0.0
 10
0.2253051678253498
 20
-0.2250613003219458
 30
0.0
 10
0.2247403887804861
 20
-0.2251897421345676
 30
0.0
  0
SPLINE
  5
74
330
1F
100
AcDbEntity
  8
0
  6
Continuous
 62
     7
370
    25
100
AcDbSpline
210
0.0
220
0.0
230
1.0
 70
     8
 71
     3
 72
    11
 73
     7
 74
     0
 42
0.00000001
 43
0.00000001
 40
0.0
 40
0.0
 40
0.0
 40
0.0
 40
0.281842482796214
 40
0.5430541814378659
 40
0.7828201817059365
 40
1.0
 40
1.0
 40
1.0
 40
1.0
 10
0.2411192407109748
 20
-0.2399289815926129
 30
0.0
 10
0.2414697920470832
 20
-0.2398433753751297
 30
0.0
 10
0.2421452344679476
 20
-0.2396784292892872
 30
0.0
 10
0.2429835539799059
 20
-0.2393371956131325
 30
0.0
 10
0.2436629193519092
 20
-0.2389642330805867
 30
0.0
 10
0.244008260618093
 20
-0.2386612495969368
 30
0.0
 10
0.2441723963873517
 20
-0.238517245876469
 30
0.0
  0
SPLINE
  5
77
330
1F
100
AcDbEntity
  8
0
  6
Continuous
 62
     7
370
    25
100
AcDbSpline
210
0.0
220
0.0
230
1.0
 70
     8
 71
     3
 72
    13
 73
     9
 74
     0
 42
0.00000001
 43
0.00000001
 40
0.0
 40
0.0
 40
0.0
 40
0.0
 40
0.1649717595949105
 40
0.3308921151703295
 40
0.4976038401313019
 40
0.6648649430464113
 40
0.8324084045178345
 40
1.0
 40
1.0
 40
1.0
 40
1.0
 10
0.2056581265558143
 20
-0.2204141741083614
 30
0.0
 10
0.2051555219512881
 20
-0.220910058200564
 30
0.0
 10
0.2041474227402812
 20
-0.2219046777436366
 30
0.0
 10
0.2025237329431702
 20
-0.2231884161630796
 30
0.0
 10
0.2008371269419142
 20
-0.2243142947998899
 30
0.0
 10
0.1990970239033831
 20
-0.2252524689586444
 30
0.0
 10
0.1973241053963913
 20
-0.2260159858391011
 30
0.0
 10
0.1961325601538345
 20
-0.2263532043969227
 30
0.0
 10
0.19553670196429
 20
-0.2265218378924611
 30
0.0
  0
SPLINE
  5
78
330
1F
100
AcDbEntity
  8
0
  6
Continuous
 62
     7
370
    25
100
AcDbSpline
210
0.0
220
0.0
230
1.0
 70
     8
 71
     3
 72
    14
 73
    10
 74
     0
 42
0.00000001
 43
0.00000001
 40
0.0
 40
0.0
 40
0.0
 40
0.0
 40
0.1158446660475415
 40
0.2524497122921756
 40
0.4095995401103684
 40
0.5407573277421559
 40
0.6830584582546245
 40
0.8362333683942096
 40
1.0
 40
1.0
 40
1.0
 40
1.0
 10
0.215671360325786
 20
-0.2144264278616596
 30
0.0
 10
0.2152573094441652
 20
-0.2145389585521923
 30
0.0
 10
0.214355006131412
 20
-0.2147841864199768
 30
0.0
 10
0.2129053481780135
 20
-0.2153341497841884
 30
0.0
 10
0.2114249726942276
 20
-0.2160362914542089
 30
0.0
 10
0.2099592589153217
 20
-0.2168838169824669
 30
0.0
 10
0.2085493610102815
 20
-0.2178468957286084
 30
0.0
 10
0.2070838165966319
 20
-0.2190106628313198
 30
0.0
 10
0.2061438297269978
 20
-0.2199360280966966
 30
0.0
 10
0.2056581298009295
 20
-0.2204141729043517
 30
0.0
  0
SPLINE
  5
7A
330
1F
100
AcDbEntity
  8
0
  6
Continuous
 62
     7
370
    25
100
AcDbSpline
210
0.0
220
0.0
230
1.0
 70
     8
 71
     3
 72
    23
 73
    19
 74
     0
 42
0.00000001
 43
0.00000001
 40
0.0
 40
0.0
 40
0.0
 40
0.0
 40
0.0497755612239956
 40
0.0955611534455625
 40
0.1372317223495571
 40
0.1748325864152492
 40
0.2385405872566412
 40
0.2920678275008605
 40
0.3526198018128434
 40
0.4114779684958727
 40
0.4758311386397521
 40
0.5800178454721758
 40
0.6348564472969536
 40
0.6916846953668192
 40
0.7550039890408603
 40
0.8273635977307207
 40
0.9089807661521886
 40
1.0
 40
1.0
 40
1.0
 40
1.0
 10
0.2609922520288059
 20
-0.2089751312180519
 30
0.0
 10
0.2609800179111245
 20
-0.2087903306474545
 30
0.0
 10
0.260956530352807
 20
-0.2084355429715467
 30
0.0
 10
0.260791760032179
 20
-0.2079566111436229
 30
0.0
 10
0.2605746444873666
 20
-0.207554131487022
 30
0.0
 10
0.2602575867819992
 20
-0.2071371568791862
 30
0.0
 10
0.2598492203443499
 20
-0.2067614641156119
 30
0.0
 10
0.2593144003927232
 20
-0.2064089040086074
 30
0.0
 10
0.258731397458124
 20
-0.2061246843147728
 30
0.0
 10
0.2580792535875138
 20
-0.2058882447475039
 30
0.0
 10
0.257226826371064
 20
-0.2056560504176438
 30
0.0
 10
0.2563011126634124
 20
-0.2054931761559652
 30
0.0
 10
0.2553489848216484
 20
-0.2053964710583043
 30
0.0
 10
0.2545553237398276
 20
-0.2053536903555659
 30
0.0
 10
0.2536695431679575
 20
-0.2053492480374405
 30
0.0
 10
0.2526772849582204
 20
-0.2054000621740086
 30
0.0
 10
0.2515900617821209
 20
-0.2055214071384695
 30
0.0
 10
0.2509105013112783
 20
-0.2056701326035723
 30
0.0
 10
0.2505522160794483
 20
-0.2057485452541452
 30
0.0
  0
SPLINE
  5
7C
330
1F
100
AcDbEntity
  8
0
  6
Continuous
 62
     7
370
    25
100
AcDbSpline
210
0.0
220
0.0
230
1.0
 70
     8
 71
     3
 72
    11
 73
     7
 74
     0
 42
0.00000001
 43
0.00000001
 40
0.0
 40
0.0
 40
0.0
 40
0.0
 40
0.2438698219633468
 40
0.4929766513707734
 40
0.74566289270309
 40
0.9999999999999999
 40
0.9999999999999999
 40
0.9999999999999999
 40
0.9999999999999999
 10
0.2601991471907211
 20
-0.2227346408652506
 30
0.0
 10
0.2603271423967294
 20
-0.2225947486223384
 30
0.0
 10
0.2605858814548936
 20
-0.2223119600062298
 30
0.0
 10
0.2608521900799851
 20
-0.2218252988066279
 30
0.0
 10
0.2610295163554324
 20
-0.2213063857041142
 30
0.0
 10
0.2610510910657914
 20
-0.2209480720400602
 30
0.0
 10
0.2610619135445555
 20
-0.2207683318741155
 30
0.0
  0
SPLINE
  5
85
330
1F
100
AcDbEntity
  8
0
  6
Continuous
 62
     7
370
    25
100
AcDbSpline
210
0.0
220
0.0
230
1.0
 70
     8
 71
     3
 72
    11
 73
     7
 74
     0
 42
0.00000001
 43
0.00000001
 40
0.0
 40
0.0
 40
0.0
 40
0.0
 40
0.25
 40
0.5
 40
0.75
 40
1.0
 40
1.0
 40
1.0
 40
1.0
 10
0.1956949525915167
 20
-0.2436789746519849
 30
0.0
 10
0.195693493604193
 20
-0.2434319784433118
 30
0.0
 10
0.1956349325702101
 20
-0.2429069534022442
 30
0.0
 10
0.19539776613456
 20
-0.2421568610330877
 30
0.0
 10
0.1950456925132259
 20
-0.2415533141472974
 30
0.0
 10
0.1947685260449823
 20
-0.2413070848911715
 30
0.0
 10
0.1946306708824077
 20
-0.2412340398876335
 30
0.0
  0
SPLINE
  5
86
330
1F
100
AcDbEntity
  8
0
  6
Continuous
 62
     7
370
    25
100
AcDbSpline
210
0.0
220
0.0
230
1.0
 70
     8
 71
     3
 72
    11
 73
     7
 74
     0
 42
0.00000001
 43
0.00000001
 40
0.0
 40
0.0
 40
0.0
 40
0.0
 40
0.25
 40
0.5
 40
0.75
 40
1.0
 40
1.0
 40
1.0
 40
1.0
 10
0.1862964143815432
 20
-0.2430968182379072
 30
0.0
 10
0.186805183739636
 20
-0.2433322792081017
 30
0.0
 10
0.1881032630693906
 20
-0.2437378462140997
 30
0.0
 10
0.1905847958943014
 20
-0.2440618331416134
 30
0.0
 10
0.1932664039776915
 20
-0.2440576571814061
 30
0.0
 10
0.1949465467834902
 20
-0.2438365647266783
 30
0.0
 10
0.1956949525915167
 20
-0.2436789746519849
 30
0.0
  0
SPLINE
  5
87
330
1F
100
AcDbEntity
  8
0
  6
Continuous
 62
     7
370
    25
100
AcDbSpline
210
0.0
220
0.0
230
1.0
 70
     8
 71
     3
 72
    11
 73
     7
 74
     0
 42
0.00000001
 43
0.00000001
 40
0.0
 40
0.0
 40
0.0
 40
0.0
 40
0.25
 40
0.5
 40
0.75
 40
1.0
 40
1.0
 40
1.0
 40
1.0
 10
0.1862964143815432
 20
-0.2430968182379072
 30
0.0
 10
0.1862949553941852
 20
-0.2428498220295441
 30
0.0
 10
0.1863782501973018
 20
-0.2423335837050481
 30
0.0
 10
0.1867363788386984
 20
-0.2416203646074742
 30
0.0
 10
0.1872757258537496
 20
-0.2410720333549579
 30
0.0
 10
0.1877037799599812
 20
-0.2408694862828484
 30
0.0
 10
0.1879174293045383
 20
-0.2408182138779695
 30
0.0
  0
LWPOLYLINE
  5
88
330
1F
100
AcDbEntity
  8
0
  6
Continuous
 62
     7
370
    25
100
AcDbPolyline
 90
       17
 70
   128
 43
0.0
 10
0.185591806
 20
-0.2316342894
 10
0.1849612046
 20
-0.2318108829
 10
0.1843959892
 20
-0.2320103633
 10
0.1839038993
 20
-0.2322299991
 10
0.1834916732
 20
-0.2324667829
 10
0.1831649555
 20
-0.2327174724
 10
0.1829282202
 20
-0.2329786347
 10
0.1827847087
 20
-0.2332466938
 10
0.1827363863
 20
-0.2335179792
 10
0.1827839146
 20
-0.2337887759
 10
0.1829266429
 20
-0.2340553761
 10
0.1831626166
 20
-0.234314129
 10
0.1834886047
 20
-0.2345614916
 10
0.1839001432
 20
-0.2347940767
 10
0.184391597
 20
-0.2350086994
 10
0.1849562364
 20
-0.2352024209
 10
0.1855863299
 20
-0.2353725885
  0
LWPOLYLINE
  5
90
330
1F
100
AcDbEntity
  8
0
  6
Continuous
 62
     7
370
    25
100
AcDbPolyline
 90
       17
 70
   128
 43
0.0
 10
0.1695822507
 20
-0.2363853941
 10
0.1689534009
 20
-0.2363018996
 10
0.1683659795
 20
-0.2361906624
 10
0.1678308888
 20
-0.236053747
 10
0.1673580598
 20
-0.2358936945
 10
0.1669562678
 20
-0.2357134754
 10
0.1666329699
 20
-0.2355164344
 10
0.1663941663
 20
-0.2353062285
 10
0.166244289
 20
-0.2350867589
 10
0.1661861197
 20
-0.234862099
 10
0.166220738
 20
-0.2346364182
 10
0.1663475013
 20
-0.2344139051
 10
0.1665640571
 20
-0.2341986893
 10
0.1668663861
 20
-0.2339947652
 10
0.1672488774
 20
-0.2338059174
 10
0.1677044321
 20
-0.2336356509
 10
0.1682245954
 20
-0.2334871256
  0
SPLINE
  5
94
330
1F
100
AcDbEntity
  8
0
  6
Continuous
 62
     7
370
    25
100
AcDbSpline
210
0.0
220
0.0
230
1.0
 70
     8
 71
     3
 72
    29
 73
    25
 74
     0
 42
0.00000001
 43
0.00000001
 40
0.0
 40
0.0
 40
0.0
 40
0.0
 40
0.0209946009882459
 40
0.0418137471443053
 40
0.0625470918547618
 40
0.0832854013157734
 40
0.1041193768346256
 40
0.1251384813051737
 40
0.1875741443914954
 40
0.2500987239577013
 40
0.3125343870397377
 40
0.3750589666102731
 40
0.4374946296969975
 40
0.5000192092631414
 40
0.5624548723570063
 40
0.624979451915809
 40
0.6874151150061361
 40
0.7499396945682498
 40
0.8123753576533719
 40
0.8748999372208465
 40
0.9061309215305102
 40
0.9374498614871688
 40
0.9687029722631618
 40
1.0
 40
1.0
 40
1.0
 40
1.0
 10
0.1901033906707003
 20
-0.2396364541674018
 30
0.0
 10
0.1901182325832242
 20
-0.2396226698274884
 30
0.0
 10
0.1901477923723225
 20
-0.2395952163453283
 30
0.0
 10
0.1902020238796251
 20
-0.2395554114385165
 30
0.0
 10
0.1902632123055402
 20
-0.2395169277900442
 30
0.0
 10
0.1903320616131648
 20
-0.2394798441529643
 30
0.0
 10
0.1904083985155106
 20
-0.2394441404610805
 30
0.0
 10
0.1905467827922372
 20
-0.2393874741368173
 30
0.0
 10
0.1907704708798535
 20
-0.239316302070914
 30
0.0
 10
0.1911058258600097
 20
-0.2392457000483523
 30
0.0
 10
0.1914747324108959
 20
-0.2391971985661087
 30
0.0
 10
0.1918641186387327
 20
-0.2391740778247251
 30
0.0
 10
0.1922586791471079
 20
-0.2391757841995856
 30
0.0
 10
0.1926427602445662
 20
-0.2392036870330533
 30
0.0
 10
0.1930029185359571
 20
-0.2392553354257926
 30
0.0
 10
0.1933232158656649
 20
-0.2393300156957584
 30
0.0
 10
0.1935941391921682
 20
-0.2394237409808353
 30
0.0
 10
0.1938018917290511
 20
-0.2395338342444981
 30
0.0
 10
0.1939423202588096
 20
-0.2396553474285687
 30
0.0
 10
0.1939953512227234
 20
-0.2397627151334255
 30
0.0
 10
0.1940001377073027
 20
-0.2398495180496827
 30
0.0
 10
0.1939839097164999
 20
-0.2399145106634623
 30
0.0
 10
0.1939500113067604
 20
-0.2399789580868001
 30
0.0
 10
0.1939115272239382
 20
-0.2400206509903561
 30
0.0
 10
0.1938922716725333
 20
-0.2400415120785974
 30
0.0
  0
SPLINE
  5
95
330
1F
100
AcDbEntity
  8
0
  6
Continuous
 62
     7
370
    25
100
AcDbSpline
210
0.0
220
0.0
230
1.0
 70
     8
 71
     3
 72
    29
 73
    25
 74
     0
 42
0.00000001
 43
0.00000001
 40
0.0
 40
0.0
 40
0.0
 40
0.0
 40
0.0209946009354827
 40
0.0418137470914548
 40
0.0625470918291293
 40
0.0832854013186225
 40
0.104119376841215
 40
0.1251384812653446
 40
0.1875741443492226
 40
0.250098723928849
 40
0.3125343870079525
 40
0.3750589665921057
 40
0.4374946296752396
 40
0.5000192092559443
 40
0.5624548723429451
 40
0.6249794519192133
 40
0.6874151150007533
 40
0.7499396945826632
 40
0.8123753576652188
 40
0.8748999372461888
 40
0.9061309215438504
 40
0.9374498614998633
 40
0.9687029722667001
 40
1.0
 40
1.0
 40
1.0
 40
1.0
 10
0.1938922716725605
 20
-0.2400415120786003
 30
0.0
 10
0.1938774297531158
 20
-0.2400552964155129
 30
0.0
 10
0.1938478699501969
 20
-0.2400827498917308
 30
0.0
 10
0.1937936384258278
 20
-0.2401225547893258
 30
0.0
 10
0.193732449985618
 20
-0.2401610384285156
 30
0.0
 10
0.1936636006667142
 20
-0.2401981220562182
 30
0.0
 10
0.1935872637560454
 20
-0.2402338257386377
 30
0.0
 10
0.1934488794701268
 20
-0.2402904920472612
 30
0.0
 10
0.1932251913820847
 20
-0.2403616640918051
 30
0.0
 10
0.1928898364240239
 20
-0.240432266090771
 30
0.0
 10
0.1925209299118256
 20
-0.2404807675542143
 30
0.0
 10
0.1921315437350598
 20
-0.2405038882835671
 30
0.0
 10
0.1917369832832578
 20
-0.2405021819033734
 30
0.0
 10
0.1913529022415809
 20
-0.2404742790722578
 30
0.0
 10
0.1909927439993474
 20
-0.2404226306883785
 30
0.0
 10
0.1906724467053789
 20
-0.2403479504336201
 30
0.0
 10
0.1904015233978702
 20
-0.2402542251680698
 30
0.0
 10
0.1901937708577002
 20
-0.2401441319269829
 30
0.0
 10
0.1900533423024356
 20
-0.2400226187661493
 30
0.0
 10
0.1900003112963478
 20
-0.2399152510795474
 30
0.0
 10
0.1899955247672586
 20
-0.2398284481760255
 30
0.0
 10
0.1900117527191658
 20
-0.2397634555706028
 30
0.0
 10
0.1900456510854313
 20
-0.2396990081543323
 30
0.0
 10
0.1900841351356394
 20
-0.2396573152540233
 30
0.0
 10
0.1901033906707275
 20
-0.2396364541674047
 30
0.0
  0
SPLINE
  5
96
330
1F
100
AcDbEntity
  8
0
  6
Continuous
 62
     7
370
    25
100
AcDbSpline
210
0.0
220
0.0
230
1.0
 70
     8
 71
     3
 72
    29
 73
    25
 74
     0
 42
0.00000001
 43
0.00000001
 40
0.0
 40
0.0
 40
0.0
 40
0.0
 40
0.0209946009361544
 40
0.0418137470924571
 40
0.0625470918301801
 40
0.0832854013194849
 40
0.1041193768417367
 40
0.1251384812654728
 40
0.1875741443492531
 40
0.2500987239288625
 40
0.3125343870161769
 40
0.3750589665924835
 40
0.4374946296844178
 40
0.5000192092559322
 40
0.5624548723488718
 40
0.6249794519194013
 40
0.6874151150082128
 40
0.7499396945826488
 40
0.8123753576684288
 40
0.8748999372461458
 40
0.9061309215457568
 40
0.9374498614998545
 40
0.968702972266975
 40
1.0
 40
1.0
 40
1.0
 40
1.0
 10
0.173079366279567
 20
-0.235009662586713
 30
0.0
 10
0.1730645243601376
 20
-0.2350234469236328
 30
0.0
 10
0.1730349645572494
 20
-0.2350509003998647
 30
0.0
 10
0.1729807330329182
 20
-0.2350907052974812
 30
0.0
 10
0.1729195445927406
 20
-0.2351291889366921
 30
0.0
 10
0.1728506952738625
 20
-0.2351662725644158
 30
0.0
 10
0.1727743583632133
 20
-0.2352019762468559
 30
0.0
 10
0.1726359740773148
 20
-0.2352586425555138
 30
0.0
 10
0.1724122859892734
 20
-0.2353298146001056
 30
0.0
 10
0.1720769310311484
 20
-0.2354004165991267
 30
0.0
 10
0.1717080245188674
 20
-0.2354489180626191
 30
0.0
 10
0.1713186383419615
 20
-0.2354720387919919
 30
0.0
 10
0.1709240778900506
 20
-0.235470332411803
 30
0.0
 10
0.1705399968482353
 20
-0.2354424295806854
 30
0.0
 10
0.1701798386059036
 20
-0.2353907811967902
 30
0.0
 10
0.1698595413118501
 20
-0.2353161009419903
 30
0.0
 10
0.1695886180043164
 20
-0.2352223756763962
 30
0.0
 10
0.1693808654641454
 20
-0.2351122824352576
 30
0.0
 10
0.1692404369089482
 20
-0.2349907692743756
 30
0.0
 10
0.1691874059029553
 20
-0.2348834015877311
 30
0.0
 10
0.1691826193739702
 20
-0.2347965986841828
 30
0.0
 10
0.1691988473259639
 20
-0.2347316060787409
 30
0.0
 10
0.1692327456923278
 20
-0.2346671586624558
 30
0.0
 10
0.1692712297426094
 20
-0.2346254657621395
 30
0.0
 10
0.1692904852777341
 20
-0.2346046046755174
 30
0.0
  0
SPLINE
  5
97
330
1F
100
AcDbEntity
  8
0
  6
Continuous
 62
     7
370
    25
100
AcDbSpline
210
0.0
220
0.0
230
1.0
 70
     8
 71
     3
 72
    29
 73
    25
 74
     0
 42
0.00000001
 43
0.00000001
 40
0.0
 40
0.0
 40
0.0
 40
0.0
 40
0.0209946009877696
 40
0.0418137471435664
 40
0.0625470918539195
 40
0.0832854013150189
 40
0.104119376834143
 40
0.1251384813051566
 40
0.1875741443959208
 40
0.2500987239579193
 40
0.3125343870448548
 40
0.3750589666102725
 40
0.4374946296968527
 40
0.5000192092631497
 40
0.5624548723573246
 40
0.6249794519158295
 40
0.6874151150070014
 40
0.749939694568285
 40
0.8123753576539761
 40
0.8748999372208558
 40
0.9061309215305936
 40
0.9374498614871818
 40
0.9687029722631769
 40
1.0
 40
1.0
 40
1.0
 40
1.0
 10
0.16929048527774
 20
-0.2346046046755181
 30
0.0
 10
0.1693053271902637
 20
-0.234590820335605
 30
0.0
 10
0.1693348869793615
 20
-0.2345633668534455
 30
0.0
 10
0.1693891184866635
 20
-0.2345235619466341
 30
0.0
 10
0.1694503069125785
 20
-0.2344850782981621
 30
0.0
 10
0.1695191562202034
 20
-0.2344479946610819
 30
0.0
 10
0.1695954931225495
 20
-0.2344122909691977
 30
0.0
 10
0.1697338773992821
 20
-0.2343556246449313
 30
0.0
 10
0.1699575654868931
 20
-0.2342844525790251
 30
0.0
 10
0.1702929204670676
 20
-0.2342138505564657
 30
0.0
 10
0.1706618270179487
 20
-0.2341653490742276
 30
0.0
 10
0.1710512132457824
 20
-0.2341422283328406
 30
0.0
 10
0.1714457737541474
 20
-0.2341439347077019
 30
0.0
 10
0.1718298548516062
 20
-0.2341718375411698
 30
0.0
 10
0.1721900131429976
 20
-0.2342234859339088
 30
0.0
 10
0.1725103104727062
 20
-0.2342981662038753
 30
0.0
 10
0.1727812337992095
 20
-0.2343918914889519
 30
0.0
 10
0.1729889863360922
 20
-0.2345019847526151
 30
0.0
 10
0.1731294148658485
 20
-0.2346234979366857
 30
0.0
 10
0.1731824458297633
 20
-0.2347308656415421
 30
0.0
 10
0.1731872323143423
 20
-0.2348176685577991
 30
0.0
 10
0.1731710043235396
 20
-0.2348826611715788
 30
0.0
 10
0.1731371059138001
 20
-0.2349471085949163
 30
0.0
 10
0.1730986218309779
 20
-0.2349888014984725
 30
0.0
 10
0.1730793662795731
 20
-0.2350096625867137
 30
0.0
  0
SPLINE
  5
98
330
1F
100
AcDbEntity
  8
0
  6
Continuous
 62
     7
370
    25
100
AcDbSpline
210
0.0
220
0.0
230
1.0
 70
     8
 71
     3
 72
     9
 73
     5
 74
     0
 42
0.00000001
 43
0.00000001
 40
0.0
 40
0.0
 40
0.0
 40
0.0
 40
0.5000000000000004
 40
1.0
 40
1.0
 40
1.0
 40
1.0
 10
0.1863242789519094
 20
-0.2478140924236691
 30
0.0
 10
0.1842061225170534
 20
-0.2468337991708969
 30
0.0
 10
0.1790226879202383
 20
-0.2451007589524144
 30
0.0
 10
0.1724519347512886
 20
-0.2439920381277181
 30
0.0
 10
0.1689801911242023
 20
-0.2436208845140299
 30
0.0
  0
SPLINE
  5
9A
330
1F
100
AcDbEntity
  8
0
  6
Continuous
 62
     7
370
    25
100
AcDbSpline
210
0.0
220
0.0
230
1.0
 70
     8
 71
     3
 72
     9
 73
     5
 74
     0
 42
0.00000001
 43
0.00000001
 40
0.0
 40
0.0
 40
0.0
 40
0.0
 40
0.5000000000000004
 40
1.0
 40
1.0
 40
1.0
 40
1.0
 10
0.1689523265538342
 20
-0.238903610327959
 30
0.0
 10
0.1724240701809205
 20
-0.2392747639422754
 30
0.0
 10
0.1789948233496051
 20
-0.2403834847674414
 30
0.0
 10
0.1841782579466853
 20
-0.242116524984826
 30
0.0
 10
0.1862964143815413
 20
-0.2430968182375982
 30
0.0
  0
SPLINE
  5
9D
330
1F
100
AcDbEntity
  8
0
  6
Continuous
 62
     7
370
    25
100
AcDbSpline
210
0.0
220
0.0
230
1.0
 70
     8
 71
     3
 72
    11
 73
     7
 74
     0
 42
0.00000001
 43
0.00000001
 40
0.0
 40
0.0
 40
0.0
 40
0.0
 40
0.25
 40
0.5
 40
0.75
 40
1.0
 40
1.0
 40
1.0
 40
1.0
 10
0.1957228171618835
 20
-0.2483962488368848
 30
0.0
 10
0.1949744113538538
 20
-0.2485538389115778
 30
0.0
 10
0.1932942685480536
 20
-0.2487749313663129
 30
0.0
 10
0.1906126604646659
 20
-0.2487791073267742
 30
0.0
 10
0.1881311276397573
 20
-0.2484551203997138
 30
0.0
 10
0.1868330483100029
 20
-0.2480495533939445
 30
0.0
 10
0.1863242789519099
 20
-0.24781409242375
 30
0.0
  0
SPLINE
  5
9E
330
1F
100
AcDbEntity
  8
0
  6
Continuous
 62
     7
370
    25
100
AcDbSpline
210
0.0
220
0.0
230
1.0
 70
     8
 71
     3
 72
     8
 73
     4
 74
     0
 42
0.00000001
 43
0.00000001
 40
0.0
 40
0.0
 40
0.0
 40
0.0
 40
1.0
 40
1.0
 40
1.0
 40
1.0
 10
0.1978228481473019
 20
-0.2432230254094306
 30
0.0
 10
0.1978099742636725
 20
-0.2421966579252934
 30
0.0
 10
0.197318617872625
 20
-0.2410849680956429
 30
0.0
 10
0.1967381587202816
 20
-0.2407824635191807
 30
0.0
  0
SPLINE
  5
9F
330
1F
100
AcDbEntity
  8
0
  6
Continuous
 62
     7
370
    25
100
AcDbSpline
210
0.0
220
0.0
230
1.0
 70
     8
 71
     3
 72
    14
 73
    10
 74
     0
 42
0.00000001
 43
0.00000001
 40
0.0
 40
0.0
 40
0.0
 40
0.0
 40
0.25
 40
0.25
 40
0.5
 40
0.5
 40
0.75
 40
0.75
 40
1.0
 40
1.0
 40
1.0
 40
1.0
 10
0.2069898182687607
 20
-0.2412585426412605
 30
0.0
 10
0.2069883592813891
 20
-0.2410115464295691
 30
0.0
 10
0.2069591328799791
 20
-0.2407501995441672
 30
0.0
 10
0.2068495504397528
 20
-0.2402381963048154
 30
0.0
 10
0.2067692375169496
 20
-0.2399877414022878
 30
0.0
 10
0.2065696735448127
 20
-0.2395356752008808
 30
0.0
 10
0.2064505010153842
 20
-0.2393342417707571
 30
0.0
 10
0.2061913373178161
 20
-0.2390109355902725
 30
0.0
 10
0.20605144811953
 20
-0.2388891900470946
 30
0.0
 10
0.2059117940703508
 20
-0.2388165271855598
 30
0.0
  0
SPLINE
  5
A2
330
1F
100
AcDbEntity
  8
0
  6
Continuous
 62
     7
370
    25
100
AcDbSpline
210
0.0
220
0.0
230
1.0
 70
     8
 71
     3
 72
    11
 73
     7
 74
     0
 42
0.00000001
 43
0.00000001
 40
0.0
 40
0.0
 40
0.0
 40
0.0
 40
0.25
 40
0.5
 40
0.75
 40
1.0
 40
1.0
 40
1.0
 40
1.0
 10
0.1689523265538274
 20
-0.238903610328267
 30
0.0
 10
0.1689508675664693
 20
-0.238656614119904
 30
0.0
 10
0.1689818061406127
 20
-0.2381277178476892
 30
0.0
 10
0.1691202229531905
 20
-0.2373613799356575
 30
0.0
 10
0.1693305639576662
 20
-0.2367335062697495
 30
0.0
 10
0.1694983348727712
 20
-0.2364680316145009
 30
0.0
 10
0.1695822507436931
 20
-0.2363853940880473
 30
0.0
  0
SPLINE
  5
A3
330
1F
100
AcDbEntity
  8
0
  6
Continuous
 62
     7
370
    25
100
AcDbSpline
210
0.0
220
0.0
230
1.0
 70
     8
 71
     3
 72
     8
 73
     4
 74
     0
 42
0.00000001
 43
0.00000001
 40
0.0
 40
0.0
 40
0.0
 40
0.0
 40
1.0
 40
1.0
 40
1.0
 40
1.0
 10
0.2161251238386995
 20
-0.2329496136372847
 30
0.0
 10
0.2131763936680572
 20
-0.2359067868889087
 30
0.0
 10
0.2095568819595269
 20
-0.2379859682077395
 30
0.0
 10
0.2059117937721346
 20
-0.2388165279142883
 30
0.0
  0
SPLINE
  5
A4
330
1F
100
AcDbEntity
  8
0
  6
Continuous
 62
     7
370
    25
100
AcDbSpline
210
0.0
220
0.0
230
1.0
 70
     8
 71
     3
 72
    16
 73
    12
 74
     0
 42
0.00000001
 43
0.00000001
 40
0.0
 40
0.0
 40
0.0
 40
0.0
 40
0.1249999999999922
 40
0.1249999999999922
 40
0.2499999999999845
 40
0.2499999999999845
 40
0.4999999999999897
 40
0.4999999999999897
 40
0.7499999999999949
 40
0.7499999999999949
 40
1.0
 40
1.0
 40
1.0
 40
1.0
 10
0.2183274599839803
 20
-0.234932167494003
 30
0.0
 10
0.2182565355153535
 20
-0.2348329997242701
 30
0.0
 10
0.218178624794944
 20
-0.2347313352454268
 30
0.0
 10
0.2180081045818314
 20
-0.2345221401676896
 30
0.0
 10
0.2179161479858907
 20
-0.2344153946459438
 30
0.0
 10
0.2176273123544106
 20
-0.23409726777532
 30
0.0
 10
0.2174163363434676
 20
-0.2338871352245645
 30
0.0
 10
0.2169983124695578
 20
-0.2335106931275216
 30
0.0
 10
0.2167917683013098
 20
-0.2333455496933631
 30
0.0
 10
0.2164195757318518
 20
-0.2330880244288791
 30
0.0
 10
0.2162545356069142
 20
-0.2329956978996948
 30
0.0
 10
0.2161251236595933
 20
-0.2329496138172699
 30
0.0
  0
SPLINE
  5
A5
330
1F
100
AcDbEntity
  8
0
  6
Continuous
 62
     7
370
    25
100
AcDbSpline
210
0.0
220
0.0
230
1.0
 70
     8
 71
     3
 72
     8
 73
     4
 74
     0
 42
0.00000001
 43
0.00000001
 40
0.0
 40
0.0
 40
0.0
 40
0.0
 40
1.0
 40
1.0
 40
1.0
 40
1.0
 10
0.2042900307274854
 20
-0.2368128602719712
 30
0.0
 10
0.2079351186033316
 20
-0.2359823003231105
 30
0.0
 10
0.2115546299519106
 20
-0.2339031188851924
 30
0.0
 10
0.2145033596462412
 20
-0.2309459456732861
 30
0.0
  0
SPLINE
  5
A7
330
1F
100
AcDbEntity
  8
0
  6
Continuous
 62
     7
370
    25
100
AcDbSpline
210
0.0
220
0.0
230
1.0
 70
     8
 71
     3
 72
    29
 73
    25
 74
     0
 42
0.00000001
 43
0.00000001
 40
0.0
 40
0.0
 40
0.0
 40
0.0
 40
0.034882855146267
 40
0.0703615078256598
 40
0.1064363297432794
 40
0.1431076744087402
 40
0.180375878289682
 40
0.2182412618759386
 40
0.2567041306625472
 40
0.2957647760588123
 40
0.3354234762299134
 40
0.3756804968770326
 40
0.4165360919611466
 40
0.457990504375376
 40
0.5000439665700889
 40
0.5391898561589634
 40
0.5824368018798175
 40
0.6297849224979309
 40
0.6812342869237415
 40
0.7367849271468053
 40
0.7964368467241559
 40
0.8601900265384029
 40
0.9280444288159421
 40
1.0
 40
1.0
 40
1.0
 40
1.0
 10
0.2161251230143824
 20
-0.2329496125954345
 30
0.0
 10
0.2162310434181582
 20
-0.2328486503459193
 30
0.0
 10
0.2164446933412485
 20
-0.232645001416393
 30
0.0
 10
0.2167739390160609
 20
-0.2323456040233173
 30
0.0
 10
0.2171131105895394
 20
-0.2320479254980783
 30
0.0
 10
0.217462724402391
 20
-0.231753080483393
 30
0.0
 10
0.2178227056326993
 20
-0.231461409032856
 30
0.0
 10
0.2181931191232721
 20
-0.2311734821356492
 30
0.0
 10
0.2185739673318882
 20
-0.2308898252189649
 30
0.0
 10
0.2189652443591557
 20
-0.2306109936061711
 30
0.0
 10
0.2193669200033798
 20
-0.2303375514199884
 30
0.0
 10
0.2197789417214827
 20
-0.2300700763849887
 30
0.0
 10
0.2202012365753757
 20
-0.2298091594193493
 30
0.0
 10
0.2206336944673355
 20
-0.2295553980316019
 30
0.0
 10
0.2210639269263743
 20
-0.2293162574504125
 30
0.0
 10
0.2215036830495636
 20
-0.2290846719488293
 30
0.0
 10
0.2219653359908982
 20
-0.2288550510323387
 30
0.0
 10
0.2224744055278877
 20
-0.2286181139982709
 30
0.0
 10
0.2230314708803458
 20
-0.2283779981169258
 30
0.0
 10
0.2236369388338325
 20
-0.2281393164706853
 30
0.0
 10
0.2242909656375199
 20
-0.2279068788101277
 30
0.0
 10
0.2249933939110473
 20
-0.2276868235591886
 30
0.0
 10
0.2257436919627921
 20
-0.2274819489789497
 30
0.0
 10
0.2262599750738063
 20
-0.2273710848946084
 30
0.0
 10
0.2265256889225819
 20
-0.2273140268155953
 30
0.0
  0
SPLINE
  5
A8
330
1F
100
AcDbEntity
  8
0
  6
Continuous
 62
     7
370
    25
100
AcDbSpline
210
0.0
220
0.0
230
1.0
 70
     8
 71
     3
 72
    12
 73
     8
 74
     0
 42
0.00000001
 43
0.00000001
 40
0.0
 40
0.0
 40
0.0
 40
0.0
 40
0.2499999999999887
 40
0.2499999999999887
 40
0.4999999999999775
 40
0.4999999999999775
 40
1.0
 40
1.0
 40
1.0
 40
1.0
 10
0.2276037131013429
 20
-0.2297560422585515
 30
0.0
 10
0.2276022541139904
 20
-0.2295090460503976
 30
0.0
 10
0.2275728678802056
 20
-0.2292478478442034
 30
0.0
 10
0.2274634336689971
 20
-0.2287360350107061
 30
0.0
 10
0.2273829475946112
 20
-0.2284854530996862
 30
0.0
 10
0.227083800206929
 20
-0.227807278906622
 30
0.0
 10
0.2268049970195532
 20
-0.2274593525460224
 30
0.0
 10
0.2265256889252798
 20
-0.2273140268148773
 30
0.0
  0
SPLINE
  5
AA
330
1F
100
AcDbEntity
  8
0
  6
Continuous
 62
     7
370
    25
100
AcDbSpline
210
0.0
220
0.0
230
1.0
 70
     8
 71
     3
 72
     8
 73
     4
 74
     0
 42
0.00000001
 43
0.00000001
 40
0.0
 40
0.0
 40
0.0
 40
0.0
 40
1.0
 40
1.0
 40
1.0
 40
1.0
 10
0.2145033596459027
 20
-0.2309459456756116
 30
0.0
 10
0.2175031548688696
 20
-0.2280574240632429
 30
0.0
 10
0.2211952787807628
 20
-0.2260568328257206
 30
0.0
 10
0.2249039255666019
 20
-0.2253103598888594
 30
0.0
  0
SPLINE
  5
AC
330
1F
100
AcDbEntity
  8
0
  6
Continuous
 62
     7
370
    25
100
AcDbSpline
210
0.0
220
0.0
230
1.0
 70
     8
 71
     3
 72
    14
 73
    10
 74
     0
 42
0.00000001
 43
0.00000001
 40
0.0
 40
0.0
 40
0.0
 40
0.0
 40
0.25
 40
0.25
 40
0.5
 40
0.5
 40
0.75
 40
0.75
 40
1.0
 40
1.0
 40
1.0
 40
1.0
 10
0.2416971889852367
 20
-0.2267357700093094
 30
0.0
 10
0.24169572999793
 20
-0.2264887738008345
 30
0.0
 10
0.2416665035973228
 20
-0.2262274269190343
 30
0.0
 10
0.2415569211599542
 20
-0.2257154236861003
 30
0.0
 10
0.2414766082392028
 20
-0.2254649687863755
 30
0.0
 10
0.2412770442718051
 20
-0.2250129025883693
 30
0.0
 10
0.2411578717450583
 20
-0.2248114691588329
 30
0.0
 10
0.2408987080526231
 20
-0.2244881629764264
 30
0.0
 10
0.2407588188567809
 20
-0.2243664174307339
 30
0.0
 10
0.2406191648094734
 20
-0.2242937545650833
 30
0.0
  0
LWPOLYLINE
  5
B1
330
1F
100
AcDbEntity
  8
0
  6
Continuous
 62
     7
370
    25
100
AcDbPolyline
 90
       22
 70
   128
 43
0.0
 10
0.2285036706
 20
-0.2138723626
 10
0.2292119223
 20
-0.2137171254
 10
0.2299699816
 20
-0.2135909415
 10
0.230766857
 20
-0.2134956407
 10
0.2315909942
 20
-0.2134326047
 10
0.2324304435
 20
-0.2134027476
 10
0.2332730333
 20
-0.2134065021
 10
0.2341065466
 20
-0.213443814
 10
0.2349188977
 20
-0.2135141421
 10
0.235698308
 20
-0.2136164668
 10
0.2364334764
 20
-0.2137493043
 10
0.2371137433
 20
-0.2139107288
 10
0.2377292451
 20
-0.2140983994
 10
0.2382710574
 20
-0.2143095952
 10
0.2387313241
 20
-0.2145412538
 10
0.2391033717
 20
-0.2147900164
 10
0.2393818055
 20
-0.2150522759
 10
0.2395625885
 20
-0.2153242299
 10
0.2396430993
 20
-0.2156019349
 10
0.2396221707
 20
-0.2158813646
 10
0.239500106
 20
-0.2161584672
 10
0.2392786751
 20
-0.2164292249
  0
LWPOLYLINE
  5
B5
330
1F
100
AcDbEntity
  8
0
  6
Continuous
 62
     7
370
    25
100
AcDbPolyline
 90
       19
 70
   128
 43
0.0
 10
0.2587148211
 20
-0.2076297133
 10
0.2588924834
 20
-0.2074035651
 10
0.2589731985
 20
-0.2071718975
 10
0.2589553742
 20
-0.2069392805
 10
0.2588393622
 20
-0.2067103028
 10
0.258627451
 20
-0.2064894813
 10
0.2583238208
 20
-0.2062811719
 10
0.2579344611
 20
-0.206089484
 10
0.2574670526
 20
-0.2059181988
 10
0.2569308156
 20
-0.2057706951
 10
0.2563363281
 20
-0.2056498827
 10
0.2556953172
 20
-0.2055581448
 10
0.2550204279
 20
-0.205497291
 10
0.2543249731
 20
-0.2054685217
 10
0.2536226717
 20
-0.2054724045
 10
0.2529273776
 20
-0.2055088628
 10
0.2522528065
 20
-0.2055771774
 10
0.2516122652
 20
-0.2056760006
 10
0.2510183893
 20
-0.2058033831
  0
SPLINE
  5
B7
330
1F
100
AcDbEntity
  8
0
  6
Continuous
 62
     7
370
    25
100
AcDbSpline
210
0.0
220
0.0
230
1.0
 70
     8
 71
     3
 72
    29
 73
    25
 74
     0
 42
0.00000001
 43
0.00000001
 40
0.0
 40
0.0
 40
0.0
 40
0.0
 40
0.0209946060790925
 40
0.0418137521522762
 40
0.0625470941272537
 40
0.0832854007870808
 40
0.1041193760250885
 40
0.1251384852533692
 40
0.1875741484002191
 40
0.2500987268283941
 40
0.3125343899761316
 40
0.3750589684031794
 40
0.4374946315537108
 40
0.500019209978272
 40
0.5624548731306271
 40
0.624979451553035
 40
0.6874151147032298
 40
0.749939693127955
 40
0.8123753562783723
 40
0.8748999347028159
 40
0.90613092025085
 40
0.9374498602265977
 40
0.9687029719360298
 40
1.0
 40
1.0
 40
1.0
 40
1.0
 10
0.2360575284287142
 20
-0.2227034671451761
 30
0.0
 10
0.2360723696533069
 20
-0.2226896825071367
 30
0.0
 10
0.2361019280686646
 20
-0.2226622284345849
 30
0.0
 10
0.2361561578795995
 20
-0.2226224226119112
 30
0.0
 10
0.2362173448847666
 20
-0.2225839380409631
 30
0.0
 10
0.2362861930714527
 20
-0.2225468534718542
 30
0.0
 10
0.2363625291468116
 20
-0.2225111488391902
 30
0.0
 10
0.2365009125094865
 20
-0.2224544809603693
 30
0.0
 10
0.2367246005547783
 20
-0.2223833067714586
 30
0.0
 10
0.2370599577308212
 20
-0.2223127024039953
 30
0.0
 10
0.2374288681272439
 20
-0.2222641990534354
 30
0.0
 10
0.2378182594300255
 20
-0.222241077116098
 30
0.0
 10
0.2382128255614815
 20
-0.2222427829606732
 30
0.0
 10
0.2385969122017461
 20
-0.2222706860278762
 30
0.0
 10
0.2389570753786802
 20
-0.2223223353015343
 30
0.0
 10
0.2392773762599183
 20
-0.2223970170821189
 30
0.0
 10
0.239548301476056
 20
-0.2224907443078983
 30
0.0
 10
0.2397560536855172
 20
-0.2226008398152993
 30
0.0
 10
0.2398964796818814
 20
-0.2227223553092464
 30
0.0
 10
0.2399495064537921
 20
-0.2228297248284313
 30
0.0
 10
0.2399542885147661
 20
-0.2229165290105376
 30
0.0
 10
0.23993805665826
 20
-0.2229815224548949
 30
0.0
 10
0.2399041539277818
 20
-0.2230459705805691
 30
0.0
 10
0.2398656666035883
 20
-0.2230876638068205
 30
0.0
 10
0.2398464094305467
 20
-0.2231085250563204
 30
0.0
  0
SPLINE
  5
B8
330
1F
100
AcDbEntity
  8
0
  6
Continuous
 62
     7
370
    25
100
AcDbSpline
210
0.0
220
0.0
230
1.0
 70
     8
 71
     3
 72
    29
 73
    25
 74
     0
 42
0.00000001
 43
0.00000001
 40
0.0
 40
0.0
 40
0.0
 40
0.0
 40
0.0209946060290527
 40
0.0418137521038753
 40
0.0625470941066786
 40
0.0832854007945098
 40
0.1041193760345682
 40
0.1251384852136425
 40
0.1875741483593637
 40
0.2500987267993389
 40
0.3125343899474411
 40
0.375058968385249
 40
0.4374946315386743
 40
0.5000192099710555
 40
0.5624548731250621
 40
0.62497945155677
 40
0.6874151147108559
 40
0.7499396931425707
 40
0.8123753562956474
 40
0.8748999347282356
 40
0.9061309202669402
 40
0.9374498602393778
 40
0.9687029719414597
 40
1.0
 40
1.0
 40
1.0
 40
1.0
 10
0.2398464094305517
 20
-0.2231085250563209
 30
0.0
 10
0.2398315681990204
 20
-0.2231223096913547
 30
0.0
 10
0.2398020097698074
 20
-0.223149763757954
 30
0.0
 10
0.2397477799417635
 20
-0.223189569571393
 30
0.0
 10
0.2396865929222678
 20
-0.2232280541330385
 30
0.0
 10
0.2396177447242777
 20
-0.2232651386927477
 30
0.0
 10
0.2395414086405807
 20
-0.2233008433159228
 30
0.0
 10
0.2394030252686865
 20
-0.2233575111790637
 30
0.0
 10
0.2391793372229656
 20
-0.2234286853465618
 30
0.0
 10
0.2388439800690717
 20
-0.2234992896903797
 30
0.0
 10
0.2384750697114329
 20
-0.2235477930221025
 30
0.0
 10
0.2380856784598203
 20
-0.2235709149473745
 30
0.0
 10
0.2376911123850753
 20
-0.2235692090974492
 30
0.0
 10
0.2373070258007041
 20
-0.2235413060326049
 30
0.0
 10
0.2369468626730451
 20
-0.2234896567678322
 30
0.0
 10
0.2366265618276201
 20
-0.2234149750024787
 30
0.0
 10
0.2363556366305429
 20
-0.2233212477962715
 30
0.0
 10
0.2361478844177786
 20
-0.223211152311496
 30
0.0
 10
0.2360074583958737
 20
-0.2230896368408458
 30
0.0
 10
0.2359544315816857
 20
-0.222982267339956
 30
0.0
 10
0.2359496494761008
 20
-0.2228954631706177
 30
0.0
 10
0.2359658812936239
 20
-0.2228304697346352
 30
0.0
 10
0.23599978398053
 20
-0.2227660216160462
 30
0.0
 10
0.2360382712720338
 20
-0.2227243283930491
 30
0.0
 10
0.2360575284287196
 20
-0.2227034671451767
 30
0.0
  0
SPLINE
  5
B9
330
1F
100
AcDbEntity
  8
0
  6
Continuous
 62
     7
370
    25
100
AcDbSpline
210
0.0
220
0.0
230
1.0
 70
     8
 71
     3
 72
    29
 73
    25
 74
     0
 42
0.00000001
 43
0.00000001
 40
0.0
 40
0.0
 40
0.0
 40
0.0
 40
0.0209946060733074
 40
0.0418137521483562
 40
0.0625470941285516
 40
0.0832854007926078
 40
0.1041193760294255
 40
0.125138485246866
 40
0.1875741483989979
 40
0.2500987268235445
 40
0.3125343899703832
 40
0.3750589684000979
 40
0.4374946315452733
 40
0.5000192099768995
 40
0.5624548731290152
 40
0.6249794515537933
 40
0.6874151147077312
 40
0.7499396931304093
 40
0.8123753562831503
 40
0.8748999347071772
 40
0.906130920255383
 40
0.9374498602288007
 40
0.9687029719367296
 40
1.0
 40
1.0
 40
1.0
 40
1.0
 10
0.2520842792322805
 20
-0.2069208621341652
 30
0.0
 10
0.2520991204551119
 20
-0.2069070774962987
 30
0.0
 10
0.2521286788669671
 20
-0.2068796234240866
 30
0.0
 10
0.2521829086723306
 20
-0.2068398176017406
 30
0.0
 10
0.2522440956717449
 20
-0.2068013330309688
 30
0.0
 10
0.2523129438524728
 20
-0.2067642484618721
 30
0.0
 10
0.2523892799216728
 20
-0.2067285438290599
 30
0.0
 10
0.2525276632739302
 20
-0.2066718759496995
 30
0.0
 10
0.2527513513042897
 20
-0.2066007017592282
 30
0.0
 10
0.2530867084618225
 20
-0.2065300973879471
 30
0.0
 10
0.2534556188416905
 20
-0.2064815940319457
 30
0.0
 10
0.2538450101312783
 20
-0.2064584720875032
 30
0.0
 10
0.2542395762539451
 20
-0.2064601779236895
 30
0.0
 10
0.2546236628911594
 20
-0.206488080981413
 30
0.0
 10
0.254983826071247
 20
-0.2065397302450217
 30
0.0
 10
0.255304126962787
 20
-0.206614412015405
 30
0.0
 10
0.2555750521960878
 20
-0.2067081392313853
 30
0.0
 10
0.2557828044299454
 20
-0.2068182347299382
 30
0.0
 10
0.255923230456837
 20
-0.2069397502164946
 30
0.0
 10
0.2559762572589744
 20
-0.2070471197312136
 30
0.0
 10
0.255981039346108
 20
-0.2071339239109466
 30
0.0
 10
0.2559648075101159
 20
-0.207198917354195
 30
0.0
 10
0.2559309048007902
 20
-0.2072633654793944
 30
0.0
 10
0.2558924174910239
 20
-0.2073050587059544
 30
0.0
 10
0.2558731603252008
 20
-0.207325919955609
 30
0.0
  0
SPLINE
  5
BA
330
1F
100
AcDbEntity
  8
0
  6
Continuous
 62
     7
370
    25
100
AcDbSpline
210
0.0
220
0.0
230
1.0
 70
     8
 71
     3
 72
    29
 73
    25
 74
     0
 42
0.00000001
 43
0.00000001
 40
0.0
 40
0.0
 40
0.0
 40
0.0
 40
0.0209946060715926
 40
0.0418137521456207
 40
0.0625470941254858
 40
0.0832854007898707
 40
0.1041193760276716
 40
0.1251384852467203
 40
0.1875741483959182
 40
0.2500987268235127
 40
0.3125343899703548
 40
0.3750589684000719
 40
0.4374946315451848
 40
0.5000192099768852
 40
0.5624548731288094
 40
0.6249794515537789
 40
0.6874151147074419
 40
0.7499396931304019
 40
0.8123753562825138
 40
0.8748999347071661
 40
0.9061309202551767
 40
0.9374498602288004
 40
0.9687029719369933
 40
1.0
 40
1.0
 40
1.0
 40
1.0
 10
0.2558731603251915
 20
-0.207325919955608
 30
0.0
 10
0.2558583191023612
 20
-0.2073397045934732
 30
0.0
 10
0.2558287606905079
 20
-0.2073671586656837
 30
0.0
 10
0.2557745308851461
 20
-0.2074069644880274
 30
0.0
 10
0.2557133438857325
 20
-0.2074454490587987
 30
0.0
 10
0.2556444957050039
 20
-0.207482533627896
 30
0.0
 10
0.2555681596358015
 20
-0.2075182382607101
 30
0.0
 10
0.2554297762835506
 20
-0.2075749061400717
 30
0.0
 10
0.2552060882531907
 20
-0.207646080330545
 30
0.0
 10
0.2548707310956547
 20
-0.207716684701825
 30
0.0
 10
0.2545018207157816
 20
-0.2077651880578274
 30
0.0
 10
0.2541124294261938
 20
-0.20778831000227
 30
0.0
 10
0.2537178633035272
 20
-0.2077866041660836
 30
0.0
 10
0.2533337766663131
 20
-0.2077587011083601
 30
0.0
 10
0.2529736134862253
 20
-0.2077070518447515
 30
0.0
 10
0.2526533125946858
 20
-0.2076323700743684
 30
0.0
 10
0.2523823873613847
 20
-0.2075386428583879
 30
0.0
 10
0.2521746351275274
 20
-0.2074285473598353
 30
0.0
 10
0.2520342091006359
 20
-0.2073070318732789
 30
0.0
 10
0.2519811822984979
 20
-0.2071996623585599
 30
0.0
 10
0.2519764002113634
 20
-0.2071128581788266
 30
0.0
 10
0.2519926320473562
 20
-0.207047864735578
 30
0.0
 10
0.2520265347566822
 20
-0.2069834166103785
 30
0.0
 10
0.2520650220664483
 20
-0.2069417233838185
 30
0.0
 10
0.2520842792322713
 20
-0.2069208621341641
 30
0.0
  0
SPLINE
  5
BC
330
1F
100
AcDbEntity
  8
0
  6
Continuous
 62
     7
370
    25
100
AcDbSpline
210
0.0
220
0.0
230
1.0
 70
     8
 71
     3
 72
    35
 73
    31
 74
     0
 42
0.00000001
 43
0.00000001
 40
0.0
 40
0.0
 40
0.0
 40
0.0
 40
0.0624999999999963
 40
0.0624999999999963
 40
0.1249999999999926
 40
0.1249999999999926
 40
0.249999999999986
 40
0.249999999999986
 40
0.3749999999999795
 40
0.4062499999999722
 40
0.4062499999999722
 40
0.4218749999999671
 40
0.4218749999999671
 40
0.437499999999962
 40
0.4999999999999396
 40
0.4999999999999396
 40
0.5156249999999338
 40
0.5156249999999338
 40
0.531249999999928
 40
0.5624999999999275
 40
0.624999999999937
 40
0.624999999999937
 40
0.7499999999999502
 40
0.7499999999999502
 40
0.8124999999999626
 40
0.8124999999999626
 40
0.8749999999999751
 40
0.9374999999999876
 40
0.9374999999999876
 40
1.0
 40
1.0
 40
1.0
 40
1.0
 10
0.1988622992027795
 20
-0.2310451358710295
 30
0.0
 10
0.1993427120319954
 20
-0.2309256189742755
 30
0.0
 10
0.1997376350560707
 20
-0.2308099011011098
 30
0.0
 10
0.200399671544897
 20
-0.23059838226623
 30
0.0
 10
0.2006668531855302
 20
-0.2305037190105545
 30
0.0
 10
0.2013408473681208
 20
-0.2302589601420109
 30
0.0
 10
0.2016197622049323
 20
-0.2301413227687814
 30
0.0
 10
0.2021743012412495
 20
-0.2299075257328464
 30
0.0
 10
0.2025194570247076
 20
-0.2297609342637703
 30
0.0
 10
0.2031131025976064
 20
-0.2294635221584307
 30
0.0
 10
0.2033098598370761
 20
-0.2293629957601392
 30
0.0
 10
0.2033779937723582
 20
-0.2293279902910337
 30
0.0
 10
0.2035244977888787
 20
-0.2292515223043491
 30
0.0
 10
0.2039157272833982
 20
-0.2290444309578636
 30
0.0
 10
0.2044130691707702
 20
-0.2287641780051128
 30
0.0
 10
0.2049353493780604
 20
-0.2284460207036834
 30
0.0
 10
0.2050426078515185
 20
-0.2283794171518045
 30
0.0
 10
0.2052507309565064
 20
-0.2282480469631953
 30
0.0
 10
0.2055469685747295
 20
-0.2280582568576617
 30
0.0
 10
0.2061345110026994
 20
-0.2276644837887904
 30
0.0
 10
0.2064876430940452
 20
-0.2274049623848402
 30
0.0
 10
0.2070659641460768
 20
-0.2269735907197503
 30
0.0
 10
0.2072824753688079
 20
-0.2268045890385773
 30
0.0
 10
0.2076011590295259
 20
-0.2265447543608569
 30
0.0
 10
0.2077062793904281
 20
-0.2264570873889554
 30
0.0
 10
0.2079559194535309
 20
-0.2262492029320325
 30
0.0
 10
0.2082450124260121
 20
-0.2260083249769836
 30
0.0
 10
0.2086804386924548
 20
-0.2256168474288288
 30
0.0
 10
0.2092227453434803
 20
-0.2251077637856942
 30
0.0
 10
0.2095476420953418
 20
-0.2247950974456974
 30
0.0
 10
0.2099360541410505
 20
-0.2243927314904865
 30
0.0
  0
SPLINE
  5
BD
330
1F
100
AcDbEntity
  8
0
  6
Continuous
 62
     7
370
    25
100
AcDbSpline
210
0.0
220
0.0
230
1.0
 70
     8
 71
     3
 72
    27
 73
    23
 74
     0
 42
0.00000001
 43
0.00000001
 40
0.0
 40
0.0
 40
0.0
 40
0.0
 40
0.0386748378454389
 40
0.0772421586959792
 40
0.1157214328239075
 40
0.1541322643931771
 40
0.1924943624963859
 40
0.230827511395545
 40
0.269151540186581
 40
0.3074862921178705
 40
0.3458515937992081
 40
0.3842672245394484
 40
0.4227528860492827
 40
0.4613281727382427
 40
0.50001254282523
 40
0.571747568283401
 40
0.6431691755530655
 40
0.7144031748154663
 40
0.7855763711416666
 40
0.8568158942878906
 40
0.9282485198825777
 40
1.0
 40
1.0
 40
1.0
 40
1.0
 10
0.2189963990439743
 20
-0.2189498552136153
 30
0.0
 10
0.2188724410819468
 20
-0.2189812369163739
 30
0.0
 10
0.2186248697640571
 20
-0.2190439130799901
 30
0.0
 10
0.2182541969925687
 20
-0.2191500929773275
 30
0.0
 10
0.21788477579925
 20
-0.2192650042448442
 30
0.0
 10
0.2175166095916389
 20
-0.2193895243872339
 30
0.0
 10
0.2171496978275809
 20
-0.2195234189956274
 30
0.0
 10
0.2167840410244009
 20
-0.2196667506594566
 30
0.0
 10
0.2164196394204884
 20
-0.2198195025235864
 30
0.0
 10
0.2160564933152687
 20
-0.219981678961908
 30
0.0
 10
0.2156946030268058
 20
-0.2201532785782246
 30
0.0
 10
0.2153339687035048
 20
-0.220334301666483
 30
0.0
 10
0.2149745911037567
 20
-0.2205247473621824
 30
0.0
 10
0.2146164686409401
 20
-0.2207246175977341
 30
0.0
 10
0.2141583901554126
 20
-0.2209932652261025
 30
0.0
 10
0.2136047111205557
 20
-0.2213406081482314
 30
0.0
 10
0.2129615117011201
 20
-0.2217795994309597
 30
0.0
 10
0.2123307668516488
 20
-0.2222463202935794
 30
0.0
 10
0.2117123870595176
 20
-0.2227406102633054
 30
0.0
 10
0.2111067597334372
 20
-0.2232630414296176
 30
0.0
 10
0.2105124554724401
 20
-0.2238114508148542
 30
0.0
 10
0.2101284729464114
 20
-0.2241986838242339
 30
0.0
 10
0.2099360541409528
 20
-0.2243927314905942
 30
0.0
  0
SPLINE
  5
BF
330
1F
100
AcDbEntity
  8
0
  6
Continuous
 62
     7
370
    25
100
AcDbSpline
210
0.0
220
0.0
230
1.0
 70
     8
 71
     3
 72
    11
 73
     7
 74
     0
 42
0.00000001
 43
0.00000001
 40
0.0
 40
0.0
 40
0.0
 40
0.0
 40
0.25
 40
0.5
 40
0.75
 40
1.0
 40
1.0
 40
1.0
 40
1.0
 10
0.1867870840351882
 20
-0.2340492046615064
 30
0.0
 10
0.1867856250478551
 20
-0.2338022084531464
 30
0.0
 10
0.186720143887626
 20
-0.2332787692510297
 30
0.0
 10
0.1864539372855474
 20
-0.2325353318205102
 30
0.0
 10
0.1860583776608009
 20
-0.2319417503276419
 30
0.0
 10
0.1857468085513098
 20
-0.2317034048915952
 30
0.0
 10
0.1855918060111974
 20
-0.2316342894362547
 30
0.0
  0
SPLINE
  5
C0
330
1F
100
AcDbEntity
  8
0
  6
Continuous
 62
     7
370
    25
100
AcDbSpline
210
0.0
220
0.0
230
1.0
 70
     8
 71
     3
 72
    11
 73
     7
 74
     0
 42
0.00000001
 43
0.00000001
 40
0.0
 40
0.0
 40
0.0
 40
0.0
 40
0.25
 40
0.5
 40
0.75
 40
1.0
 40
1.0
 40
1.0
 40
1.0
 10
0.2445936567299954
 20
-0.2255017592834999
 30
0.0
 10
0.2445921977426337
 20
-0.2252547630751366
 30
0.0
 10
0.2444891932091176
 20
-0.2247485176626453
 30
0.0
 10
0.2440655205500207
 20
-0.2240772336138081
 30
0.0
 10
0.2434341644302429
 20
-0.2235916977204978
 30
0.0
 10
0.2429360520290889
 20
-0.2234388293046862
 30
0.0
 10
0.2426880703414057
 20
-0.2234123183321296
 30
0.0
  0
SPLINE
  5
C1
330
1F
100
AcDbEntity
  8
0
  6
Continuous
 62
     7
370
    25
100
AcDbSpline
210
0.0
220
0.0
230
1.0
 70
     8
 71
     3
 72
     8
 73
     4
 74
     0
 42
0.00000001
 43
0.00000001
 40
0.0
 40
0.0
 40
0.0
 40
0.0
 40
1.0
 40
1.0
 40
1.0
 40
1.0
 10
0.2416971889849027
 20
-0.2267357700092818
 30
0.0
 10
0.2430428265988961
 20
-0.2264473960143994
 30
0.0
 10
0.2440837090621241
 20
-0.2260039385906605
 30
0.0
 10
0.2445936567300027
 20
-0.2255017592834928
 30
0.0
  0
SPLINE
  5
C2
330
1F
100
AcDbEntity
  8
0
  6
Continuous
 62
     7
370
    25
100
AcDbSpline
210
0.0
220
0.0
230
1.0
 70
     8
 71
     3
 72
    14
 73
    10
 74
     0
 42
0.00000001
 43
0.00000001
 40
0.0
 40
0.0
 40
0.0
 40
0.0
 40
0.25
 40
0.25
 40
0.5
 40
0.5
 40
0.75
 40
0.75
 40
1.0
 40
1.0
 40
1.0
 40
1.0
 10
0.1988622992022021
 20
-0.2310451358711794
 30
0.0
 10
0.1988608402148126
 20
-0.230798139662705
 30
0.0
 10
0.1988285620103116
 20
-0.230537498127109
 30
0.0
 10
0.1987072323449793
 20
-0.2300282099646737
 30
0.0
 10
0.1986182286221909
 20
-0.2297797637209783
 30
0.0
 10
0.1983969586079983
 20
-0.2293327143190635
 30
0.0
 10
0.1982647793768963
 20
-0.2291342870556932
 30
0.0
 10
0.1979772553676857
 20
-0.2288175356332136
 30
0.0
 10
0.1978220237179969
 20
-0.2286993361022628
 30
0.0
 10
0.1976670211778765
 20
-0.2286302206470925
 30
0.0
  0
SPLINE
  5
C4
330
1F
100
AcDbEntity
  8
0
  6
Continuous
 62
     7
370
    25
100
AcDbSpline
210
0.0
220
0.0
230
1.0
 70
     8
 71
     3
 72
     8
 73
     4
 74
     0
 42
0.00000001
 43
0.00000001
 40
0.0
 40
0.0
 40
0.0
 40
0.0
 40
1.0
 40
1.0
 40
1.0
 40
1.0
 10
0.2446633182461033
 20
-0.2372949599394047
 30
0.0
 10
0.2441533705782245
 20
-0.2377971392465722
 30
0.0
 10
0.2431124881146422
 20
-0.2382405966706228
 30
0.0
 10
0.2417668505006525
 20
-0.2385289706655059
 30
0.0
  0
SPLINE
  5
C5
330
1F
100
AcDbEntity
  8
0
  6
Continuous
 62
     7
370
    25
100
AcDbSpline
210
0.0
220
0.0
230
1.0
 70
     8
 71
     3
 72
    11
 73
     7
 74
     0
 42
0.00000001
 43
0.00000001
 40
0.0
 40
0.0
 40
0.0
 40
0.0
 40
0.25
 40
0.5
 40
0.75
 40
1.0
 40
1.0
 40
1.0
 40
1.0
 10
0.2587148211450298
 20
-0.2076297133215468
 30
0.0
 10
0.2589628028326056
 20
-0.2076562242938897
 30
0.0
 10
0.2594609152337217
 20
-0.2078090927095761
 30
0.0
 10
0.2600922713536232
 20
-0.2082946286027919
 30
0.0
 10
0.2605159440128108
 20
-0.2089659126513176
 30
0.0
 10
0.2606189485463152
 20
-0.2094721580635834
 30
0.0
 10
0.2606204075336638
 20
-0.2097191542719453
 30
0.0
  0
SPLINE
  5
C9
330
1F
100
AcDbEntity
  8
0
  6
Continuous
 62
     7
370
    25
100
AcDbSpline
210
0.0
220
0.0
230
1.0
 70
     8
 71
     3
 72
     8
 73
     4
 74
     0
 42
0.00000001
 43
0.00000001
 40
0.0
 40
0.0
 40
0.0
 40
0.0
 40
1.0
 40
1.0
 40
1.0
 40
1.0
 10
0.2076164639242198
 20
-0.2224372782433729
 30
0.0
 10
0.2047441136014194
 20
-0.2254888180141707
 30
0.0
 10
0.2012181209975828
 20
-0.2276835410382118
 30
0.0
 10
0.1976670206448683
 20
-0.228630221443381
 30
0.0
  0
SPLINE
  5
CA
330
1F
100
AcDbEntity
  8
0
  6
Continuous
 62
     7
370
    25
100
AcDbSpline
210
0.0
220
0.0
230
1.0
 70
     8
 71
     3
 72
    16
 73
    12
 74
     0
 42
0.00000001
 43
0.00000001
 40
0.0
 40
0.0
 40
0.0
 40
0.0
 40
0.1249999999999804
 40
0.1249999999999804
 40
0.2499999999999609
 40
0.2499999999999609
 40
0.4999999999999739
 40
0.4999999999999739
 40
0.7499999999999869
 40
0.7499999999999869
 40
1.0
 40
1.0
 40
1.0
 40
1.0
 10
0.2099360529169111
 20
-0.2243927313903525
 30
0.0
 10
0.2098679904461494
 20
-0.2242916909393652
 30
0.0
 10
0.2097916219161943
 20
-0.2241882982832422
 30
0.0
 10
0.2096215103550605
 20
-0.2239758815474063
 30
0.0
 10
0.2095284516294352
 20
-0.2238676902340891
 30
0.0
 10
0.209232735683059
 20
-0.2235462412399042
 30
0.0
 10
0.2090122445784174
 20
-0.2233352217339906
 30
0.0
 10
0.2085692679473983
 20
-0.2229616083437795
 30
0.0
 10
0.2083472506003435
 20
-0.2228003344786715
 30
0.0
 10
0.2079427786637698
 20
-0.2225556139872982
 30
0.0
 10
0.2077610630920189
 20
-0.2224721516706815
 30
0.0
 10
0.2076164636710299
 20
-0.2224372785123552
 30
0.0
  0
SPLINE
  5
CB
330
1F
100
AcDbEntity
  8
0
  6
Continuous
 62
     7
370
    25
100
AcDbSpline
210
0.0
220
0.0
230
1.0
 70
     8
 71
     3
 72
     8
 73
     4
 74
     0
 42
0.00000001
 43
0.00000001
 40
0.0
 40
0.0
 40
0.0
 40
0.0
 40
1.0
 40
1.0
 40
1.0
 40
1.0
 10
0.1960043992102733
 20
-0.2265760734812843
 30
0.0
 10
0.1995554991583177
 20
-0.2256293927104557
 30
0.0
 10
0.2030814912618732
 20
-0.2234346694873001
 30
0.0
 10
0.2059538408978349
 20
-0.2203831297284919
 30
0.0
  0
SPLINE
  5
CD
330
1F
100
AcDbEntity
  8
0
  6
Continuous
 62
     7
370
    25
100
AcDbSpline
210
0.0
220
0.0
230
1.0
 70
     8
 71
     3
 72
    29
 73
    25
 74
     0
 42
0.00000001
 43
0.00000001
 40
0.0
 40
0.0
 40
0.0
 40
0.0
 40
0.0349178750265383
 40
0.0704253636586658
 40
0.1065230093108287
 40
0.1432113291150753
 40
0.1804908155636357
 40
0.218361938026658
 40
0.2568251441562686
 40
0.295880861186757
 40
0.3355294971400004
 40
0.375771441944131
 40
0.4166070684727379
 40
0.4580367335112513
 40
0.5000607786564413
 40
0.5390419875013491
 40
0.5821648080044064
 40
0.6294294458187032
 40
0.6808360358932384
 40
0.736384661794244
 40
0.7960753683241332
 40
0.8599081700467947
 40
0.9278830572157438
 40
1.0
 40
1.0
 40
1.0
 40
1.0
 10
0.2076164628459561
 20
-0.222437276906226
 30
0.0
 10
0.2077206918294913
 20
-0.222333052213281
 30
0.0
 10
0.2079309097784258
 20
-0.2221228429179763
 30
0.0
 10
0.2082547153121436
 20
-0.2218136485496968
 30
0.0
 10
0.2085881284678081
 20
-0.2215061285499411
 30
0.0
 10
0.2089316402519483
 20
-0.2212013963886591
 30
0.0
 10
0.2092851710398555
 20
-0.2208997808184741
 30
0.0
 10
0.2096487754541939
 20
-0.2206018432938583
 30
0.0
 10
0.2100224475703544
 20
-0.2203080982610766
 30
0.0
 10
0.2104061729873556
 20
-0.2200190894613495
 30
0.0
 10
0.210799913602609
 20
-0.21973536860654
 30
0.0
 10
0.2112036090643459
 20
-0.2194575001917293
 30
0.0
 10
0.2116171804277339
 20
-0.2191860612454211
 30
0.0
 10
0.2120405073334847
 20
-0.2189216340568587
 30
0.0
 10
0.2124610177490699
 20
-0.2186722419572502
 30
0.0
 10
0.2128903074486881
 20
-0.218430365660914
 30
0.0
 10
0.2133406414805506
 20
-0.2181899773221407
 30
0.0
 10
0.2138376384597223
 20
-0.2179408469958738
 30
0.0
 10
0.2143818790807706
 20
-0.2176871217105806
 30
0.0
 10
0.2149737781337169
 20
-0.2174334289921551
 30
0.0
 10
0.2156134990988746
 20
-0.217184598145438
 30
0.0
 10
0.2163008892519054
 20
-0.2169467892186495
 30
0.0
 10
0.2170354317215092
 20
-0.2167228343422739
 30
0.0
 10
0.2175409094814403
 20
-0.2165987939291706
 30
0.0
 10
0.2178011210205703
 20
-0.2165349399886683
 30
0.0
  0
SPLINE
  5
CE
330
1F
100
AcDbEntity
  8
0
  6
Continuous
 62
     7
370
    25
100
AcDbSpline
210
0.0
220
0.0
230
1.0
 70
     8
 71
     3
 72
    12
 73
     8
 74
     0
 42
0.00000001
 43
0.00000001
 40
0.0
 40
0.0
 40
0.0
 40
0.0
 40
0.2499999999999888
 40
0.2499999999999888
 40
0.4999999999999776
 40
0.4999999999999776
 40
1.0
 40
1.0
 40
1.0
 40
1.0
 10
0.2189963990517881
 20
-0.2189498552126199
 30
0.0
 10
0.2189949400644319
 20
-0.2187028590036383
 30
0.0
 10
0.2189624842183611
 20
-0.2184423704390058
 30
0.0
 10
0.2188413188528486
 20
-0.2179332692950949
 30
0.0
 10
0.2187521229286479
 20
-0.2176847005874059
 30
0.0
 10
0.2184204384262968
 20
-0.2170140465692064
 30
0.0
 10
0.218111126107374
 20
-0.2166731708986276
 30
0.0
 10
0.2178011210267407
 20
-0.2165349399877375
 30
0.0
  0
SPLINE
  5
CF
330
1F
100
AcDbEntity
  8
0
  6
Continuous
 62
     7
370
    25
100
AcDbSpline
210
0.0
220
0.0
230
1.0
 70
     8
 71
     3
 72
     8
 73
     4
 74
     0
 42
0.00000001
 43
0.00000001
 40
0.0
 40
0.0
 40
0.0
 40
0.0
 40
1.0
 40
1.0
 40
1.0
 40
1.0
 10
0.2059538408987274
 20
-0.2203831297293171
 30
0.0
 10
0.2088912082944185
 20
-0.2174174793718636
 30
0.0
 10
0.2125066865556106
 20
-0.2153221934601455
 30
0.0
 10
0.2161384990766373
 20
-0.2144807928184713
 30
0.0
  0
SPLINE
  5
D0
330
1F
100
AcDbEntity
  8
0
  6
Continuous
 62
     7
370
    25
100
AcDbSpline
210
0.0
220
0.0
230
1.0
 70
     8
 71
     3
 72
    14
 73
    10
 74
     0
 42
0.00000001
 43
0.00000001
 40
0.0
 40
0.0
 40
0.0
 40
0.0
 40
0.25
 40
0.25
 40
0.5
 40
0.5
 40
0.75
 40
0.75
 40
1.0
 40
1.0
 40
1.0
 40
1.0
 10
0.2296989485822655
 20
-0.2162872778130135
 30
0.0
 10
0.2296974895949842
 20
-0.2160402816045254
 30
0.0
 10
0.2296652113905721
 20
-0.2157796400688671
 30
0.0
 10
0.2295438817253663
 20
-0.2152703519062433
 30
0.0
 10
0.2294548780026151
 20
-0.2150219056624223
 30
0.0
 10
0.2292336079884457
 20
-0.2145748562602341
 30
0.0
 10
0.2291014287573294
 20
-0.2143764289967172
 30
0.0
 10
0.2288139047480495
 20
-0.2140596775739639
 30
0.0
 10
0.2286586730983062
 20
-0.2139414780428863
 30
0.0
 10
0.2285036705581212
 20
-0.2138723625876147
 30
0.0
  0
SPLINE
  5
D1
330
1F
100
AcDbEntity
  8
0
  6
Continuous
 62
     7
370
    25
100
AcDbSpline
210
0.0
220
0.0
230
1.0
 70
     8
 71
     3
 72
    10
 73
     6
 74
     0
 42
0.00000001
 43
0.00000001
 40
0.0
 40
0.0
 40
0.0
 40
0.0
 40
0.3330393617023231
 40
0.6665196808512368
 40
1.0
 40
1.0
 40
1.0
 40
1.0
 10
0.1971978749346221
 20
-0.2493416958811276
 30
0.0
 10
0.1973198019850526
 20
-0.2492845154444152
 30
0.0
 10
0.1975638175222092
 20
-0.2491700788618033
 30
0.0
 10
0.197804574665444
 20
-0.2486531113568746
 30
0.0
 10
0.1978353561563903
 20
-0.248177915422344
 30
0.0
 10
0.1978507469018635
 20
-0.2479403174550787
 30
0.0
  0
SPLINE
  5
D2
330
1F
100
AcDbEntity
  8
0
  6
Continuous
 62
     7
370
    25
100
AcDbSpline
210
0.0
220
0.0
230
1.0
 70
     8
 71
     3
 72
    10
 73
     6
 74
     0
 42
0.00000001
 43
0.00000001
 40
0.0
 40
0.0
 40
0.0
 40
0.0
 40
0.3330393649100034
 40
0.6665196824550486
 40
1.0
 40
1.0
 40
1.0
 40
1.0
 10
0.2411190007166873
 20
-0.2399292728259089
 30
0.0
 10
0.2412403702398534
 20
-0.2398722118673329
 30
0.0
 10
0.2414832699825378
 20
-0.2397580144000127
 30
0.0
 10
0.2417223530640253
 20
-0.2392414056498773
 30
0.0
 10
0.2417520180219133
 20
-0.2387664489934486
 30
0.0
 10
0.2417668505008574
 20
-0.2385289706652343
 30
0.0
  0
SPLINE
  5
D3
330
1F
100
AcDbEntity
  8
0
  6
Continuous
 62
     7
370
    25
100
AcDbSpline
210
0.0
220
0.0
230
1.0
 70
     8
 71
     3
 72
    10
 73
     6
 74
     0
 42
0.00000001
 43
0.00000001
 40
0.0
 40
0.0
 40
0.0
 40
0.0
 40
0.2461056023200295
 40
0.6224432953462113
 40
1.0
 40
1.0
 40
1.0
 40
1.0
 10
0.1871575138293983
 20
-0.2492175807698119
 30
0.0
 10
0.1870362675525749
 20
-0.2491657738117651
 30
0.0
 10
0.1867296149149146
 20
-0.2490347451257679
 30
0.0
 10
0.1864058446150671
 20
-0.2485309061186778
 30
0.0
 10
0.1863514967989125
 20
-0.2480532877507848
 30
0.0
 10
0.1863242789519095
 20
-0.2478140924236691
 30
0.0
  0
SPLINE
  5
D4
330
1F
100
AcDbEntity
  8
0
  6
Continuous
 62
     7
370
    25
100
AcDbSpline
210
0.0
220
0.0
230
1.0
 70
     8
 71
     3
 72
    11
 73
     7
 74
     0
 42
0.00000001
 43
0.00000001
 40
0.0
 40
0.0
 40
0.0
 40
0.0
 40
0.0008817790203084
 40
0.3335619863728878
 40
0.6662421937249937
 40
1.0
 40
1.0
 40
1.0
 40
1.0
 10
0.1950824563197143
 20
-0.2497943108468133
 30
0.0
 10
0.1950828110179206
 20
-0.2497943722459783
 30
0.0
 10
0.1952169873087194
 20
-0.2498175985044257
 30
0.0
 10
0.1954364641022739
 20
-0.2495880674041205
 30
0.0
 10
0.1956801142382702
 20
-0.2491176637096099
 30
0.0
 10
0.1957085602270189
 20
-0.2486369810775738
 30
0.0
 10
0.1957228062193062
 20
-0.248396251140952
 30
0.0
  0
SPLINE
  5
D6
330
1F
100
AcDbEntity
  8
0
  6
Continuous
 62
     7
370
    25
100
AcDbSpline
210
0.0
220
0.0
230
1.0
 70
     8
 71
     3
 72
    11
 73
     7
 74
     0
 42
0.00000001
 43
0.00000001
 40
0.0
 40
0.0
 40
0.0
 40
0.0
 40
0.0195085119653099
 40
0.3459865049882933
 40
0.6724644980438518
 40
1.0
 40
1.0
 40
1.0
 40
1.0
 10
0.1694005816522351
 20
-0.2449681240366918
 30
0.0
 10
0.1693956724260032
 20
-0.2449702137865817
 30
0.0
 10
0.1693086065324497
 20
-0.245007275827091
 30
0.0
 10
0.1691670802330892
 20
-0.2447945072944228
 30
0.0
 10
0.1690133271124196
 20
-0.2443384461798445
 30
0.0
 10
0.168991248353711
 20
-0.2438603294333596
 30
0.0
 10
0.1689801911242023
 20
-0.2436208845140299
 30
0.0
  0
SPLINE
  5
D7
330
1F
100
AcDbEntity
  8
0
  6
Continuous
 62
     7
370
    25
100
AcDbSpline
210
0.0
220
0.0
230
1.0
 70
     8
 71
     3
 72
     9
 73
     5
 74
     0
 42
0.00000001
 43
0.00000001
 40
0.0
 40
0.0
 40
0.0
 40
0.0
 40
0.8633869975351405
 40
1.0
 40
1.0
 40
1.0
 40
1.0
 10
0.1919965951616214
 20
-0.2372247805001189
 30
0.0
 10
0.1921951685831206
 20
-0.237172018724518
 30
0.0
 10
0.1924251621110125
 20
-0.2371109084972947
 30
0.0
 10
0.1926068778127051
 20
-0.237218837440946
 30
0.0
 10
0.1926317025403083
 20
-0.2372335819379909
 30
0.0
  0
SPLINE
  5
D8
330
1F
100
AcDbEntity
  8
0
  6
Continuous
 62
     7
370
    25
100
AcDbSpline
210
0.0
220
0.0
230
1.0
 70
     8
 71
     3
 72
     9
 73
     5
 74
     0
 42
0.00000001
 43
0.00000001
 40
0.0
 40
0.0
 40
0.0
 40
0.0
 40
0.9978828821681526
 40
1.0
 40
1.0
 40
1.0
 40
1.0
 10
0.2008353284801998
 20
-0.2375532128587856
 30
0.0
 10
0.2006889208686585
 20
-0.2374807626906278
 30
0.0
 10
0.2005422026373335
 20
-0.2374081588115026
 30
0.0
 10
0.2004274140593359
 20
-0.2374847402044259
 30
0.0
 10
0.2004271710383905
 20
-0.2374849023362584
 30
0.0
  0
SPLINE
  5
D9
330
1F
100
AcDbEntity
  8
0
  6
Continuous
 62
     7
370
    25
100
AcDbSpline
210
0.0
220
0.0
230
1.0
 70
     8
 71
     3
 72
     9
 73
     5
 74
     0
 42
0.00000001
 43
0.00000001
 40
0.0
 40
0.0
 40
0.0
 40
0.0
 40
0.9940010702336135
 40
1.0
 40
1.0
 40
1.0
 40
1.0
 10
0.204290030727441
 20
-0.2368128602719912
 30
0.0
 10
0.2041436643559969
 20
-0.2367406027279582
 30
0.0
 10
0.2039964146438716
 20
-0.2366679090999562
 30
0.0
 10
0.2038812192788254
 20
-0.2367449833506945
 30
0.0
 10
0.203880528229921
 20
-0.2367454457137115
 30
0.0
  0
SPLINE
  5
DA
330
1F
100
AcDbEntity
  8
0
  6
Continuous
 62
     7
370
    25
100
AcDbSpline
210
0.0
220
0.0
230
1.0
 70
     8
 71
     3
 72
     9
 73
     5
 74
     0
 42
0.00000001
 43
0.00000001
 40
0.0
 40
0.0
 40
0.0
 40
0.0
 40
0.8427036533223617
 40
1.0
 40
1.0
 40
1.0
 40
1.0
 10
0.2145033595578828
 20
-0.2309459457618973
 30
0.0
 10
0.2144022667404608
 20
-0.2309145813390863
 30
0.0
 10
0.214282304263707
 20
-0.2308773625342466
 30
0.0
 10
0.214260391638904
 20
-0.2309438266484417
 30
0.0
 10
0.2142569448630763
 20
-0.2309542812107898
 30
0.0
  0
SPLINE
  5
DB
330
1F
100
AcDbEntity
  8
0
  6
Continuous
 62
     7
370
    25
100
AcDbSpline
210
0.0
220
0.0
230
1.0
 70
     8
 71
     3
 72
     9
 73
     5
 74
     0
 42
0.00000001
 43
0.00000001
 40
0.0
 40
0.0
 40
0.0
 40
0.0
 40
0.9680032983558894
 40
1.0
 40
1.0
 40
1.0
 40
1.0
 10
0.1855863298609649
 20
-0.2353725885185884
 30
0.0
 10
0.1857489519159931
 20
-0.2353039294558439
 30
0.0
 10
0.1859169493342916
 20
-0.2352330009136983
 30
0.0
 10
0.1860500912793445
 20
-0.2353152134444588
 30
0.0
 10
0.1860543513824366
 20
-0.235317843974277
 30
0.0
  0
SPLINE
  5
DC
330
1F
100
AcDbEntity
  8
0
  6
Continuous
 62
     7
370
    25
100
AcDbSpline
210
0.0
220
0.0
230
1.0
 70
     8
 71
     3
 72
    17
 73
    13
 74
     0
 42
0.00000001
 43
0.00000001
 40
0.0
 40
0.0
 40
0.0
 40
0.0
 40
0.0123442227215072
 40
0.1220837535302274
 40
0.2318232843389497
 40
0.341562815147673
 40
0.4513023459563894
 40
0.5610418767651113
 40
0.6707814075738312
 40
0.7805209383825522
 40
0.8902604691912731
 40
1.0
 40
1.0
 40
1.0
 40
1.0
 10
0.1642305483553173
 20
-0.2414527429348564
 30
0.0
 10
0.1642285090020552
 20
-0.2414645906504449
 30
0.0
 10
0.1642083398989341
 20
-0.2415817639729322
 30
0.0
 10
0.1642932916128673
 20
-0.2418040829298361
 30
0.0
 10
0.1644933494085687
 20
-0.2421122539915658
 30
0.0
 10
0.1648315492169351
 20
-0.2424074788491666
 30
0.0
 10
0.1652848638782766
 20
-0.2426842079262534
 30
0.0
 10
0.1658494338245222
 20
-0.2429372559899781
 30
0.0
 10
0.1665133052681933
 20
-0.2431621873049755
 30
0.0
 10
0.1672654921850464
 20
-0.243353827515835
 30
0.0
 10
0.1680881534024339
 20
-0.2435123526469238
 30
0.0
 10
0.1686828452170445
 20
-0.2435847072252633
 30
0.0
 10
0.1689801911243499
 20
-0.243620884514433
 30
0.0
  0
SPLINE
  5
DD
330
1F
100
AcDbEntity
  8
0
  6
Continuous
 62
     7
370
    25
100
AcDbSpline
210
0.0
220
0.0
230
1.0
 70
     8
 71
     3
 72
    17
 73
    13
 74
     0
 42
0.00000001
 43
0.00000001
 40
0.0
 40
0.0
 40
0.0
 40
0.0
 40
0.1097395308115464
 40
0.2194790616230907
 40
0.3292185924346329
 40
0.4389581232461711
 40
0.5486976540577126
 40
0.6584371848692586
 40
0.768176715680804
 40
0.8779162464923419
 40
0.9876557773038892
 40
1.0
 40
1.0
 40
1.0
 40
1.0
 10
0.1689523265538827
 20
-0.2389036103280237
 30
0.0
 10
0.1686549806465691
 20
-0.2388674330388432
 30
0.0
 10
0.168060288831942
 20
-0.2387950784604821
 30
0.0
 10
0.1672376276145341
 20
-0.2386365533293588
 30
0.0
 10
0.1664854406976648
 20
-0.2384449131184631
 30
0.0
 10
0.1658215692539833
 20
-0.2382199818034279
 30
0.0
 10
0.1652569993077335
 20
-0.2379669337396646
 30
0.0
 10
0.1648036846463956
 20
-0.237690204662538
 30
0.0
 10
0.1644654848380387
 20
-0.2373949798048979
 30
0.0
 10
0.1642654270423605
 20
-0.2370868087431284
 30
0.0
 10
0.1641804753284426
 20
-0.2368644897862222
 30
0.0
 10
0.1642006444315674
 20
-0.2367473164637455
 30
0.0
 10
0.1642026837848261
 20
-0.2367354687481802
 30
0.0
  0
SPLINE
  5
DE
330
1F
100
AcDbEntity
  8
0
  6
Continuous
 62
     7
370
    25
100
AcDbSpline
210
0.0
220
0.0
230
1.0
 70
     8
 71
     3
 72
     9
 73
     5
 74
     0
 42
0.00000001
 43
0.00000001
 40
0.0
 40
0.0
 40
0.0
 40
0.0
 40
0.9685240834951521
 40
0.9999999999999999
 40
0.9999999999999999
 40
0.9999999999999999
 40
0.9999999999999999
 10
0.1682245953693373
 20
-0.2334871256246021
 30
0.0
 10
0.1680624398332398
 20
-0.2334198441280711
 30
0.0
 10
0.1678950144291009
 20
-0.2333503760604438
 30
0.0
 10
0.1677640131723905
 20
-0.2334338004208896
 30
0.0
 10
0.1677598897877722
 20
-0.2334364262790935
 30
0.0
  0
SPLINE
  5
DF
330
1F
100
AcDbEntity
  8
0
  6
Continuous
 62
     7
370
    25
100
AcDbSpline
210
0.0
220
0.0
230
1.0
 70
     8
 71
     3
 72
     9
 73
     5
 74
     0
 42
0.00000001
 43
0.00000001
 40
0.0
 40
0.0
 40
0.0
 40
0.0
 40
0.9944194261024659
 40
1.0
 40
1.0
 40
1.0
 40
1.0
 10
0.2249039255239685
 20
-0.2253103599017619
 30
0.0
 10
0.2247575546984867
 20
-0.2252380815990134
 30
0.0
 10
0.2246103624558177
 20
-0.225165397678274
 30
0.0
 10
0.2244952110739152
 20
-0.2252424186269099
 30
0.0
 10
0.2244945684631191
 20
-0.2252428484480054
 30
0.0
  0
SPLINE
  5
E3
330
1F
100
AcDbEntity
  8
0
  6
Continuous
 62
     7
370
    25
100
AcDbSpline
210
0.0
220
0.0
230
1.0
 70
     8
 71
     3
 72
     9
 73
     5
 74
     0
 42
0.00000001
 43
0.00000001
 40
0.0
 40
0.0
 40
0.0
 40
0.0
 40
0.956944503620621
 40
1.0
 40
1.0
 40
1.0
 40
1.0
 10
0.1960043992861325
 20
-0.2265760734622558
 30
0.0
 10
0.1958423799160479
 20
-0.2265093635337795
 30
0.0
 10
0.1956730708605366
 20
-0.2264396521469395
 30
0.0
 10
0.1955406267058636
 20
-0.2265246832752956
 30
0.0
 10
0.1955349242570415
 20
-0.2265283443327347
 30
0.0
  0
SPLINE
  5
E5
330
1F
100
AcDbEntity
  8
0
  6
Continuous
 62
     7
370
    25
100
AcDbSpline
210
0.0
220
0.0
230
1.0
 70
     8
 71
     3
 72
    10
 73
     6
 74
     0
 42
0.00000001
 43
0.00000001
 40
0.0
 40
0.0
 40
0.0
 40
0.0
 40
0.3160973912750054
 40
0.6580486956375349
 40
1.0
 40
1.0
 40
1.0
 40
1.0
 10
0.1849149467181907
 20
-0.2349818084739189
 30
0.0
 10
0.1850238090813803
 20
-0.2348671548965038
 30
0.0
 10
0.1852504377663307
 20
-0.2346284701140582
 30
0.0
 10
0.1858941706734213
 20
-0.2343052347652597
 30
0.0
 10
0.1864894462479273
 20
-0.234134548029048
 30
0.0
 10
0.1867870840351802
 20
-0.2340492046609423
 30
0.0
  0
SPLINE
  5
E6
330
1F
100
AcDbEntity
  8
0
  6
Continuous
 62
     7
370
    25
100
AcDbSpline
210
0.0
220
0.0
230
1.0
 70
     8
 71
     3
 72
     9
 73
     5
 74
     0
 42
0.00000001
 43
0.00000001
 40
0.0
 40
0.0
 40
0.0
 40
0.0
 40
0.9978826131715383
 40
0.9999999999999999
 40
0.9999999999999999
 40
0.9999999999999999
 40
0.9999999999999999
 10
0.2251485114817817
 20
-0.2252579444259568
 30
0.0
 10
0.2250021038730912
 20
-0.2251854942711949
 30
0.0
 10
0.2248553856050726
 20
-0.2251128903859226
 30
0.0
 10
0.2247405969989957
 20
-0.2251894718129109
 30
0.0
 10
0.2247403539471131
 20
-0.2251896339654157
 30
0.0
  0
SPLINE
  5
E7
330
1F
100
AcDbEntity
  8
0
  6
Continuous
 62
     7
370
    25
100
AcDbSpline
210
0.0
220
0.0
230
1.0
 70
     8
 71
     3
 72
    10
 73
     6
 74
     0
 42
0.00000001
 43
0.00000001
 40
0.0
 40
0.0
 40
0.0
 40
0.0
 40
0.4753134277232838
 40
0.950626855446584
 40
1.0
 40
1.0
 40
1.0
 40
1.0
 10
0.234251695823823
 20
-0.221379625000413
 30
0.0
 10
0.2340085341397539
 20
-0.2213851924346746
 30
0.0
 10
0.2335222107716157
 20
-0.2213963273031978
 30
0.0
 10
0.2330331929269583
 20
-0.2216160121647535
 30
0.0
 10
0.2328868751614377
 20
-0.2218281449291259
 30
0.0
 10
0.23287310662119
 20
-0.2218481066780887
 30
0.0
  0
SPLINE
  5
E9
330
1F
100
AcDbEntity
  8
0
  6
Continuous
 62
     7
370
    25
100
AcDbSpline
210
0.0
220
0.0
230
1.0
 70
     8
 71
     3
 72
     9
 73
     5
 74
     0
 42
0.00000001
 43
0.00000001
 40
0.0
 40
0.0
 40
0.0
 40
0.0
 40
0.4714883450756974
 40
0.9999999999999999
 40
0.9999999999999999
 40
0.9999999999999999
 40
0.9999999999999999
 10
0.2441602487553655
 20
-0.2385085774483624
 30
0.0
 10
0.2443000167580467
 20
-0.238349299564679
 30
0.0
 10
0.2445964567530987
 20
-0.2380114802201566
 30
0.0
 10
0.2446401996271612
 20
-0.2375427103037484
 30
0.0
 10
0.2446633182459232
 20
-0.2372949599394489
 30
0.0
  0
SPLINE
  5
EA
330
1F
100
AcDbEntity
  8
0
  6
Continuous
 62
     7
370
    25
100
AcDbSpline
210
0.0
220
0.0
230
1.0
 70
     8
 71
     3
 72
     9
 73
     5
 74
     0
 42
0.00000001
 43
0.00000001
 40
0.0
 40
0.0
 40
0.0
 40
0.0
 40
0.5286106041456997
 40
1.0
 40
1.0
 40
1.0
 40
1.0
 10
0.2606900690493014
 20
-0.2215123549281647
 30
0.0
 10
0.2606669548355744
 20
-0.2217601075752215
 30
0.0
 10
0.2606232284828572
 20
-0.2222287940622384
 30
0.0
 10
0.2603268523107914
 20
-0.222566554489661
 30
0.0
 10
0.2601871437260956
 20
-0.2227257711734871
 30
0.0
  0
SPLINE
  5
EB
330
1F
100
AcDbEntity
  8
0
  6
Continuous
 62
     7
370
    25
100
AcDbSpline
210
0.0
220
0.0
230
1.0
 70
     8
 71
     3
 72
    10
 73
     6
 74
     0
 42
0.00000001
 43
0.00000001
 40
0.0
 40
0.0
 40
0.0
 40
0.0
 40
0.0513451458592469
 40
0.5256725729296496
 40
1.0
 40
1.0
 40
1.0
 40
1.0
 10
0.2378983057269295
 20
-0.2169001918062715
 30
0.0
 10
0.2379126412501837
 20
-0.2168793784537212
 30
0.0
 10
0.2380594086079789
 20
-0.2166662909572633
 30
0.0
 10
0.2385490894352289
 20
-0.2164458388285098
 30
0.0
 10
0.2390354798837243
 20
-0.2164347628905883
 30
0.0
 10
0.239278675107972
 20
-0.2164292249216276
 30
0.0
  0
SPLINE
  5
EC
330
1F
100
AcDbEntity
  8
0
  6
Continuous
 62
     7
370
    25
100
AcDbSpline
210
0.0
220
0.0
230
1.0
 70
     8
 71
     3
 72
     9
 73
     5
 74
     0
 42
0.00000001
 43
0.00000001
 40
0.0
 40
0.0
 40
0.0
 40
0.0
 40
0.8075348975199755
 40
1.0
 40
1.0
 40
1.0
 40
1.0
 10
0.2059538407968798
 20
-0.2203831298357453
 30
0.0
 10
0.2058470306998265
 20
-0.2203629843223076
 30
0.0
 10
0.2057147638499587
 20
-0.2203380373961752
 30
0.0
 10
0.2056807347041451
 20
-0.2204134754682811
 30
0.0
 10
0.2056741852811088
 20
-0.2204279946645597
 30
0.0
  0
SPLINE
  5
ED
330
1F
100
AcDbEntity
  8
0
  6
Continuous
 62
     7
370
    25
100
AcDbSpline
210
0.0
220
0.0
230
1.0
 70
     8
 71
     3
 72
     9
 73
     5
 74
     0
 42
0.00000001
 43
0.00000001
 40
0.0
 40
0.0
 40
0.0
 40
0.0
 40
0.9662721820045962
 40
1.0
 40
1.0
 40
1.0
 40
1.0
 10
0.216138499061496
 20
-0.2144807928223241
 30
0.0
 10
0.2159763700047418
 20
-0.2144136224792642
 30
0.0
 10
0.215808581818583
 20
-0.2143441075492984
 30
0.0
 10
0.2156773026664257
 20
-0.2144278413642712
 30
0.0
 10
0.2156728749070753
 20
-0.2144306655231427
 30
0.0
  0
SPLINE
  5
EE
330
1F
100
AcDbEntity
  8
0
  6
Continuous
 62
     7
370
    25
100
AcDbSpline
210
0.0
220
0.0
230
1.0
 70
     8
 71
     3
 72
     9
 73
     5
 74
     0
 42
0.00000001
 43
0.00000001
 40
0.0
 40
0.0
 40
0.0
 40
0.0
 40
0.9569445014851503
 40
0.9999999999999999
 40
0.9999999999999999
 40
0.9999999999999999
 40
0.9999999999999999
 10
0.2510183893238327
 20
-0.2058033830825487
 30
0.0
 10
0.2508563699546259
 20
-0.2057366731542117
 30
0.0
 10
0.2506870608996542
 20
-0.2056669617673618
 30
0.0
 10
0.2505546167453591
 20
-0.2057519928953662
 30
0.0
 10
0.2505489142962706
 20
-0.2057556539529717
 30
0.0
  0
SPLINE
  5
EF
330
1F
100
AcDbEntity
  8
0
  6
Continuous
 62
     7
370
    25
100
AcDbSpline
210
0.0
220
0.0
230
1.0
 70
     8
 71
     3
 72
    20
 73
    16
 74
     0
 42
0.00000001
 43
0.00000001
 40
0.0
 40
0.0
 40
0.0
 40
0.0
 40
0.0793038642646022
 40
0.158607728529237
 40
0.2379115927938728
 40
0.3172154570585043
 40
0.396519321323137
 40
0.4758231855877709
 40
0.555127049852404
 40
0.6344309141170366
 40
0.7137347783816718
 40
0.7930386426463046
 40
0.8723425069109353
 40
0.951646371175569
 40
1.0
 40
1.0
 40
1.0
 40
1.0
 10
0.2296989485826241
 20
-0.2162872778133324
 30
0.0
 10
0.2299185306788754
 20
-0.2162376112267479
 30
0.0
 10
0.2303576948713778
 20
-0.216138278053579
 30
0.0
 10
0.2310937053520691
 20
-0.2160347834898668
 30
0.0
 10
0.231863495182362
 20
-0.2159681816201688
 30
0.0
 10
0.2326545747136067
 20
-0.2159431352100996
 30
0.0
 10
0.2334453887703818
 20
-0.2159594658958273
 30
0.0
 10
0.234216686334546
 20
-0.2160169806391964
 30
0.0
 10
0.234949047527188
 20
-0.2161141885260623
 30
0.0
 10
0.2356243514378275
 20
-0.216248668070052
 30
0.0
 10
0.2362252501748283
 20
-0.2164170953601751
 30
0.0
 10
0.2367385323813892
 20
-0.2166151261896872
 30
0.0
 10
0.2371447097703514
 20
-0.2168383402399731
 30
0.0
 10
0.2374177190106357
 20
-0.217047874395873
 30
0.0
 10
0.2375027130874449
 20
-0.2171852982715865
 30
0.0
 10
0.2375349068266673
 20
-0.2172373511743741
 30
0.0
  0
SPLINE
  5
F1
330
1F
100
AcDbEntity
  8
0
  6
Continuous
 62
     7
370
    25
100
AcDbSpline
210
0.0
220
0.0
230
1.0
 70
     8
 71
     3
 72
    10
 73
     6
 74
     0
 42
0.00000001
 43
0.00000001
 40
0.0
 40
0.0
 40
0.0
 40
0.0
 40
0.4857362911999026
 40
0.9714725823999808
 40
1.0
 40
1.0
 40
1.0
 40
1.0
 10
0.2606204075335489
 20
-0.2097191542719422
 30
0.0
 10
0.2607191054333559
 20
-0.2096010395083857
 30
0.0
 10
0.2609165012329701
 20
-0.2093648099812725
 30
0.0
 10
0.2610149216801924
 20
-0.2091111988889406
 30
0.0
 10
0.2609864997680655
 20
-0.2089822997670623
 30
0.0
 10
0.2609849231377447
 20
-0.2089751494295699
 30
0.0
  0
SPLINE
  5
F2
330
1F
100
AcDbEntity
  8
0
  6
Continuous
 62
     7
370
    25
100
AcDbSpline
210
0.0
220
0.0
230
1.0
 70
     8
 71
     3
 72
    10
 73
     6
 74
     0
 42
0.00000001
 43
0.00000001
 40
0.0
 40
0.0
 40
0.0
 40
0.0
 40
0.0362447872727665
 40
0.5181223936363484
 40
1.0
 40
1.0
 40
1.0
 40
1.0
 10
0.2610533252484731
 20
-0.2207623275022128
 30
0.0
 10
0.2610553712732991
 20
-0.2207714844113446
 30
0.0
 10
0.2610846193765459
 20
-0.2209023832256188
 30
0.0
 10
0.2609864685745003
 20
-0.2211580047408714
 30
0.0
 10
0.2607888688910399
 20
-0.2213942381989784
 30
0.0
 10
0.2606900690493098
 20
-0.2215123549280318
 30
0.0
  0
LINE
  5
F3
330
1F
100
AcDbEntity
  8
0
  6
Continuous
 62
     7
370
    25
100
AcDbLine
 10
0.1971979366
 20
-0.2493418883
 30
0.0
 11
0.2411190624
 21
-0.2399294652
 31
0.0
  0
LINE
  5
F4
330
1F
100
AcDbEntity
  8
0
  6
Continuous
 62
     7
370
    25
100
AcDbLine
 10
0.1950618615
 20
-0.2497956855
 30
0.0
 11
0.1971965429
 21
-0.2493382822
 31
0.0
  0
LINE
  5
F5
330
1F
100
AcDbEntity
  8
0
  6
Continuous
 62
     7
370
    25
100
AcDbLine
 10
0.2038820863
 20
-0.2367441744
 30
0.0
 11
0.2004273841
 21
-0.2374845269
 31
0.0
  0
LINE
  5
F6
330
1F
100
AcDbEntity
  8
0
  6
Continuous
 62
     7
370
    25
100
AcDbLine
 10
0.1641961938
 20
-0.2367353934
 30
0.0
 11
0.1642240584
 21
-0.2414526675
 31
0.0
  0
LINE
  5
F7
330
1F
100
AcDbEntity
  8
0
  6
Continuous
 62
     7
370
    25
100
AcDbLine
 10
0.1955327032
 20
-0.2265221445
 30
0.0
 11
0.1677528993
 21
-0.2334331967
 31
0.0
  0
LINE
  5
F8
330
1F
100
AcDbEntity
  8
0
  6
Continuous
 62
     7
370
    25
100
AcDbLine
 10
0.1957688266
 20
-0.2377773065
 30
0.0
 11
0.209981111
 21
-0.2342415782
 31
0.0
  0
LINE
  5
F9
330
1F
100
AcDbEntity
  8
0
  6
Continuous
 62
     7
370
    25
100
AcDbLine
 10
0.2247405671
 20
-0.2251892585
 30
0.0
 11
0.2244959811
 21
-0.225241674
 31
0.0
  0
LINE
  5
FA
330
1F
100
AcDbEntity
  8
0
  6
Continuous
 62
     7
370
    25
100
AcDbLine
 10
0.2441721954
 20
-0.2385174571
 30
0.0
 11
0.2601989462
 21
-0.2227348521
 31
0.0
  0
LINE
  5
FB
330
1F
100
AcDbEntity
  8
0
  6
Continuous
 62
     7
370
    25
100
AcDbLine
 10
0.2378865032
 20
-0.2168911109
 30
0.0
 11
0.2328595239
 21
-0.221841511
 31
0.0
  0
LINE
  5
FC
330
1F
100
AcDbEntity
  8
0
  6
Continuous
 62
     7
370
    25
100
AcDbLine
 10
0.2505466933
 20
-0.2057494541
 30
0.0
 11
0.215666803
 21
-0.2144268639
 31
0.0
  0
LINE
  5
FD
330
1F
100
AcDbEntity
  8
0
  6
Continuous
 62
     7
370
    25
100
AcDbLine
 10
0.261059405
 20
-0.220762156
 30
0.0
 11
0.2609897435
 21
-0.2089689554
 31
0.0
  0
LINE
  5
FE
330
1F
100
AcDbEntity
  8
0
  6
Continuous
 62
     7
370
    25
100
AcDbLine
 10
0.241697189
 20
-0.22673577
 30
0.0
 11
0.2276037131
 21
-0.2297560423
 31
0.0
  0
LINE
  5
FF
330
1F
100
AcDbEntity
  8
0
  6
Continuous
 62
     7
370
    25
100
AcDbLine
 10
0.2417668505
 20
-0.2385289707
 30
0.0
 11
0.241697189
 21
-0.22673577
 31
0.0
  0
LINE
  5
100
330
1F
100
AcDbEntity
  8
0
  6
Continuous
 62
     7
370
    25
100
AcDbLine
 10
0.2417668505
 20
-0.2385289707
 30
0.0
 11
0.1957228172
 21
-0.2483962488
 31
0.0
  0
LINE
  5
101
330
1F
100
AcDbEntity
  8
0
  6
Continuous
 62
     7
370
    25
100
AcDbLine
 10
0.1978507471
 20
-0.2479403174
 30
0.0
 11
0.1978228826
 21
-0.2432230432
 31
0.0
  0
LINE
  5
102
330
1F
100
AcDbEntity
  8
0
  6
Continuous
 62
     7
370
    25
100
AcDbLine
 10
0.1956949526
 20
-0.2436789747
 30
0.0
 11
0.2069898183
 21
-0.2412585426
 31
0.0
  0
LINE
  5
103
330
1F
100
AcDbEntity
  8
0
  6
Continuous
 62
     7
370
    25
100
AcDbLine
 10
0.2042900307
 20
-0.2368128603
 30
0.0
 11
0.2008353285
 21
-0.2375532129
 31
0.0
  0
LINE
  5
104
330
1F
100
AcDbEntity
  8
0
  6
Continuous
 62
     7
370
    25
100
AcDbLine
 10
0.2059117941
 20
-0.2388165272
 30
0.0
 11
0.2042900307
 21
-0.2368128603
 31
0.0
  0
LINE
  5
105
330
1F
100
AcDbEntity
  8
0
  6
Continuous
 62
     7
370
    25
100
AcDbLine
 10
0.1946306709
 20
-0.2412340399
 30
0.0
 11
0.2059117941
 21
-0.2388165272
 31
0.0
  0
LINE
  5
106
330
1F
100
AcDbEntity
  8
0
  6
Continuous
 62
     7
370
    25
100
AcDbLine
 10
0.1682245954
 20
-0.2334871256
 30
0.0
 11
0.1960043993
 21
-0.2265760735
 31
0.0
  0
LINE
  5
107
330
1F
100
AcDbEntity
  8
0
  6
Continuous
 62
     7
370
    25
100
AcDbLine
 10
0.1976670212
 20
-0.2286302212
 30
0.0
 11
0.1960043993
 21
-0.2265760735
 31
0.0
  0
LINE
  5
108
330
1F
100
AcDbEntity
  8
0
  6
Continuous
 62
     7
370
    25
100
AcDbLine
 10
0.185591806
 20
-0.2316342894
 30
0.0
 11
0.1976670212
 21
-0.2286302212
 31
0.0
  0
LINE
  5
109
330
1F
100
AcDbEntity
  8
0
  6
Continuous
 62
     7
370
    25
100
AcDbLine
 10
0.1689801911
 20
-0.2436208845
 30
0.0
 11
0.1689523266
 21
-0.2389036103
 31
0.0
  0
LINE
  5
10A
330
1F
100
AcDbEntity
  8
0
  6
Continuous
 62
     7
370
    25
100
AcDbLine
 10
0.1862964144
 20
-0.2430968182
 30
0.0
 11
0.186324279
 21
-0.2478140924
 31
0.0
  0
LINE
  5
10B
330
1F
100
AcDbEntity
  8
0
  6
Continuous
 62
     7
370
    25
100
AcDbLine
 10
0.1957228172
 20
-0.2483962488
 30
0.0
 11
0.1956949526
 21
-0.2436789747
 31
0.0
  0
LINE
  5
10C
330
1F
100
AcDbEntity
  8
0
  6
Continuous
 62
     7
370
    25
100
AcDbLine
 10
0.2145033596
 20
-0.2309459457
 30
0.0
 11
0.2161251234
 21
-0.2329496131
 31
0.0
  0
LINE
  5
10D
330
1F
100
AcDbEntity
  8
0
  6
Continuous
 62
     7
370
    25
100
AcDbLine
 10
0.2265256889
 20
-0.2273140268
 30
0.0
 11
0.2249039255
 21
-0.2253103599
 31
0.0
  0
LINE
  5
10E
330
1F
100
AcDbEntity
  8
0
  6
Continuous
 62
     7
370
    25
100
AcDbLine
 10
0.2265256889
 20
-0.2273140268
 30
0.0
 11
0.2406191648
 21
-0.2242937546
 31
0.0
  0
LINE
  5
10F
330
1F
100
AcDbEntity
  8
0
  6
Continuous
 62
     7
370
    25
100
AcDbLine
 10
0.2251485115
 20
-0.2252579444
 30
0.0
 11
0.2249039255
 21
-0.2253103599
 31
0.0
  0
LINE
  5
110
330
1F
100
AcDbEntity
  8
0
  6
Continuous
 62
     7
370
    25
100
AcDbLine
 10
0.2392786751
 20
-0.2164292249
 30
0.0
 11
0.2342516958
 21
-0.221379625
 31
0.0
  0
LINE
  5
111
330
1F
100
AcDbEntity
  8
0
  6
Continuous
 62
     7
370
    25
100
AcDbLine
 10
0.2285036706
 20
-0.2138723626
 30
0.0
 11
0.217801121
 21
-0.21653494
 31
0.0
  0
LINE
  5
112
330
1F
100
AcDbEntity
  8
0
  6
Continuous
 62
     7
370
    25
100
AcDbLine
 10
0.217801121
 20
-0.21653494
 30
0.0
 11
0.2161384991
 21
-0.2144807928
 31
0.0
  0
LINE
  5
113
330
1F
100
AcDbEntity
  8
0
  6
Continuous
 62
     7
370
    25
100
AcDbLine
 10
0.2161384991
 20
-0.2144807928
 30
0.0
 11
0.2510183893
 21
-0.2058033831
 31
0.0
  0
LINE
  5
114
330
1F
100
AcDbEntity
  8
0
  6
Continuous
 62
     7
370
    25
100
AcDbLine
 10
0.2426880703
 20
-0.2234123183
 30
0.0
 11
0.2587148211
 21
-0.2076297133
 31
0.0
  0
LINE
  5
115
330
1F
100
AcDbEntity
  8
0
  6
Continuous
 62
     7
370
    25
100
AcDbLine
 10
0.186787084
 20
-0.2340492047
 30
0.0
 11
0.1988622992
 21
-0.2310451359
 31
0.0
  0
LINE
  5
116
330
1F
100
AcDbEntity
  8
0
  6
Continuous
 62
     7
370
    25
100
AcDbLine
 10
0.2296989486
 20
-0.2162872778
 30
0.0
 11
0.218996399
 21
-0.2189498552
 31
0.0
  0
LINE
  5
117
330
1F
100
AcDbEntity
  8
0
  6
Continuous
 62
     7
370
    25
100
AcDbLine
 10
0.2446633182
 20
-0.2372949599
 30
0.0
 11
0.2445936567
 21
-0.2255017593
 31
0.0
  0
LINE
  5
118
330
1F
100
AcDbEntity
  8
0
  6
Continuous
 62
     7
370
    25
100
AcDbLine
 10
0.2445936567
 20
-0.2255017593
 30
0.0
 11
0.2606204075
 21
-0.2097191543
 31
0.0
  0
LINE
  5
119
330
1F
100
AcDbEntity
  8
0
  6
Continuous
 62
     7
370
    25
100
AcDbLine
 10
0.2606204075
 20
-0.2097191543
 30
0.0
 11
0.260690069
 21
-0.2215123549
 31
0.0
  0
LINE
  5
11A
330
1F
100
AcDbEntity
  8
0
  6
Continuous
 62
     7
370
    25
100
AcDbLine
 10
0.260690069
 20
-0.2215123549
 30
0.0
 11
0.2446633182
 21
-0.2372949599
 31
0.0
  0
LINE
  5
11B
330
1F
100
AcDbEntity
  8
0
  6
Continuous
 62
     7
370
    25
100
AcDbLine
 10
0.2059538409
 20
-0.2203831297
 30
0.0
 11
0.2076164634
 21
-0.2224372776
 31
0.0
  0
LINE
  5
11C
330
1F
100
AcDbEntity
  8
0
  6
Continuous
 62
     7
370
    25
100
AcDbLine
 10
0.1901056582
 20
-0.2400203276
 30
0.0
 11
0.1901033907
 21
-0.2396364542
 31
0.0
  0
LINE
  5
11D
330
1F
100
AcDbEntity
  8
0
  6
Continuous
 62
     7
370
    25
100
AcDbLine
 10
0.186787084
 20
-0.2340492047
 30
0.0
 11
0.186795663
 21
-0.2355015543
 31
0.0
  0
LINE
  5
11E
330
1F
100
AcDbEntity
  8
0
  6
Continuous
 62
     7
370
    25
100
AcDbLine
 10
0.2297426994
 20
-0.2236939764
 30
0.0
 11
0.2296989486
 21
-0.2162872778
 31
0.0
  0
LINE
  5
11F
330
1F
100
AcDbEntity
  8
0
  6
Continuous
 62
     7
370
    25
100
AcDbLine
 10
0.2127075506
 20
-0.2323249243
 30
0.0
 11
0.1928239613
 21
-0.2372715583
 31
0.0
  0
LINE
  5
120
330
1F
100
AcDbEntity
  8
0
  6
Continuous
 62
     7
370
    25
100
AcDbLine
 10
0.1692927528
 20
-0.2349884781
 30
0.0
 11
0.1692904853
 21
-0.2346046047
 31
0.0
  0
LINE
  5
121
330
1F
100
AcDbEntity
  8
0
  6
Continuous
 62
     7
370
    25
100
AcDbLine
 10
0.2360597959
 20
-0.2230873405
 30
0.0
 11
0.2360575284
 21
-0.2227034671
 31
0.0
  0
LINE
  5
122
330
1F
100
AcDbEntity
  8
0
  6
Continuous
 62
     7
370
    25
100
AcDbLine
 10
0.2520865467
 20
-0.2073047355
 30
0.0
 11
0.2520842792
 21
-0.2069208621
 31
0.0
  0
ARC
  5
123
330
1F
100
AcDbEntity
  8
0
  6
Continuous
 62
     7
370
    25
100
AcDbCircle
 10
0.2016750149
 20
-0.2184113497
 30
0.0
 40
0.0234572240558
100
AcDbArc
 50
283.0954680277
 51
315.2273420175
  0
ARC
  5
124
330
1F
100
AcDbEntity
  8
0
  6
Continuous
 62
     7
370
    25
100
AcDbCircle
 10
0.2319266375
 20
-0.2484034094
 30
0.0
 40
0.0191418905808901
100
AcDbArc
 50
103.0520316352
 51
135.2707784399
  0
ARC
  5
125
330
1F
100
AcDbEntity
  8
0
  6
Continuous
 62
     7
370
    25
100
AcDbCircle
 10
0.1920077329
 20
-0.2291812925
 30
0.0
 40
0.0123348499827755
100
AcDbArc
 50
250.6337504302
 51
282.2773715466
  0
ARC
  5
126
330
1F
100
AcDbEntity
  8
0
  6
Continuous
 62
     7
370
    25
100
AcDbCircle
 10
0.1702869446
 20
-0.3003411112
 30
0.0
 40
0.0667456374852195
100
AcDbArc
 50
71.0187044567
 51
76.7488896319
  0
ARC
  5
127
330
1F
100
AcDbEntity
  8
0
  6
Continuous
 62
     7
370
    25
100
AcDbCircle
 10
0.197062515
 20
-0.2199890331
 30
0.0
 40
0.0179648137208838
100
AcDbArc
 50
253.620916732
 51
282.1230131531
  0
ARC
  5
128
330
1F
100
AcDbEntity
  8
0
  6
Continuous
 62
     7
370
    25
100
AcDbCircle
 10
0.1646346702
 20
-0.296985445
 30
0.0
 40
0.0608016836005722
100
AcDbArc
 50
67.4847380632
 51
85.3325427586
  0
ARC
  5
129
330
1F
100
AcDbEntity
  8
0
  6
Continuous
 62
     7
370
    25
100
AcDbCircle
 10
0.2399687011
 20
-0.2198982036
 30
0.0
 40
0.0044434188411942
100
AcDbArc
 50
278.4176696455
 51
307.7342059213
  0
ARC
  5
12A
330
1F
100
AcDbEntity
  8
0
  6
Continuous
 62
     7
370
    25
100
AcDbCircle
 10
0.2223177629
 20
-0.2059909678
 30
0.0
 40
0.0194738164178559
100
AcDbArc
 50
278.3582295718
 51
307.7936459998
  0
MTEXT
  5
12C
330
1F
100
AcDbEntity
  8
0
  6
Continuous
 62
     7
100
AcDbMText
 10
0.1641953774
 20
-0.251119078
 30
0.0
 40
0.00483362
 41
0.0
 71
     1
 72
     1
  1
SOLIDWORKS Educational Product.
  7
SLDTEXTSTYLE0
 73
     1
 44
1.0
  0
MTEXT
  5
12D
330
1F
100
AcDbEntity
  8
0
  6
Continuous
 62
     7
100
AcDbMText
 10
0.1641953774
 20
-0.258369508
 30
0.0
 40
0.00483362
 41
0.0
 71
     1
 72
     1
  1
For Instructional Use Only.
  7
SLDTEXTSTYLE0
 73
     1
 44
1.0
  0
ENDSEC
  0
SECTION
  2
OBJECTS
  0
DICTIONARY
  5
C
330
0
100
AcDbDictionary
281
     1
  3
ACAD_GROUP
350
D
  3
ACAD_LAYOUT
350
1A
  3
ACAD_MLINESTYLE
350
17
  3
ACAD_PLOTSETTINGS
350
19
  3
ACAD_PLOTSTYLENAME
350
E
  3
ACAD_SCALELIST
350
47
  3
DWGPROPS
350
12E
  0
DICTIONARY
  5
D
102
{ACAD_REACTORS
330
C
102
}
330
C
100
AcDbDictionary
281
     1
  0
DICTIONARY
  5
1A
102
{ACAD_REACTORS
330
C
102
}
330
C
100
AcDbDictionary
281
     1
  3
Layout1
350
1E
  3
Layout2
350
26
  3
Model
350
22
  0
DICTIONARY
  5
17
102
{ACAD_REACTORS
330
C
102
}
330
C
100
AcDbDictionary
281
     1
  3
Standard
350
18
  0
DICTIONARY
  5
19
102
{ACAD_REACTORS
330
C
102
}
330
C
100
AcDbDictionary
281
     1
  0
ACDBDICTIONARYWDFLT
  5
E
102
{ACAD_REACTORS
330
C
102
}
330
C
100
AcDbDictionary
281
     1
  3
Normal
350
F
100
AcDbDictionaryWithDefault
340
F
  0
DICTIONARY
  5
47
102
{ACAD_REACTORS
330
C
102
}
330
C
100
AcDbDictionary
281
     1
  3
A0
350
48
  3
A1
350
49
  3
A2
350
4A
  3
A3
350
4B
  3
A4
350
4C
  3
A5
350
4D
  3
A6
350
4E
  3
A7
350
4F
  3
A8
350
50
  3
A9
350
51
  3
B0
350
52
  3
B1
350
53
  3
B2
350
54
  3
B3
350
55
  3
B4
350
56
  3
B5
350
57
  3
B6
350
58
  0
XRECORD
  5
12E
102
{ACAD_REACTORS
330
C
102
}
330
C
100
AcDbXrecord
280
     1
  1
DWGPROPS COOKIE
  2

  3

  4

  6

  7

  8
ppare
  9

300
=
301
=
302
=
303
=
304
=
305
=
306
=
307
=
308
=
309
=
 40
0.0
 41
2460421.670487593
 42
2460421.672045637
  1

 90
        0
  0
LAYOUT
  5
1E
102
{ACAD_REACTORS
330
1A
102
}
330
1A
100
AcDbPlotSettings
  1

  2
none_device
  4

  6

 40
0.0
 41
0.0
 42
0.0
 43
0.0
 44
0.0
 45
0.0
 46
0.0
 47
0.0
 48
0.0
 49
0.0
140
0.0
141
0.0
142
1.0
143
1.0
 70
   688
 72
     1
 73
     0
 74
     5
  7

 75
    16
147
1.0
148
0.0
149
0.0
100
AcDbLayout
  1
Layout1
 70
     1
 71
     1
 10
0.0
 20
0.0
 11
420.0
 21
297.0
 12
0.0
 22
0.0
 32
0.0
 14
1.0000000000E+20
 24
1.0000000000E+20
 34
1.0000000000E+20
 15
-1.0000000000E+20
 25
-1.0000000000E+20
 35
-1.0000000000E+20
146
0.0
 13
0.0
 23
0.0
 33
0.0
 16
1.0
 26
0.0
 36
0.0
 17
0.0
 27
1.0
 37
0.0
 76
     0
330
1B
  0
LAYOUT
  5
26
102
{ACAD_REACTORS
330
1A
102
}
330
1A
100
AcDbPlotSettings
  1

  2
none_device
  4

  6

 40
0.0
 41
0.0
 42
0.0
 43
0.0
 44
0.0
 45
0.0
 46
0.0
 47
0.0
 48
0.0
 49
0.0
140
0.0
141
0.0
142
1.0
143
1.0
 70
   688
 72
     1
 73
     0
 74
     5
  7

 75
    16
147
1.0
148
0.0
149
0.0
100
AcDbLayout
  1
Layout2
 70
     1
 71
     2
 10
0.0
 20
0.0
 11
0.0
 21
0.0
 12
0.0
 22
0.0
 32
0.0
 14
0.0
 24
0.0
 34
0.0
 15
0.0
 25
0.0
 35
0.0
146
0.0
 13
0.0
 23
0.0
 33
0.0
 16
1.0
 26
0.0
 36
0.0
 17
0.0
 27
1.0
 37
0.0
 76
     0
330
23
  0
LAYOUT
  5
22
102
{ACAD_REACTORS
330
1A
102
}
330
1A
100
AcDbPlotSettings
  1

  2
none_device
  4
ANSI_A_(11.00_x_8.50_Inches)
  6

 40
6.35
 41
19.05
 42
6.35000508
 43
19.05000254
 44
279.4
 45
215.9
 46
-473.8067725396
 47
739.1677285707
 48
0.0
 49
0.0
140
0.0
141
0.0
142
112.4197900098
143
1.0
 70
  1696
 72
     0
 73
     0
 74
     0
  7

 75
     0
147
0.0179189148
148
-1300.4909072572
149
0.0
100
AcDbLayout
  1
Model
 70
     1
 71
     0
 10
0.0
 20
0.0
 11
420.0
 21
297.0
 12
0.0
 22
0.0
 32
0.0
 14
0.1641953774
 24
-0.2500995116
 34
0.0
 15
0.2610644428
 25
-0.2053557374
 35
0.0
146
0.0
 13
0.0
 23
0.0
 33
0.0
 16
1.0
 26
0.0
 36
0.0
 17
0.0
 27
1.0
 37
0.0
 76
     0
330
1F
331
29
  0
MLINESTYLE
  5
18
102
{ACAD_REACTORS
330
17
102
}
330
17
100
AcDbMlineStyle
  2
Standard
 70
     0
  3

 62
   256
 51
90.0
 52
90.0
 71
     2
 49
0.5
 62
   256
  6
BYLAYER
 49
-0.5
 62
   256
  6
BYLAYER
  0
ACDBPLACEHOLDER
  5
F
102
{ACAD_REACTORS
330
E
102
}
330
E
  0
SCALE
  5
48
102
{ACAD_REACTORS
330
47
102
}
330
47
100
AcDbScale
 70
     0
300
1:1
140
1.0
141
1.0
290
     1
  0
SCALE
  5
49
102
{ACAD_REACTORS
330
47
102
}
330
47
100
AcDbScale
 70
     0
300
1:2
140
1.0
141
2.0
290
     0
  0
SCALE
  5
4A
102
{ACAD_REACTORS
330
47
102
}
330
47
100
AcDbScale
 70
     0
300
1:4
140
1.0
141
4.0
290
     0
  0
SCALE
  5
4B
102
{ACAD_REACTORS
330
47
102
}
330
47
100
AcDbScale
 70
     0
300
1:5
140
1.0
141
5.0
290
     0
  0
SCALE
  5
4C
102
{ACAD_REACTORS
330
47
102
}
330
47
100
AcDbScale
 70
     0
300
1:8
140
1.0
141
8.0
290
     0
  0
SCALE
  5
4D
102
{ACAD_REACTORS
330
47
102
}
330
47
100
AcDbScale
 70
     0
300
1:10
140
1.0
141
10.0
290
     0
  0
SCALE
  5
4E
102
{ACAD_REACTORS
330
47
102
}
330
47
100
AcDbScale
 70
     0
300
1:16
140
1.0
141
16.0
290
     0
  0
SCALE
  5
4F
102
{ACAD_REACTORS
330
47
102
}
330
47
100
AcDbScale
 70
     0
300
1:20
140
1.0
141
20.0
290
     0
  0
SCALE
  5
50
102
{ACAD_REACTORS
330
47
102
}
330
47
100
AcDbScale
 70
     0
300
1:30
140
1.0
141
30.0
290
     0
  0
SCALE
  5
51
102
{ACAD_REACTORS
330
47
102
}
330
47
100
AcDbScale
 70
     0
300
1:40
140
1.0
141
40.0
290
     0
  0
SCALE
  5
52
102
{ACAD_REACTORS
330
47
102
}
330
47
100
AcDbScale
 70
     0
300
1:50
140
1.0
141
50.0
290
     0
  0
SCALE
  5
53
102
{ACAD_REACTORS
330
47
102
}
330
47
100
AcDbScale
 70
     0
300
1:100
140
1.0
141
100.0
290
     0
  0
SCALE
  5
54
102
{ACAD_REACTORS
330
47
102
}
330
47
100
AcDbScale
 70
     0
300
2:1
140
2.0
141
1.0
290
     0
  0
SCALE
  5
55
102
{ACAD_REACTORS
330
47
102
}
330
47
100
AcDbScale
 70
     0
300
4:1
140
4.0
141
1.0
290
     0
  0
SCALE
  5
56
102
{ACAD_REACTORS
330
47
102
}
330
47
100
AcDbScale
 70
     0
300
8:1
140
8.0
141
1.0
290
     0
  0
SCALE
  5
57
102
{ACAD_REACTORS
330
47
102
}
330
47
100
AcDbScale
 70
     0
300
10:1
140
10.0
141
1.0
290
     0
  0
SCALE
  5
58
102
{ACAD_REACTORS
330
47
102
}
330
47
100
AcDbScale
 70
     0
300
100:1
140
100.0
141
1.0
290
     0
  0
ENDSEC
  0
EOF
