  0
SECTION
  2
HEADER
  9
$ACADVER
  1
AC1015
  9
$ACADMAINTVER
 70
     6
  9
$DWGCODEPAGE
  3
ANSI_1252
  9
$INSBASE
 10
0.0
 20
0.0
 30
0.0
  9
$EXTMIN
 10
0.4210155068
 20
-0.1106198354
 30
0.0
  9
$EXTMAX
 10
0.5355785948
 20
-0.0650415765
 30
0.0
  9
$LIMMIN
 10
0.0
 20
0.0
  9
$LIMMAX
 10
420.0
 20
297.0
  9
$ORTHOMODE
 70
     0
  9
$REGENMODE
 70
     1
  9
$FILLMODE
 70
     1
  9
$QTEXTMODE
 70
     0
  9
$MIRRTEXT
 70
     1
  9
$LTSCALE
 40
1.0
  9
$ATTMODE
 70
     1
  9
$TEXTSIZE
 40
0.0035
  9
$TRACEWID
 40
1.0
  9
$TEXTSTYLE
  7
Standard
  9
$CLAYER
  8
0
  9
$CELTYPE
  6
ByLayer
  9
$CECOLOR
 62
   256
  9
$CELTSCALE
 40
1.0
  9
$DISPSILH
 70
     0
  9
$DIMSCALE
 40
1.0
  9
$DIMASZ
 40
0.003556
  9
$DIMEXO
 40
0.0
  9
$DIMDLI
 40
3.75
  9
$DIMRND
 40
0.0
  9
$DIMDLE
 40
0.0
  9
$DIMEXE
 40
0.001
  9
$DIMTP
 40
0.0
  9
$DIMTM
 40
0.0
  9
$DIMTXT
 40
0.0035
  9
$DIMCEN
 40
2.5
  9
$DIMTSZ
 40
0.0
  9
$DIMTOL
 70
     0
  9
$DIMLIM
 70
     0
  9
$DIMTIH
 70
     1
  9
$DIMTOH
 70
     1
  9
$DIMSE1
 70
     0
  9
$DIMSE2
 70
     0
  9
$DIMTAD
 70
     1
  9
$DIMZIN
 70
     1
  9
$DIMBLK
  1

  9
$DIMASO
 70
     1
  9
$DIMSHO
 70
     1
  9
$DIMPOST
  1

  9
$DIMAPOST
  1

  9
$DIMALT
 70
     0
  9
$DIMALTD
 70
     3
  9
$DIMALTF
 40
39.3700787402
  9
$DIMLFAC
 40
1.0
  9
$DIMTOFL
 70
     1
  9
$DIMTVP
 40
0.0
  9
$DIMTIX
 70
     0
  9
$DIMSOXD
 70
     0
  9
$DIMSAH
 70
     0
  9
$DIMBLK1
  1

  9
$DIMBLK2
  1

  9
$DIMSTYLE
  2
ISO-25
  9
$DIMCLRD
 70
     0
  9
$DIMCLRE
 70
     0
  9
$DIMCLRT
 70
     0
  9
$DIMTFAC
 40
1.0
  9
$DIMGAP
 40
0.001524
  9
$DIMJUST
 70
     0
  9
$DIMSD1
 70
     0
  9
$DIMSD2
 70
     0
  9
$DIMTOLJ
 70
     0
  9
$DIMTZIN
 70
     1
  9
$DIMALTZ
 70
     0
  9
$DIMALTTZ
 70
     0
  9
$DIMUPT
 70
     0
  9
$DIMDEC
 70
     2
  9
$DIMTDEC
 70
     2
  9
$DIMALTU
 70
     2
  9
$DIMALTTD
 70
     3
  9
$DIMTXSTY
  7
Standard
  9
$DIMAUNIT
 70
     0
  9
$DIMADEC
 70
     2
  9
$DIMALTRND
 40
0.0
  9
$DIMAZIN
 70
     0
  9
$DIMDSEP
 70
    44
  9
$DIMATFIT
 70
     3
  9
$DIMFRAC
 70
     0
  9
$DIMLDRBLK
  1

  9
$DIMLUNIT
 70
     2
  9
$DIMLWD
 70
    -2
  9
$DIMLWE
 70
    -2
  9
$DIMTMOVE
 70
     0
  9
$LUNITS
 70
     2
  9
$LUPREC
 70
     2
  9
$SKETCHINC
 40
1.0
  9
$FILLETRAD
 40
0.0
  9
$AUNITS
 70
     0
  9
$AUPREC
 70
     2
  9
$MENU
  1
.
  9
$ELEVATION
 40
0.0
  9
$PELEVATION
 40
0.0
  9
$THICKNESS
 40
0.0
  9
$LIMCHECK
 70
     0
  9
$CHAMFERA
 40
0.0
  9
$CHAMFERB
 40
0.0
  9
$CHAMFERC
 40
0.0
  9
$CHAMFERD
 40
0.0
  9
$SKPOLY
 70
     0
  9
$TDCREATE
 40
2460421.899653102
  9
$TDUCREATE
 40
2460421.670486436
  9
$TDUPDATE
 40
2460421.901212118
  9
$TDUUPDATE
 40
2460421.672045452
  9
$TDINDWG
 40
0.0000000116
  9
$TDUSRTIMER
 40
0.0000000116
  9
$USRTIMER
 70
     1
  9
$ANGBASE
 50
0.0
  9
$ANGDIR
 70
     0
  9
$PDMODE
 70
     0
  9
$PDSIZE
 40
-1.0
  9
$PLINEWID
 40
0.0
  9
$SPLFRAME
 70
     0
  9
$SPLINETYPE
 70
     6
  9
$SPLINESEGS
 70
     8
  9
$HANDSEED
  5
12E
  9
$SURFTAB1
 70
     6
  9
$SURFTAB2
 70
     6
  9
$SURFTYPE
 70
     6
  9
$SURFU
 70
     6
  9
$SURFV
 70
     6
  9
$UCSBASE
  2

  9
$UCSNAME
  2

  9
$UCSORG
 10
0.0
 20
0.0
 30
0.0
  9
$UCSXDIR
 10
1.0
 20
0.0
 30
0.0
  9
$UCSYDIR
 10
0.0
 20
1.0
 30
0.0
  9
$UCSORTHOREF
  2

  9
$UCSORTHOVIEW
 70
     0
  9
$UCSORGTOP
 10
0.0
 20
0.0
 30
0.0
  9
$UCSORGBOTTOM
 10
0.0
 20
0.0
 30
0.0
  9
$UCSORGLEFT
 10
0.0
 20
0.0
 30
0.0
  9
$UCSORGRIGHT
 10
0.0
 20
0.0
 30
0.0
  9
$UCSORGFRONT
 10
0.0
 20
0.0
 30
0.0
  9
$UCSORGBACK
 10
0.0
 20
0.0
 30
0.0
  9
$PUCSBASE
  2

  9
$PUCSNAME
  2

  9
$PUCSORG
 10
0.0
 20
0.0
 30
0.0
  9
$PUCSXDIR
 10
1.0
 20
0.0
 30
0.0
  9
$PUCSYDIR
 10
0.0
 20
1.0
 30
0.0
  9
$PUCSORTHOREF
  2

  9
$PUCSORTHOVIEW
 70
     0
  9
$PUCSORGTOP
 10
0.0
 20
0.0
 30
0.0
  9
$PUCSORGBOTTOM
 10
0.0
 20
0.0
 30
0.0
  9
$PUCSORGLEFT
 10
0.0
 20
0.0
 30
0.0
  9
$PUCSORGRIGHT
 10
0.0
 20
0.0
 30
0.0
  9
$PUCSORGFRONT
 10
0.0
 20
0.0
 30
0.0
  9
$PUCSORGBACK
 10
0.0
 20
0.0
 30
0.0
  9
$USERI1
 70
     0
  9
$USERI2
 70
     0
  9
$USERI3
 70
     0
  9
$USERI4
 70
     0
  9
$USERI5
 70
     0
  9
$USERR1
 40
0.0
  9
$USERR2
 40
0.0
  9
$USERR3
 40
0.0
  9
$USERR4
 40
0.0
  9
$USERR5
 40
0.0
  9
$WORLDVIEW
 70
     1
  9
$SHADEDGE
 70
     3
  9
$SHADEDIF
 70
    70
  9
$TILEMODE
 70
     1
  9
$MAXACTVP
 70
    64
  9
$PINSBASE
 10
0.0
 20
0.0
 30
0.0
  9
$PLIMCHECK
 70
     0
  9
$PEXTMIN
 10
1.0000000000E+20
 20
1.0000000000E+20
 30
1.0000000000E+20
  9
$PEXTMAX
 10
-1.0000000000E+20
 20
-1.0000000000E+20
 30
-1.0000000000E+20
  9
$PLIMMIN
 10
0.0
 20
0.0
  9
$PLIMMAX
 10
420.0
 20
297.0
  9
$UNITMODE
 70
     0
  9
$VISRETAIN
 70
     1
  9
$PLINEGEN
 70
     0
  9
$PSLTSCALE
 70
     1
  9
$TREEDEPTH
 70
  3020
  9
$CMLSTYLE
  2
Standard
  9
$CMLJUST
 70
     0
  9
$CMLSCALE
 40
20.0
  9
$PROXYGRAPHICS
 70
     1
  9
$MEASUREMENT
 70
     1
  9
$CELWEIGHT
370
    -1
  9
$ENDCAPS
280
     0
  9
$JOINSTYLE
280
     0
  9
$LWDISPLAY
290
     1
  9
$INSUNITS
 70
     6
  9
$HYPERLINKBASE
  1

  9
$STYLESHEET
  1

  9
$XEDIT
290
     1
  9
$CEPSNTYPE
380
     0
  9
$PSTYLEMODE
290
     1
  9
$FINGERPRINTGUID
  2
{4a7c474a-6309-4008-b565-4892887854cd}
  9
$VERSIONGUID
  2
{FAEB1C32-E019-11D5-929B-00C0DF256EC4}
  9
$EXTNAMES
290
     1
  9
$PSVPSCALE
 40
0.0
  9
$OLESTARTUP
290
     0
  0
ENDSEC
  0
SECTION
  2
CLASSES
  0
CLASS
  1
ACDBDICTIONARYWDFLT
  2
AcDbDictionaryWithDefault
  3
ObjectDBX Classes
 90
        0
280
     0
281
     0
  0
CLASS
  1
VISUALSTYLE
  2
AcDbVisualStyle
  3
ObjectDBX Classes
 90
     4095
280
     0
281
     0
  0
CLASS
  1
MATERIAL
  2
AcDbMaterial
  3
ObjectDBX Classes
 90
     1153
280
     0
281
     0
  0
CLASS
  1
SCALE
  2
AcDbScale
  3
ObjectDBX Classes
 90
     1153
280
     0
281
     0
  0
CLASS
  1
TABLESTYLE
  2
AcDbTableStyle
  3
ObjectDBX Classes
 90
     4095
280
     0
281
     0
  0
CLASS
  1
MLEADERSTYLE
  2
AcDbMLeaderStyle
  3
ACDB_MLEADERSTYLE_CLASS
 90
     4095
280
     0
281
     0
  0
CLASS
  1
SUN
  2
AcDbSun
  3
SCENEOE
 90
     1153
280
     0
281
     0
  0
CLASS
  1
ACDBPLACEHOLDER
  2
AcDbPlaceHolder
  3
ObjectDBX Classes
 90
        0
280
     0
281
     0
  0
CLASS
  1
LAYOUT
  2
AcDbLayout
  3
ObjectDBX Classes
 90
        0
280
     0
281
     0
  0
ENDSEC
  0
SECTION
  2
TABLES
  0
TABLE
  2
VPORT
  5
8
330
0
100
AcDbSymbolTable
 70
     1
  0
VPORT
  5
29
330
8
100
AcDbSymbolTableRecord
100
AcDbViewportTableRecord
  2
*Active
 70
     0
 10
0.0
 20
0.0
 11
1.0
 21
1.0
 12
0.4782970508
 22
-0.0878307059
 13
0.0
 23
0.0
 14
10.0
 24
10.0
 15
10.0
 25
10.0
 16
0.0
 26
0.0
 36
1.0
 17
0.0
 27
0.0
 37
0.0
 40
0.0464898241
 41
2.5135468255
 42
50.0
 43
0.0
 44
0.0
 50
0.0
 51
0.0
 71
     0
 72
   100
 73
     1
 74
     3
 75
     0
 76
     0
 77
     0
 78
     0
281
     0
 65
     1
110
0.0
120
0.0
130
0.0
111
1.0
121
0.0
131
0.0
112
0.0
122
1.0
132
0.0
 79
     0
146
0.0
  0
ENDTAB
  0
TABLE
  2
LTYPE
  5
5
330
0
100
AcDbSymbolTable
 70
     6
  0
LTYPE
  5
14
330
5
100
AcDbSymbolTableRecord
100
AcDbLinetypeTableRecord
  2
ByBlock
 70
     0
  3

 72
    65
 73
     0
 40
0.0
  0
LTYPE
  5
15
330
5
100
AcDbSymbolTableRecord
100
AcDbLinetypeTableRecord
  2
ByLayer
 70
     0
  3

 72
    65
 73
     0
 40
0.0
  0
LTYPE
  5
16
330
5
100
AcDbSymbolTableRecord
100
AcDbLinetypeTableRecord
  2
Continuous
 70
     0
  3
Solid line
 72
    65
 73
     0
 40
0.0
  0
LTYPE
  5
5E
330
5
100
AcDbSymbolTableRecord
100
AcDbLinetypeTableRecord
  2
HIDDEN
 70
     0
  3
Hidden __ __ __ __ __ __ __ __ __ __ __ __ __ __
 72
    65
 73
     2
 40
0.001905
 49
0.00127
 74
     0
 49
-0.000635
 74
     0
  0
LTYPE
  5
5F
330
5
100
AcDbSymbolTableRecord
100
AcDbLinetypeTableRecord
  2
PHANTOM
 70
     0
  3
Phantom ______  __  __  ______  __  __  ______
 72
    65
 73
     6
 40
0.0127
 49
0.00635
 74
     0
 49
-0.00127
 74
     0
 49
0.00127
 74
     0
 49
-0.00127
 74
     0
 49
0.00127
 74
     0
 49
-0.00127
 74
     0
  0
LTYPE
  5
60
330
5
100
AcDbSymbolTableRecord
100
AcDbLinetypeTableRecord
  2
CENTER
 70
     0
  3
Center ____ _ ____ _ ____ _ ____ _ ____ _ ____
 72
    65
 73
     4
 40
0.01016
 49
0.00635
 74
     0
 49
-0.00127
 74
     0
 49
0.00127
 74
     0
 49
-0.00127
 74
     0
  0
LTYPE
  5
61
330
5
100
AcDbSymbolTableRecord
100
AcDbLinetypeTableRecord
  2
CENTERX2
 70
     0
  3
Center (2x) ________  __  ________  __  _____
 72
    65
 73
     4
 40
0.02032
 49
0.0127
 74
     0
 49
-0.00254
 74
     0
 49
0.00254
 74
     0
 49
-0.00254
 74
     0
  0
LTYPE
  5
62
330
5
100
AcDbSymbolTableRecord
100
AcDbLinetypeTableRecord
  2
DOT2
 70
     0
  3
Dot (.5x) ........................................
 72
    65
 73
     2
 40
0.000635
 49
0.0
 74
     0
 49
-0.000635
 74
     0
  0
ENDTAB
  0
TABLE
  2
LAYER
  5
2
330
0
100
AcDbSymbolTable
 70
     1
  0
LAYER
  5
10
330
2
100
AcDbSymbolTableRecord
100
AcDbLayerTableRecord
  2
0
 70
     0
 62
     7
  6
Continuous
370
    -3
390
F
  0
ENDTAB
  0
TABLE
  2
STYLE
  5
3
330
0
100
AcDbSymbolTable
 70
     1
  0
STYLE
  5
11
330
3
100
AcDbSymbolTableRecord
100
AcDbTextStyleTableRecord
  2
Standard
 70
     0
 40
0.0
 41
1.0
 50
0.0
 71
     0
 42
0.0035
  3
txt
  4

  0
ENDTAB
  0
TABLE
  2
VIEW
  5
6
330
0
100
AcDbSymbolTable
 70
     0
  0
ENDTAB
  0
TABLE
  2
UCS
  5
7
330
0
100
AcDbSymbolTable
 70
     0
  0
ENDTAB
  0
TABLE
  2
APPID
  5
9
330
0
100
AcDbSymbolTable
 70
     1
  0
APPID
  5
12
330
9
100
AcDbSymbolTableRecord
100
AcDbRegAppTableRecord
  2
ACAD
 70
     0
  0
ENDTAB
  0
TABLE
  2
DIMSTYLE
  5
A
330
0
100
AcDbSymbolTable
 70
     1
100
AcDbDimStyleTable
  0
DIMSTYLE
105
27
330
A
100
AcDbSymbolTableRecord
100
AcDbDimStyleTableRecord
  2
ISO-25
 70
     0
 41
2.5
 42
0.625
 43
3.75
 44
1.25
 73
     0
 74
     0
 77
     1
 78
     8
140
2.5
141
2.5
143
0.0393700787
147
0.625
171
     3
172
     1
178
     0
271
     2
272
     2
274
     3
278
    44
283
     0
284
     8
340
11
  0
ENDTAB
  0
TABLE
  2
BLOCK_RECORD
  5
1
330
0
100
AcDbSymbolTable
 70
     1
  0
BLOCK_RECORD
  5
1F
330
1
100
AcDbSymbolTableRecord
100
AcDbBlockTableRecord
  2
*Model_Space
340
22
  0
BLOCK_RECORD
  5
1B
330
1
100
AcDbSymbolTableRecord
100
AcDbBlockTableRecord
  2
*Paper_Space
340
1E
  0
BLOCK_RECORD
  5
23
330
1
100
AcDbSymbolTableRecord
100
AcDbBlockTableRecord
  2
*Paper_Space0
340
26
  0
ENDTAB
  0
ENDSEC
  0
SECTION
  2
BLOCKS
  0
BLOCK
  5
20
330
1F
100
AcDbEntity
  8
0
100
AcDbBlockBegin
  2
*Model_Space
 70
     0
 10
0.0
 20
0.0
 30
0.0
  3
*Model_Space
  1

  0
ENDBLK
  5
21
330
1F
100
AcDbEntity
  8
0
100
AcDbBlockEnd
  0
BLOCK
  5
1C
330
1B
100
AcDbEntity
 67
     1
  8
0
100
AcDbBlockBegin
  2
*Paper_Space
 70
     0
 10
0.0
 20
0.0
 30
0.0
  3
*Paper_Space
  1

  0
ENDBLK
  5
1D
330
1B
100
AcDbEntity
 67
     1
  8
0
100
AcDbBlockEnd
  0
BLOCK
  5
24
330
23
100
AcDbEntity
  8
0
100
AcDbBlockBegin
  2
*Paper_Space0
 70
     0
 10
0.0
 20
0.0
 30
0.0
  3
*Paper_Space0
  1

  0
ENDBLK
  5
25
330
23
100
AcDbEntity
  8
0
100
AcDbBlockEnd
  0
ENDSEC
  0
SECTION
  2
ENTITIES
  0
SPLINE
  5
64
330
1F
100
AcDbEntity
  8
0
  6
Continuous
 62
     7
370
    25
100
AcDbSpline
210
0.0
220
0.0
230
1.0
 70
     8
 71
     3
 72
    19
 73
    15
 74
     0
 42
0.00000001
 43
0.00000001
 40
0.0
 40
0.0
 40
0.0
 40
0.0
 40
0.117633279351071
 40
0.2117539311435941
 40
0.2823976167345135
 40
0.3295908405181585
 40
0.3597317771076432
 40
0.4024675837448234
 40
0.4615235775642459
 40
0.536875600480127
 40
0.6284803256310628
 40
0.7362683039252431
 40
0.8601432738291165
 40
1.0
 40
1.0
 40
1.0
 40
1.0
 10
0.4794715687955277
 20
-0.0896815464335716
 30
0.0
 10
0.4789797324041419
 20
-0.0897309287069171
 30
0.0
 10
0.4780943682458871
 20
-0.0898198226880031
 30
0.0
 10
0.4769198850657212
 20
-0.0900184759597528
 30
0.0
 10
0.4760441997072623
 20
-0.0901992834447883
 30
0.0
 10
0.4754366308958664
 20
-0.09034328441919
 30
0.0
 10
0.4749459323006045
 20
-0.0904691771126402
 30
0.0
 10
0.4744092306157155
 20
-0.0906169284191464
 30
0.0
 10
0.4736938085825864
 20
-0.090832743201651
 30
0.0
 10
0.4727911040556732
 20
-0.0911371891532675
 30
0.0
 10
0.4717111427007722
 20
-0.0915501681762813
 30
0.0
 10
0.4704706231609875
 20
-0.0920969104829799
 30
0.0
 10
0.4690854237222346
 20
-0.0927970657246862
 30
0.0
 10
0.4681605977669447
 20
-0.093372099434388
 30
0.0
 10
0.4676701632370426
 20
-0.0936770393914494
 30
0.0
  0
SPLINE
  5
65
330
1F
100
AcDbEntity
  8
0
  6
Continuous
 62
     7
370
    25
100
AcDbSpline
210
0.0
220
0.0
230
1.0
 70
     8
 71
     3
 72
    14
 73
    10
 74
     0
 42
0.00000001
 43
0.00000001
 40
0.0
 40
0.0
 40
0.0
 40
0.0
 40
0.1506898939252033
 40
0.2943602021612924
 40
0.4308429630866123
 40
0.5599651220349441
 40
0.7203643332826437
 40
0.8671059681187856
 40
0.9999999999999999
 40
0.9999999999999999
 40
0.9999999999999999
 40
0.9999999999999999
 10
0.4676702833342224
 20
-0.0936769461025517
 30
0.0
 10
0.4671181802425277
 20
-0.0940183420280596
 30
0.0
 10
0.4660396926714516
 20
-0.0946852306363921
 30
0.0
 10
0.4643485972314508
 20
-0.0955141560779019
 30
0.0
 10
0.4626865030747953
 20
-0.0962006780870516
 30
0.0
 10
0.4609050854339586
 20
-0.0968039616122765
 30
0.0
 10
0.4590375653003012
 20
-0.0972939677807613
 30
0.0
 10
0.4571238712510504
 20
-0.0976584477057281
 30
0.0
 10
0.4558991597840711
 20
-0.0977846073829806
 30
0.0
 10
0.4553171280044751
 20
-0.0978445634979058
 30
0.0
  0
SPLINE
  5
66
330
1F
100
AcDbEntity
  8
0
  6
Continuous
 62
     7
370
    25
100
AcDbSpline
210
0.0
220
0.0
230
1.0
 70
     8
 71
     3
 72
    20
 73
    16
 74
     0
 42
0.00000001
 43
0.00000001
 40
0.0
 40
0.0
 40
0.0
 40
0.0
 40
0.0827873289859783
 40
0.1580404948039982
 40
0.2257819843688785
 40
0.2861630133166853
 40
0.3882610711393227
 40
0.4825822490706123
 40
0.5431656484260772
 40
0.6050128903577613
 40
0.6807462588872052
 40
0.7476324387326269
 40
0.823166130354266
 40
0.9073273041179774
 40
1.0
 40
1.0
 40
1.0
 40
1.0
 10
0.4338534433423159
 20
-0.1070434440104481
 30
0.0
 10
0.4339349629687839
 20
-0.1072397416960045
 30
0.0
 10
0.4340905834273864
 20
-0.107614472753694
 30
0.0
 10
0.43442455311862
 20
-0.1081129536532796
 30
0.0
 10
0.434783864339205
 20
-0.108532854166957
 30
0.0
 10
0.4352517100113993
 20
-0.1089720670338965
 30
0.0
 10
0.4358470310326261
 20
-0.1094052928098522
 30
0.0
 10
0.4365169478495415
 20
-0.1097664296273098
 30
0.0
 10
0.43712160182593
 20
-0.110021814641767
 30
0.0
 10
0.4376982813484147
 20
-0.1102194881726722
 30
0.0
 10
0.438317458981559
 20
-0.1103824129784418
 30
0.0
 10
0.439001702719009
 20
-0.1105117646691046
 30
0.0
 10
0.4397303173034788
 20
-0.1105979645387064
 30
0.0
 10
0.4405556268282947
 20
-0.1106392468846295
 30
0.0
 10
0.4411310389865628
 20
-0.110608271272484
 30
0.0
 10
0.4414325931857488
 20
-0.1105920379938147
 30
0.0
  0
SPLINE
  5
68
330
1F
100
AcDbEntity
  8
0
  6
Continuous
 62
     7
370
    25
100
AcDbSpline
210
0.0
220
0.0
230
1.0
 70
     8
 71
     3
 72
    19
 73
    15
 74
     0
 42
0.00000001
 43
0.00000001
 40
0.0
 40
0.0
 40
0.0
 40
0.0
 40
0.0829096378033443
 40
0.1547508420539605
 40
0.215465242753343
 40
0.2650063702320088
 40
0.3109604660077052
 40
0.3695770447251161
 40
0.4414167678160217
 40
0.5265061529588773
 40
0.6248755926261741
 40
0.7365595646611236
 40
0.8615930179039115
 40
0.9999999999999999
 40
0.9999999999999999
 40
0.9999999999999999
 40
0.9999999999999999
 10
0.4919227326186331
 20
-0.0860094616202745
 30
0.0
 10
0.4916607334292744
 20
-0.0861664887585818
 30
0.0
 10
0.4911717119325592
 20
-0.0864595799180924
 30
0.0
 10
0.4904406258608923
 20
-0.0868420105200275
 30
0.0
 10
0.4897983455178175
 20
-0.0871510975465096
 30
0.0
 10
0.4892284884724929
 20
-0.0874046637572926
 30
0.0
 10
0.4886498299655964
 20
-0.087645460663576
 30
0.0
 10
0.4879671428632755
 20
-0.0879087967088555
 30
0.0
 10
0.4871065632482105
 20
-0.0882098729662819
 30
0.0
 10
0.4860530456442366
 20
-0.0885355229412264
 30
0.0
 10
0.4847943902400021
 20
-0.0888687198774729
 30
0.0
 10
0.4833194448157862
 20
-0.0891867699208498
 30
0.0
 10
0.4816231700848073
 20
-0.08947261789405
 30
0.0
 10
0.4803999387741414
 20
-0.0895941751033743
 30
0.0
 10
0.4797572745077507
 20
-0.0896580391281697
 30
0.0
  0
SPLINE
  5
69
330
1F
100
AcDbEntity
  8
0
  6
Continuous
 62
     7
370
    25
100
AcDbSpline
210
0.0
220
0.0
230
1.0
 70
     8
 71
     3
 72
    18
 73
    14
 74
     0
 42
0.00000001
 43
0.00000001
 40
0.0
 40
0.0
 40
0.0
 40
0.0
 40
0.1024678987132178
 40
0.1943474210004558
 40
0.2755374259064556
 40
0.3460517965597797
 40
0.4235635193459152
 40
0.4855575799772947
 40
0.5469966427780846
 40
0.6415860157578113
 40
0.7406739049266325
 40
0.8593164155826981
 40
1.0
 40
1.0
 40
1.0
 40
1.0
 10
0.4512712453309177
 20
-0.098183055795922
 30
0.0
 10
0.4510021103204764
 20
-0.0981992676714358
 30
0.0
 10
0.4504916509879728
 20
-0.0982300161910724
 30
0.0
 10
0.4497659211545785
 20
-0.0982034519087064
 30
0.0
 10
0.4491366485736194
 20
-0.098140990226087
 30
0.0
 10
0.4485621373995541
 20
-0.0980474684692317
 30
0.0
 10
0.4480579159180865
 20
-0.0979327425934456
 30
0.0
 10
0.4476073036728858
 20
-0.0978003320343303
 30
0.0
 10
0.4471516372332324
 20
-0.0976370426903904
 30
0.0
 10
0.4466732478177537
 20
-0.0974214175519905
 30
0.0
 10
0.44617996370549
 20
-0.097126490878842
 30
0.0
 10
0.4457838936521957
 20
-0.0968032330109399
 30
0.0
 10
0.4456464543507906
 20
-0.0966143455263732
 30
0.0
 10
0.4455718939655118
 20
-0.0965118746648392
 30
0.0
  0
SPLINE
  5
6C
330
1F
100
AcDbEntity
  8
0
  6
Continuous
 62
     7
370
    25
100
AcDbSpline
210
0.0
220
0.0
230
1.0
 70
     8
 71
     3
 72
    22
 73
    18
 74
     0
 42
0.00000001
 43
0.00000001
 40
0.0
 40
0.0
 40
0.0
 40
0.0
 40
0.098538632188946
 40
0.1875048963001305
 40
0.2669257049860085
 40
0.3370128679677036
 40
0.4000183161625966
 40
0.4566180943427918
 40
0.4910643409965778
 40
0.5226351132384746
 40
0.558677467595857
 40
0.6058429766394943
 40
0.6641091510013472
 40
0.7321164517095665
 40
0.8107839829988566
 40
0.9000872346115508
 40
1.0
 40
1.0
 40
1.0
 40
1.0
 10
0.4236886955245067
 20
-0.0966475981113283
 30
0.0
 10
0.42420267012577
 20
-0.0969306629575968
 30
0.0
 10
0.4251806901385302
 20
-0.0974692947963667
 30
0.0
 10
0.4264627737447257
 20
-0.0982904811358651
 30
0.0
 10
0.4275395578073624
 20
-0.0990516296508694
 30
0.0
 10
0.4284361997630438
 20
-0.0997516423606462
 30
0.0
 10
0.429186508465646
 20
-0.1003915180773721
 30
0.0
 10
0.4297577050839878
 20
-0.1009206006368745
 30
0.0
 10
0.4301886074900452
 20
-0.1013463955372823
 30
0.0
 10
0.430531826948339
 20
-0.1017021965345277
 30
0.0
 10
0.4309028383084765
 20
-0.1021067545607526
 30
0.0
 10
0.4313385258051696
 20
-0.1026137678919932
 30
0.0
 10
0.4318359368417178
 20
-0.1032452063046083
 30
0.0
 10
0.4323710625338131
 20
-0.1040040601219688
 30
0.0
 10
0.432912694808591
 20
-0.1048928726945824
 30
0.0
 10
0.4334391149405893
 20
-0.1059176033353537
 30
0.0
 10
0.4337102659800962
 20
-0.1066543929642941
 30
0.0
 10
0.4338534433422691
 20
-0.1070434440103086
 30
0.0
  0
SPLINE
  5
6D
330
1F
100
AcDbEntity
  8
0
  6
Continuous
 62
     7
370
    25
100
AcDbSpline
210
0.0
220
0.0
230
1.0
 70
     8
 71
     3
 72
    11
 73
     7
 74
     0
 42
0.00000001
 43
0.00000001
 40
0.0
 40
0.0
 40
0.0
 40
0.0
 40
0.2458043425027306
 40
0.4944989109675824
 40
0.7459661314567602
 40
1.0
 40
1.0
 40
1.0
 40
1.0
 10
0.4953401509764462
 20
-0.106087040424555
 30
0.0
 10
0.4956905802532676
 20
-0.1060469817786561
 30
0.0
 10
0.4963955592377512
 20
-0.1059663934677657
 30
0.0
 10
0.4974077427390862
 20
-0.1057081397343737
 30
0.0
 10
0.4983670897675474
 20
-0.1053626267628017
 30
0.0
 10
0.4989166239202494
 20
-0.1050539595823634
 30
0.0
 10
0.499192786108099
 20
-0.1048988423736366
 30
0.0
  0
SPLINE
  5
6E
330
1F
100
AcDbEntity
  8
0
  6
Continuous
 62
     7
370
    25
100
AcDbSpline
210
0.0
220
0.0
230
1.0
 70
     8
 71
     3
 72
    11
 73
     7
 74
     0
 42
0.00000001
 43
0.00000001
 40
0.0
 40
0.0
 40
0.0
 40
0.0
 40
0.2971705736882619
 40
0.5628637577409027
 40
0.797122497321207
 40
1.0
 40
1.0
 40
1.0
 40
1.0
 10
0.4455718939653767
 20
-0.0965118746648398
 30
0.0
 10
0.4452608353987842
 20
-0.0960152274266515
 30
0.0
 10
0.4446716667220317
 20
-0.0950745396348263
 30
0.0
 10
0.4436829933266767
 20
-0.0937744068011349
 30
0.0
 10
0.4427323001673598
 20
-0.0926470302617776
 30
0.0
 10
0.4420761731046497
 20
-0.0919617801338738
 30
0.0
 10
0.4417716606733887
 20
-0.0916437515166607
 30
0.0
  0
SPLINE
  5
73
330
1F
100
AcDbEntity
  8
0
  6
Continuous
 62
     7
370
    25
100
AcDbSpline
210
0.0
220
0.0
230
1.0
 70
     8
 71
     3
 72
     9
 73
     5
 74
     0
 42
0.00000001
 43
0.00000001
 40
0.0
 40
0.0
 40
0.0
 40
0.0
 40
0.507179703563049
 40
1.0
 40
1.0
 40
1.0
 40
1.0
 10
0.4417716606734111
 20
-0.0916437515166754
 30
0.0
 10
0.4416736794419809
 20
-0.0915319048394288
 30
0.0
 10
0.441480491049895
 20
-0.0913113781179122
 30
0.0
 10
0.4414602292783413
 20
-0.0911552081650399
 30
0.0
 10
0.4414502438660779
 20
-0.0910782444425708
 30
0.0
  0
SPLINE
  5
75
330
1F
100
AcDbEntity
  8
0
  6
Continuous
 62
     7
370
    25
100
AcDbSpline
210
0.0
220
0.0
230
1.0
 70
     8
 71
     3
 72
    21
 73
    17
 74
     0
 42
0.00000001
 43
0.00000001
 40
0.0
 40
0.0
 40
0.0
 40
0.0
 40
0.112075327319831
 40
0.2133125769270811
 40
0.3032716853706166
 40
0.381622989295363
 40
0.4675349398699419
 40
0.5317686412705424
 40
0.5785600376398536
 40
0.6199219146721195
 40
0.6564459172790077
 40
0.701154703398521
 40
0.7523721997975051
 40
0.8191630358235168
 40
0.9017278039190502
 40
1.0
 40
1.0
 40
1.0
 40
1.0
 10
0.4267259021148677
 20
-0.0838886269287489
 30
0.0
 10
0.4263873745178465
 20
-0.0839411282652696
 30
0.0
 10
0.4257430561312002
 20
-0.0840410538747072
 30
0.0
 10
0.424875761563734
 20
-0.0842922168333928
 30
0.0
 10
0.4241530344164655
 20
-0.0845737877490659
 30
0.0
 10
0.4235222821013344
 20
-0.0848907298592618
 30
0.0
 10
0.42300477780025
 20
-0.0852177545321857
 30
0.0
 10
0.4226004745495879
 20
-0.0855327763713899
 30
0.0
 10
0.4223061678072936
 20
-0.0858025268183777
 30
0.0
 10
0.4220823550378369
 20
-0.0860375219750706
 30
0.0
 10
0.4218758082757617
 20
-0.0862836887595556
 30
0.0
 10
0.4216688149117785
 20
-0.0865692831895945
 30
0.0
 10
0.4214489686043731
 20
-0.0869361937389688
 30
0.0
 10
0.4212346749722214
 20
-0.0874090252359125
 30
0.0
 10
0.4210529147749534
 20
-0.0880155056506129
 30
0.0
 10
0.4210287663539103
 20
-0.0884694774918988
 30
0.0
 10
0.4210156433821848
 20
-0.0887161793208374
 30
0.0
  0
SPLINE
  5
77
330
1F
100
AcDbEntity
  8
0
  6
Continuous
 62
     7
370
    25
100
AcDbSpline
210
0.0
220
0.0
230
1.0
 70
     8
 71
     3
 72
    11
 73
     7
 74
     0
 42
0.00000001
 43
0.00000001
 40
0.0
 40
0.0
 40
0.0
 40
0.0
 40
0.2423572748058929
 40
0.4879254490708293
 40
0.7396246202639676
 40
1.0
 40
1.0
 40
1.0
 40
1.0
 10
0.503550888275144
 20
-0.078344172659422
 30
0.0
 10
0.5035418195632076
 20
-0.078418457871282
 30
0.0
 10
0.5035235619914161
 20
-0.0785680124715518
 30
0.0
 10
0.5033566337749104
 20
-0.0788098779618051
 30
0.0
 10
0.5030788277407906
 20
-0.0790815715488556
 30
0.0
 10
0.5027724504738255
 20
-0.0792848958174759
 30
0.0
 10
0.5026166663266074
 20
-0.0793882804390226
 30
0.0
  0
SPLINE
  5
78
330
1F
100
AcDbEntity
  8
0
  6
Continuous
 62
     7
370
    25
100
AcDbSpline
210
0.0
220
0.0
230
1.0
 70
     8
 71
     3
 72
    10
 73
     6
 74
     0
 42
0.00000001
 43
0.00000001
 40
0.0
 40
0.0
 40
0.0
 40
0.0
 40
0.140354244580732
 40
0.5442440299923657
 40
0.9999999999999999
 40
0.9999999999999999
 40
0.9999999999999999
 40
0.9999999999999999
 10
0.4435304888408482
 20
-0.0936120721161555
 30
0.0
 10
0.4436024512366215
 20
-0.0935855589896016
 30
0.0
 10
0.4438814959096242
 20
-0.0934827504789894
 30
0.0
 10
0.4444556776438858
 20
-0.093334604717923
 30
0.0
 10
0.4449822180723367
 20
-0.0932531335229816
 30
0.0
 10
0.4452613725289299
 20
-0.0932099401689237
 30
0.0
  0
SPLINE
  5
79
330
1F
100
AcDbEntity
  8
0
  6
Continuous
 62
     7
370
    25
100
AcDbSpline
210
0.0
220
0.0
230
1.0
 70
     8
 71
     3
 72
    16
 73
    12
 74
     0
 42
0.00000001
 43
0.00000001
 40
0.0
 40
0.0
 40
0.0
 40
0.0
 40
0.1831553489547513
 40
0.3301755174276496
 40
0.4411571955023887
 40
0.5167894419886344
 40
0.5515611718301798
 40
0.6014986174869842
 40
0.6718513414291767
 40
0.8146356490999496
 40
0.9999999999999999
 40
0.9999999999999999
 40
0.9999999999999999
 40
0.9999999999999999
 10
0.4210369454569237
 20
-0.0928106616269088
 30
0.0
 10
0.4210579204008986
 20
-0.0930978227715579
 30
0.0
 10
0.4210957320892793
 20
-0.0936154903147706
 30
0.0
 10
0.4213356932386969
 20
-0.0942827220277014
 30
0.0
 10
0.4215905598168241
 20
-0.0947622858007489
 30
0.0
 10
0.4217977193873272
 20
-0.0950647277903173
 30
0.0
 10
0.4219603987659418
 20
-0.0952733664484831
 30
0.0
 10
0.4221211671369522
 20
-0.0954613322475904
 30
0.0
 10
0.4224156656425166
 20
-0.0957654986988093
 30
0.0
 10
0.4229135743778781
 20
-0.0961940510841696
 30
0.0
 10
0.4234088976896461
 20
-0.0964838798632097
 30
0.0
 10
0.4236886955244793
 20
-0.0966475981113139
 30
0.0
  0
SPLINE
  5
7A
330
1F
100
AcDbEntity
  8
0
  6
Continuous
 62
     7
370
    25
100
AcDbSpline
210
0.0
220
0.0
230
1.0
 70
     8
 71
     3
 72
    14
 73
    10
 74
     0
 42
0.00000001
 43
0.00000001
 40
0.0
 40
0.0
 40
0.0
 40
0.0
 40
0.1500474966971152
 40
0.293402736561414
 40
0.4298100159108014
 40
0.559021365440422
 40
0.719691129189676
 40
0.8667734787948939
 40
1.0
 40
1.0
 40
1.0
 40
1.0
 10
0.4730061536893704
 20
-0.0749246133937438
 30
0.0
 10
0.472444039693829
 20
-0.0752921760673999
 30
0.0
 10
0.4713448825057271
 20
-0.0760109077802401
 30
0.0
 10
0.4696247302423563
 20
-0.0769178027647102
 30
0.0
 10
0.4679340902157714
 20
-0.0776805014687722
 30
0.0
 10
0.4661222196582226
 20
-0.0783647231102411
 30
0.0
 10
0.4642235413944758
 20
-0.0789386720473429
 30
0.0
 10
0.4622789034525878
 20
-0.079388320254059
 30
0.0
 10
0.4610351789788113
 20
-0.0795684268054471
 30
0.0
 10
0.4604440557492829
 20
-0.0796540286960271
 30
0.0
  0
SPLINE
  5
7B
330
1F
100
AcDbEntity
  8
0
  6
Continuous
 62
     7
370
    25
100
AcDbSpline
210
0.0
220
0.0
230
1.0
 70
     8
 71
     3
 72
    20
 73
    16
 74
     0
 42
0.00000001
 43
0.00000001
 40
0.0
 40
0.0
 40
0.0
 40
0.0
 40
0.1061471880197964
 40
0.1944715741647331
 40
0.2650043751313738
 40
0.3177764592956617
 40
0.3528175066995828
 40
0.3745622740837024
 40
0.4063021368074091
 40
0.4602339376522094
 40
0.5323234557840839
 40
0.6224924058526322
 40
0.73061770545726
 40
0.8565245079248678
 40
0.9999999999999999
 40
0.9999999999999999
 40
0.9999999999999999
 40
0.9999999999999999
 10
0.4849001573776248
 20
-0.0704371566754923
 30
0.0
 10
0.4844535661077064
 20
-0.0704999305613148
 30
0.0
 10
0.4836353691409334
 20
-0.0706149381900618
 30
0.0
 10
0.4825252859956395
 20
-0.0708397197012973
 30
0.0
 10
0.481643857535614
 20
-0.071049578655419
 30
0.0
 10
0.4809882993427751
 20
-0.0712262219703255
 30
0.0
 10
0.4805369894101858
 20
-0.0713576404165491
 30
0.0
 10
0.4801737796644754
 20
-0.0714686352166512
 30
0.0
 10
0.4797346104722041
 20
-0.0716088061096534
 30
0.0
 10
0.4790933952500543
 20
-0.0718275251233063
 30
0.0
 10
0.4782234134230737
 20
-0.0721529186064654
 30
0.0
 10
0.4771512543538446
 20
-0.0726002590803987
 30
0.0
 10
0.4758946110512915
 20
-0.0731964108187653
 30
0.0
 10
0.4744712641944214
 20
-0.0739631308375596
 30
0.0
 10
0.4735152549379451
 20
-0.0745905249505148
 30
0.0
 10
0.4730060755995846
 20
-0.0749246808356819
 30
0.0
  0
SPLINE
  5
7C
330
1F
100
AcDbEntity
  8
0
  6
Continuous
 62
     7
370
    25
100
AcDbSpline
210
0.0
220
0.0
230
1.0
 70
     8
 71
     3
 72
    21
 73
    17
 74
     0
 42
0.00000001
 43
0.00000001
 40
0.0
 40
0.0
 40
0.0
 40
0.0
 40
0.084998201505443
 40
0.1545157070143972
 40
0.217537112538462
 40
0.2610817920864599
 40
0.298343752529667
 40
0.3315081865579669
 40
0.3639877365440246
 40
0.4182491499873922
 40
0.4938450788401934
 40
0.5903054384804243
 40
0.6760945480321539
 40
0.7731471193946514
 40
0.8812512688800701
 40
1.0
 40
1.0
 40
1.0
 40
1.0
 10
0.5355253395159666
 20
-0.0698788026336008
 30
0.0
 10
0.5355054122226445
 20
-0.0696002515928557
 30
0.0
 10
0.5354691869877333
 20
-0.0690938819257567
 30
0.0
 10
0.5352307882184352
 20
-0.0684114734127856
 30
0.0
 10
0.5349534793923536
 20
-0.0678909734312084
 30
0.0
 10
0.5346776413824222
 20
-0.0675025525393627
 30
0.0
 10
0.5344319471119475
 20
-0.0672133887479396
 30
0.0
 10
0.5341901548063566
 20
-0.0669676596118739
 30
0.0
 10
0.5338932850547999
 20
-0.0667023877360403
 30
0.0
 10
0.5334720992085974
 20
-0.066382205316116
 30
0.0
 10
0.532815265003589
 20
-0.0659854312625616
 30
0.0
 10
0.5319715982690323
 20
-0.065613232084639
 30
0.0
 10
0.5309690846187107
 20
-0.0653077751895429
 30
0.0
 10
0.5298584142295156
 20
-0.0651019010194527
 30
0.0
 10
0.5285744371739186
 20
-0.0650055770685876
 30
0.0
 10
0.5276943744379379
 20
-0.0650816024638468
 30
0.0
 10
0.5272336955480564
 20
-0.0651213988252412
 30
0.0
  0
SPLINE
  5
7E
330
1F
100
AcDbEntity
  8
0
  6
Continuous
 62
     7
370
    25
100
AcDbSpline
210
0.0
220
0.0
230
1.0
 70
     8
 71
     3
 72
    11
 73
     7
 74
     0
 42
0.00000001
 43
0.00000001
 40
0.0
 40
0.0
 40
0.0
 40
0.0
 40
0.2482515435054524
 40
0.4990788410621616
 40
0.7504044033287575
 40
1.0
 40
1.0
 40
1.0
 40
1.0
 10
0.5332866227771443
 20
-0.0837895409768843
 30
0.0
 10
0.5336173536537688
 20
-0.0835582270200949
 30
0.0
 10
0.5342822469320881
 20
-0.0830931990897715
 30
0.0
 10
0.5350028066671672
 20
-0.0821989942867589
 30
0.0
 10
0.5354895702016176
 20
-0.0811985182558243
 30
0.0
 10
0.5355489883164487
 20
-0.0804753546427802
 30
0.0
 10
0.5355785947715958
 20
-0.0801150215838385
 30
0.0
  0
SPLINE
  5
87
330
1F
100
AcDbEntity
  8
0
  6
Continuous
 62
     7
370
    25
100
AcDbSpline
210
0.0
220
0.0
230
1.0
 70
     8
 71
     3
 72
    14
 73
    10
 74
     0
 42
0.00000001
 43
0.00000001
 40
0.0
 40
0.0
 40
0.0
 40
0.0
 40
0.25
 40
0.25
 40
0.5
 40
0.5
 40
0.75
 40
0.75
 40
1.0
 40
1.0
 40
1.0
 40
1.0
 10
0.4953967127331227
 20
-0.0949937849621245
 30
0.0
 10
0.495395597357696
 20
-0.0947793981011226
 30
0.0
 10
0.495387288886365
 20
-0.0945355316564579
 30
0.0
 10
0.4953575380579518
 20
-0.0940255967135813
 30
0.0
 10
0.4953361074065504
 20
-0.0937597288529946
 30
0.0
 10
0.4952833657945124
 20
-0.0932462656617447
 30
0.0
 10
0.4952520755854479
 20
-0.0929988723569217
 30
0.0
 10
0.495184372622116
 20
-0.0925600510336291
 30
0.0
 10
0.4951479865060734
 20
-0.0923687956726121
 30
0.0
 10
0.4951118079299807
 20
-0.0922201092292254
 30
0.0
  0
SPLINE
  5
88
330
1F
100
AcDbEntity
  8
0
  6
Continuous
 62
     7
370
    25
100
AcDbSpline
210
0.0
220
0.0
230
1.0
 70
     8
 71
     3
 72
    12
 73
     8
 74
     0
 42
0.00000001
 43
0.00000001
 40
0.0
 40
0.0
 40
0.0
 40
0.0
 40
0.2499999999999887
 40
0.2499999999999887
 40
0.4999999999999775
 40
0.4999999999999775
 40
1.0
 40
1.0
 40
1.0
 40
1.0
 10
0.4788942357247012
 20
-0.096372915619764
 30
0.0
 10
0.4788931203492711
 20
-0.0961585287590072
 30
0.0
 10
0.4788847711660343
 20
-0.0959146925312427
 30
0.0
 10
0.4788550590760139
 20
-0.0954050133111946
 30
0.0
 10
0.4788335834570767
 20
-0.095138929187772
 30
0.0
 10
0.4787545219447319
 20
-0.0943687917723036
 30
0.0
 10
0.4786816880730152
 20
-0.0938966127739124
 30
0.0
 10
0.4786093309214827
 20
-0.0935992398871583
 30
0.0
  0
SPLINE
  5
89
330
1F
100
AcDbEntity
  8
0
  6
Continuous
 62
     7
370
    25
100
AcDbSpline
210
0.0
220
0.0
230
1.0
 70
     8
 71
     3
 72
    29
 73
    25
 74
     0
 42
0.00000001
 43
0.00000001
 40
0.0
 40
0.0
 40
0.0
 40
0.0
 40
0.034882855146267
 40
0.0703615078256598
 40
0.1064363297432794
 40
0.1431076744087402
 40
0.180375878289682
 40
0.2182412618759386
 40
0.2567041306625472
 40
0.2957647760588123
 40
0.3354234762299134
 40
0.3756804968770326
 40
0.4165360919611466
 40
0.457990504375376
 40
0.5000439665700889
 40
0.5391898561589634
 40
0.5824368018798175
 40
0.6297849224979309
 40
0.6812342869237415
 40
0.7367849271468053
 40
0.7964368467241559
 40
0.8601900265384029
 40
0.9280444288159421
 40
1.0
 40
1.0
 40
1.0
 40
1.0
 10
0.4665909781281715
 20
-0.0974751198777419
 30
0.0
 10
0.4667135139071668
 20
-0.0973978331123126
 30
0.0
 10
0.466960678370527
 20
-0.0972419395271183
 30
0.0
 10
0.4673415349177473
 20
-0.0970142234294344
 30
0.0
 10
0.4677338321121776
 20
-0.0967889719324264
 30
0.0
 10
0.4681381558754845
 20
-0.0965672064840649
 30
0.0
 10
0.4685544127241614
 20
-0.0963492184193602
 30
0.0
 10
0.468982672569395
 20
-0.0961355114177467
 30
0.0
 10
0.4694229358728189
 20
-0.0959265421474286
 30
0.0
 10
0.46987519615507
 20
-0.0957227907936867
 30
0.0
 10
0.4703394214845173
 20
-0.095524741296403
 30
0.0
 10
0.4708155579159328
 20
-0.0953328850219726
 30
0.0
 10
0.4713035279401361
 20
-0.0951477227907614
 30
0.0
 10
0.4718032263350231
 20
-0.0949697487518261
 30
0.0
 10
0.4723003192588172
 20
-0.0948042419110472
 30
0.0
 10
0.4728085304683887
 20
-0.0946461331743393
 30
0.0
 10
0.4733421358497046
 20
-0.0944917889460551
 30
0.0
 10
0.47393049138023
 20
-0.0943357142567507
 30
0.0
 10
0.4745741924793372
 20
-0.0941815908996197
 30
0.0
 10
0.4752736455801481
 20
-0.0940334901667736
 30
0.0
 10
0.4760290030359635
 20
-0.0938956090238347
 30
0.0
 10
0.476840099957473
 20
-0.0937732387877633
 30
0.0
 10
0.4777063686387213
 20
-0.0936687246330323
 30
0.0
 10
0.4783025144019512
 20
-0.0936228500297023
 30
0.0
 10
0.4786093309175406
 20
-0.0935992398879955
 30
0.0
  0
SPLINE
  5
8A
330
1F
100
AcDbEntity
  8
0
  6
Continuous
 62
     7
370
    25
100
AcDbSpline
210
0.0
220
0.0
230
1.0
 70
     8
 71
     3
 72
    16
 73
    12
 74
     0
 42
0.00000001
 43
0.00000001
 40
0.0
 40
0.0
 40
0.0
 40
0.0
 40
0.1249999999999922
 40
0.1249999999999922
 40
0.2499999999999845
 40
0.2499999999999845
 40
0.4999999999999897
 40
0.4999999999999897
 40
0.7499999999999949
 40
0.7499999999999949
 40
1.0
 40
1.0
 40
1.0
 40
1.0
 10
0.4680247460663204
 20
-0.1000462741715855
 30
0.0
 10
0.4679421298721347
 20
-0.0999539153873462
 30
0.0
 10
0.4678588782588403
 20
-0.099854426485954
 30
0.0
 10
0.4676904055101156
 20
-0.0996402813266182
 30
0.0
 10
0.4676058130278186
 20
-0.0995264406964684
 30
0.0
 10
0.4673578137968747
 20
-0.0991735105138403
 30
0.0
 10
0.4671996112244434
 20
-0.0989217346862162
 30
0.0
 10
0.4669273295846708
 20
-0.0984336694353902
 30
0.0
 10
0.4668143137512041
 20
-0.0981981608881757
 30
0.0
 10
0.466651994647855
 20
-0.0977846144130445
 30
0.0
 10
0.4666025794722523
 20
-0.0976071534340715
 30
0.0
 10
0.4665909787555014
 20
-0.0974751210665289
 30
0.0
  0
SPLINE
  5
8B
330
1F
100
AcDbEntity
  8
0
  6
Continuous
 62
     7
370
    25
100
AcDbSpline
210
0.0
220
0.0
230
1.0
 70
     8
 71
     3
 72
     8
 73
     4
 74
     0
 42
0.00000001
 43
0.00000001
 40
0.0
 40
0.0
 40
0.0
 40
0.0
 40
1.0
 40
1.0
 40
1.0
 40
1.0
 10
0.4665909789688133
 20
-0.0974751209242918
 30
0.0
 10
0.4630839758118036
 20
-0.0998088173606458
 30
0.0
 10
0.4587830628471793
 20
-0.101328140499387
 30
0.0
 10
0.4544549100233372
 20
-0.1017622595705815
 30
0.0
  0
SPLINE
  5
8C
330
1F
100
AcDbEntity
  8
0
  6
Continuous
 62
     7
370
    25
100
AcDbSpline
210
0.0
220
0.0
230
1.0
 70
     8
 71
     3
 72
    14
 73
    10
 74
     0
 42
0.00000001
 43
0.00000001
 40
0.0
 40
0.0
 40
0.0
 40
0.0
 40
0.25
 40
0.25
 40
0.5
 40
0.5
 40
0.75
 40
0.75
 40
1.0
 40
1.0
 40
1.0
 40
1.0
 10
0.4547398149080207
 20
-0.1045359348802263
 30
0.0
 10
0.4547386995325064
 20
-0.1043215480164397
 30
0.0
 10
0.4547303910608966
 20
-0.1040776815682036
 30
0.0
 10
0.4547006402316054
 20
-0.1035677466180934
 30
0.0
 10
0.4546792095796059
 20
-0.1033018787538578
 30
0.0
 10
0.4546264679662141
 20
-0.1027884155568252
 30
0.0
 10
0.4545951777563955
 20
-0.1025410222498812
 30
0.0
 10
0.4545274747916233
 20
-0.1021022009251649
 30
0.0
 10
0.4544910886748966
 20
-0.1019109455648545
 30
0.0
 10
0.4544549100982717
 20
-0.1017622591239104
 30
0.0
  0
SPLINE
  5
8F
330
1F
100
AcDbEntity
  8
0
  6
Continuous
 62
     7
370
    25
100
AcDbSpline
210
0.0
220
0.0
230
1.0
 70
     8
 71
     3
 72
     8
 73
     4
 74
     0
 42
0.00000001
 43
0.00000001
 40
0.0
 40
0.0
 40
0.0
 40
0.0
 40
1.0
 40
1.0
 40
1.0
 40
1.0
 10
0.4676105747674608
 20
-0.0939129756084345
 30
0.0
 10
0.4710798903898248
 20
-0.091699480754275
 30
0.0
 10
0.4753463166701141
 20
-0.0903235720465793
 30
0.0
 10
0.4796289275728103
 20
-0.0900370956130217
 30
0.0
  0
LWPOLYLINE
  5
94
330
1F
100
AcDbEntity
  8
0
  6
Continuous
 62
     7
370
    25
100
AcDbPolyline
 90
       22
 70
   128
 43
0.0
 10
0.4970844019
 20
-0.072804801
 10
0.4979180062
 20
-0.0727300239
 10
0.4987606182
 20
-0.0727132419
 10
0.4996000203
 20
-0.0727546986
 10
0.5004240416
 20
-0.0728537927
 10
0.5012207343
 20
-0.0730090876
 10
0.5019785465
 20
-0.0732183313
 10
0.5026864905
 20
-0.0734784901
 10
0.5033343013
 20
-0.0737857918
 10
0.503912586
 20
-0.0741357806
 10
0.5044129598
 20
-0.0745233818
 10
0.5048281676
 20
-0.0749429755
 10
0.5051521888
 20
-0.0753884776
 10
0.5053803256
 20
-0.0758534287
 10
0.5055092698
 20
-0.0763310872
 10
0.505537152
 20
-0.0768145273
 10
0.5054635678
 20
-0.0772967393
 10
0.5052895842
 20
-0.0777707313
 10
0.5050177239
 20
-0.0782296308
 10
0.5046519286
 20
-0.0786667838
 10
0.5041975024
 20
-0.0790758519
 10
0.503661034
 20
-0.0794509039
  0
LWPOLYLINE
  5
98
330
1F
100
AcDbEntity
  8
0
  6
Continuous
 62
     7
370
    25
100
AcDbPolyline
 90
       19
 70
   128
 43
0.0
 10
0.5321719582
 20
-0.0702151087
 10
0.5326134457
 20
-0.0699000916
 10
0.5329740555
 20
-0.0695529483
 10
0.533246674
 20
-0.0691805268
 10
0.5334259235
 20
-0.0687901735
 10
0.5335082679
 20
-0.0683895887
 10
0.5334920829
 20
-0.0679866746
 10
0.5333776878
 20
-0.0675893791
 10
0.5331673392
 20
-0.0672055395
 10
0.5328651866
 20
-0.0668427275
 10
0.5324771902
 20
-0.0665081002
 10
0.5320110039
 20
-0.0662082585
 10
0.5314758239
 20
-0.0659491173
 10
0.5308822073
 20
-0.0657357884
 10
0.530241864
 20
-0.06557248
 10
0.5295674258
 20
-0.0654624137
 10
0.5288721969
 20
-0.0654077606
 10
0.5281698915
 20
-0.0654095989
 10
0.5274743638
 20
-0.0654678924
  0
SPLINE
  5
9A
330
1F
100
AcDbEntity
  8
0
  6
Continuous
 62
     7
370
    25
100
AcDbSpline
210
0.0
220
0.0
230
1.0
 70
     8
 71
     3
 72
    29
 73
    25
 74
     0
 42
0.00000001
 43
0.00000001
 40
0.0
 40
0.0
 40
0.0
 40
0.0
 40
0.0209946060790925
 40
0.0418137521522762
 40
0.0625470941272537
 40
0.0832854007870808
 40
0.1041193760250885
 40
0.1251384852533692
 40
0.1875741484002191
 40
0.2500987268283941
 40
0.3125343899761316
 40
0.3750589684031794
 40
0.4374946315537108
 40
0.500019209978272
 40
0.5624548731306271
 40
0.624979451553035
 40
0.6874151147032298
 40
0.749939693127955
 40
0.8123753562783723
 40
0.8748999347028159
 40
0.90613092025085
 40
0.9374498602265977
 40
0.9687029719360298
 40
1.0
 40
1.0
 40
1.0
 40
1.0
 10
0.4929579386354128
 20
-0.0886028062517488
 30
0.0
 10
0.4929884795904896
 20
-0.0885845727247089
 30
0.0
 10
0.4930493062581235
 20
-0.0885482580552344
 30
0.0
 10
0.4931477907099332
 20
-0.0884983492787677
 30
0.0
 10
0.4932509307634017
 20
-0.0884522100571438
 30
0.0
 10
0.4933592657149809
 20
-0.0884101348736839
 30
0.0
 10
0.4934726636564729
 20
-0.0883720501619996
 30
0.0
 10
0.4936682308791018
 20
-0.0883157616316726
 30
0.0
 10
0.4939589983566715
 20
-0.0882570991083816
 30
0.0
 10
0.4943501096593746
 20
-0.0882262821369343
 30
0.0
 10
0.4947441497607825
 20
-0.0882385362503034
 30
0.0
 10
0.4951252173567284
 20
-0.0882958986188777
 30
0.0
 10
0.4954801489613999
 20
-0.0883938000229895
 30
0.0
 10
0.495793078846068
 20
-0.0885306305165618
 30
0.0
 10
0.4960548838009795
 20
-0.088699267525385
 30
0.0
 10
0.4962520264436945
 20
-0.0888947358461877
 30
0.0
 10
0.4963808471248339
 20
-0.0891084304686016
 30
0.0
 10
0.4964321835823208
 20
-0.0893327856739912
 30
0.0
 10
0.4964084198430744
 20
-0.0895589685949283
 30
0.0
 10
0.4963231266030369
 20
-0.0897416773432231
 30
0.0
 10
0.4962197037619559
 20
-0.0898802004509869
 30
0.0
 10
0.4961243388096947
 20
-0.089979137359647
 30
0.0
 10
0.496013660111936
 20
-0.0900729476197518
 30
0.0
 10
0.4959270784451772
 20
-0.0901296416338763
 30
0.0
 10
0.4958837572173721
 20
-0.0901580085433276
 30
0.0
  0
SPLINE
  5
9B
330
1F
100
AcDbEntity
  8
0
  6
Continuous
 62
     7
370
    25
100
AcDbSpline
210
0.0
220
0.0
230
1.0
 70
     8
 71
     3
 72
    29
 73
    25
 74
     0
 42
0.00000001
 43
0.00000001
 40
0.0
 40
0.0
 40
0.0
 40
0.0
 40
0.0209946060290527
 40
0.0418137521038753
 40
0.0625470941066786
 40
0.0832854007945098
 40
0.1041193760345682
 40
0.1251384852136425
 40
0.1875741483593637
 40
0.2500987267993389
 40
0.3125343899474411
 40
0.375058968385249
 40
0.4374946315386743
 40
0.5000192099710555
 40
0.5624548731250621
 40
0.62497945155677
 40
0.6874151147108559
 40
0.7499396931425707
 40
0.8123753562956474
 40
0.8748999347282356
 40
0.9061309202669402
 40
0.9374498602393778
 40
0.9687029719414597
 40
1.0
 40
1.0
 40
1.0
 40
1.0
 10
0.4958837572173759
 20
-0.0901580085433296
 30
0.0
 10
0.4958532162597512
 20
-0.0901762420639388
 30
0.0
 10
0.4957923895869682
 20
-0.0902125567206503
 30
0.0
 10
0.4956939051311392
 20
-0.0902624654783749
 30
0.0
 10
0.4955907650762519
 20
-0.0903086046818201
 30
0.0
 10
0.4954824301261112
 20
-0.0903506798476773
 30
0.0
 10
0.4953690321888529
 20
-0.0903887645423332
 30
0.0
 10
0.4951734649773445
 20
-0.0904450530456221
 30
0.0
 10
0.4948826975259666
 20
-0.0905037155349236
 30
0.0
 10
0.4944915862726568
 20
-0.0905345324742958
 30
0.0
 10
0.4940975462297283
 20
-0.0905222783404743
 30
0.0
 10
0.4937164786950624
 20
-0.0904649159651527
 30
0.0
 10
0.4933615471483511
 20
-0.0903670145662574
 30
0.0
 10
0.4930486173113338
 20
-0.0902301840899039
 30
0.0
 10
0.4927868123899825
 20
-0.0900615471070313
 30
0.0
 10
0.4925896697607693
 20
-0.089866078818973
 30
0.0
 10
0.4924608490725828
 20
-0.0896523842321316
 30
0.0
 10
0.4924095125840219
 20
-0.0894280290617501
 30
0.0
 10
0.4924332762712375
 20
-0.0892018461715183
 30
0.0
 10
0.4925185694503078
 20
-0.0890191374419753
 30
0.0
 10
0.4926219922351706
 20
-0.0888806143436532
 30
0.0
 10
0.49271735714176
 20
-0.0887816774388405
 30
0.0
 10
0.4928280357912948
 20
-0.0886878671794351
 30
0.0
 10
0.4929146174244325
 20
-0.088631173162573
 30
0.0
 10
0.4929579386354169
 20
-0.088602806251751
 30
0.0
  0
SPLINE
  5
9C
330
1F
100
AcDbEntity
  8
0
  6
Continuous
 62
     7
370
    25
100
AcDbSpline
210
0.0
220
0.0
230
1.0
 70
     8
 71
     3
 72
    29
 73
    25
 74
     0
 42
0.00000001
 43
0.00000001
 40
0.0
 40
0.0
 40
0.0
 40
0.0
 40
0.0209946060733074
 40
0.0418137521483562
 40
0.0625470941285516
 40
0.0832854007926078
 40
0.1041193760294255
 40
0.125138485246866
 40
0.1875741483989979
 40
0.2500987268235445
 40
0.3125343899703832
 40
0.3750589684000979
 40
0.4374946315452733
 40
0.5000192099768995
 40
0.5624548731290152
 40
0.6249794515537933
 40
0.6874151147077312
 40
0.7499396931304093
 40
0.8123753562831503
 40
0.8748999347071772
 40
0.906130920255383
 40
0.9374498602288007
 40
0.9687029719367296
 40
1.0
 40
1.0
 40
1.0
 40
1.0
 10
0.5270517753048922
 20
-0.0674935048550672
 30
0.0
 10
0.5270823162581604
 20
-0.0674752713278761
 30
0.0
 10
0.5271431429222034
 20
-0.067438956658094
 30
0.0
 10
0.5272416273685645
 20
-0.0673890478808017
 30
0.0
 10
0.5273447674166089
 20
-0.0673429086580684
 30
0.0
 10
0.5274531023627808
 20
-0.0673008334731904
 30
0.0
 10
0.5275665002988836
 20
-0.0672627487597857
 30
0.0
 10
0.5277620675127552
 20
-0.0672064602260913
 30
0.0
 10
0.5280528349787494
 20
-0.0671477976967277
 30
0.0
 10
0.5284439462694419
 20
-0.0671169807147723
 30
0.0
 10
0.5288379863626231
 20
-0.0671292348155361
 30
0.0
 10
0.52921905395545
 20
-0.0671865971696826
 30
0.0
 10
0.5295739855625807
 20
-0.0672844985583984
 30
0.0
 10
0.5298869154562557
 20
-0.0674213290362332
 30
0.0
 10
0.5301487204264951
 20
-0.0675899660299139
 30
0.0
 10
0.5303458630911952
 20
-0.0677854343370586
 30
0.0
 10
0.5304746838000294
 20
-0.0679991289481065
 30
0.0
 10
0.530526020290576
 20
-0.0682234841453802
 30
0.0
 10
0.5305022565881287
 20
-0.0684496670619872
 30
0.0
 10
0.5304169633809871
 20
-0.0686323758105077
 30
0.0
 10
0.5303135405665245
 20
-0.0687708989208277
 30
0.0
 10
0.5302181756342031
 20
-0.0688698358326824
 30
0.0
 10
0.5301074969561751
 20
-0.0689636460971394
 30
0.0
 10
0.5300209153020887
 20
-0.0690203401152334
 30
0.0
 10
0.5299775940806236
 20
-0.0690487070266712
 30
0.0
  0
SPLINE
  5
9D
330
1F
100
AcDbEntity
  8
0
  6
Continuous
 62
     7
370
    25
100
AcDbSpline
210
0.0
220
0.0
230
1.0
 70
     8
 71
     3
 72
    29
 73
    25
 74
     0
 42
0.00000001
 43
0.00000001
 40
0.0
 40
0.0
 40
0.0
 40
0.0
 40
0.0209946060715926
 40
0.0418137521456207
 40
0.0625470941254858
 40
0.0832854007898707
 40
0.1041193760276716
 40
0.1251384852467203
 40
0.1875741483959182
 40
0.2500987268235127
 40
0.3125343899703548
 40
0.3750589684000719
 40
0.4374946315451848
 40
0.5000192099768852
 40
0.5624548731288094
 40
0.6249794515537789
 40
0.6874151147074419
 40
0.7499396931304019
 40
0.8123753562825138
 40
0.8748999347071661
 40
0.9061309202551767
 40
0.9374498602288004
 40
0.9687029719369933
 40
1.0
 40
1.0
 40
1.0
 40
1.0
 10
0.5299775940806165
 20
-0.0690487070266673
 30
0.0
 10
0.5299470531273507
 20
-0.0690669405538568
 30
0.0
 10
0.5298862264633116
 20
-0.0691032552236366
 30
0.0
 10
0.5297877420169547
 20
-0.0691531640009259
 30
0.0
 10
0.529684601968912
 20
-0.0691993032236583
 30
0.0
 10
0.5295762670227384
 20
-0.0692413784085371
 30
0.0
 10
0.5294628690866311
 20
-0.0692794631219444
 30
0.0
 10
0.5292673018727637
 20
-0.0693357516556423
 30
0.0
 10
0.528976534406767
 20
-0.0693944141850089
 30
0.0
 10
0.528585423116073
 20
-0.0694252311669615
 30
0.0
 10
0.5281913830228855
 20
-0.0694129770661985
 30
0.0
 10
0.5278103154300589
 20
-0.0693556147120519
 30
0.0
 10
0.5274553838229286
 20
-0.069257713323336
 30
0.0
 10
0.5271424539292535
 20
-0.0691208828455014
 30
0.0
 10
0.5268806489590139
 20
-0.0689522458518207
 30
0.0
 10
0.526683506294314
 20
-0.0687567775446764
 30
0.0
 10
0.5265546855854798
 20
-0.0685430829336283
 30
0.0
 10
0.5265033490949328
 20
-0.0683187277363551
 30
0.0
 10
0.5265271127973804
 20
-0.0680925448197481
 30
0.0
 10
0.5266124060045211
 20
-0.0679098360712276
 30
0.0
 10
0.5267158288189836
 20
-0.0677713129609068
 30
0.0
 10
0.5268111937513056
 20
-0.0676723760490519
 30
0.0
 10
0.5269218724293341
 20
-0.0675785657845948
 30
0.0
 10
0.5270084540834202
 20
-0.0675218717665008
 30
0.0
 10
0.5270517753048851
 20
-0.0674935048550633
 30
0.0
  0
SPLINE
  5
9F
330
1F
100
AcDbEntity
  8
0
  6
Continuous
 62
     7
370
    25
100
AcDbSpline
210
0.0
220
0.0
230
1.0
 70
     8
 71
     3
 72
     8
 73
     4
 74
     0
 42
0.00000001
 43
0.00000001
 40
0.0
 40
0.0
 40
0.0
 40
0.0
 40
1.0
 40
1.0
 40
1.0
 40
1.0
 10
0.4554745067496999
 20
-0.0982001148725545
 30
0.0
 10
0.4598026593310988
 20
-0.097765995493543
 30
0.0
 10
0.4641035720158957
 20
-0.0962466721383224
 30
0.0
 10
0.4676105747694761
 20
-0.0939129756055156
 30
0.0
  0
LWPOLYLINE
  5
A0
330
1F
100
AcDbEntity
  8
0
  6
Continuous
 62
     7
370
    25
100
AcDbPolyline
 90
       17
 70
   128
 43
0.0
 10
0.4449823605
 20
-0.0854933744
 10
0.4441925137
 20
-0.0856206838
 10
0.443433426
 20
-0.0857999888
 10
0.4427154917
 20
-0.0860288341
 10
0.4420485416
 20
-0.0863040861
 10
0.4414417084
 20
-0.0866219757
 10
0.4409033015
 20
-0.0869781501
 10
0.4404406934
 20
-0.087367732
 10
0.4400602187
 20
-0.0877853869
 10
0.4397670873
 20
-0.0882253957
 10
0.439565313
 20
-0.0886817334
 10
0.4394576588
 20
-0.0891481512
 10
0.4394455988
 20
-0.0896182624
 10
0.4395292982
 20
-0.0900856297
 10
0.4397076108
 20
-0.0905438534
 10
0.439978095
 20
-0.090986659
 10
0.440337047
 20
-0.091407983
  0
LWPOLYLINE
  5
A2
330
1F
100
AcDbEntity
  8
0
  6
Continuous
 62
     7
370
    25
100
AcDbPolyline
 90
       12
 70
   128
 43
0.0
 10
0.4514292914
 20
-0.0985381781
 10
0.450554289
 20
-0.0985794252
 10
0.449677836
 20
-0.0985575453
 10
0.4488137062
 20
-0.0984728821
 10
0.44797548
 20
-0.0983267662
 10
0.4471763304
 20
-0.098121494
 10
0.4464288166
 20
-0.0978602912
 10
0.4457446861
 20
-0.097547263
 10
0.4451346903
 20
-0.0971873286
 10
0.4446084157
 20
-0.0967861447
 10
0.4441741329
 20
-0.096350016
 10
0.4438386669
 20
-0.0958857966
  0
LWPOLYLINE
  5
A6
330
1F
100
AcDbEntity
  8
0
  6
Continuous
 62
     7
370
    25
100
AcDbPolyline
 90
       12
 70
   128
 43
0.0
 10
0.4356868299
 20
-0.1005882427
 10
0.4358635437
 20
-0.1009677297
 10
0.4361291745
 20
-0.1013294636
 10
0.4364787303
 20
-0.1016666461
 10
0.4369056415
 20
-0.1019729404
 10
0.4374018851
 20
-0.1022425901
 10
0.437958135
 20
-0.1024705276
 10
0.4385639372
 20
-0.1026524692
 10
0.4392079067
 20
-0.1027849955
 10
0.439877941
 20
-0.1028656159
 10
0.4405614478
 20
-0.1028928153
 10
0.4412455817
 20
-0.1028660825
  0
LWPOLYLINE
  5
A7
330
1F
100
AcDbEntity
  8
0
  6
Continuous
 62
     7
370
    25
100
AcDbPolyline
 90
       13
 70
   128
 43
0.0
 10
0.4356868299
 20
-0.1005882427
 10
0.4352672713
 20
-0.0995043426
 10
0.4347493155
 20
-0.0984348757
 10
0.4341343822
 20
-0.0973827734
 10
0.4334241568
 20
-0.0963509193
 10
0.432620586
 20
-0.0953421417
 10
0.4317258724
 20
-0.0943592057
 10
0.4307424683
 20
-0.0934048053
 10
0.4296730692
 20
-0.0924815565
 10
0.4285206061
 20
-0.0915919899
 10
0.427288238
 20
-0.0907385438
 10
0.4259793426
 20
-0.0899235572
 10
0.4245975076
 20
-0.0891492642
  0
LWPOLYLINE
  5
A8
330
1F
100
AcDbEntity
  8
0
  6
Continuous
 62
     7
370
    25
100
AcDbPolyline
 90
       17
 70
   128
 43
0.0
 10
0.4245975076
 20
-0.0891492642
 10
0.4241320934
 20
-0.0888654021
 10
0.4237386056
 20
-0.0885476326
 10
0.4234243469
 20
-0.0882018535
 10
0.42319515
 20
-0.087834482
 10
0.4230552685
 20
-0.0874523364
 10
0.4230072986
 20
-0.0870625092
 10
0.4230521304
 20
-0.0866722352
 10
0.4231889321
 20
-0.0862887577
 10
0.4234151647
 20
-0.0859191938
 10
0.4237266293
 20
-0.0855704024
 10
0.4241175454
 20
-0.0852488569
 10
0.4245806579
 20
-0.0849605249
 10
0.4251073716
 20
-0.0847107578
 10
0.425687911
 20
-0.084504191
 10
0.4263115018
 20
-0.0843446582
 10
0.4269665704
 20
-0.0842351205
  0
SPLINE
  5
AC
330
1F
100
AcDbEntity
  8
0
  6
Continuous
 62
     7
370
    25
100
AcDbSpline
210
0.0
220
0.0
230
1.0
 70
     8
 71
     3
 72
    29
 73
    25
 74
     0
 42
0.00000001
 43
0.00000001
 40
0.0
 40
0.0
 40
0.0
 40
0.0
 40
0.0209946009882459
 40
0.0418137471443053
 40
0.0625470918547618
 40
0.0832854013157734
 40
0.1041193768346256
 40
0.1251384813051737
 40
0.1875741443914954
 40
0.2500987239577013
 40
0.3125343870397377
 40
0.3750589666102731
 40
0.4374946296969975
 40
0.5000192092631414
 40
0.5624548723570063
 40
0.624979451915809
 40
0.6874151150061361
 40
0.7499396945682498
 40
0.8123753576533719
 40
0.8748999372208465
 40
0.9061309215305102
 40
0.9374498614871688
 40
0.9687029722631618
 40
1.0
 40
1.0
 40
1.0
 40
1.0
 10
0.4391318612514304
 20
-0.0992455193915023
 30
0.0
 10
0.4391624024589623
 20
-0.0992272865022385
 30
0.0
 10
0.4392232296368608
 20
-0.0991909730985299
 30
0.0
 10
0.4393217144868792
 20
-0.0991410661807358
 30
0.0
 10
0.4394248546809339
 20
-0.099094928761749
 30
0.0
 10
0.4395331894899385
 20
-0.0990528553237056
 30
0.0
 10
0.4396465870119916
 20
-0.0990147723003614
 30
0.0
 10
0.4398421531320856
 20
-0.0989584864506957
 30
0.0
 10
0.4401329180126633
 20
-0.0988998272973159
 30
0.0
 10
0.4405240244175464
 20
-0.0988690135068898
 30
0.0
 10
0.440918058719927
 20
-0.0988812696490426
 30
0.0
 10
0.4412991202389413
 20
-0.0989386326857387
 30
0.0
 10
0.4416540460969602
 20
-0.0990365335722834
 30
0.0
 10
0.4419669712559982
 20
-0.0991733623585799
 30
0.0
 10
0.4422287728833983
 20
-0.0993419967945325
 30
0.0
 10
0.4424259141874177
 20
-0.0995374618678269
 30
0.0
 10
0.4425547355676017
 20
-0.0997511529631026
 30
0.0
 10
0.4426060751065398
 20
-0.0999755046967316
 30
0.0
 10
0.4425823165270608
 20
-0.1002016845735056
 30
0.0
 10
0.4424970293325654
 20
-0.1003843914620459
 30
0.0
 10
0.4423936120657772
 20
-0.1005229136339162
 30
0.0
 10
0.44229825164265
 20
-0.1006218501608969
 30
0.0
 10
0.4421875777266085
 20
-0.1007156603520584
 30
0.0
 10
0.4421009993935802
 20
-0.100772354637597
 30
0.0
 10
0.4420576798333903
 20
-0.1008007216831258
 30
0.0
  0
SPLINE
  5
AD
330
1F
100
AcDbEntity
  8
0
  6
Continuous
 62
     7
370
    25
100
AcDbSpline
210
0.0
220
0.0
230
1.0
 70
     8
 71
     3
 72
    29
 73
    25
 74
     0
 42
0.00000001
 43
0.00000001
 40
0.0
 40
0.0
 40
0.0
 40
0.0
 40
0.0209946009354827
 40
0.0418137470914548
 40
0.0625470918291293
 40
0.0832854013186225
 40
0.104119376841215
 40
0.1251384812653446
 40
0.1875741443492226
 40
0.250098723928849
 40
0.3125343870079525
 40
0.3750589665921057
 40
0.4374946296752396
 40
0.5000192092559443
 40
0.5624548723429451
 40
0.6249794519192133
 40
0.6874151150007533
 40
0.7499396945826632
 40
0.8123753576652188
 40
0.8748999372461888
 40
0.9061309215438504
 40
0.9374498614998633
 40
0.9687029722667001
 40
1.0
 40
1.0
 40
1.0
 40
1.0
 10
0.4420576798334114
 20
-0.1008007216831369
 30
0.0
 10
0.4420271386233416
 20
-0.1008189545659821
 30
0.0
 10
0.4419663114403123
 20
-0.1008552679569525
 30
0.0
 10
0.4418678265862914
 20
-0.1009051748560427
 30
0.0
 10
0.4417646863908237
 20
-0.1009513122568908
 30
0.0
 10
0.4416563515832526
 20
-0.100993385677373
 30
0.0
 10
0.4415429540654154
 20
-0.1010314686837318
 30
0.0
 10
0.4413473879564176
 20
-0.101087754506429
 30
0.0
 10
0.4410566231019678
 20
-0.1011464136259046
 30
0.0
 10
0.4406655167463686
 20
-0.1011772273843211
 30
0.0
 10
0.4402714825023341
 20
-0.1011649712217513
 30
0.0
 10
0.4398904210444683
 20
-0.101107608178339
 30
0.0
 10
0.439535495244264
 20
-0.1010097072970041
 30
0.0
 10
0.4392225701327833
 20
-0.1008728785278892
 30
0.0
 10
0.4389607685388691
 20
-0.1007042441178183
 30
0.0
 10
0.4387636272483132
 20
-0.1005087790772134
 30
0.0
 10
0.4386348058610796
 20
-0.1002950880174219
 30
0.0
 10
0.4385834662911438
 20
-0.1000707363187264
 30
0.0
 10
0.4386072248186971
 20
-0.0998445564725716
 30
0.0
 10
0.4386925119523694
 20
-0.0996618496027439
 30
0.0
 10
0.4387959291630713
 20
-0.099523327440288
 30
0.0
 10
0.4388912895406274
 20
-0.0994243909171476
 30
0.0
 10
0.4390019634085563
 20
-0.0993305807266807
 30
0.0
 10
0.4390885417080412
 20
-0.0992738864384112
 30
0.0
 10
0.4391318612514514
 20
-0.0992455193915135
 30
0.0
  0
SPLINE
  5
AE
330
1F
100
AcDbEntity
  8
0
  6
Continuous
 62
     7
370
    25
100
AcDbSpline
210
0.0
220
0.0
230
1.0
 70
     8
 71
     3
 72
    29
 73
    25
 74
     0
 42
0.00000001
 43
0.00000001
 40
0.0
 40
0.0
 40
0.0
 40
0.0
 40
0.0209946009361544
 40
0.0418137470924571
 40
0.0625470918301801
 40
0.0832854013194849
 40
0.1041193768417367
 40
0.1251384812654728
 40
0.1875741443492531
 40
0.2500987239288625
 40
0.3125343870161769
 40
0.3750589665924835
 40
0.4374946296844178
 40
0.5000192092559322
 40
0.5624548723488718
 40
0.6249794519194013
 40
0.6874151150082128
 40
0.7499396945826488
 40
0.8123753576684288
 40
0.8748999372461458
 40
0.9061309215457568
 40
0.9374498614998545
 40
0.968702972266975
 40
1.0
 40
1.0
 40
1.0
 40
1.0
 10
0.4294698004536083
 20
-0.0878159352493876
 30
0.0
 10
0.4294392592435435
 20
-0.0878341681322479
 30
0.0
 10
0.4293784320605246
 20
-0.0878704815232479
 30
0.0
 10
0.4292799472065114
 20
-0.0879203884223813
 30
0.0
 10
0.4291768070110463
 20
-0.0879665258232705
 30
0.0
 10
0.4290684722034723
 20
-0.0880085992437922
 30
0.0
 10
0.4289550746856275
 20
-0.0880466822501884
 30
0.0
 10
0.4287595085766049
 20
-0.0881029680729452
 30
0.0
 10
0.4284687437220968
 20
-0.0881616271924963
 30
0.0
 10
0.4280776373663704
 20
-0.0881924409509852
 30
0.0
 10
0.4276836031222004
 20
-0.0881801847884727
 30
0.0
 10
0.4273025416641831
 20
-0.0881228217450581
 30
0.0
 10
0.4269476158638741
 20
-0.0880249208637048
 30
0.0
 10
0.4266346907522705
 20
-0.0878880920945536
 30
0.0
 10
0.4263728891582875
 20
-0.0877194576844335
 30
0.0
 10
0.426175747867706
 20
-0.0875239926437426
 30
0.0
 10
0.4260469264805045
 20
-0.0873103015838755
 30
0.0
 10
0.4259955869106314
 20
-0.0870859498850984
 30
0.0
 10
0.4260193454383062
 20
-0.0868597700388829
 30
0.0
 10
0.4261046325721169
 20
-0.0866770631690109
 30
0.0
 10
0.426208049782946
 20
-0.0865385410065382
 30
0.0
 10
0.4263034101606042
 20
-0.0864396044833883
 30
0.0
 10
0.4264140840286403
 20
-0.0863457942929221
 30
0.0
 10
0.4265006623282006
 20
-0.0862891000046588
 30
0.0
 10
0.4265439818716484
 20
-0.0862607329577643
 30
0.0
  0
SPLINE
  5
AF
330
1F
100
AcDbEntity
  8
0
  6
Continuous
 62
     7
370
    25
100
AcDbSpline
210
0.0
220
0.0
230
1.0
 70
     8
 71
     3
 72
    29
 73
    25
 74
     0
 42
0.00000001
 43
0.00000001
 40
0.0
 40
0.0
 40
0.0
 40
0.0
 40
0.0209946009877696
 40
0.0418137471435664
 40
0.0625470918539195
 40
0.0832854013150189
 40
0.104119376834143
 40
0.1251384813051566
 40
0.1875741443959208
 40
0.2500987239579193
 40
0.3125343870448548
 40
0.3750589666102725
 40
0.4374946296968527
 40
0.5000192092631497
 40
0.5624548723573246
 40
0.6249794519158295
 40
0.6874151150070014
 40
0.749939694568285
 40
0.8123753576539761
 40
0.8748999372208558
 40
0.9061309215305936
 40
0.9374498614871818
 40
0.9687029722631769
 40
1.0
 40
1.0
 40
1.0
 40
1.0
 10
0.4265439818716529
 20
-0.0862607329577668
 30
0.0
 10
0.4265745230791841
 20
-0.0862425000685035
 30
0.0
 10
0.4266353502570817
 20
-0.0862061866647956
 30
0.0
 10
0.4267338351070988
 20
-0.0861562797470021
 30
0.0
 10
0.4268369753011531
 20
-0.0861101423280157
 30
0.0
 10
0.4269453101101581
 20
-0.0860680688899719
 30
0.0
 10
0.4270587076322122
 20
-0.0860299858666271
 30
0.0
 10
0.4272542737523157
 20
-0.0859737000169579
 30
0.0
 10
0.4275450386328918
 20
-0.0859150408635724
 30
0.0
 10
0.4279361450377891
 20
-0.085884227073154
 30
0.0
 10
0.4283301793401582
 20
-0.0858964832153143
 30
0.0
 10
0.4287112408591739
 20
-0.0859538462520044
 30
0.0
 10
0.4290661667171824
 20
-0.086051747138548
 30
0.0
 10
0.429379091876221
 20
-0.0861885759248446
 30
0.0
 10
0.4296408935036215
 20
-0.0863572103607971
 30
0.0
 10
0.4298380348076409
 20
-0.0865526754340927
 30
0.0
 10
0.4299668561878251
 20
-0.086766366529368
 30
0.0
 10
0.4300181957267624
 20
-0.0869907182629975
 30
0.0
 10
0.4299944371472819
 20
-0.0872168981397709
 30
0.0
 10
0.4299091499527873
 20
-0.0873996050283111
 30
0.0
 10
0.4298057326859995
 20
-0.0875381272001808
 30
0.0
 10
0.4297103722628726
 20
-0.0876370637271616
 30
0.0
 10
0.4295996983468309
 20
-0.0877308739183228
 30
0.0
 10
0.4295131200138028
 20
-0.0877875682038615
 30
0.0
 10
0.4294698004536129
 20
-0.0878159352493902
 30
0.0
  0
SPLINE
  5
B0
330
1F
100
AcDbEntity
  8
0
  6
Continuous
 62
     7
370
    25
100
AcDbSpline
210
0.0
220
0.0
230
1.0
 70
     8
 71
     3
 72
     8
 73
     4
 74
     0
 42
0.00000001
 43
0.00000001
 40
0.0
 40
0.0
 40
0.0
 40
0.0
 40
1.0
 40
1.0
 40
1.0
 40
1.0
 10
0.4440059637073942
 20
-0.105432937713635
 30
0.0
 10
0.4439933571830437
 20
-0.1045414752141808
 30
0.0
 10
0.4438629902702312
 20
-0.1032787278651598
 30
0.0
 10
0.4437132231150072
 20
-0.1026599540495038
 30
0.0
  0
SPLINE
  5
B1
330
1F
100
AcDbEntity
  8
0
  6
Continuous
 62
     7
370
    25
100
AcDbSpline
210
0.0
220
0.0
230
1.0
 70
     8
 71
     3
 72
    11
 73
     7
 74
     0
 42
0.00000001
 43
0.00000001
 40
0.0
 40
0.0
 40
0.0
 40
0.0
 40
0.25
 40
0.5
 40
0.75
 40
1.0
 40
1.0
 40
1.0
 40
1.0
 10
0.4415144269893831
 20
-0.105641062325601
 30
0.0
 10
0.4415133116139109
 20
-0.1054266754644407
 30
0.0
 10
0.4414973217184043
 20
-0.1049364789611802
 30
0.0
 10
0.4414367825944042
 20
-0.1041406917321931
 30
0.0
 10
0.4413484754101321
 20
-0.1034001101221954
 30
0.0
 10
0.4412796581057619
 20
-0.1030149396731559
 30
0.0
 10
0.4412455817174484
 20
-0.1028660825283446
 30
0.0
  0
SPLINE
  5
B2
330
1F
100
AcDbEntity
  8
0
  6
Continuous
 62
     7
370
    25
100
AcDbSpline
210
0.0
220
0.0
230
1.0
 70
     8
 71
     3
 72
    11
 73
     7
 74
     0
 42
0.00000001
 43
0.00000001
 40
0.0
 40
0.0
 40
0.0
 40
0.0
 40
0.25
 40
0.5
 40
0.75
 40
1.0
 40
1.0
 40
1.0
 40
1.0
 10
0.4337321744499986
 20
-0.1024520865764024
 30
0.0
 10
0.4339002896435985
 20
-0.1029474651745088
 30
0.0
 10
0.4345715108358488
 20
-0.1039024864545751
 30
0.0
 10
0.4364149231466048
 20
-0.1050139522254518
 30
0.0
 10
0.4388467359343917
 20
-0.105654368585399
 30
0.0
 10
0.4406415659789862
 20
-0.1057098744696575
 30
0.0
 10
0.4415144269893831
 20
-0.105641062325601
 30
0.0
  0
SPLINE
  5
B3
330
1F
100
AcDbEntity
  8
0
  6
Continuous
 62
     7
370
    25
100
AcDbSpline
210
0.0
220
0.0
230
1.0
 70
     8
 71
     3
 72
    11
 73
     7
 74
     0
 42
0.00000001
 43
0.00000001
 40
0.0
 40
0.0
 40
0.0
 40
0.0
 40
0.25
 40
0.5
 40
0.75
 40
1.0
 40
1.0
 40
1.0
 40
1.0
 10
0.4337321744499986
 20
-0.1024520865764024
 30
0.0
 10
0.4337310590745006
 20
-0.1022376997154994
 30
0.0
 10
0.4338325297801509
 20
-0.101795635679191
 30
0.0
 10
0.4342649116317945
 20
-0.1012018353471417
 30
0.0
 10
0.4349147256696843
 20
-0.1007637176658055
 30
0.0
 10
0.4354298507277274
 20
-0.1006178324391755
 30
0.0
 10
0.4356868299037417
 20
-0.1005882427082687
 30
0.0
  0
SPLINE
  5
B6
330
1F
100
AcDbEntity
  8
0
  6
Continuous
 62
     7
370
    25
100
AcDbSpline
210
0.0
220
0.0
230
1.0
 70
     8
 71
     3
 72
    11
 73
     7
 74
     0
 42
0.00000001
 43
0.00000001
 40
0.0
 40
0.0
 40
0.0
 40
0.0
 40
0.25
 40
0.5
 40
0.75
 40
1.0
 40
1.0
 40
1.0
 40
1.0
 10
0.4415357290640782
 20
-0.1097355446308161
 30
0.0
 10
0.4406628680536789
 20
-0.1098043567748711
 30
0.0
 10
0.4388680380090834
 20
-0.1097488508906185
 30
0.0
 10
0.4364362252212982
 20
-0.1091084345308921
 30
0.0
 10
0.434592812910544
 20
-0.1079969687604087
 30
0.0
 10
0.4339215917182938
 20
-0.1070419474805404
 30
0.0
 10
0.4337534765246938
 20
-0.106546568882434
 30
0.0
  0
SPLINE
  5
B9
330
1F
100
AcDbEntity
  8
0
  6
Continuous
 62
     7
370
    25
100
AcDbSpline
210
0.0
220
0.0
230
1.0
 70
     8
 71
     3
 72
    11
 73
     7
 74
     0
 42
0.00000001
 43
0.00000001
 40
0.0
 40
0.0
 40
0.0
 40
0.0
 40
0.25
 40
0.5
 40
0.75
 40
1.0
 40
1.0
 40
1.0
 40
1.0
 10
0.4995495517215495
 20
-0.0937398061136397
 30
0.0
 10
0.4995484363460485
 20
-0.0935254192527353
 30
0.0
 10
0.4994689176419919
 20
-0.0930542184357974
 30
0.0
 10
0.4991417811911677
 20
-0.0923381462092447
 30
0.0
 10
0.4986542596206431
 20
-0.0917169332968862
 30
0.0
 10
0.498269615884261
 20
-0.0914261977957378
 30
0.0
 10
0.4980781214931067
 20
-0.0913244100515266
 30
0.0
  0
SPLINE
  5
BA
330
1F
100
AcDbEntity
  8
0
  6
Continuous
 62
     7
370
    25
100
AcDbSpline
210
0.0
220
0.0
230
1.0
 70
     8
 71
     3
 72
     8
 73
     4
 74
     0
 42
0.00000001
 43
0.00000001
 40
0.0
 40
0.0
 40
0.0
 40
0.0
 40
1.0
 40
1.0
 40
1.0
 40
1.0
 10
0.4953967127328547
 20
-0.0949937849620002
 30
0.0
 10
0.4969723604984798
 20
-0.0948621062971979
 30
0.0
 10
0.4984647359213061
 20
-0.0944114730751014
 30
0.0
 10
0.4995495517215651
 20
-0.0937398061136301
 30
0.0
  0
SPLINE
  5
BC
330
1F
100
AcDbEntity
  8
0
  6
Continuous
 62
     7
370
    25
100
AcDbSpline
210
0.0
220
0.0
230
1.0
 70
     8
 71
     3
 72
     8
 73
     4
 74
     0
 42
0.00000001
 43
0.00000001
 40
0.0
 40
0.0
 40
0.0
 40
0.0
 40
1.0
 40
1.0
 40
1.0
 40
1.0
 10
0.4996028069777949
 20
-0.1039760250642311
 30
0.0
 10
0.4985179911775357
 20
-0.1046476920257022
 30
0.0
 10
0.4970256157540018
 20
-0.1050983252482064
 30
0.0
 10
0.4954499679883795
 20
-0.1052300039130106
 30
0.0
  0
SPLINE
  5
BD
330
1F
100
AcDbEntity
  8
0
  6
Continuous
 62
     7
370
    25
100
AcDbSpline
210
0.0
220
0.0
230
1.0
 70
     8
 71
     3
 72
     9
 73
     5
 74
     0
 42
0.00000001
 43
0.00000001
 40
0.0
 40
0.0
 40
0.0
 40
0.0
 40
0.5000000000000004
 40
1.0
 40
1.0
 40
1.0
 40
1.0
 10
0.4337534765246934
 20
-0.1065465688823638
 30
0.0
 10
0.4330535635417261
 20
-0.1044841621190233
 30
0.0
 10
0.4305142186315153
 20
-0.1004909211243005
 30
0.0
 10
0.4259444985162904
 20
-0.0971509419385496
 30
0.0
 10
0.4232635770410705
 20
-0.0957259135212367
 30
0.0
  0
SPLINE
  5
BF
330
1F
100
AcDbEntity
  8
0
  6
Continuous
 62
     7
370
    25
100
AcDbSpline
210
0.0
220
0.0
230
1.0
 70
     8
 71
     3
 72
     9
 73
     5
 74
     0
 42
0.00000001
 43
0.00000001
 40
0.0
 40
0.0
 40
0.0
 40
0.0
 40
0.5000000000000004
 40
1.0
 40
1.0
 40
1.0
 40
1.0
 10
0.4232422749663744
 20
-0.0916314312150069
 30
0.0
 10
0.4259231964415945
 20
-0.0930564596328641
 30
0.0
 10
0.4304929165562891
 20
-0.0963964388191253
 30
0.0
 10
0.4330322614670299
 20
-0.1003896798127935
 30
0.0
 10
0.4337321744499972
 20
-0.1024520865761342
 30
0.0
  0
SPLINE
  5
C0
330
1F
100
AcDbEntity
  8
0
  6
Continuous
 62
     7
370
    25
100
AcDbSpline
210
0.0
220
0.0
230
1.0
 70
     8
 71
     3
 72
    11
 73
     7
 74
     0
 42
0.00000001
 43
0.00000001
 40
0.0
 40
0.0
 40
0.0
 40
0.0
 40
0.25
 40
0.5
 40
0.75
 40
1.0
 40
1.0
 40
1.0
 40
1.0
 10
0.5321719581627362
 20
-0.0702151086551733
 30
0.0
 10
0.5323634525536683
 20
-0.0703168963992457
 30
0.0
 10
0.5327480962899551
 20
-0.0706076319003118
 30
0.0
 10
0.5332356178607042
 20
-0.0712288448125534
 30
0.0
 10
0.5335627543117097
 20
-0.0719449170388007
 30
0.0
 10
0.5336422730157643
 20
-0.0724161178555358
 30
0.0
 10
0.5336433883912552
 20
-0.0726305047164346
 30
0.0
  0
SPLINE
  5
C2
330
1F
100
AcDbEntity
  8
0
  6
Continuous
 62
     7
370
    25
100
AcDbSpline
210
0.0
220
0.0
230
1.0
 70
     8
 71
     3
 72
    11
 73
     7
 74
     0
 42
0.00000001
 43
0.00000001
 40
0.0
 40
0.0
 40
0.0
 40
0.0
 40
0.25
 40
0.5
 40
0.75
 40
1.0
 40
1.0
 40
1.0
 40
1.0
 10
0.423242274966369
 20
-0.0916314312152717
 30
0.0
 10
0.4232411595908708
 20
-0.0914170443543689
 30
0.0
 10
0.4233109646602465
 20
-0.0909423162356428
 30
0.0
 10
0.4236104623256418
 20
-0.0902114417600798
 30
0.0
 10
0.4240612898260216
 20
-0.0895680633187486
 30
0.0
 10
0.4244189926809884
 20
-0.0892597922274333
 30
0.0
 10
0.4245975075922372
 20
-0.0891492641839263
 30
0.0
  0
SPLINE
  5
C7
330
1F
100
AcDbEntity
  8
0
  6
Continuous
 62
     7
370
    25
100
AcDbSpline
210
0.0
220
0.0
230
1.0
 70
     8
 71
     3
 72
    35
 73
    31
 74
     0
 42
0.00000001
 43
0.00000001
 40
0.0
 40
0.0
 40
0.0
 40
0.0
 40
0.0624999999999963
 40
0.0624999999999963
 40
0.1249999999999926
 40
0.1249999999999926
 40
0.249999999999986
 40
0.249999999999986
 40
0.3749999999999795
 40
0.4062499999999722
 40
0.4062499999999722
 40
0.4218749999999671
 40
0.4218749999999671
 40
0.437499999999962
 40
0.4999999999999396
 40
0.4999999999999396
 40
0.5156249999999338
 40
0.5156249999999338
 40
0.531249999999928
 40
0.5624999999999275
 40
0.624999999999937
 40
0.624999999999937
 40
0.7499999999999502
 40
0.7499999999999502
 40
0.8124999999999626
 40
0.8124999999999626
 40
0.8749999999999751
 40
0.9374999999999876
 40
0.9374999999999876
 40
1.0
 40
1.0
 40
1.0
 40
1.0
 10
0.4600630176198128
 20
-0.0864119955817853
 30
0.0
 10
0.4606461072742831
 20
-0.0863387729757748
 30
0.0
 10
0.4611254820333169
 20
-0.0862634241495885
 30
0.0
 10
0.461929137072402
 20
-0.0861219001313204
 30
0.0
 10
0.462253496966004
 20
-0.0860567163815605
 30
0.0
 10
0.463071745316087
 20
-0.085887111822383
 30
0.0
 10
0.463410399499513
 20
-0.0858027397236722
 30
0.0
 10
0.464083712614822
 20
-0.0856350686330337
 30
0.0
 10
0.4645027983743862
 20
-0.0855297771968775
 30
0.0
 10
0.4652237187649805
 20
-0.0853093939992853
 30
0.0
 10
0.4654626650095642
 20
-0.0852346564767343
 30
0.0
 10
0.4655454088541905
 20
-0.0852086070724647
 30
0.0
 10
0.4657233307705013
 20
-0.0851515553590364
 30
0.0
 10
0.4661984673337565
 20
-0.0849966963818282
 30
0.0
 10
0.4668025190183204
 20
-0.0847850926164755
 30
0.0
 10
0.4674369228284703
 20
-0.0845421847967382
 30
0.0
 10
0.4675672109911334
 20
-0.0844912023941858
 30
0.0
 10
0.4678200262935798
 20
-0.0843904257647999
 30
0.0
 10
0.4681798851914743
 20
-0.0842445526377802
 30
0.0
 10
0.4688936568472358
 20
-0.0839401797242028
 30
0.0
 10
0.4693227173456734
 20
-0.0837374161575506
 30
0.0
 10
0.4700254020010854
 20
-0.0833998380447123
 30
0.0
 10
0.4702884921576499
 20
-0.0832669444107592
 30
0.0
 10
0.4706757654795417
 20
-0.0830617239924799
 30
0.0
 10
0.4708035159855974
 20
-0.0829923312022539
 30
0.0
 10
0.4711068972922908
 20
-0.0828278036661915
 30
0.0
 10
0.4714582248600944
 20
-0.0826371533466201
 30
0.0
 10
0.4719874637239879
 20
-0.0823251237515022
 30
0.0
 10
0.4726466676228609
 20
-0.0819178376643465
 30
0.0
 10
0.4730416176859819
 20
-0.0816671745597114
 30
0.0
 10
0.4735138540292231
 20
-0.0813427162440921
 30
0.0
  0
SPLINE
  5
C8
330
1F
100
AcDbEntity
  8
0
  6
Continuous
 62
     7
370
    25
100
AcDbSpline
210
0.0
220
0.0
230
1.0
 70
     8
 71
     3
 72
    27
 73
    23
 74
     0
 42
0.00000001
 43
0.00000001
 40
0.0
 40
0.0
 40
0.0
 40
0.0
 40
0.0386748378454389
 40
0.0772421586959792
 40
0.1157214328239075
 40
0.1541322643931771
 40
0.1924943624963859
 40
0.230827511395545
 40
0.269151540186581
 40
0.3074862921178705
 40
0.3458515937992081
 40
0.3842672245394484
 40
0.4227528860492827
 40
0.4613281727382427
 40
0.50001254282523
 40
0.571747568283401
 40
0.6431691755530655
 40
0.7144031748154663
 40
0.7855763711416666
 40
0.8568158942878906
 40
0.9282485198825777
 40
1.0
 40
1.0
 40
1.0
 40
1.0
 10
0.4845190837625019
 20
-0.0771951240854699
 30
0.0
 10
0.4843686312668287
 20
-0.0772144888143414
 30
0.0
 10
0.4840681445370993
 20
-0.0772531644376647
 30
0.0
 10
0.4836182121938501
 20
-0.077321776208651
 30
0.0
 10
0.4831697749632633
 20
-0.0773980427129299
 30
0.0
 10
0.4827228346537572
 20
-0.0774827254911676
 30
0.0
 10
0.4822773912287831
 20
-0.07757562113545
 30
0.0
 10
0.4818334451500457
 20
-0.0776767839812848
 30
0.0
 10
0.481390996751389
 20
-0.0777861994202486
 30
0.0
 10
0.4809500463844463
 20
-0.0779038712661276
 30
0.0
 10
0.48051059443875
 20
-0.0780297983277529
 30
0.0
 10
0.4800726410935472
 20
-0.0781639808695654
 30
0.0
 10
0.4796361872711073
 20
-0.0783064181896246
 30
0.0
 10
0.4792012310416316
 20
-0.0784571118638613
 30
0.0
 10
0.4786448391940549
 20
-0.0786611371639863
 30
0.0
 10
0.4779722689306369
 20
-0.0789273751253076
 30
0.0
 10
0.4771908615778483
 20
-0.0792674494874655
 30
0.0
 10
0.4764244889798195
 20
-0.0796323720162245
 30
0.0
 10
0.4756730429769284
 20
-0.0800219978077493
 30
0.0
 10
0.4749369920061044
 20
-0.0804368477794011
 30
0.0
 10
0.4742146078391812
 20
-0.0808749546677448
 30
0.0
 10
0.4737477851527316
 20
-0.0811865644122767
 30
0.0
 10
0.4735138540293114
 20
-0.0813427162440598
 30
0.0
  0
SPLINE
  5
CA
330
1F
100
AcDbEntity
  8
0
  6
Continuous
 62
     7
370
    25
100
AcDbSpline
210
0.0
220
0.0
230
1.0
 70
     8
 71
     3
 72
    11
 73
     7
 74
     0
 42
0.00000001
 43
0.00000001
 40
0.0
 40
0.0
 40
0.0
 40
0.0
 40
0.25
 40
0.5
 40
0.75
 40
1.0
 40
1.0
 40
1.0
 40
1.0
 10
0.4454070097362272
 20
-0.0882524547907741
 30
0.0
 10
0.4454058943607478
 20
-0.0880380679298821
 30
0.0
 10
0.4453816738301776
 20
-0.087548711341952
 30
0.0
 10
0.4452865950164275
 20
-0.0867564487989319
 30
0.0
 10
0.4451465666041345
 20
-0.0860211452060216
 30
0.0
 10
0.4450368316087501
 20
-0.0856401503009278
 30
0.0
 10
0.4449823605336217
 20
-0.085493374380773
 30
0.0
  0
SPLINE
  5
CB
330
1F
100
AcDbEntity
  8
0
  6
Continuous
 62
     7
370
    25
100
AcDbSpline
210
0.0
220
0.0
230
1.0
 70
     8
 71
     3
 72
    14
 73
    10
 74
     0
 42
0.00000001
 43
0.00000001
 40
0.0
 40
0.0
 40
0.0
 40
0.0
 40
0.25
 40
0.25
 40
0.5
 40
0.5
 40
0.75
 40
0.75
 40
1.0
 40
1.0
 40
1.0
 40
1.0
 10
0.460063017619104
 20
-0.0864119955818835
 30
0.0
 10
0.4600619022436662
 20
-0.0861976087208253
 30
0.0
 10
0.4600499565996539
 20
-0.0859541221533364
 30
0.0
 10
0.4600062052985213
 20
-0.0854456494617382
 30
0.0
 10
0.4599744168556706
 20
-0.0851808633999198
 30
0.0
 10
0.4598958057432778
 20
-0.0846701020968044
 30
0.0
 10
0.4598490140038519
 20
-0.0844243278182691
 30
0.0
 10
0.4597475109094533
 20
-0.0839890366819582
 30
0.0
 10
0.4596928394916139
 20
-0.0837996910926564
 30
0.0
 10
0.4596383684164104
 20
-0.0836529151726865
 30
0.0
  0
SPLINE
  5
CC
330
1F
100
AcDbEntity
  8
0
  6
Continuous
 62
     7
370
    25
100
AcDbSpline
210
0.0
220
0.0
230
1.0
 70
     8
 71
     3
 72
     8
 73
     4
 74
     0
 42
0.00000001
 43
0.00000001
 40
0.0
 40
0.0
 40
0.0
 40
0.0
 40
1.0
 40
1.0
 40
1.0
 40
1.0
 10
0.4719403424611711
 20
-0.0787861585285132
 30
0.0
 10
0.4683853192610903
 20
-0.081287620913136
 30
0.0
 10
0.464025610987403
 20
-0.0830123555665039
 30
0.0
 10
0.4596383682309251
 20
-0.083652915562395
 30
0.0
  0
SPLINE
  5
CD
330
1F
100
AcDbEntity
  8
0
  6
Continuous
 62
     7
370
    25
100
AcDbSpline
210
0.0
220
0.0
230
1.0
 70
     8
 71
     3
 72
    16
 73
    12
 74
     0
 42
0.00000001
 43
0.00000001
 40
0.0
 40
0.0
 40
0.0
 40
0.0
 40
0.1249999999999804
 40
0.1249999999999804
 40
0.2499999999999609
 40
0.2499999999999609
 40
0.4999999999999739
 40
0.4999999999999739
 40
0.7499999999999869
 40
0.7499999999999869
 40
1.0
 40
1.0
 40
1.0
 40
1.0
 10
0.4735138533413987
 20
-0.0813427156196395
 30
0.0
 10
0.4734317363030156
 20
-0.0812506322110912
 30
0.0
 10
0.4733478129634626
 20
-0.081151211865423
 30
0.0
 10
0.4731756024515688
 20
-0.0809367458925334
 30
0.0
 10
0.4730879901464742
 20
-0.0808225545048697
 30
0.0
 10
0.4728279852074648
 20
-0.0804684228588746
 30
0.0
 10
0.4726577147808735
 20
-0.0802155786152455
 30
0.0
 10
0.4723570727760902
 20
-0.0797272787606971
 30
0.0
 10
0.4722277805957883
 20
-0.0794927008722642
 30
0.0
 10
0.4720326492077804
 20
-0.0790845348960679
 30
0.0
 10
0.4719667854971406
 20
-0.0789115116579526
 30
0.0
 10
0.4719403421478074
 20
-0.0787861587490069
 30
0.0
  0
SPLINE
  5
CE
330
1F
100
AcDbEntity
  8
0
  6
Continuous
 62
     7
370
    25
100
AcDbSpline
210
0.0
220
0.0
230
1.0
 70
     8
 71
     3
 72
     8
 73
     4
 74
     0
 42
0.00000001
 43
0.00000001
 40
0.0
 40
0.0
 40
0.0
 40
0.0
 40
1.0
 40
1.0
 40
1.0
 40
1.0
 10
0.4606836526949476
 20
-0.0800010264876557
 30
0.0
 10
0.4650708951412496
 20
-0.079360466045106
 30
0.0
 10
0.4694306030414496
 20
-0.0776357310528551
 30
0.0
 10
0.4729856256612344
 20
-0.0751342684890944
 30
0.0
  0
SPLINE
  5
D0
330
1F
100
AcDbEntity
  8
0
  6
Continuous
 62
     7
370
    25
100
AcDbSpline
210
0.0
220
0.0
230
1.0
 70
     8
 71
     3
 72
    14
 73
    10
 74
     0
 42
0.00000001
 43
0.00000001
 40
0.0
 40
0.0
 40
0.0
 40
0.0
 40
0.25
 40
0.25
 40
0.5
 40
0.5
 40
0.75
 40
0.75
 40
1.0
 40
1.0
 40
1.0
 40
1.0
 10
0.4975090510821922
 20
-0.0755638814489385
 30
0.0
 10
0.4975079357067763
 20
-0.0753494945879385
 30
0.0
 10
0.4974959900627789
 20
-0.0751060080204548
 30
0.0
 10
0.4974522387616588
 20
-0.0745975353287828
 30
0.0
 10
0.4974204503188049
 20
-0.0743327492668859
 30
0.0
 10
0.4973418392063886
 20
-0.0738219879635651
 30
0.0
 10
0.4972950474669419
 20
-0.0735762136849039
 30
0.0
 10
0.4971935443724876
 20
-0.0731409225483352
 30
0.0
 10
0.4971388729546137
 20
-0.0729515769589019
 30
0.0
 10
0.4970844018793725
 20
-0.0728048010388166
 30
0.0
  0
SPLINE
  5
D1
330
1F
100
AcDbEntity
  8
0
  6
Continuous
 62
     7
370
    25
100
AcDbSpline
210
0.0
220
0.0
230
1.0
 70
     8
 71
     3
 72
     8
 73
     4
 74
     0
 42
0.00000001
 43
0.00000001
 40
0.0
 40
0.0
 40
0.0
 40
0.0
 40
1.0
 40
1.0
 40
1.0
 40
1.0
 10
0.4729856256610292
 20
-0.0751342684906089
 30
0.0
 10
0.4764941894282257
 20
-0.072783653182999
 30
0.0
 10
0.4808088025454489
 20
-0.0712393950913609
 30
0.0
 10
0.485139718867141
 20
-0.0707841549888539
 30
0.0
  0
SPLINE
  5
D2
330
1F
100
AcDbEntity
  8
0
  6
Continuous
 62
     7
370
    25
100
AcDbSpline
210
0.0
220
0.0
230
1.0
 70
     8
 71
     3
 72
    29
 73
    25
 74
     0
 42
0.00000001
 43
0.00000001
 40
0.0
 40
0.0
 40
0.0
 40
0.0
 40
0.0349178750265383
 40
0.0704253636586658
 40
0.1065230093108287
 40
0.1432113291150753
 40
0.1804908155636357
 40
0.218361938026658
 40
0.2568251441562686
 40
0.295880861186757
 40
0.3355294971400004
 40
0.375771441944131
 40
0.4166070684727379
 40
0.4580367335112513
 40
0.5000607786564413
 40
0.5390419875013491
 40
0.5821648080044064
 40
0.6294294458187032
 40
0.6808360358932384
 40
0.736384661794244
 40
0.7960753683241332
 40
0.8599081700467947
 40
0.9278830572157438
 40
1.0
 40
1.0
 40
1.0
 40
1.0
 10
0.4719403413594294
 20
-0.0787861571830075
 30
0.0
 10
0.4720649018793613
 20
-0.078703584750674
 30
0.0
 10
0.4723161262138045
 20
-0.0785370455906924
 30
0.0
 10
0.4727030351702204
 20
-0.0782931973519016
 30
0.0
 10
0.4731013646861392
 20
-0.0780515437398175
 30
0.0
 10
0.4735116876570067
 20
-0.0778130933605335
 30
0.0
 10
0.4739339021909644
 20
-0.0775781289473844
 30
0.0
 10
0.474368068744545
 20
-0.0773471435751779
 30
0.0
 10
0.4748141789700689
 20
-0.077120583085755
 30
0.0
 10
0.4752722178069753
 20
-0.0768989160946519
 30
0.0
 10
0.4757421452198454
 20
-0.0766826144374107
 30
0.0
 10
0.4762238994512353
 20
-0.0764721565692083
 30
0.0
 10
0.4767173963622526
 20
-0.076268030520839
 30
0.0
 10
0.4772225222439885
 20
-0.0760707143232314
 30
0.0
 10
0.4777242510401832
 20
-0.075886229704236
 30
0.0
 10
0.4782366134686526
 20
-0.0757088205116729
 30
0.0
 10
0.4787742189554747
 20
-0.0755341993145832
 30
0.0
 10
0.4793674685540154
 20
-0.0753555213106419
 30
0.0
 10
0.4800169616424229
 20
-0.0751764755855068
 30
0.0
 10
0.4807231123150918
 20
-0.0750011476305442
 30
0.0
 10
0.4814860803619567
 20
-0.0748337525760779
 30
0.0
 10
0.4823057066255448
 20
-0.0746796007142238
 30
0.0
 10
0.4831814344608403
 20
-0.0745410714851644
 30
0.0
 10
0.4837841609792783
 20
-0.0744717362835459
 30
0.0
 10
0.484094434560966
 20
-0.0744360436755636
 30
0.0
  0
SPLINE
  5
D3
330
1F
100
AcDbEntity
  8
0
  6
Continuous
 62
     7
370
    25
100
AcDbSpline
210
0.0
220
0.0
230
1.0
 70
     8
 71
     3
 72
    12
 73
     8
 74
     0
 42
0.00000001
 43
0.00000001
 40
0.0
 40
0.0
 40
0.0
 40
0.0
 40
0.2499999999999888
 40
0.2499999999999888
 40
0.4999999999999776
 40
0.4999999999999776
 40
1.0
 40
1.0
 40
1.0
 40
1.0
 10
0.484519083771943
 20
-0.077195124085125
 30
0.0
 10
0.4845179683965058
 20
-0.0769807372236528
 30
0.0
 10
0.4845059608935255
 20
-0.0767372832006222
 30
0.0
 10
0.4844622676087607
 20
-0.076229064450458
 30
0.0
 10
0.4844304115322611
 20
-0.075964064601955
 30
0.0
 10
0.484312571922138
 20
-0.0751979773416634
 30
0.0
 10
0.4842033767189887
 20
-0.0747295955157888
 30
0.0
 10
0.4840944345679228
 20
-0.0744360436754537
 30
0.0
  0
SPLINE
  5
D4
330
1F
100
AcDbEntity
  8
0
  6
Continuous
 62
     7
370
    25
100
AcDbSpline
210
0.0
220
0.0
230
1.0
 70
     8
 71
     3
 72
    10
 73
     6
 74
     0
 42
0.00000001
 43
0.00000001
 40
0.0
 40
0.0
 40
0.0
 40
0.0
 40
0.1775883572269874
 40
0.5887941786135865
 40
1.0
 40
1.0
 40
1.0
 40
1.0
 10
0.4439096533292745
 20
-0.1103474389462536
 30
0.0
 10
0.4439230731472228
 20
-0.1103549402849425
 30
0.0
 10
0.4439675665521369
 20
-0.1103798109725301
 30
0.0
 10
0.4440153862762397
 20
-0.110109251762366
 30
0.0
 10
0.4440233117885533
 20
-0.1097213882756046
 30
0.0
 10
0.44402727454471
 20
-0.1095274565322238
 30
0.0
  0
SPLINE
  5
D5
330
1F
100
AcDbEntity
  8
0
  6
Continuous
 62
     7
370
    25
100
AcDbSpline
210
0.0
220
0.0
230
1.0
 70
     8
 71
     3
 72
    10
 73
     6
 74
     0
 42
0.00000001
 43
0.00000001
 40
0.0
 40
0.0
 40
0.0
 40
0.0
 40
0.1775883613121514
 40
0.5887941806561334
 40
1.0
 40
1.0
 40
1.0
 40
1.0
 10
0.495337115851655
 20
-0.1060495877700799
 30
0.0
 10
0.4953502533589487
 20
-0.1060571127015236
 30
0.0
 10
0.4953938107620676
 20
-0.1060820616103993
 30
0.0
 10
0.4954400407932303
 20
-0.1058116352517639
 30
0.0
 10
0.4954466589235931
 20
-0.1054238810257238
 30
0.0
 10
0.4954499679887744
 20
-0.1052300039127039
 30
0.0
  0
SPLINE
  5
D6
330
1F
100
AcDbEntity
  8
0
  6
Continuous
 62
     7
370
    25
100
AcDbSpline
210
0.0
220
0.0
230
1.0
 70
     8
 71
     3
 72
     9
 73
     5
 74
     0
 42
0.00000001
 43
0.00000001
 40
0.0
 40
0.0
 40
0.0
 40
0.0
 40
0.6410137508103503
 40
1.0
 40
1.0
 40
1.0
 40
1.0
 10
0.4796289275189636
 20
-0.0900370956227212
 30
0.0
 10
0.4795920395470804
 20
-0.0899020773240959
 30
0.0
 10
0.4795344932435313
 20
-0.0896914448712747
 30
0.0
 10
0.4794904416804349
 20
-0.0897121148771327
 30
0.0
 10
0.4794746277750279
 20
-0.0897195351250065
 30
0.0
  0
SPLINE
  5
D7
330
1F
100
AcDbEntity
  8
0
  6
Continuous
 62
     7
370
    25
100
AcDbSpline
210
0.0
220
0.0
230
1.0
 70
     8
 71
     3
 72
     9
 73
     5
 74
     0
 42
0.00000001
 43
0.00000001
 40
0.0
 40
0.0
 40
0.0
 40
0.0
 40
0.8855352367412647
 40
1.0
 40
1.0
 40
1.0
 40
1.0
 10
0.4676105746643892
 20
-0.0939129756754444
 30
0.0
 10
0.4676053354367224
 20
-0.0938096625567764
 30
0.0
 10
0.467599418983656
 20
-0.0936929951285571
 30
0.0
 10
0.4676693857604984
 20
-0.0936892307704485
 30
0.0
 10
0.4676773944910457
 20
-0.0936887998840889
 30
0.0
  0
SPLINE
  5
D8
330
1F
100
AcDbEntity
  8
0
  6
Continuous
 62
     7
370
    25
100
AcDbSpline
210
0.0
220
0.0
230
1.0
 70
     8
 71
     3
 72
     9
 73
     5
 74
     0
 42
0.00000001
 43
0.00000001
 40
0.0
 40
0.0
 40
0.0
 40
0.0
 40
0.641455889543868
 40
0.9999999999999999
 40
0.9999999999999999
 40
0.9999999999999999
 40
0.9999999999999999
 10
0.4554745067498127
 20
-0.0982001148724728
 30
0.0
 10
0.4554376175165131
 20
-0.0980650747216545
 30
0.0
 10
0.4553801089116333
 20
-0.0978545533857069
 30
0.0
 10
0.4553360857460088
 20
-0.0978751750805724
 30
0.0
 10
0.4553203014992503
 20
-0.0978825688678139
 30
0.0
  0
SPLINE
  5
DA
330
1F
100
AcDbEntity
  8
0
  6
Continuous
 62
     7
370
    25
100
AcDbSpline
210
0.0
220
0.0
230
1.0
 70
     8
 71
     3
 72
    10
 73
     6
 74
     0
 42
0.00000001
 43
0.00000001
 40
0.0
 40
0.0
 40
0.0
 40
0.0
 40
0.1780016950848448
 40
0.5883362812437644
 40
0.9999999999999999
 40
0.9999999999999999
 40
0.9999999999999999
 40
0.9999999999999999
 10
0.4414297166276376
 20
-0.1105544719745845
 30
0.0
 10
0.4414421149319146
 20
-0.1105621365118643
 30
0.0
 10
0.4414830941609528
 20
-0.1105874695591618
 30
0.0
 10
0.441526448537675
 20
-0.1103167607422436
 30
0.0
 10
0.4415326237187824
 20
-0.1099294927366999
 30
0.0
 10
0.4415357163018248
 20
-0.1097355456368531
 30
0.0
  0
SPLINE
  5
DC
330
1F
100
AcDbEntity
  8
0
  6
Continuous
 62
     7
370
    25
100
AcDbSpline
210
0.0
220
0.0
230
1.0
 70
     8
 71
     3
 72
     9
 73
     5
 74
     0
 42
0.00000001
 43
0.00000001
 40
0.0
 40
0.0
 40
0.0
 40
0.0
 40
0.6364570031084539
 40
1.0
 40
1.0
 40
1.0
 40
1.0
 10
0.479915320617236
 20
-0.0900131614211317
 30
0.0
 10
0.4798784457818682
 20
-0.0898783683311576
 30
0.0
 10
0.4798205081125709
 20
-0.0896665816915012
 30
0.0
 10
0.4797761618000833
 20
-0.0896877535314756
 30
0.0
 10
0.4797600400087403
 20
-0.0896954504056297
 30
0.0
  0
SPLINE
  5
DD
330
1F
100
AcDbEntity
  8
0
  6
Continuous
 62
     7
370
    25
100
AcDbSpline
210
0.0
220
0.0
230
1.0
 70
     8
 71
     3
 72
    10
 73
     6
 74
     0
 42
0.00000001
 43
0.00000001
 40
0.0
 40
0.0
 40
0.0
 40
0.0
 40
0.492869292522234
 40
0.9857385850444853
 40
1.0
 40
1.0
 40
1.0
 40
1.0
 10
0.4929671002966472
 20
-0.0860720850390012
 30
0.0
 10
0.4927798092529085
 20
-0.0860002868846597
 30
0.0
 10
0.4924052271654311
 20
-0.0858566905759771
 30
0.0
 10
0.4920361436475157
 20
-0.085883432158919
 30
0.0
 10
0.4919290777253715
 20
-0.0860089056509227
 30
0.0
 10
0.4919260668417456
 20
-0.0860124341880612
 30
0.0
  0
SPLINE
  5
E1
330
1F
100
AcDbEntity
  8
0
  6
Continuous
 62
     7
370
    25
100
AcDbSpline
210
0.0
220
0.0
230
1.0
 70
     8
 71
     3
 72
    10
 73
     6
 74
     0
 42
0.00000001
 43
0.00000001
 40
0.0
 40
0.0
 40
0.0
 40
0.0
 40
0.3396974275636415
 40
0.6782980789641507
 40
1.0
 40
1.0
 40
1.0
 40
1.0
 10
0.4438386669453657
 20
-0.0958857965961981
 30
0.0
 10
0.4440856699371334
 20
-0.0958618054215105
 30
0.0
 10
0.4445788784256879
 20
-0.0958139005320932
 30
0.0
 10
0.4452165818251315
 20
-0.0960519146548671
 30
0.0
 10
0.4454547763940195
 20
-0.0963696778048069
 30
0.0
 10
0.4455708256926145
 20
-0.0965244932182813
 30
0.0
  0
SPLINE
  5
E2
330
1F
100
AcDbEntity
  8
0
  6
Continuous
 62
     7
370
    25
100
AcDbSpline
210
0.0
220
0.0
230
1.0
 70
     8
 71
     3
 72
     9
 73
     5
 74
     0
 42
0.00000001
 43
0.00000001
 40
0.0
 40
0.0
 40
0.0
 40
0.0
 40
0.6360777550898915
 40
1.0
 40
1.0
 40
1.0
 40
1.0
 10
0.4514292914405658
 20
-0.0985381780885418
 30
0.0
 10
0.4513924176987377
 20
-0.0984034037419911
 30
0.0
 10
0.4513344472045128
 20
-0.0981915202961827
 30
0.0
 10
0.4512900761706494
 20
-0.0982127342265694
 30
0.0
 10
0.4512739285643968
 20
-0.0982204544477392
 30
0.0
  0
SPLINE
  5
E3
330
1F
100
AcDbEntity
  8
0
  6
Continuous
 62
     7
370
    25
100
AcDbSpline
210
0.0
220
0.0
230
1.0
 70
     8
 71
     3
 72
    10
 73
     6
 74
     0
 42
0.00000001
 43
0.00000001
 40
0.0
 40
0.0
 40
0.0
 40
0.0
 40
0.0230647421207698
 40
0.5107425419984565
 40
1.0
 40
1.0
 40
1.0
 40
1.0
 10
0.4236900154724663
 20
-0.0966405197445849
 30
0.0
 10
0.4236829827095517
 20
-0.0966393324397231
 30
0.0
 10
0.4235272501550962
 20
-0.0966130409208276
 30
0.0
 10
0.4233367234984517
 20
-0.0963126890818355
 30
0.0
 10
0.4232879854625641
 20
-0.0959217161030437
 30
0.0
 10
0.4232635770410705
 20
-0.0957259135212367
 30
0.0
  0
SPLINE
  5
E4
330
1F
100
AcDbEntity
  8
0
  6
Continuous
 62
     7
370
    25
100
AcDbSpline
210
0.0
220
0.0
230
1.0
 70
     8
 71
     3
 72
     9
 73
     5
 74
     0
 42
0.00000001
 43
0.00000001
 40
0.0
 40
0.0
 40
0.0
 40
0.0
 40
0.4922466447623046
 40
1.0
 40
1.0
 40
1.0
 40
1.0
 10
0.49918995622208
 20
-0.1048952877828878
 30
0.0
 10
0.499307945801552
 20
-0.1047943434728319
 30
0.0
 10
0.499547641857843
 20
-0.10458927491395
 30
0.0
 10
0.4995842294863265
 20
-0.1041825440335389
 30
0.0
 10
0.4996028069774494
 20
-0.1039760250643312
 30
0.0
  0
SPLINE
  5
E5
330
1F
100
AcDbEntity
  8
0
  6
Continuous
 62
     7
370
    25
100
AcDbSpline
210
0.0
220
0.0
230
1.0
 70
     8
 71
     3
 72
    10
 73
     6
 74
     0
 42
0.00000001
 43
0.00000001
 40
0.0
 40
0.0
 40
0.0
 40
0.0
 40
0.4085183418840039
 40
0.8157177067903568
 40
0.9999999999999999
 40
0.9999999999999999
 40
0.9999999999999999
 40
0.9999999999999999
 10
0.4403370470340489
 20
-0.0914079829687522
 30
0.0
 10
0.4405632216014823
 20
-0.0913606115784616
 30
0.0
 10
0.4410148404899521
 20
-0.0912660217451702
 30
0.0
 10
0.4415204607612959
 20
-0.0913926536987322
 30
0.0
 10
0.441691058083875
 20
-0.0916041449003885
 30
0.0
 10
0.4417442094629395
 20
-0.0916700371949342
 30
0.0
  0
SPLINE
  5
E6
330
1F
100
AcDbEntity
  8
0
  6
Continuous
 62
     7
370
    25
100
AcDbSpline
210
0.0
220
0.0
230
1.0
 70
     8
 71
     3
 72
     9
 73
     5
 74
     0
 42
0.00000001
 43
0.00000001
 40
0.0
 40
0.0
 40
0.0
 40
0.0
 40
0.5077389718246085
 40
1.0
 40
1.0
 40
1.0
 40
1.0
 10
0.5336966436465563
 20
-0.0828667236674844
 30
0.0
 10
0.5336780656610106
 20
-0.0830732421458046
 30
0.0
 10
0.5336414760222858
 20
-0.0834799835814246
 30
0.0
 10
0.5334017722019728
 20
-0.0836850569827303
 30
0.0
 10
0.5332837753529279
 20
-0.0837860066261087
 30
0.0
  0
SPLINE
  5
E7
330
1F
100
AcDbEntity
  8
0
  6
Continuous
 62
     7
370
    25
100
AcDbSpline
210
0.0
220
0.0
230
1.0
 70
     8
 71
     3
 72
    10
 73
     6
 74
     0
 42
0.00000001
 43
0.00000001
 40
0.0
 40
0.0
 40
0.0
 40
0.0
 40
0.1725362367939929
 40
0.5862681183970627
 40
0.9999999999999999
 40
0.9999999999999999
 40
0.9999999999999999
 40
0.9999999999999999
 10
0.4452569270501239
 20
-0.093172970565064
 30
0.0
 10
0.4452761311128045
 20
-0.0931794292764017
 30
0.0
 10
0.4453413854031641
 20
-0.0932013756026553
 30
0.0
 10
0.4454116581304995
 20
-0.0929290104974771
 30
0.0
 10
0.445422760584181
 20
-0.0925409615635522
 30
0.0
 10
0.4454283118110216
 20
-0.0923469370965899
 30
0.0
  0
SPLINE
  5
E8
330
1F
100
AcDbEntity
  8
0
  6
Continuous
 62
     7
370
    25
100
AcDbSpline
210
0.0
220
0.0
230
1.0
 70
     8
 71
     3
 72
    10
 73
     6
 74
     0
 42
0.00000001
 43
0.00000001
 40
0.0
 40
0.0
 40
0.0
 40
0.0
 40
0.0150131969521444
 40
0.5075065984760994
 40
1.0
 40
1.0
 40
1.0
 40
1.0
 10
0.5026195137515331
 20
-0.0793918147892214
 30
0.0
 10
0.5026226846207126
 20
-0.0793880958049165
 30
0.0
 10
0.5027298727856712
 20
-0.0792623791384129
 30
0.0
 10
0.5030991285230262
 20
-0.0792354641993941
 30
0.0
 10
0.5034737321777373
 20
-0.0793790906379894
 30
0.0
 10
0.5036610340050929
 20
-0.079450903857287
 30
0.0
  0
SPLINE
  5
E9
330
1F
100
AcDbEntity
  8
0
  6
Continuous
 62
     7
370
    25
100
AcDbSpline
210
0.0
220
0.0
230
1.0
 70
     8
 71
     3
 72
     9
 73
     5
 74
     0
 42
0.00000001
 43
0.00000001
 40
0.0
 40
0.0
 40
0.0
 40
0.0
 40
0.6317216256272523
 40
1.0
 40
1.0
 40
1.0
 40
1.0
 10
0.4269665703539839
 20
-0.0842351204593396
 30
0.0
 10
0.4269110260215188
 20
-0.0841025127285637
 30
0.0
 10
0.426823100691418
 20
-0.083892597909447
 30
0.0
 10
0.4267553125133559
 20
-0.0839167148021726
 30
0.0
 10
0.4267303475933376
 20
-0.0839255965322205
 30
0.0
  0
SPLINE
  5
EA
330
1F
100
AcDbEntity
  8
0
  6
Continuous
 62
     7
370
    25
100
AcDbSpline
210
0.0
220
0.0
230
1.0
 70
     8
 71
     3
 72
     9
 73
     5
 74
     0
 42
0.00000001
 43
0.00000001
 40
0.0
 40
0.0
 40
0.0
 40
0.0
 40
0.6317216270753037
 40
1.0
 40
1.0
 40
1.0
 40
1.0
 10
0.4606836527873686
 20
-0.0800010264757569
 30
0.0
 10
0.4606281084542279
 20
-0.0798684187447368
 30
0.0
 10
0.4605401831232595
 20
-0.0796585039257143
 30
0.0
 10
0.4604723949444128
 20
-0.0796826208190494
 30
0.0
 10
0.4604474300242036
 20
-0.079691502549287
 30
0.0
  0
SPLINE
  5
EB
330
1F
100
AcDbEntity
  8
0
  6
Continuous
 62
     7
370
    25
100
AcDbSpline
210
0.0
220
0.0
230
1.0
 70
     8
 71
     3
 72
    13
 73
     9
 74
     0
 42
0.00000001
 43
0.00000001
 40
0.0
 40
0.0
 40
0.0
 40
0.0
 40
0.1422189834175917
 40
0.3137751867340811
 40
0.4853313900505705
 40
0.6568875933670539
 40
0.8284437966835431
 40
1.0
 40
1.0
 40
1.0
 40
1.0
 10
0.4414667982680032
 20
-0.0910844083503164
 30
0.0
 10
0.4414759574667478
 20
-0.0908984196796646
 30
0.0
 10
0.4414961652423023
 20
-0.0904880762187439
 30
0.0
 10
0.4418542510906948
 20
-0.0898790589956746
 30
0.0
 10
0.4424556090707722
 20
-0.0892965053462196
 30
0.0
 10
0.4432836622265796
 20
-0.0888129626872876
 30
0.0
 10
0.4442782715030331
 20
-0.0884408416148183
 30
0.0
 10
0.4450307636584686
 20
-0.0883152503984748
 30
0.0
 10
0.4454070097361862
 20
-0.0882524547903031
 30
0.0
  0
SPLINE
  5
EC
330
1F
100
AcDbEntity
  8
0
  6
Continuous
 62
     7
370
    25
100
AcDbSpline
210
0.0
220
0.0
230
1.0
 70
     8
 71
     3
 72
    10
 73
     6
 74
     0
 42
0.00000001
 43
0.00000001
 40
0.0
 40
0.0
 40
0.0
 40
0.0
 40
0.4321437414453125
 40
0.8642874828906465
 40
1.0
 40
1.0
 40
1.0
 40
1.0
 10
0.4454283118109446
 20
-0.0923469370962923
 30
0.0
 10
0.4450547242351393
 20
-0.0924112037230087
 30
0.0
 10
0.4443075490835287
 20
-0.0925397369764416
 30
0.0
 10
0.4435095994618232
 20
-0.0928097519125845
 30
0.0
 10
0.4431594969012265
 20
-0.0930256274547036
 30
0.0
 10
0.4430758255512515
 20
-0.0930772197595554
 30
0.0
  0
SPLINE
  5
ED
330
1F
100
AcDbEntity
  8
0
  6
Continuous
 62
     7
370
    25
100
AcDbSpline
210
0.0
220
0.0
230
1.0
 70
     8
 71
     3
 72
    13
 73
     9
 74
     0
 42
0.00000001
 43
0.00000001
 40
0.0
 40
0.0
 40
0.0
 40
0.0
 40
0.1660087223596753
 40
0.3328069778877399
 40
0.4996052334158015
 40
0.6664034889438648
 40
0.8332017444719279
 40
0.9999999999999999
 40
0.9999999999999999
 40
0.9999999999999999
 40
0.9999999999999999
 10
0.4210371149389635
 20
-0.0928070157665736
 30
0.0
 10
0.4210503526875364
 20
-0.0929886909737516
 30
0.0
 10
0.4210768911430703
 20
-0.0933529054306707
 30
0.0
 10
0.4212806349909294
 20
-0.0938886424427957
 30
0.0
 10
0.4216002226870498
 20
-0.0944048053320988
 30
0.0
 10
0.4220435274804115
 20
-0.094889562624449
 30
0.0
 10
0.4225910514586116
 20
-0.0953389270811955
 30
0.0
 10
0.4230394018471239
 20
-0.0955969180414118
 30
0.0
 10
0.4232635770413801
 20
-0.0957259135215199
 30
0.0
  0
SPLINE
  5
EE
330
1F
100
AcDbEntity
  8
0
  6
Continuous
 62
     7
370
    25
100
AcDbSpline
210
0.0
220
0.0
230
1.0
 70
     8
 71
     3
 72
    13
 73
     9
 74
     0
 42
0.00000001
 43
0.00000001
 40
0.0
 40
0.0
 40
0.0
 40
0.0
 40
0.1667982555322371
 40
0.333596511064471
 40
0.5003947665967017
 40
0.6671930221289262
 40
0.8339912776611559
 40
1.0
 40
1.0
 40
1.0
 40
1.0
 10
0.4232422749664767
 20
-0.0916314312150411
 30
0.0
 10
0.4230180997722143
 20
-0.091502435734921
 30
0.0
 10
0.4225697493836896
 20
-0.0912444447746806
 30
0.0
 10
0.4220222254054773
 20
-0.0907950803178955
 30
0.0
 10
0.4215789206121096
 20
-0.090310323025505
 30
0.0
 10
0.4212593329159913
 20
-0.0897941601361603
 30
0.0
 10
0.4210555890681479
 20
-0.0892584231240209
 30
0.0
 10
0.4210290506126263
 20
-0.0888942086671021
 30
0.0
 10
0.4210158128640605
 20
-0.0887125334599381
 30
0.0
  0
SPLINE
  5
EF
330
1F
100
AcDbEntity
  8
0
  6
Continuous
 62
     7
370
    25
100
AcDbSpline
210
0.0
220
0.0
230
1.0
 70
     8
 71
     3
 72
     9
 73
     5
 74
     0
 42
0.00000001
 43
0.00000001
 40
0.0
 40
0.0
 40
0.0
 40
0.0
 40
0.6317216241628069
 40
0.9999999999999999
 40
0.9999999999999999
 40
0.9999999999999999
 40
0.9999999999999999
 10
0.4851397188477474
 20
-0.0707841549918227
 30
0.0
 10
0.4850841745139435
 20
-0.0706515472606279
 30
0.0
 10
0.4849962491815195
 20
-0.0704416324403613
 30
0.0
 10
0.4849284610011528
 20
-0.0704657493329602
 30
0.0
 10
0.4849034960801863
 20
-0.0704746310629969
 30
0.0
  0
SPLINE
  5
F0
330
1F
100
AcDbEntity
  8
0
  6
Continuous
 62
     7
370
    25
100
AcDbSpline
210
0.0
220
0.0
230
1.0
 70
     8
 71
     3
 72
     9
 73
     5
 74
     0
 42
0.00000001
 43
0.00000001
 40
0.0
 40
0.0
 40
0.0
 40
0.0
 40
0.6317216256377418
 40
1.0
 40
1.0
 40
1.0
 40
1.0
 10
0.5274743637871978
 20
-0.0654678923560134
 30
0.0
 10
0.5274188194547407
 20
-0.0653352846252729
 30
0.0
 10
0.5273308941246538
 20
-0.0651253698062153
 30
0.0
 10
0.5272631059466035
 20
-0.0651494866989392
 30
0.0
 10
0.5272381410265902
 20
-0.0651583684289864
 30
0.0
  0
SPLINE
  5
F1
330
1F
100
AcDbEntity
  8
0
  6
Continuous
 62
     7
370
    25
100
AcDbSpline
210
0.0
220
0.0
230
1.0
 70
     8
 71
     3
 72
    19
 73
    15
 74
     0
 42
0.00000001
 43
0.00000001
 40
0.0
 40
0.0
 40
0.0
 40
0.0
 40
0.0889276557356026
 40
0.1778553114712417
 40
0.2667829672068819
 40
0.3557106229425174
 40
0.4446382786781541
 40
0.5335659344137922
 40
0.6224935901494294
 40
0.7114212458850661
 40
0.8003489016207055
 40
0.8892765573563425
 40
0.9782042130919769
 40
1.0
 40
1.0
 40
1.0
 40
1.0
 10
0.4975090510824823
 20
-0.0755638814493211
 30
0.0
 10
0.4977694056089608
 20
-0.0755382644256101
 30
0.0
 10
0.4982901146619177
 20
-0.0754870303781881
 30
0.0
 10
0.4990846098441708
 20
-0.0755008346362618
 30
0.0
 10
0.499863878654489
 20
-0.0755811726782047
 30
0.0
 10
0.5006108257011486
 20
-0.0757324097648693
 30
0.0
 10
0.5013061869985751
 20
-0.0759490632042416
 30
0.0
 10
0.5019327061226538
 20
-0.0762261808712512
 30
0.0
 10
0.5024749421480732
 20
-0.0765567240578635
 30
0.0
 10
0.5029184514592655
 20
-0.0769324646941185
 30
0.0
 10
0.5032555859645992
 20
-0.0773440455751174
 30
0.0
 10
0.5034651372485804
 20
-0.0777810732495847
 30
0.0
 10
0.503558292513499
 20
-0.0781193435635686
 30
0.0
 10
0.50354113451413
 20
-0.0783074659097164
 30
0.0
 10
0.5035377569809798
 20
-0.0783444975849549
 30
0.0
  0
SPLINE
  5
F3
330
1F
100
AcDbEntity
  8
0
  6
Continuous
 62
     7
370
    25
100
AcDbSpline
210
0.0
220
0.0
230
1.0
 70
     8
 71
     3
 72
     9
 73
     5
 74
     0
 42
0.00000001
 43
0.00000001
 40
0.0
 40
0.0
 40
0.0
 40
0.0
 40
0.8738209637380272
 40
0.9999999999999999
 40
0.9999999999999999
 40
0.9999999999999999
 40
0.9999999999999999
 10
0.4729856255362852
 20
-0.0751342685770139
 30
0.0
 10
0.4729692675453781
 20
-0.0750418152049428
 30
0.0
 10
0.4729505474738921
 20
-0.0749360116411605
 30
0.0
 10
0.4730067793870822
 20
-0.0749366150225523
 30
0.0
 10
0.4730138746756958
 20
-0.0749366911566348
 30
0.0
  0
SPLINE
  5
F4
330
1F
100
AcDbEntity
  8
0
  6
Continuous
 62
     7
370
    25
100
AcDbSpline
210
0.0
220
0.0
230
1.0
 70
     8
 71
     3
 72
    12
 73
     8
 74
     0
 42
0.00000001
 43
0.00000001
 40
0.0
 40
0.0
 40
0.0
 40
0.0
 40
0.2097686274702166
 40
0.4195372549405091
 40
0.6293058824108267
 40
0.8390745098811343
 40
1.0
 40
1.0
 40
1.0
 40
1.0
 10
0.5336433883910294
 20
-0.0726305047164746
 30
0.0
 10
0.5338826143058942
 20
-0.0724681257618901
 30
0.0
 10
0.5343610661356242
 20
-0.0721433678527211
 30
0.0
 10
0.5349001410644583
 20
-0.0715822419532638
 30
0.0
 10
0.5352836057170871
 20
-0.0709842081167265
 30
0.0
 10
0.5354986714236362
 20
-0.0704066570385026
 30
0.0
 10
0.5355048045425973
 20
-0.0700320950995048
 30
0.0
 10
0.5355074670482266
 20
-0.0698694905132624
 30
0.0
  0
SPLINE
  5
F5
330
1F
100
AcDbEntity
  8
0
  6
Continuous
 62
     7
370
    25
100
AcDbSpline
210
0.0
220
0.0
230
1.0
 70
     8
 71
     3
 72
    12
 73
     8
 74
     0
 42
0.00000001
 43
0.00000001
 40
0.0
 40
0.0
 40
0.0
 40
0.0
 40
0.1601765605903212
 40
0.3701324204427189
 40
0.5800882802951347
 40
0.7900441401475521
 40
1.0
 40
1.0
 40
1.0
 40
1.0
 10
0.5355605410100746
 20
-0.0801084067077664
 30
0.0
 10
0.5355578691083857
 20
-0.0802701091649289
 30
0.0
 10
0.5355516949376103
 20
-0.0806437675931066
 30
0.0
 10
0.5353368316015356
 20
-0.0812204257856491
 30
0.0
 10
0.5349534041524739
 20
-0.0818184612460781
 30
0.0
 10
0.5344143194331362
 20
-0.0823795867181757
 30
0.0
 10
0.5339358689087539
 20
-0.0827043446843066
 30
0.0
 10
0.5336966436465626
 20
-0.0828667236673721
 30
0.0
  0
LINE
  5
F7
330
1F
100
AcDbEntity
  8
0
  6
Continuous
 62
     7
370
    25
100
AcDbLine
 10
0.4439126831
 20
-0.1103850266
 30
0.0
 11
0.4953401457
 21
-0.1060871754
 31
0.0
  0
LINE
  5
F8
330
1F
100
AcDbEntity
  8
0
  6
Continuous
 62
     7
370
    25
100
AcDbLine
 10
0.441417777
 20
-0.1105863168
 30
0.0
 11
0.4439172591
 21
-0.1103775285
 31
0.0
  0
LINE
  5
F9
330
1F
100
AcDbEntity
  8
0
  6
Continuous
 62
     7
370
    25
100
AcDbLine
 10
0.455316466
 20
-0.0978448576
 30
0.0
 11
0.4512712507
 21
-0.0981829208
 31
0.0
  0
LINE
  5
FA
330
1F
100
AcDbEntity
  8
0
  6
Continuous
 62
     7
370
    25
100
AcDbLine
 10
0.4797572798
 20
-0.0896579042
 30
0.0
 11
0.4794708868
 21
-0.0896818384
 31
0.0
  0
LINE
  5
FB
330
1F
100
AcDbEntity
  8
0
  6
Continuous
 62
     7
370
    25
100
AcDbLine
 10
0.4991927364
 20
-0.1048988741
 30
0.0
 11
0.533286573
 21
-0.0837895727
 31
0.0
  0
LINE
  5
FC
330
1F
100
AcDbEntity
  8
0
  6
Continuous
 62
     7
370
    25
100
AcDbLine
 10
0.4452613805
 20
-0.0932100661
 30
0.0
 11
0.4881894309
 21
-0.0878192854
 31
0.0
  0
LINE
  5
FD
330
1F
100
AcDbEntity
  8
0
  6
Continuous
 62
     7
370
    25
100
AcDbLine
 10
0.5026167161
 20
-0.0793882487
 30
0.0
 11
0.4919227824
 21
-0.0860094299
 31
0.0
  0
LINE
  5
FE
330
1F
100
AcDbEntity
  8
0
  6
Continuous
 62
     7
370
    25
100
AcDbLine
 10
0.4604429766
 20
-0.079654407
 30
0.0
 11
0.4267258941
 21
-0.083888501
 31
0.0
  0
LINE
  5
FF
330
1F
100
AcDbEntity
  8
0
  6
Continuous
 62
     7
370
    25
100
AcDbLine
 10
0.4210155068
 20
-0.0887125469
 30
0.0
 11
0.4210368089
 21
-0.0928070292
 31
0.0
  0
LINE
  5
100
330
1F
100
AcDbEntity
  8
0
  6
Continuous
 62
     7
370
    25
100
AcDbLine
 10
0.5272336876
 20
-0.0651212729
 30
0.0
 11
0.4848990426
 21
-0.0704375355
 31
0.0
  0
LINE
  5
101
330
1F
100
AcDbEntity
  8
0
  6
Continuous
 62
     7
370
    25
100
AcDbLine
 10
0.5355763661
 20
-0.080108702
 30
0.0
 11
0.5355231108
 21
-0.069872483
 31
0.0
  0
LINE
  5
102
330
1F
100
AcDbEntity
  8
0
  6
Continuous
 62
     7
370
    25
100
AcDbLine
 10
0.4953967127
 20
-0.094993785
 30
0.0
 11
0.4788942357
 21
-0.0963729156
 31
0.0
  0
LINE
  5
103
330
1F
100
AcDbEntity
  8
0
  6
Continuous
 62
     7
370
    25
100
AcDbLine
 10
0.495449968
 20
-0.1052300039
 30
0.0
 11
0.4953967127
 21
-0.094993785
 31
0.0
  0
LINE
  5
104
330
1F
100
AcDbEntity
  8
0
  6
Continuous
 62
     7
370
    25
100
AcDbLine
 10
0.495449968
 20
-0.1052300039
 30
0.0
 11
0.4415357291
 21
-0.1097355446
 31
0.0
  0
LINE
  5
105
330
1F
100
AcDbEntity
  8
0
  6
Continuous
 62
     7
370
    25
100
AcDbLine
 10
0.4440272748
 20
-0.1095274565
 30
0.0
 11
0.4440059728
 21
-0.1054329742
 31
0.0
  0
LINE
  5
106
330
1F
100
AcDbEntity
  8
0
  6
Continuous
 62
     7
370
    25
100
AcDbLine
 10
0.441514427
 20
-0.1056410623
 30
0.0
 11
0.4547398149
 21
-0.1045359349
 31
0.0
  0
LINE
  5
107
330
1F
100
AcDbEntity
  8
0
  6
Continuous
 62
     7
370
    25
100
AcDbLine
 10
0.4786093309
 20
-0.0935992399
 30
0.0
 11
0.4951118079
 21
-0.0922201092
 31
0.0
  0
LINE
  5
108
330
1F
100
AcDbEntity
  8
0
  6
Continuous
 62
     7
370
    25
100
AcDbLine
 10
0.4786093309
 20
-0.0935992399
 30
0.0
 11
0.4796289275
 21
-0.0900370956
 31
0.0
  0
LINE
  5
109
330
1F
100
AcDbEntity
  8
0
  6
Continuous
 62
     7
370
    25
100
AcDbLine
 10
0.4676105747
 20
-0.0939129756
 30
0.0
 11
0.4665909786
 21
-0.0974751204
 31
0.0
  0
LINE
  5
10A
330
1F
100
AcDbEntity
  8
0
  6
Continuous
 62
     7
370
    25
100
AcDbLine
 10
0.4799153206
 20
-0.0900131614
 30
0.0
 11
0.4796289275
 21
-0.0900370956
 31
0.0
  0
LINE
  5
10B
330
1F
100
AcDbEntity
  8
0
  6
Continuous
 62
     7
370
    25
100
AcDbLine
 10
0.503661034
 20
-0.0794509039
 30
0.0
 11
0.4929671003
 21
-0.086072085
 31
0.0
  0
LINE
  5
10C
330
1F
100
AcDbEntity
  8
0
  6
Continuous
 62
     7
370
    25
100
AcDbLine
 10
0.4970844019
 20
-0.072804801
 30
0.0
 11
0.4840944346
 21
-0.0744360437
 31
0.0
  0
LINE
  5
10D
330
1F
100
AcDbEntity
  8
0
  6
Continuous
 62
     7
370
    25
100
AcDbLine
 10
0.4840944346
 20
-0.0744360437
 30
0.0
 11
0.4851397188
 21
-0.070784155
 31
0.0
  0
LINE
  5
10E
330
1F
100
AcDbEntity
  8
0
  6
Continuous
 62
     7
370
    25
100
AcDbLine
 10
0.4851397188
 20
-0.070784155
 30
0.0
 11
0.5274743638
 21
-0.0654678924
 31
0.0
  0
LINE
  5
10F
330
1F
100
AcDbEntity
  8
0
  6
Continuous
 62
     7
370
    25
100
AcDbLine
 10
0.4980781215
 20
-0.0913244101
 30
0.0
 11
0.5321719582
 21
-0.0702151087
 31
0.0
  0
LINE
  5
110
330
1F
100
AcDbEntity
  8
0
  6
Continuous
 62
     7
370
    25
100
AcDbLine
 10
0.4544549101
 20
-0.1017622591
 30
0.0
 11
0.4554745068
 21
-0.0982001149
 31
0.0
  0
LINE
  5
111
330
1F
100
AcDbEntity
  8
0
  6
Continuous
 62
     7
370
    25
100
AcDbLine
 10
0.4554745067
 20
-0.0982001149
 30
0.0
 11
0.4514292914
 21
-0.0985381781
 31
0.0
  0
LINE
  5
112
330
1F
100
AcDbEntity
  8
0
  6
Continuous
 62
     7
370
    25
100
AcDbLine
 10
0.4412455817
 20
-0.1028660825
 30
0.0
 11
0.4544549101
 21
-0.1017622591
 31
0.0
  0
LINE
  5
113
330
1F
100
AcDbEntity
  8
0
  6
Continuous
 62
     7
370
    25
100
AcDbLine
 10
0.4269665704
 20
-0.0842351205
 30
0.0
 11
0.4606836528
 21
-0.0800010265
 31
0.0
  0
LINE
  5
114
330
1F
100
AcDbEntity
  8
0
  6
Continuous
 62
     7
370
    25
100
AcDbLine
 10
0.4596383684
 20
-0.0836529156
 30
0.0
 11
0.4606836528
 21
-0.0800010265
 31
0.0
  0
LINE
  5
115
330
1F
100
AcDbEntity
  8
0
  6
Continuous
 62
     7
370
    25
100
AcDbLine
 10
0.4449823605
 20
-0.0854933744
 30
0.0
 11
0.4596383684
 21
-0.0836529156
 31
0.0
  0
LINE
  5
116
330
1F
100
AcDbEntity
  8
0
  6
Continuous
 62
     7
370
    25
100
AcDbLine
 10
0.4415357291
 20
-0.1097355446
 30
0.0
 11
0.441514427
 21
-0.1056410623
 31
0.0
  0
LINE
  5
117
330
1F
100
AcDbEntity
  8
0
  6
Continuous
 62
     7
370
    25
100
AcDbLine
 10
0.4337321744
 20
-0.1024520866
 30
0.0
 11
0.4337534765
 21
-0.1065465689
 31
0.0
  0
LINE
  5
118
330
1F
100
AcDbEntity
  8
0
  6
Continuous
 62
     7
370
    25
100
AcDbLine
 10
0.499602807
 20
-0.1039760251
 30
0.0
 11
0.4995495517
 21
-0.0937398061
 31
0.0
  0
LINE
  5
119
330
1F
100
AcDbEntity
  8
0
  6
Continuous
 62
     7
370
    25
100
AcDbLine
 10
0.423263577
 20
-0.0957259135
 30
0.0
 11
0.423242275
 21
-0.0916314312
 31
0.0
  0
LINE
  5
11A
330
1F
100
AcDbEntity
  8
0
  6
Continuous
 62
     7
370
    25
100
AcDbLine
 10
0.4995495517
 20
-0.0937398061
 30
0.0
 11
0.5336433884
 21
-0.0726305047
 31
0.0
  0
LINE
  5
11B
330
1F
100
AcDbEntity
  8
0
  6
Continuous
 62
     7
370
    25
100
AcDbLine
 10
0.5336433884
 20
-0.0726305047
 30
0.0
 11
0.5336966436
 21
-0.0828667237
 31
0.0
  0
LINE
  5
11C
330
1F
100
AcDbEntity
  8
0
  6
Continuous
 62
     7
370
    25
100
AcDbLine
 10
0.5336966436
 20
-0.0828667237
 30
0.0
 11
0.499602807
 21
-0.1039760251
 31
0.0
  0
LINE
  5
11D
330
1F
100
AcDbEntity
  8
0
  6
Continuous
 62
     7
370
    25
100
AcDbLine
 10
0.4454070097
 20
-0.0882524548
 30
0.0
 11
0.4454283118
 21
-0.0923469371
 31
0.0
  0
LINE
  5
11E
330
1F
100
AcDbEntity
  8
0
  6
Continuous
 62
     7
370
    25
100
AcDbLine
 10
0.4454070097
 20
-0.0882524548
 30
0.0
 11
0.4600630176
 21
-0.0864119956
 31
0.0
  0
LINE
  5
11F
330
1F
100
AcDbEntity
  8
0
  6
Continuous
 62
     7
370
    25
100
AcDbLine
 10
0.4975090511
 20
-0.0755638814
 30
0.0
 11
0.4845190838
 21
-0.0771951241
 31
0.0
  0
LINE
  5
120
330
1F
100
AcDbEntity
  8
0
  6
Continuous
 62
     7
370
    25
100
AcDbLine
 10
0.4729856257
 20
-0.0751342685
 30
0.0
 11
0.4719403419
 21
-0.0787861579
 31
0.0
  0
LINE
  5
121
330
1F
100
AcDbEntity
  8
0
  6
Continuous
 62
     7
370
    25
100
AcDbLine
 10
0.4338769856
 20
-0.1070373555
 30
0.0
 11
0.4337534765
 21
-0.1065465689
 31
0.0
  0
LINE
  5
122
330
1F
100
AcDbEntity
  8
0
  6
Continuous
 62
     7
370
    25
100
AcDbLine
 10
0.4391399236
 20
-0.1007952107
 30
0.0
 11
0.4391318613
 21
-0.0992455194
 31
0.0
  0
LINE
  5
123
330
1F
100
AcDbEntity
  8
0
  6
Continuous
 62
     7
370
    25
100
AcDbLine
 10
0.4975452841
 20
-0.0825282411
 30
0.0
 11
0.4975090511
 21
-0.0755638814
 31
0.0
  0
LINE
  5
124
330
1F
100
AcDbEntity
  8
0
  6
Continuous
 62
     7
370
    25
100
AcDbLine
 10
0.4907943075
 20
-0.0866500062
 30
0.0
 11
0.4454283118
 21
-0.0923469371
 31
0.0
  0
LINE
  5
125
330
1F
100
AcDbEntity
  8
0
  6
Continuous
 62
     7
370
    25
100
AcDbLine
 10
0.4929660011
 20
-0.0901524976
 30
0.0
 11
0.4929579386
 21
-0.0886028063
 31
0.0
  0
LINE
  5
126
330
1F
100
AcDbEntity
  8
0
  6
Continuous
 62
     7
370
    25
100
AcDbLine
 10
0.4265520443
 20
-0.0878104242
 30
0.0
 11
0.4265439819
 21
-0.086260733
 31
0.0
  0
LINE
  5
127
330
1F
100
AcDbEntity
  8
0
  6
Continuous
 62
     7
370
    25
100
AcDbLine
 10
0.5270598377
 20
-0.0690431961
 30
0.0
 11
0.5270517753
 21
-0.0674935049
 31
0.0
  0
ARC
  5
128
330
1F
100
AcDbEntity
  8
0
  6
Continuous
 62
     7
370
    25
100
AcDbCircle
 10
0.4524113467
 20
-0.0757460596
 30
0.0
 40
0.0288838827334763
100
AcDbArc
 50
274.6239048744
 51
302.7215988676
  0
ARC
  5
129
330
1F
100
AcDbEntity
  8
0
  6
Continuous
 62
     7
370
    25
100
AcDbCircle
 10
0.4808011116
 20
-0.1199334922
 30
0.0
 40
0.0236376171859598
100
AcDbArc
 50
94.6271496081
 51
122.71835416
  0
ARC
  5
12A
330
1F
100
AcDbEntity
  8
0
  6
Continuous
 62
     7
370
    25
100
AcDbCircle
 10
0.4946744507
 20
-0.0854120363
 30
0.0
 40
0.0068221065852685
100
AcDbArc
 50
273.6756859177
 51
299.9284318917
  0
ARC
  5
12B
330
1F
100
AcDbEntity
  8
0
  6
Continuous
 62
     7
370
    25
100
AcDbCircle
 10
0.4780418059
 20
-0.0602260658
 30
0.0
 40
0.0298459565773531
100
AcDbArc
 50
273.5989835926
 51
300.0051342212
  0
ARC
  5
12C
330
1F
100
AcDbEntity
  8
0
  6
Continuous
 62
     7
370
    25
100
AcDbCircle
 10
0.4233762507
 20
-0.1082792391
 30
0.0
 40
0.0239229575008653
100
AcDbArc
 50
31.2019722492
 51
44.8483608405
  0
ENDSEC
  0
SECTION
  2
OBJECTS
  0
DICTIONARY
  5
C
330
0
100
AcDbDictionary
281
     1
  3
ACAD_GROUP
350
D
  3
ACAD_LAYOUT
350
1A
  3
ACAD_MLINESTYLE
350
17
  3
ACAD_PLOTSETTINGS
350
19
  3
ACAD_PLOTSTYLENAME
350
E
  3
ACAD_SCALELIST
350
47
  3
DWGPROPS
350
12D
  0
DICTIONARY
  5
D
102
{ACAD_REACTORS
330
C
102
}
330
C
100
AcDbDictionary
281
     1
  0
DICTIONARY
  5
1A
102
{ACAD_REACTORS
330
C
102
}
330
C
100
AcDbDictionary
281
     1
  3
Layout1
350
1E
  3
Layout2
350
26
  3
Model
350
22
  0
DICTIONARY
  5
17
102
{ACAD_REACTORS
330
C
102
}
330
C
100
AcDbDictionary
281
     1
  3
Standard
350
18
  0
DICTIONARY
  5
19
102
{ACAD_REACTORS
330
C
102
}
330
C
100
AcDbDictionary
281
     1
  0
ACDBDICTIONARYWDFLT
  5
E
102
{ACAD_REACTORS
330
C
102
}
330
C
100
AcDbDictionary
281
     1
  3
Normal
350
F
100
AcDbDictionaryWithDefault
340
F
  0
DICTIONARY
  5
47
102
{ACAD_REACTORS
330
C
102
}
330
C
100
AcDbDictionary
281
     1
  3
A0
350
48
  3
A1
350
49
  3
A2
350
4A
  3
A3
350
4B
  3
A4
350
4C
  3
A5
350
4D
  3
A6
350
4E
  3
A7
350
4F
  3
A8
350
50
  3
A9
350
51
  3
B0
350
52
  3
B1
350
53
  3
B2
350
54
  3
B3
350
55
  3
B4
350
56
  3
B5
350
57
  3
B6
350
58
  0
XRECORD
  5
12D
102
{ACAD_REACTORS
330
C
102
}
330
C
100
AcDbXrecord
280
     1
  1
DWGPROPS COOKIE
  2

  3

  4

  6

  7

  8
ppare
  9

300
=
301
=
302
=
303
=
304
=
305
=
306
=
307
=
308
=
309
=
 40
0.0
 41
2460421.670486436
 42
2460421.672045452
  1

 90
        0
  0
LAYOUT
  5
1E
102
{ACAD_REACTORS
330
1A
102
}
330
1A
100
AcDbPlotSettings
  1

  2
none_device
  4

  6

 40
0.0
 41
0.0
 42
0.0
 43
0.0
 44
0.0
 45
0.0
 46
0.0
 47
0.0
 48
0.0
 49
0.0
140
0.0
141
0.0
142
1.0
143
1.0
 70
   688
 72
     1
 73
     0
 74
     5
  7

 75
    16
147
1.0
148
0.0
149
0.0
100
AcDbLayout
  1
Layout1
 70
     1
 71
     1
 10
0.0
 20
0.0
 11
420.0
 21
297.0
 12
0.0
 22
0.0
 32
0.0
 14
1.0000000000E+20
 24
1.0000000000E+20
 34
1.0000000000E+20
 15
-1.0000000000E+20
 25
-1.0000000000E+20
 35
-1.0000000000E+20
146
0.0
 13
0.0
 23
0.0
 33
0.0
 16
1.0
 26
0.0
 36
0.0
 17
0.0
 27
1.0
 37
0.0
 76
     0
330
1B
  0
LAYOUT
  5
26
102
{ACAD_REACTORS
330
1A
102
}
330
1A
100
AcDbPlotSettings
  1

  2
none_device
  4

  6

 40
0.0
 41
0.0
 42
0.0
 43
0.0
 44
0.0
 45
0.0
 46
0.0
 47
0.0
 48
0.0
 49
0.0
140
0.0
141
0.0
142
1.0
143
1.0
 70
   688
 72
     1
 73
     0
 74
     5
  7

 75
    16
147
1.0
148
0.0
149
0.0
100
AcDbLayout
  1
Layout2
 70
     1
 71
     2
 10
0.0
 20
0.0
 11
0.0
 21
0.0
 12
0.0
 22
0.0
 32
0.0
 14
0.0
 24
0.0
 34
0.0
 15
0.0
 25
0.0
 35
0.0
146
0.0
 13
0.0
 23
0.0
 33
0.0
 16
1.0
 26
0.0
 36
0.0
 17
0.0
 27
1.0
 37
0.0
 76
     0
330
23
  0
LAYOUT
  5
22
102
{ACAD_REACTORS
330
1A
102
}
330
1A
100
AcDbPlotSettings
  1

  2
none_device
  4
ANSI_A_(11.00_x_8.50_Inches)
  6

 40
6.35
 41
19.05
 42
6.35000508
 43
19.05000254
 44
279.4
 45
215.9
 46
-1021.4707778531
 47
300.9621967555
 48
0.0
 49
0.0
140
0.0
141
0.0
142
95.0567953086
143
1.0
 70
  1696
 72
     0
 73
     0
 74
     0
  7

 75
     0
147
0.0179189148
148
-1300.4909072572
149
0.0
100
AcDbLayout
  1
Model
 70
     1
 71
     0
 10
0.0
 20
0.0
 11
420.0
 21
297.0
 12
0.0
 22
0.0
 32
0.0
 14
0.4210155068
 24
-0.1106198354
 34
0.0
 15
0.5355785948
 25
-0.0650415765
 35
0.0
146
0.0
 13
0.0
 23
0.0
 33
0.0
 16
1.0
 26
0.0
 36
0.0
 17
0.0
 27
1.0
 37
0.0
 76
     0
330
1F
331
29
  0
MLINESTYLE
  5
18
102
{ACAD_REACTORS
330
17
102
}
330
17
100
AcDbMlineStyle
  2
Standard
 70
     0
  3

 62
   256
 51
90.0
 52
90.0
 71
     2
 49
0.5
 62
   256
  6
BYLAYER
 49
-0.5
 62
   256
  6
BYLAYER
  0
ACDBPLACEHOLDER
  5
F
102
{ACAD_REACTORS
330
E
102
}
330
E
  0
SCALE
  5
48
102
{ACAD_REACTORS
330
47
102
}
330
47
100
AcDbScale
 70
     0
300
1:1
140
1.0
141
1.0
290
     1
  0
SCALE
  5
49
102
{ACAD_REACTORS
330
47
102
}
330
47
100
AcDbScale
 70
     0
300
1:2
140
1.0
141
2.0
290
     0
  0
SCALE
  5
4A
102
{ACAD_REACTORS
330
47
102
}
330
47
100
AcDbScale
 70
     0
300
1:4
140
1.0
141
4.0
290
     0
  0
SCALE
  5
4B
102
{ACAD_REACTORS
330
47
102
}
330
47
100
AcDbScale
 70
     0
300
1:5
140
1.0
141
5.0
290
     0
  0
SCALE
  5
4C
102
{ACAD_REACTORS
330
47
102
}
330
47
100
AcDbScale
 70
     0
300
1:8
140
1.0
141
8.0
290
     0
  0
SCALE
  5
4D
102
{ACAD_REACTORS
330
47
102
}
330
47
100
AcDbScale
 70
     0
300
1:10
140
1.0
141
10.0
290
     0
  0
SCALE
  5
4E
102
{ACAD_REACTORS
330
47
102
}
330
47
100
AcDbScale
 70
     0
300
1:16
140
1.0
141
16.0
290
     0
  0
SCALE
  5
4F
102
{ACAD_REACTORS
330
47
102
}
330
47
100
AcDbScale
 70
     0
300
1:20
140
1.0
141
20.0
290
     0
  0
SCALE
  5
50
102
{ACAD_REACTORS
330
47
102
}
330
47
100
AcDbScale
 70
     0
300
1:30
140
1.0
141
30.0
290
     0
  0
SCALE
  5
51
102
{ACAD_REACTORS
330
47
102
}
330
47
100
AcDbScale
 70
     0
300
1:40
140
1.0
141
40.0
290
     0
  0
SCALE
  5
52
102
{ACAD_REACTORS
330
47
102
}
330
47
100
AcDbScale
 70
     0
300
1:50
140
1.0
141
50.0
290
     0
  0
SCALE
  5
53
102
{ACAD_REACTORS
330
47
102
}
330
47
100
AcDbScale
 70
     0
300
1:100
140
1.0
141
100.0
290
     0
  0
SCALE
  5
54
102
{ACAD_REACTORS
330
47
102
}
330
47
100
AcDbScale
 70
     0
300
2:1
140
2.0
141
1.0
290
     0
  0
SCALE
  5
55
102
{ACAD_REACTORS
330
47
102
}
330
47
100
AcDbScale
 70
     0
300
4:1
140
4.0
141
1.0
290
     0
  0
SCALE
  5
56
102
{ACAD_REACTORS
330
47
102
}
330
47
100
AcDbScale
 70
     0
300
8:1
140
8.0
141
1.0
290
     0
  0
SCALE
  5
57
102
{ACAD_REACTORS
330
47
102
}
330
47
100
AcDbScale
 70
     0
300
10:1
140
10.0
141
1.0
290
     0
  0
SCALE
  5
58
102
{ACAD_REACTORS
330
47
102
}
330
47
100
AcDbScale
 70
     0
300
100:1
140
100.0
141
1.0
290
     0
  0
ENDSEC
  0
EOF
