  0
SECTION
  2
HEADER
  9
$ACADVER
  1
AC1015
  9
$ACADMAINTVER
 70
     6
  9
$DWGCODEPAGE
  3
ANSI_1252
  9
$INSBASE
 10
0.0
 20
0.0
 30
0.0
  9
$EXTMIN
 10
-0.0805737355
 20
0.6647327748
 30
0.0
  9
$EXTMAX
 10
-0.0088265367
 20
0.7720981159
 30
0.0
  9
$LIMMIN
 10
0.0
 20
0.0
  9
$LIMMAX
 10
420.0
 20
297.0
  9
$ORTHOMODE
 70
     0
  9
$REGENMODE
 70
     1
  9
$FILLMODE
 70
     1
  9
$QTEXTMODE
 70
     0
  9
$MIRRTEXT
 70
     1
  9
$LTSCALE
 40
1.0
  9
$ATTMODE
 70
     1
  9
$TEXTSIZE
 40
0.0035
  9
$TRACEWID
 40
1.0
  9
$TEXTSTYLE
  7
Standard
  9
$CLAYER
  8
0
  9
$CELTYPE
  6
ByLayer
  9
$CECOLOR
 62
   256
  9
$CELTSCALE
 40
1.0
  9
$DISPSILH
 70
     0
  9
$DIMSCALE
 40
1.0
  9
$DIMASZ
 40
0.003556
  9
$DIMEXO
 40
0.0
  9
$DIMDLI
 40
3.75
  9
$DIMRND
 40
0.0
  9
$DIMDLE
 40
0.0
  9
$DIMEXE
 40
0.001
  9
$DIMTP
 40
0.0
  9
$DIMTM
 40
0.0
  9
$DIMTXT
 40
0.0035
  9
$DIMCEN
 40
2.5
  9
$DIMTSZ
 40
0.0
  9
$DIMTOL
 70
     0
  9
$DIMLIM
 70
     0
  9
$DIMTIH
 70
     1
  9
$DIMTOH
 70
     1
  9
$DIMSE1
 70
     0
  9
$DIMSE2
 70
     0
  9
$DIMTAD
 70
     1
  9
$DIMZIN
 70
     1
  9
$DIMBLK
  1

  9
$DIMASO
 70
     1
  9
$DIMSHO
 70
     1
  9
$DIMPOST
  1

  9
$DIMAPOST
  1

  9
$DIMALT
 70
     0
  9
$DIMALTD
 70
     3
  9
$DIMALTF
 40
39.3700787402
  9
$DIMLFAC
 40
1.0
  9
$DIMTOFL
 70
     1
  9
$DIMTVP
 40
0.0
  9
$DIMTIX
 70
     0
  9
$DIMSOXD
 70
     0
  9
$DIMSAH
 70
     0
  9
$DIMBLK1
  1

  9
$DIMBLK2
  1

  9
$DIMSTYLE
  2
ISO-25
  9
$DIMCLRD
 70
     0
  9
$DIMCLRE
 70
     0
  9
$DIMCLRT
 70
     0
  9
$DIMTFAC
 40
1.0
  9
$DIMGAP
 40
0.001524
  9
$DIMJUST
 70
     0
  9
$DIMSD1
 70
     0
  9
$DIMSD2
 70
     0
  9
$DIMTOLJ
 70
     0
  9
$DIMTZIN
 70
     1
  9
$DIMALTZ
 70
     0
  9
$DIMALTTZ
 70
     0
  9
$DIMUPT
 70
     0
  9
$DIMDEC
 70
     2
  9
$DIMTDEC
 70
     2
  9
$DIMALTU
 70
     2
  9
$DIMALTTD
 70
     3
  9
$DIMTXSTY
  7
Standard
  9
$DIMAUNIT
 70
     0
  9
$DIMADEC
 70
     2
  9
$DIMALTRND
 40
0.0
  9
$DIMAZIN
 70
     0
  9
$DIMDSEP
 70
    44
  9
$DIMATFIT
 70
     3
  9
$DIMFRAC
 70
     0
  9
$DIMLDRBLK
  1

  9
$DIMLUNIT
 70
     2
  9
$DIMLWD
 70
    -2
  9
$DIMLWE
 70
    -2
  9
$DIMTMOVE
 70
     0
  9
$LUNITS
 70
     2
  9
$LUPREC
 70
     2
  9
$SKETCHINC
 40
1.0
  9
$FILLETRAD
 40
0.0
  9
$AUNITS
 70
     0
  9
$AUPREC
 70
     2
  9
$MENU
  1
.
  9
$ELEVATION
 40
0.0
  9
$PELEVATION
 40
0.0
  9
$THICKNESS
 40
0.0
  9
$LIMCHECK
 70
     0
  9
$CHAMFERA
 40
0.0
  9
$CHAMFERB
 40
0.0
  9
$CHAMFERC
 40
0.0
  9
$CHAMFERD
 40
0.0
  9
$SKPOLY
 70
     0
  9
$TDCREATE
 40
2460421.89965206
  9
$TDUCREATE
 40
2460421.670485394
  9
$TDUPDATE
 40
2460421.901211933
  9
$TDUUPDATE
 40
2460421.672045267
  9
$TDINDWG
 40
0.0000000116
  9
$TDUSRTIMER
 40
0.0000000116
  9
$USRTIMER
 70
     1
  9
$ANGBASE
 50
0.0
  9
$ANGDIR
 70
     0
  9
$PDMODE
 70
     0
  9
$PDSIZE
 40
-1.0
  9
$PLINEWID
 40
0.0
  9
$SPLFRAME
 70
     0
  9
$SPLINETYPE
 70
     6
  9
$SPLINESEGS
 70
     8
  9
$HANDSEED
  5
129
  9
$SURFTAB1
 70
     6
  9
$SURFTAB2
 70
     6
  9
$SURFTYPE
 70
     6
  9
$SURFU
 70
     6
  9
$SURFV
 70
     6
  9
$UCSBASE
  2

  9
$UCSNAME
  2

  9
$UCSORG
 10
0.0
 20
0.0
 30
0.0
  9
$UCSXDIR
 10
1.0
 20
0.0
 30
0.0
  9
$UCSYDIR
 10
0.0
 20
1.0
 30
0.0
  9
$UCSORTHOREF
  2

  9
$UCSORTHOVIEW
 70
     0
  9
$UCSORGTOP
 10
0.0
 20
0.0
 30
0.0
  9
$UCSORGBOTTOM
 10
0.0
 20
0.0
 30
0.0
  9
$UCSORGLEFT
 10
0.0
 20
0.0
 30
0.0
  9
$UCSORGRIGHT
 10
0.0
 20
0.0
 30
0.0
  9
$UCSORGFRONT
 10
0.0
 20
0.0
 30
0.0
  9
$UCSORGBACK
 10
0.0
 20
0.0
 30
0.0
  9
$PUCSBASE
  2

  9
$PUCSNAME
  2

  9
$PUCSORG
 10
0.0
 20
0.0
 30
0.0
  9
$PUCSXDIR
 10
1.0
 20
0.0
 30
0.0
  9
$PUCSYDIR
 10
0.0
 20
1.0
 30
0.0
  9
$PUCSORTHOREF
  2

  9
$PUCSORTHOVIEW
 70
     0
  9
$PUCSORGTOP
 10
0.0
 20
0.0
 30
0.0
  9
$PUCSORGBOTTOM
 10
0.0
 20
0.0
 30
0.0
  9
$PUCSORGLEFT
 10
0.0
 20
0.0
 30
0.0
  9
$PUCSORGRIGHT
 10
0.0
 20
0.0
 30
0.0
  9
$PUCSORGFRONT
 10
0.0
 20
0.0
 30
0.0
  9
$PUCSORGBACK
 10
0.0
 20
0.0
 30
0.0
  9
$USERI1
 70
     0
  9
$USERI2
 70
     0
  9
$USERI3
 70
     0
  9
$USERI4
 70
     0
  9
$USERI5
 70
     0
  9
$USERR1
 40
0.0
  9
$USERR2
 40
0.0
  9
$USERR3
 40
0.0
  9
$USERR4
 40
0.0
  9
$USERR5
 40
0.0
  9
$WORLDVIEW
 70
     1
  9
$SHADEDGE
 70
     3
  9
$SHADEDIF
 70
    70
  9
$TILEMODE
 70
     1
  9
$MAXACTVP
 70
    64
  9
$PINSBASE
 10
0.0
 20
0.0
 30
0.0
  9
$PLIMCHECK
 70
     0
  9
$PEXTMIN
 10
1.0000000000E+20
 20
1.0000000000E+20
 30
1.0000000000E+20
  9
$PEXTMAX
 10
-1.0000000000E+20
 20
-1.0000000000E+20
 30
-1.0000000000E+20
  9
$PLIMMIN
 10
0.0
 20
0.0
  9
$PLIMMAX
 10
420.0
 20
297.0
  9
$UNITMODE
 70
     0
  9
$VISRETAIN
 70
     1
  9
$PLINEGEN
 70
     0
  9
$PSLTSCALE
 70
     1
  9
$TREEDEPTH
 70
  3020
  9
$CMLSTYLE
  2
Standard
  9
$CMLJUST
 70
     0
  9
$CMLSCALE
 40
20.0
  9
$PROXYGRAPHICS
 70
     1
  9
$MEASUREMENT
 70
     1
  9
$CELWEIGHT
370
    -1
  9
$ENDCAPS
280
     0
  9
$JOINSTYLE
280
     0
  9
$LWDISPLAY
290
     1
  9
$INSUNITS
 70
     6
  9
$HYPERLINKBASE
  1

  9
$STYLESHEET
  1

  9
$XEDIT
290
     1
  9
$CEPSNTYPE
380
     0
  9
$PSTYLEMODE
290
     1
  9
$FINGERPRINTGUID
  2
{293908cb-157b-4925-b7f5-3e3ccf81a3bc}
  9
$VERSIONGUID
  2
{FAEB1C32-E019-11D5-929B-00C0DF256EC4}
  9
$EXTNAMES
290
     1
  9
$PSVPSCALE
 40
0.0
  9
$OLESTARTUP
290
     0
  0
ENDSEC
  0
SECTION
  2
CLASSES
  0
CLASS
  1
ACDBDICTIONARYWDFLT
  2
AcDbDictionaryWithDefault
  3
ObjectDBX Classes
 90
        0
280
     0
281
     0
  0
CLASS
  1
VISUALSTYLE
  2
AcDbVisualStyle
  3
ObjectDBX Classes
 90
     4095
280
     0
281
     0
  0
CLASS
  1
MATERIAL
  2
AcDbMaterial
  3
ObjectDBX Classes
 90
     1153
280
     0
281
     0
  0
CLASS
  1
SCALE
  2
AcDbScale
  3
ObjectDBX Classes
 90
     1153
280
     0
281
     0
  0
CLASS
  1
TABLESTYLE
  2
AcDbTableStyle
  3
ObjectDBX Classes
 90
     4095
280
     0
281
     0
  0
CLASS
  1
MLEADERSTYLE
  2
AcDbMLeaderStyle
  3
ACDB_MLEADERSTYLE_CLASS
 90
     4095
280
     0
281
     0
  0
CLASS
  1
SUN
  2
AcDbSun
  3
SCENEOE
 90
     1153
280
     0
281
     0
  0
CLASS
  1
ACDBPLACEHOLDER
  2
AcDbPlaceHolder
  3
ObjectDBX Classes
 90
        0
280
     0
281
     0
  0
CLASS
  1
LAYOUT
  2
AcDbLayout
  3
ObjectDBX Classes
 90
        0
280
     0
281
     0
  0
ENDSEC
  0
SECTION
  2
TABLES
  0
TABLE
  2
VPORT
  5
8
330
0
100
AcDbSymbolTable
 70
     1
  0
VPORT
  5
29
330
8
100
AcDbSymbolTableRecord
100
AcDbViewportTableRecord
  2
*Active
 70
     0
 10
0.0
 20
0.0
 11
1.0
 21
1.0
 12
-0.0447001361
 22
0.7184154453
 13
0.0
 23
0.0
 14
10.0
 24
10.0
 15
10.0
 25
10.0
 16
0.0
 26
0.0
 36
1.0
 17
0.0
 27
0.0
 37
0.0
 40
0.1095126479
 41
0.6682528832
 42
50.0
 43
0.0
 44
0.0
 50
0.0
 51
0.0
 71
     0
 72
   100
 73
     1
 74
     3
 75
     0
 76
     0
 77
     0
 78
     0
281
     0
 65
     1
110
0.0
120
0.0
130
0.0
111
1.0
121
0.0
131
0.0
112
0.0
122
1.0
132
0.0
 79
     0
146
0.0
  0
ENDTAB
  0
TABLE
  2
LTYPE
  5
5
330
0
100
AcDbSymbolTable
 70
     6
  0
LTYPE
  5
14
330
5
100
AcDbSymbolTableRecord
100
AcDbLinetypeTableRecord
  2
ByBlock
 70
     0
  3

 72
    65
 73
     0
 40
0.0
  0
LTYPE
  5
15
330
5
100
AcDbSymbolTableRecord
100
AcDbLinetypeTableRecord
  2
ByLayer
 70
     0
  3

 72
    65
 73
     0
 40
0.0
  0
LTYPE
  5
16
330
5
100
AcDbSymbolTableRecord
100
AcDbLinetypeTableRecord
  2
Continuous
 70
     0
  3
Solid line
 72
    65
 73
     0
 40
0.0
  0
LTYPE
  5
5E
330
5
100
AcDbSymbolTableRecord
100
AcDbLinetypeTableRecord
  2
HIDDEN
 70
     0
  3
Hidden __ __ __ __ __ __ __ __ __ __ __ __ __ __
 72
    65
 73
     2
 40
0.001905
 49
0.00127
 74
     0
 49
-0.000635
 74
     0
  0
LTYPE
  5
5F
330
5
100
AcDbSymbolTableRecord
100
AcDbLinetypeTableRecord
  2
PHANTOM
 70
     0
  3
Phantom ______  __  __  ______  __  __  ______
 72
    65
 73
     6
 40
0.0127
 49
0.00635
 74
     0
 49
-0.00127
 74
     0
 49
0.00127
 74
     0
 49
-0.00127
 74
     0
 49
0.00127
 74
     0
 49
-0.00127
 74
     0
  0
LTYPE
  5
60
330
5
100
AcDbSymbolTableRecord
100
AcDbLinetypeTableRecord
  2
CENTER
 70
     0
  3
Center ____ _ ____ _ ____ _ ____ _ ____ _ ____
 72
    65
 73
     4
 40
0.01016
 49
0.00635
 74
     0
 49
-0.00127
 74
     0
 49
0.00127
 74
     0
 49
-0.00127
 74
     0
  0
LTYPE
  5
61
330
5
100
AcDbSymbolTableRecord
100
AcDbLinetypeTableRecord
  2
CENTERX2
 70
     0
  3
Center (2x) ________  __  ________  __  _____
 72
    65
 73
     4
 40
0.02032
 49
0.0127
 74
     0
 49
-0.00254
 74
     0
 49
0.00254
 74
     0
 49
-0.00254
 74
     0
  0
LTYPE
  5
62
330
5
100
AcDbSymbolTableRecord
100
AcDbLinetypeTableRecord
  2
DOT2
 70
     0
  3
Dot (.5x) ........................................
 72
    65
 73
     2
 40
0.000635
 49
0.0
 74
     0
 49
-0.000635
 74
     0
  0
ENDTAB
  0
TABLE
  2
LAYER
  5
2
330
0
100
AcDbSymbolTable
 70
     1
  0
LAYER
  5
10
330
2
100
AcDbSymbolTableRecord
100
AcDbLayerTableRecord
  2
0
 70
     0
 62
     7
  6
Continuous
370
    -3
390
F
  0
ENDTAB
  0
TABLE
  2
STYLE
  5
3
330
0
100
AcDbSymbolTable
 70
     1
  0
STYLE
  5
11
330
3
100
AcDbSymbolTableRecord
100
AcDbTextStyleTableRecord
  2
Standard
 70
     0
 40
0.0
 41
1.0
 50
0.0
 71
     0
 42
0.0035
  3
txt
  4

  0
ENDTAB
  0
TABLE
  2
VIEW
  5
6
330
0
100
AcDbSymbolTable
 70
     0
  0
ENDTAB
  0
TABLE
  2
UCS
  5
7
330
0
100
AcDbSymbolTable
 70
     0
  0
ENDTAB
  0
TABLE
  2
APPID
  5
9
330
0
100
AcDbSymbolTable
 70
     1
  0
APPID
  5
12
330
9
100
AcDbSymbolTableRecord
100
AcDbRegAppTableRecord
  2
ACAD
 70
     0
  0
ENDTAB
  0
TABLE
  2
DIMSTYLE
  5
A
330
0
100
AcDbSymbolTable
 70
     1
100
AcDbDimStyleTable
  0
DIMSTYLE
105
27
330
A
100
AcDbSymbolTableRecord
100
AcDbDimStyleTableRecord
  2
ISO-25
 70
     0
 41
2.5
 42
0.625
 43
3.75
 44
1.25
 73
     0
 74
     0
 77
     1
 78
     8
140
2.5
141
2.5
143
0.0393700787
147
0.625
171
     3
172
     1
178
     0
271
     2
272
     2
274
     3
278
    44
283
     0
284
     8
340
11
  0
ENDTAB
  0
TABLE
  2
BLOCK_RECORD
  5
1
330
0
100
AcDbSymbolTable
 70
     1
  0
BLOCK_RECORD
  5
1F
330
1
100
AcDbSymbolTableRecord
100
AcDbBlockTableRecord
  2
*Model_Space
340
22
  0
BLOCK_RECORD
  5
1B
330
1
100
AcDbSymbolTableRecord
100
AcDbBlockTableRecord
  2
*Paper_Space
340
1E
  0
BLOCK_RECORD
  5
23
330
1
100
AcDbSymbolTableRecord
100
AcDbBlockTableRecord
  2
*Paper_Space0
340
26
  0
ENDTAB
  0
ENDSEC
  0
SECTION
  2
BLOCKS
  0
BLOCK
  5
20
330
1F
100
AcDbEntity
  8
0
100
AcDbBlockBegin
  2
*Model_Space
 70
     0
 10
0.0
 20
0.0
 30
0.0
  3
*Model_Space
  1

  0
ENDBLK
  5
21
330
1F
100
AcDbEntity
  8
0
100
AcDbBlockEnd
  0
BLOCK
  5
1C
330
1B
100
AcDbEntity
 67
     1
  8
0
100
AcDbBlockBegin
  2
*Paper_Space
 70
     0
 10
0.0
 20
0.0
 30
0.0
  3
*Paper_Space
  1

  0
ENDBLK
  5
1D
330
1B
100
AcDbEntity
 67
     1
  8
0
100
AcDbBlockEnd
  0
BLOCK
  5
24
330
23
100
AcDbEntity
  8
0
100
AcDbBlockBegin
  2
*Paper_Space0
 70
     0
 10
0.0
 20
0.0
 30
0.0
  3
*Paper_Space0
  1

  0
ENDBLK
  5
25
330
23
100
AcDbEntity
  8
0
100
AcDbBlockEnd
  0
ENDSEC
  0
SECTION
  2
ENTITIES
  0
SPLINE
  5
67
330
1F
100
AcDbEntity
  8
0
  6
Continuous
 62
     7
370
    25
100
AcDbSpline
210
0.0
220
0.0
230
1.0
 70
     8
 71
     3
 72
    11
 73
     7
 74
     0
 42
0.00000001
 43
0.00000001
 40
0.0
 40
0.0
 40
0.0
 40
0.0
 40
0.25
 40
0.5
 40
0.75
 40
1.0
 40
1.0
 40
1.0
 40
1.0
 10
-0.0089043937699632
 20
0.715374144891977
 30
0.0
 10
-0.0089059427647905
 20
0.7153741165076438
 30
0.0
 10
-0.0090146374294208
 20
0.7153703547425349
 30
0.0
 10
-0.0094616590605259
 20
0.7153547355681378
 30
0.0
 10
-0.0101277895689119
 20
0.7153314064595384
 30
0.0
 10
-0.0106533284106961
 20
0.7153129769126493
 30
0.0
 10
-0.0109149622091194
 20
0.7153037967459838
 30
0.0
  0
SPLINE
  5
68
330
1F
100
AcDbEntity
  8
0
  6
Continuous
 62
     7
370
    25
100
AcDbSpline
210
0.0
220
0.0
230
1.0
 70
     8
 71
     3
 72
     8
 73
     4
 74
     0
 42
0.00000001
 43
0.00000001
 40
0.0
 40
0.0
 40
0.0
 40
0.0
 40
1.0
 40
1.0
 40
1.0
 40
1.0
 10
-0.01031374808815
 20
0.71091049799
 30
0.0
 10
-0.00935507621748
 20
0.7121801285589999
 30
0.0
 10
-0.008848606847367
 20
0.713784196752
 30
0.0
 10
-0.008904393769964
 20
0.715374144892
 30
0.0
  0
SPLINE
  5
69
330
1F
100
AcDbEntity
  8
0
  6
Continuous
 62
     7
370
    25
100
AcDbSpline
210
0.0
220
0.0
230
1.0
 70
     8
 71
     3
 72
    14
 73
    10
 74
     0
 42
0.00000001
 43
0.00000001
 40
0.0
 40
0.0
 40
0.0
 40
0.0
 40
0.25
 40
0.25
 40
0.5
 40
0.5
 40
0.75
 40
0.75
 40
1.0
 40
1.0
 40
1.0
 40
1.0
 10
-0.0103137480878064
 20
0.7109104979900354
 30
0.0
 10
-0.0103152970826029
 20
0.7109104696057763
 30
0.0
 10
-0.0103583866982146
 20
0.7109418092685491
 30
0.0
 10
-0.0105211524279895
 20
0.7110625009732902
 30
0.0
 10
-0.0106407645007883
 20
0.7111518055282267
 30
0.0
 10
-0.0109384183638559
 20
0.7113748714882487
 30
0.0
 10
-0.01111634304004
 20
0.7115085451264044
 30
0.0
 10
-0.0115035699339767
 20
0.7118000255713842
 30
0.0
 10
-0.0117127197944818
 20
0.7119577176930998
 30
0.0
 10
-0.0119216438646871
 20
0.7121154775303274
 30
0.0
  0
SPLINE
  5
6B
330
1F
100
AcDbEntity
  8
0
  6
Continuous
 62
     7
370
    25
100
AcDbSpline
210
0.0
220
0.0
230
1.0
 70
     8
 71
     3
 72
    14
 73
    10
 74
     0
 42
0.00000001
 43
0.00000001
 40
0.0
 40
0.0
 40
0.0
 40
0.0
 40
0.25
 40
0.25
 40
0.5
 40
0.5
 40
0.75
 40
0.75
 40
1.0
 40
1.0
 40
1.0
 40
1.0
 10
-0.0218588175980466
 20
0.7678202166700202
 30
0.0
 10
-0.022078400990224
 20
0.7679627663288523
 30
0.0
 10
-0.022297589992714
 20
0.7681052655442345
 30
0.0
 10
-0.0227021416468219
 20
0.7683686846929095
 30
0.0
 10
-0.0228873451246391
 20
0.7684895009820163
 30
0.0
 10
-0.0231956923264349
 20
0.7686911367842191
 30
0.0
 10
-0.0233187147289567
 20
0.768771876962237
 30
0.0
 10
-0.0234839144121436
 20
0.7688810321949164
 30
0.0
 10
-0.0235260266937877
 20
0.7689094043016544
 30
0.0
 10
-0.0235244776989641
 20
0.7689094326858924
 30
0.0
  0
SPLINE
  5
6C
330
1F
100
AcDbEntity
  8
0
  6
Continuous
 62
     7
370
    25
100
AcDbSpline
210
0.0
220
0.0
230
1.0
 70
     8
 71
     3
 72
    14
 73
    10
 74
     0
 42
0.00000001
 43
0.00000001
 40
0.0
 40
0.0
 40
0.0
 40
0.0
 40
0.0265166138584372
 40
0.1887638448820382
 40
0.3510110759056423
 40
0.5132583069292391
 40
0.67550553795284
 40
0.8377527689764389
 40
0.9999999999999999
 40
0.9999999999999999
 40
0.9999999999999999
 40
0.9999999999999999
 10
-0.0177943422087828
 20
0.7720845539740944
 30
0.0
 10
-0.0178545701340902
 20
0.7720871454130567
 30
0.0
 10
-0.018283314724594
 20
0.7721055930921198
 30
0.0
 10
-0.0190784836791027
 20
0.7719710886285188
 30
0.0
 10
-0.0201445407953462
 20
0.7716734548369789
 30
0.0
 10
-0.0211493727117571
 20
0.7711959095060429
 30
0.0
 10
-0.0220640433975104
 20
0.7705686426262948
 30
0.0
 10
-0.0228791345873003
 20
0.7698104673031482
 30
0.0
 10
-0.0233093633284422
 20
0.7692097775583975
 30
0.0
 10
-0.0235244776990131
 20
0.768909432686022
 30
0.0
  0
SPLINE
  5
6D
330
1F
100
AcDbEntity
  8
0
  6
Continuous
 62
     7
370
    25
100
AcDbSpline
210
0.0
220
0.0
230
1.0
 70
     8
 71
     3
 72
    11
 73
     7
 74
     0
 42
0.00000001
 43
0.00000001
 40
0.0
 40
0.0
 40
0.0
 40
0.0
 40
0.25
 40
0.5
 40
0.75
 40
1.0
 40
1.0
 40
1.0
 40
1.0
 10
-0.0126682462478379
 20
0.7652730469962253
 30
0.0
 10
-0.0124066124494083
 20
0.7652822271625704
 30
0.0
 10
-0.0118810736076072
 20
0.7653006567093078
 30
0.0
 10
-0.0112149430992015
 20
0.7653239858182049
 30
0.0
 10
-0.0107679214680964
 20
0.7653396049928585
 30
0.0
 10
-0.0106592268034844
 20
0.7653433667579828
 30
0.0
 10
-0.0106576778086711
 20
0.7653433951423159
 30
0.0
  0
SPLINE
  5
79
330
1F
100
AcDbEntity
  8
0
  6
Continuous
 62
     7
370
    25
100
AcDbSpline
210
0.0
220
0.0
230
1.0
 70
     8
 71
     3
 72
    29
 73
    25
 74
     0
 42
0.00000001
 43
0.00000001
 40
0.0
 40
0.0
 40
0.0
 40
0.0
 40
0.0209946060790925
 40
0.0418137521522762
 40
0.0625470941272537
 40
0.0832854007870808
 40
0.1041193760250885
 40
0.1251384852533692
 40
0.1875741484002191
 40
0.2500987268283941
 40
0.3125343899761316
 40
0.3750589684031794
 40
0.4374946315537108
 40
0.500019209978272
 40
0.5624548731306271
 40
0.624979451553035
 40
0.6874151147032298
 40
0.749939693127955
 40
0.8123753562783723
 40
0.8748999347028159
 40
0.90613092025085
 40
0.9374498602265977
 40
0.9687029719360298
 40
1.0
 40
1.0
 40
1.0
 40
1.0
 10
-0.0179105346753169
 20
0.7150583371730002
 30
0.0
 10
-0.0179112723995749
 20
0.7151022663301357
 30
0.0
 10
-0.0179127416826454
 20
0.7151897575115281
 30
0.0
 10
-0.0179041699010401
 20
0.7153204637773549
 30
0.0
 10
-0.0178876419344494
 20
0.7154497978732033
 30
0.0
 10
-0.0178624113174915
 20
0.7155777760140477
 30
0.0
 10
-0.0178286625250761
 20
0.7157043961284355
 30
0.0
 10
-0.0177588868321902
 20
0.7159111942541471
 30
0.0
 10
-0.0176243111991212
 20
0.7161878259313539
 30
0.0
 10
-0.0173840449924895
 20
0.7165006746334026
 30
0.0
 10
-0.0170886301791584
 20
0.7167625166756013
 30
0.0
 10
-0.0167468689684614
 20
0.7169596664272719
 30
0.0
 10
-0.0163737552084759
 20
0.7170885017563278
 30
0.0
 10
-0.0159825591752375
 20
0.7171398554100588
 30
0.0
 10
-0.0155885463151877
 20
0.7171160906679412
 30
0.0
 10
-0.0152074766497701
 20
0.7170138228015733
 30
0.0
 10
-0.0148525553006436
 20
0.7168410814068283
 30
0.0
 10
-0.0145396214651978
 20
0.7166007482858047
 30
0.0
 10
-0.0142778615647293
 20
0.7163053813830014
 30
0.0
 10
-0.0141134350107591
 20
0.7160203319721913
 30
0.0
 10
-0.0140163439774126
 20
0.7157769789543289
 30
0.0
 10
-0.0139622921987568
 20
0.7155880607668103
 30
0.0
 10
-0.0139254507194315
 20
0.7153946959720487
 30
0.0
 10
-0.0139171952949618
 20
0.7152639955801959
 30
0.0
 10
-0.0139130646846667
 20
0.715198599502
 30
0.0
  0
SPLINE
  5
7A
330
1F
100
AcDbEntity
  8
0
  6
Continuous
 62
     7
370
    25
100
AcDbSpline
210
0.0
220
0.0
230
1.0
 70
     8
 71
     3
 72
    29
 73
    25
 74
     0
 42
0.00000001
 43
0.00000001
 40
0.0
 40
0.0
 40
0.0
 40
0.0
 40
0.0209946060290527
 40
0.0418137521038753
 40
0.0625470941066786
 40
0.0832854007945098
 40
0.1041193760345682
 40
0.1251384852136425
 40
0.1875741483593637
 40
0.2500987267993389
 40
0.3125343899474411
 40
0.375058968385249
 40
0.4374946315386743
 40
0.5000192099710555
 40
0.5624548731250621
 40
0.62497945155677
 40
0.6874151147108559
 40
0.7499396931425707
 40
0.8123753562956474
 40
0.8748999347282356
 40
0.9061309202669402
 40
0.9374498602393778
 40
0.9687029719414597
 40
1.0
 40
1.0
 40
1.0
 40
1.0
 10
-0.0139130646846614
 20
0.7151985995020003
 30
0.0
 10
-0.0139123269701387
 20
0.7151546703509968
 30
0.0
 10
-0.0139108577064557
 20
0.7150671791817101
 30
0.0
 10
-0.0139194295140113
 20
0.7149364729361494
 30
0.0
 10
-0.013935957504008
 20
0.7148071388617004
 30
0.0
 10
-0.0139611881416295
 20
0.7146791607435541
 30
0.0
 10
-0.0139949369520132
 20
0.7145525406531219
 30
0.0
 10
-0.0140647126702995
 20
0.7143457425685376
 30
0.0
 10
-0.0141992883266126
 20
0.7140691109516154
 30
0.0
 10
-0.014439554537623
 20
0.7137562623237984
 30
0.0
 10
-0.0147349693345511
 20
0.7134944203478988
 30
0.0
 10
-0.0150767305099665
 20
0.7132972706476096
 30
0.0
 10
-0.015449844222293
 20
0.7131684353528629
 30
0.0
 10
-0.0158410402004185
 20
0.7131170817114074
 30
0.0
 10
-0.0162350530046216
 20
0.7131408464451395
 30
0.0
 10
-0.0166161226200923
 20
0.7132431142806551
 30
0.0
 10
-0.0169710439304052
 20
0.7134158556266202
 30
0.0
 10
-0.0172839777448258
 20
0.7136561886826736
 30
0.0
 10
-0.0175457376444786
 20
0.7139515555110786
 30
0.0
 10
-0.0177101642187175
 20
0.7142366048559365
 30
0.0
 10
-0.0178072552804245
 20
0.7144799578226549
 30
0.0
 10
-0.0178613070868309
 20
0.7146688759733346
 30
0.0
 10
-0.0178981485996009
 20
0.7148622407333417
 30
0.0
 10
-0.0179064040513611
 20
0.7149929411049377
 30
0.0
 10
-0.0179105346753111
 20
0.7150583371730004
 30
0.0
  0
SPLINE
  5
7B
330
1F
100
AcDbEntity
  8
0
  6
Continuous
 62
     7
370
    25
100
AcDbSpline
210
0.0
220
0.0
230
1.0
 70
     8
 71
     3
 72
    29
 73
    25
 74
     0
 42
0.00000001
 43
0.00000001
 40
0.0
 40
0.0
 40
0.0
 40
0.0
 40
0.0209946060733074
 40
0.0418137521483562
 40
0.0625470941285516
 40
0.0832854007926078
 40
0.1041193760294255
 40
0.125138485246866
 40
0.1875741483989979
 40
0.2500987268235445
 40
0.3125343899703832
 40
0.3750589684000979
 40
0.4374946315452733
 40
0.5000192099768995
 40
0.5624548731290152
 40
0.6249794515537933
 40
0.6874151147077312
 40
0.7499396931304093
 40
0.8123753562831503
 40
0.8748999347071772
 40
0.906130920255383
 40
0.9374498602288007
 40
0.9687029719367296
 40
1.0
 40
1.0
 40
1.0
 40
1.0
 10
-0.0196638187140058
 20
0.765027587423
 30
0.0
 10
-0.0196645564397367
 20
0.7650715165790507
 30
0.0
 10
-0.0196660257257409
 20
0.7651590077582985
 30
0.0
 10
-0.0196574539490286
 20
0.7652897140213127
 30
0.0
 10
-0.0196409259876638
 20
0.7654190481147161
 30
0.0
 10
-0.0196156953762994
 20
0.765547026253507
 30
0.0
 10
-0.0195819465898376
 20
0.7656736463662268
 30
0.0
 10
-0.0195121709073303
 20
0.7658804444899322
 30
0.0
 10
-0.0193775952899775
 20
0.7661570761664853
 30
0.0
 10
-0.0191373291048367
 20
0.7664699248730392
 30
0.0
 10
-0.0188419143128877
 20
0.7667317669249859
 30
0.0
 10
-0.0185001531221856
 20
0.7669289166922404
 30
0.0
 10
-0.0181270393794188
 20
0.7670577520419927
 30
0.0
 10
-0.0177358433591623
 20
0.7671091057214433
 30
0.0
 10
-0.0173418305068644
 20
0.7670853410087547
 30
0.0
 10
-0.0169607608426338
 20
0.7669830731746654
 30
0.0
 10
-0.0166058394878088
 20
0.7668103318133881
 30
0.0
 10
-0.0162929056388433
 20
0.7665699987255983
 30
0.0
 10
-0.0160311457175314
 20
0.7662746318539932
 30
0.0
 10
-0.0158667191398809
 20
0.7659895824660248
 30
0.0
 10
-0.0157696280844494
 20
0.7657462294637215
 30
0.0
 10
-0.0157155762876723
 20
0.7655573112862806
 30
0.0
 10
-0.0156787347889487
 20
0.7653639465000244
 30
0.0
 10
-0.0156704793505734
 20
0.7652332461121875
 30
0.0
 10
-0.0156663487333206
 20
0.7651678500360002
 30
0.0
  0
SPLINE
  5
7C
330
1F
100
AcDbEntity
  8
0
  6
Continuous
 62
     7
370
    25
100
AcDbSpline
210
0.0
220
0.0
230
1.0
 70
     8
 71
     3
 72
    29
 73
    25
 74
     0
 42
0.00000001
 43
0.00000001
 40
0.0
 40
0.0
 40
0.0
 40
0.0
 40
0.0209946060715926
 40
0.0418137521456207
 40
0.0625470941254858
 40
0.0832854007898707
 40
0.1041193760276716
 40
0.1251384852467203
 40
0.1875741483959182
 40
0.2500987268235127
 40
0.3125343899703548
 40
0.3750589684000719
 40
0.4374946315451848
 40
0.5000192099768852
 40
0.5624548731288094
 40
0.6249794515537789
 40
0.6874151147074419
 40
0.7499396931304019
 40
0.8123753562825138
 40
0.8748999347071661
 40
0.9061309202551767
 40
0.9374498602288004
 40
0.9687029719369933
 40
1.0
 40
1.0
 40
1.0
 40
1.0
 10
-0.0156663487333305
 20
0.7651678500359999
 30
0.0
 10
-0.0156656110075997
 20
0.7651239208799528
 30
0.0
 10
-0.0156641417215958
 20
0.765036429700711
 30
0.0
 10
-0.0156727134983085
 20
0.7649057234377028
 30
0.0
 10
-0.0156892414596735
 20
0.764776389344302
 30
0.0
 10
-0.0157144720710379
 20
0.7646484112055087
 30
0.0
 10
-0.0157482208574998
 20
0.7645217910927826
 30
0.0
 10
-0.0158179965399995
 20
0.7643149929690756
 30
0.0
 10
-0.0159525721573509
 20
0.7640383612925175
 30
0.0
 10
-0.0161928383424959
 20
0.763725512585966
 30
0.0
 10
-0.0164882531344483
 20
0.7634636705340138
 30
0.0
 10
-0.0168300143251506
 20
0.7632665207667597
 30
0.0
 10
-0.0172031280679174
 20
0.7631376854170079
 30
0.0
 10
-0.0175943240881734
 20
0.7630863317375568
 30
0.0
 10
-0.0179883369404715
 20
0.7631100964502453
 30
0.0
 10
-0.0183694066047016
 20
0.7632123642843345
 30
0.0
 10
-0.0187243279595269
 20
0.7633851056456118
 30
0.0
 10
-0.0190372618084917
 20
0.7636254387334005
 30
0.0
 10
-0.0192990217298037
 20
0.7639208056050061
 30
0.0
 10
-0.0194634483074544
 20
0.7642058549929733
 30
0.0
 10
-0.0195605393628874
 20
0.764449207995278
 30
0.0
 10
-0.019614591159664
 20
0.7646381261727193
 30
0.0
 10
-0.0196514326583874
 20
0.7648314909589762
 30
0.0
 10
-0.0196596880967628
 20
0.7649621913468129
 30
0.0
 10
-0.0196638187140156
 20
0.7650275874229998
 30
0.0
  0
SPLINE
  5
7E
330
1F
100
AcDbEntity
  8
0
  6
Continuous
 62
     7
370
    25
100
AcDbSpline
210
0.0
220
0.0
230
1.0
 70
     8
 71
     3
 72
    12
 73
     8
 74
     0
 42
0.00000001
 43
0.00000001
 40
0.0
 40
0.0
 40
0.0
 40
0.0
 40
0.2499999999999887
 40
0.2499999999999887
 40
0.4999999999999775
 40
0.4999999999999775
 40
1.0
 40
1.0
 40
1.0
 40
1.0
 10
-0.0203543554171071
 20
0.6976130785212762
 30
0.0
 10
-0.0203559044119794
 20
0.6976130501370881
 30
0.0
 10
-0.0203992337364482
 20
0.6976445719333887
 30
0.0
 10
-0.0205617780095979
 20
0.6977650969658651
 30
0.0
 10
-0.0206816490271925
 20
0.6978545968718983
 30
0.0
 10
-0.0211278323098947
 20
0.6981889702915809
 30
0.0
 10
-0.0215444030540529
 20
0.6985025383865572
 30
0.0
 10
-0.0219622511944373
 20
0.6988180580619097
 30
0.0
  0
SPLINE
  5
7F
330
1F
100
AcDbEntity
  8
0
  6
Continuous
 62
     7
370
    25
100
AcDbSpline
210
0.0
220
0.0
230
1.0
 70
     8
 71
     3
 72
    29
 73
    25
 74
     0
 42
0.00000001
 43
0.00000001
 40
0.0
 40
0.0
 40
0.0
 40
0.0
 40
0.034882855146267
 40
0.0703615078256598
 40
0.1064363297432794
 40
0.1431076744087402
 40
0.180375878289682
 40
0.2182412618759386
 40
0.2567041306625472
 40
0.2957647760588123
 40
0.3354234762299134
 40
0.3756804968770326
 40
0.4165360919611466
 40
0.457990504375376
 40
0.5000439665700889
 40
0.5391898561589634
 40
0.5824368018798175
 40
0.6297849224979309
 40
0.6812342869237415
 40
0.7367849271468053
 40
0.7964368467241559
 40
0.8601900265384029
 40
0.9280444288159421
 40
1.0
 40
1.0
 40
1.0
 40
1.0
 10
-0.0295093970696463
 20
0.6893686864194333
 30
0.0
 10
-0.0294326562025791
 20
0.6894652373128972
 30
0.0
 10
-0.0292778637380273
 20
0.6896599881845661
 30
0.0
 10
-0.0290392888692998
 20
0.6899600258102362
 30
0.0
 10
-0.0287934861998108
 20
0.6902690151535913
 30
0.0
 10
-0.0285400718236263
 20
0.6905874009270652
 30
0.0
 10
-0.0282790939999788
 20
0.6909150991842472
 30
0.0
 10
-0.0280105013639949
 20
0.6912521574296124
 30
0.0
 10
-0.0277342900883648
 20
0.6915985724886997
 30
0.0
 10
-0.0274504647441299
 20
0.691954339769347
 30
0.0
 10
-0.0271590497974084
 20
0.6923194385795269
 30
0.0
 10
-0.0268600891942048
 20
0.692693836575171
 30
0.0
 10
-0.0265536416830878
 20
0.693077482890314
 30
0.0
 10
-0.0262398060620103
 20
0.6934703275163817
 30
0.0
 10
-0.0259275562104623
 20
0.693861073219423
 30
0.0
 10
-0.025608492838913
 20
0.6942607290329997
 30
0.0
 10
-0.0252736185899063
 20
0.6946804867512052
 30
0.0
 10
-0.0249043005088421
 20
0.6951432290409073
 30
0.0
 10
-0.0245000547857582
 20
0.6956493141422952
 30
0.0
 10
-0.0240605315621577
 20
0.6961989669801055
 30
0.0
 10
-0.0235855932235116
 20
0.6967922653999131
 30
0.0
 10
-0.0230753685560956
 20
0.6974291049992949
 30
0.0
 10
-0.0225302835012659
 20
0.6981091088621457
 30
0.0
 10
-0.0221552622403649
 20
0.6985771650247555
 30
0.0
 10
-0.0219622511956864
 20
0.6988180580575837
 30
0.0
  0
SPLINE
  5
81
330
1F
100
AcDbEntity
  8
0
  6
Continuous
 62
     7
370
    25
100
AcDbSpline
210
0.0
220
0.0
230
1.0
 70
     8
 71
     3
 72
     8
 73
     4
 74
     0
 42
0.00000001
 43
0.00000001
 40
0.0
 40
0.0
 40
0.0
 40
0.0
 40
1.0
 40
1.0
 40
1.0
 40
1.0
 10
-0.03317274939678
 20
0.694473966142
 30
0.0
 10
-0.03099845432048
 20
0.697206024271
 30
0.0
 10
-0.02831927340003
 20
0.7005604812590001
 30
0.0
 10
-0.02562560351507
 20
0.7039233377949999
 30
0.0
  0
SPLINE
  5
83
330
1F
100
AcDbEntity
  8
0
  6
Continuous
 62
     7
370
    25
100
AcDbSpline
210
0.0
220
0.0
230
1.0
 70
     8
 71
     3
 72
    11
 73
     7
 74
     0
 42
0.00000001
 43
0.00000001
 40
0.0
 40
0.0
 40
0.0
 40
0.0
 40
0.2526640034899311
 40
0.5053280069800199
 40
0.7579920104700899
 40
1.0
 40
1.0
 40
1.0
 40
1.0
 10
-0.0178365756077492
 20
0.7150596921369989
 30
0.0
 10
-0.0177973512257774
 20
0.714798801193757
 30
0.0
 10
-0.0177189024618336
 20
0.7142770193072729
 30
0.0
 10
-0.0172333711214507
 20
0.7136330373605517
 30
0.0
 10
-0.0165665362824017
 20
0.7131983656760036
 30
0.0
 10
-0.0160519456809554
 20
0.7131567152134373
 30
0.0
 10
-0.0158001929263134
 20
0.7131363385904409
 30
0.0
  0
SPLINE
  5
84
330
1F
100
AcDbEntity
  8
0
  6
Continuous
 62
     7
370
    25
100
AcDbSpline
210
0.0
220
0.0
230
1.0
 70
     8
 71
     3
 72
    12
 73
     8
 74
     0
 42
0.00000001
 43
0.00000001
 40
0.0
 40
0.0
 40
0.0
 40
0.0
 40
0.01043365073196
 40
0.257825238048937
 40
0.5052168253659006
 40
0.7526084126829011
 40
1.0
 40
1.0
 40
1.0
 40
1.0
 10
-0.0158754883285837
 20
0.7171233088626329
 30
0.0
 10
-0.0158863122345304
 20
0.7171251498046111
 30
0.0
 10
-0.0161537810428147
 20
0.7171706411974079
 30
0.0
 10
-0.0166923543923227
 20
0.7169750560323095
 30
0.0
 10
-0.0173345031855047
 20
0.7165350504767076
 30
0.0
 10
-0.0177741340609529
 20
0.7158462045220371
 30
0.0
 10
-0.0178157617588168
 20
0.7153218629320118
 30
0.0
 10
-0.0178365756077487
 20
0.7150596921369989
 30
0.0
  0
SPLINE
  5
86
330
1F
100
AcDbEntity
  8
0
  6
Continuous
 62
     7
370
    25
100
AcDbSpline
210
0.0
220
0.0
230
1.0
 70
     8
 71
     3
 72
    11
 73
     7
 74
     0
 42
0.00000001
 43
0.00000001
 40
0.0
 40
0.0
 40
0.0
 40
0.0
 40
0.2526640034909048
 40
0.5053280069818323
 40
0.7579920104727808
 40
0.9999999999999999
 40
0.9999999999999999
 40
0.9999999999999999
 40
0.9999999999999999
 10
-0.0195898596464141
 20
0.765028942386
 30
0.0
 10
-0.0195506352643344
 20
0.7647680514428603
 30
0.0
 10
-0.0194721865001748
 20
0.7642462695565808
 30
0.0
 10
-0.018986655159755
 20
0.7636022876102257
 30
0.0
 10
-0.0183198203208502
 20
0.7631676159259523
 30
0.0
 10
-0.017805229719572
 20
0.7631259654634192
 30
0.0
 10
-0.0175534769650141
 20
0.763105588840439
 30
0.0
  0
SPLINE
  5
87
330
1F
100
AcDbEntity
  8
0
  6
Continuous
 62
     7
370
    25
100
AcDbSpline
210
0.0
220
0.0
230
1.0
 70
     8
 71
     3
 72
    12
 73
     8
 74
     0
 42
0.00000001
 43
0.00000001
 40
0.0
 40
0.0
 40
0.0
 40
0.0
 40
0.0104336507286696
 40
0.2578252380464902
 40
0.5052168253643259
 40
0.7526084126821464
 40
0.9999999999999999
 40
0.9999999999999999
 40
0.9999999999999999
 40
0.9999999999999999
 10
-0.0176287723672844
 20
0.7670925591126309
 30
0.0
 10
-0.0176395962732309
 20
0.7670944000546096
 30
0.0
 10
-0.017907065081593
 20
0.767139891447436
 30
0.0
 10
-0.0184456384312732
 20
0.7669443062822195
 30
0.0
 10
-0.019087787224576
 20
0.7665043007263603
 30
0.0
 10
-0.0195274180999626
 20
0.76581545477132
 30
0.0
 10
-0.0195690457975966
 20
0.7652911131811067
 30
0.0
 10
-0.0195898596464137
 20
0.7650289423860002
 30
0.0
  0
SPLINE
  5
88
330
1F
100
AcDbEntity
  8
0
  6
Continuous
 62
     7
370
    25
100
AcDbSpline
210
0.0
220
0.0
230
1.0
 70
     8
 71
     3
 72
    10
 73
     6
 74
     0
 42
0.00000001
 43
0.00000001
 40
0.0
 40
0.0
 40
0.0
 40
0.0
 40
0.5
 40
0.5
 40
1.0
 40
1.0
 40
1.0
 40
1.0
 10
-0.0256256035907309
 20
0.7039233377005428
 30
0.0
 10
-0.0260434517310777
 20
0.7042388573750828
 30
0.0
 10
-0.0264596348877607
 20
0.7045541030772915
 30
0.0
 10
-0.027040658860913
 20
0.7049962373125233
 30
0.0
 10
-0.027212930454495
 20
0.7051286941577375
 30
0.0
 10
-0.0272098324630924
 20
0.7051287509283372
 30
0.0
  0
SPLINE
  5
8A
330
1F
100
AcDbEntity
  8
0
  6
Continuous
 62
     7
370
    25
100
AcDbSpline
210
0.0
220
0.0
230
1.0
 70
     8
 71
     3
 72
    14
 73
    10
 74
     0
 42
0.00000001
 43
0.00000001
 40
0.0
 40
0.0
 40
0.0
 40
0.0
 40
0.25
 40
0.25
 40
0.5
 40
0.5
 40
0.75
 40
0.75
 40
1.0
 40
1.0
 40
1.0
 40
1.0
 10
-0.0254513533064638
 20
0.7041541085139904
 30
0.0
 10
-0.0256602773766419
 20
0.704311868351198
 30
0.0
 10
-0.0258688112511155
 20
0.7044695717603953
 30
0.0
 10
-0.0262536670463514
 20
0.7047610956540279
 30
0.0
 10
-0.0264298375427925
 20
0.7048948014362597
 30
0.0
 10
-0.026723110186811
 20
0.7051179476789762
 30
0.0
 10
-0.0268400969441265
 20
0.7052073003409435
 30
0.0
 10
-0.0269971383353999
 20
0.7053280969401169
 30
0.0
 10
-0.0270371311802763
 20
0.7053594933490192
 30
0.0
 10
-0.0270355821854219
 20
0.7053595217332344
 30
0.0
  0
SPLINE
  5
8C
330
1F
100
AcDbEntity
  8
0
  6
Continuous
 62
     7
370
    25
100
AcDbSpline
210
0.0
220
0.0
230
1.0
 70
     8
 71
     3
 72
    16
 73
    12
 74
     0
 42
0.00000001
 43
0.00000001
 40
0.0
 40
0.0
 40
0.0
 40
0.0
 40
0.1249999999999922
 40
0.1249999999999922
 40
0.2499999999999845
 40
0.2499999999999845
 40
0.4999999999999897
 40
0.4999999999999897
 40
0.7499999999999949
 40
0.7499999999999949
 40
1.0
 40
1.0
 40
1.0
 40
1.0
 10
-0.0269564624126132
 20
0.688843405825826
 30
0.0
 10
-0.0270073618091568
 20
0.6887774682800806
 30
0.0
 10
-0.027069721920081
 20
0.6887220928303944
 30
0.0
 10
-0.0272180113659501
 20
0.6886321258301268
 30
0.0
 10
-0.0273033588261495
 20
0.6885978414545869
 30
0.0
 10
-0.0275866499015807
 20
0.6885304086541593
 30
0.0
 10
-0.0278132929222844
 20
0.6885333194513282
 30
0.0
 10
-0.0282977438053438
 20
0.6886327059466361
 30
0.0
 10
-0.0285555996554843
 20
0.688730733272325
 30
0.0
 10
-0.029055775882631
 20
0.6890013556220831
 30
0.0
 10
-0.0292969546997414
 20
0.6891726508276692
 30
0.0
 10
-0.0295093964998436
 20
0.6893686867368091
 30
0.0
  0
SPLINE
  5
8D
330
1F
100
AcDbEntity
  8
0
  6
Continuous
 62
     7
370
    25
100
AcDbSpline
210
0.0
220
0.0
230
1.0
 70
     8
 71
     3
 72
    11
 73
     7
 74
     0
 42
0.00000001
 43
0.00000001
 40
0.0
 40
0.0
 40
0.0
 40
0.0
 40
0.25
 40
0.5
 40
0.75
 40
1.0
 40
1.0
 40
1.0
 40
1.0
 10
-0.02355879376557
 20
0.733786242886
 30
0.0
 10
-0.0235603427604
 20
0.7337862145016668
 30
0.0
 10
-0.0234578635666969
 20
0.7337898623723385
 30
0.0
 10
-0.02301869848324
 20
0.7338053375810186
 30
0.0
 10
-0.0223578146159394
 20
0.7338285705488387
 30
0.0
 10
-0.0218335260224633
 20
0.7338469771856667
 30
0.0
 10
-0.02157189222404
 20
0.7338561573519999
 30
0.0
  0
SPLINE
  5
8E
330
1F
100
AcDbEntity
  8
0
  6
Continuous
 62
     7
370
    25
100
AcDbSpline
210
0.0
220
0.0
230
1.0
 70
     8
 71
     3
 72
    17
 73
    13
 74
     0
 42
0.00000001
 43
0.00000001
 40
0.0
 40
0.0
 40
0.0
 40
0.0
 40
0.0850466772819052
 40
0.1867081575839152
 40
0.2883696378859285
 40
0.390031118187939
 40
0.4916925984899466
 40
0.5933540787919583
 40
0.6950155590939722
 40
0.7966770393959813
 40
0.8983385196979874
 40
1.0
 40
1.0
 40
1.0
 40
1.0
 10
-0.0286564117894981
 20
0.7386013563566086
 30
0.0
 10
-0.0284357001727258
 20
0.7386008023713162
 30
0.0
 10
-0.0279511584993535
 20
0.7385995861736164
 30
0.0
 10
-0.0272146724342547
 20
0.7384472456021414
 30
0.0
 10
-0.0264693195576648
 20
0.7381783877721213
 30
0.0
 10
-0.0257760407879716
 20
0.7377920149072146
 30
0.0
 10
-0.0251521171044218
 20
0.7373021927804817
 30
0.0
 10
-0.024613335345683
 20
0.7367199588212444
 30
0.0
 10
-0.0241723334995692
 20
0.7360601947329573
 30
0.0
 10
-0.0238431639034854
 20
0.7353391802924409
 30
0.0
 10
-0.0236226881256403
 20
0.7345753374062884
 30
0.0
 10
-0.0235800918856127
 20
0.7340492743927621
 30
0.0
 10
-0.023558793765599
 20
0.733786242885999
 30
0.0
  0
SPLINE
  5
8F
330
1F
100
AcDbEntity
  8
0
  6
Continuous
 62
     7
370
    25
100
AcDbSpline
210
0.0
220
0.0
230
1.0
 70
     8
 71
     3
 72
    14
 73
    10
 74
     0
 42
0.00000001
 43
0.00000001
 40
0.0
 40
0.0
 40
0.0
 40
0.0
 40
0.25
 40
0.25
 40
0.5
 40
0.5
 40
0.75
 40
0.75
 40
1.0
 40
1.0
 40
1.0
 40
1.0
 10
-0.032749365116057
 20
0.7363334125598607
 30
0.0
 10
-0.0327509141108191
 20
0.7363333841755826
 30
0.0
 10
-0.0327961231631435
 20
0.7363616995361546
 30
0.0
 10
-0.0329670471847484
 20
0.736470749874344
 30
0.0
 10
-0.0330926949027254
 20
0.7365514419453103
 30
0.0
 10
-0.0334054233235408
 20
0.7367529974647932
 30
0.0
 10
-0.0335923809810997
 20
0.7368737816098196
 30
0.0
 10
-0.0339993037339265
 20
0.7371371573098463
 30
0.0
 10
-0.0342191087224675
 20
0.7372796452377559
 30
0.0
 10
-0.0344386921146967
 20
0.737422194896622
 30
0.0
  0
SPLINE
  5
90
330
1F
100
AcDbEntity
  8
0
  6
Continuous
 62
     7
370
    25
100
AcDbSpline
210
0.0
220
0.0
230
1.0
 70
     8
 71
     3
 72
    10
 73
     6
 74
     0
 42
0.00000001
 43
0.00000001
 40
0.0
 40
0.0
 40
0.0
 40
0.0
 40
0.5
 40
0.5
 40
1.0
 40
1.0
 40
1.0
 40
1.0
 10
-0.0454255609720792
 20
0.7315167308627833
 30
0.0
 10
-0.0458647277562166
 20
0.7318018301800624
 30
0.0
 10
-0.0463022080812879
 20
0.7320866832896336
 30
0.0
 10
-0.0469131004703513
 20
0.7324861977598496
 30
0.0
 10
-0.0470943190567458
 20
0.7326058901160458
 30
0.0
 10
-0.0470912210655234
 20
0.7326059468867767
 30
0.0
  0
SPLINE
  5
92
330
1F
100
AcDbEntity
  8
0
  6
Continuous
 62
     7
370
    25
100
AcDbSpline
210
0.0
220
0.0
230
1.0
 70
     8
 71
     3
 72
    11
 73
     7
 74
     0
 42
0.00000001
 43
0.00000001
 40
0.0
 40
0.0
 40
0.0
 40
0.0
 40
0.25
 40
0.5
 40
0.75
 40
1.0
 40
1.0
 40
1.0
 40
1.0
 10
-0.0210219540207331
 20
0.718182713063802
 30
0.0
 10
-0.0212835878191565
 20
0.7181735328971377
 30
0.0
 10
-0.0218078764126303
 20
0.7181551262601296
 30
0.0
 10
-0.0224687602799266
 20
0.7181318932923113
 30
0.0
 10
-0.0229079253633831
 20
0.7181164180833894
 30
0.0
 10
-0.0230104045570904
 20
0.7181127702124869
 30
0.0
 10
-0.0230088555622637
 20
0.7181127985968202
 30
0.0
  0
SPLINE
  5
94
330
1F
100
AcDbEntity
  8
0
  6
Continuous
 62
     7
370
    25
100
AcDbSpline
210
0.0
220
0.0
230
1.0
 70
     8
 71
     3
 72
     9
 73
     5
 74
     0
 42
0.00000001
 43
0.00000001
 40
0.0
 40
0.0
 40
0.0
 40
0.0
 40
0.5
 40
1.0
 40
1.0
 40
1.0
 40
1.0
 10
-0.02300885556227
 20
0.7181127985970001
 30
0.0
 10
-0.0229291599585567
 20
0.7158414441116667
 30
0.0
 10
-0.0235516904969333
 20
0.7112718376314169
 30
0.0
 10
-0.0256660509418367
 20
0.7071732796890002
 30
0.0
 10
-0.02703558218565
 20
0.705359521733
 30
0.0
  0
SPLINE
  5
95
330
1F
100
AcDbEntity
  8
0
  6
Continuous
 62
     7
370
    25
100
AcDbSpline
210
0.0
220
0.0
230
1.0
 70
     8
 71
     3
 72
    27
 73
    23
 74
     0
 42
0.00000001
 43
0.00000001
 40
0.0
 40
0.0
 40
0.0
 40
0.0
 40
0.0386854057540617
 40
0.0772584620855445
 40
0.1157394606746752
 40
0.1541488391043188
 40
0.1925071494366964
 40
0.2308350258849105
 40
0.2691531518277617
 40
0.3074822264289697
 40
0.3458429311288044
 40
0.3842558962788735
 40
0.422741668188003
 40
0.4613206768395127
 40
0.5000132045276089
 40
0.5717637556741214
 40
0.6431866896365392
 40
0.7144131557623966
 40
0.7855753896562427
 40
0.8568059846541627
 40
0.9282371534095347
 40
1.0
 40
1.0
 40
1.0
 40
1.0
 10
-0.0338119388829982
 20
0.6963590782194865
 30
0.0
 10
-0.0337371496163823
 20
0.6964587747475932
 30
0.0
 10
-0.0335877882847219
 20
0.6966578782670383
 30
0.0
 10
-0.0333596629070214
 20
0.6969618546629031
 30
0.0
 10
-0.0331290153325721
 20
0.6972691036395247
 30
0.0
 10
-0.0328955264709721
 20
0.697580041861719
 30
0.0
 10
-0.0326592817538788
 20
0.6978945577671775
 30
0.0
 10
-0.0324202585818271
 20
0.6982126808611389
 30
0.0
 10
-0.0321784632534666
 20
0.6985344029134671
 30
0.0
 10
-0.031933894339972
 20
0.698859725784859
 30
0.0
 10
-0.0316865525322369
 20
0.6991886485673952
 30
0.0
 10
-0.0314364378143532
 20
0.6995211712791704
 30
0.0
 10
-0.0311835509155545
 20
0.6998572929545851
 30
0.0
 10
-0.0309278903064078
 20
0.7001970156184594
 30
0.0
 10
-0.0305961747517483
 20
0.7006376916312013
 30
0.0
 10
-0.0301871256249663
 20
0.7011809168144248
 30
0.0
 10
-0.0296992805960856
 20
0.7018284975478745
 30
0.0
 10
-0.0292080075327647
 20
0.7024803433963683
 30
0.0
 10
-0.0287133170792234
 20
0.7031364419733886
 30
0.0
 10
-0.0282152092311356
 20
0.703796786709922
 30
0.0
 10
-0.0277137041235856
 20
0.7044613755507638
 30
0.0
 10
-0.0273780488060063
 20
0.7049059492629927
 30
0.0
 10
-0.027209832410897
 20
0.7051287509983288
 30
0.0
  0
SPLINE
  5
96
330
1F
100
AcDbEntity
  8
0
  6
Continuous
 62
     7
370
    25
100
AcDbSpline
210
0.0
220
0.0
230
1.0
 70
     8
 71
     3
 72
    12
 73
     8
 74
     0
 42
0.00000001
 43
0.00000001
 40
0.0
 40
0.0
 40
0.0
 40
0.0
 40
0.4999999999999364
 40
0.4999999999999364
 40
0.7499999999999682
 40
0.7499999999999682
 40
1.0
 40
1.0
 40
1.0
 40
1.0
 10
-0.0331727494594824
 20
0.694473966058937
 30
0.0
 10
-0.033511741678358
 20
0.6947878509490565
 30
0.0
 10
-0.0337682834654121
 20
0.6951564159125547
 30
0.0
 10
-0.0339389225303034
 20
0.6956667883273339
 30
0.0
 10
-0.0339616053380167
 20
0.695829899484979
 30
0.0
 10
-0.0339383179160475
 20
0.696123504930113
 30
0.0
 10
-0.0338923316418824
 20
0.6962532172923895
 30
0.0
 10
-0.0338119371786237
 20
0.6963590767923166
 30
0.0
  0
SPLINE
  5
98
330
1F
100
AcDbEntity
  8
0
  6
Continuous
 62
     7
370
    25
100
AcDbSpline
210
0.0
220
0.0
230
1.0
 70
     8
 71
     3
 72
     8
 73
     4
 74
     0
 42
0.00000001
 43
0.00000001
 40
0.0
 40
0.0
 40
0.0
 40
0.0
 40
1.0
 40
1.0
 40
1.0
 40
1.0
 10
-0.05248499929665
 20
0.7213876859139999
 30
0.0
 10
-0.05045172055563
 20
0.724316265637
 30
0.0
 10
-0.04794567218186
 20
0.72791200165
 30
0.0
 10
-0.04542556089922
 20
0.731516730967
 30
0.0
  0
SPLINE
  5
99
330
1F
100
AcDbEntity
  8
0
  6
Continuous
 62
     7
370
    25
100
AcDbSpline
210
0.0
220
0.0
230
1.0
 70
     8
 71
     3
 72
    29
 73
    25
 74
     0
 42
0.00000001
 43
0.00000001
 40
0.0
 40
0.0
 40
0.0
 40
0.0
 40
0.0349178750265383
 40
0.0704253636586658
 40
0.1065230093108287
 40
0.1432113291150753
 40
0.1804908155636357
 40
0.218361938026658
 40
0.2568251441562686
 40
0.295880861186757
 40
0.3355294971400004
 40
0.375771441944131
 40
0.4166070684727379
 40
0.4580367335112513
 40
0.5000607786564413
 40
0.5390419875013491
 40
0.5821648080044064
 40
0.6294294458187032
 40
0.6808360358932384
 40
0.736384661794244
 40
0.7960753683241332
 40
0.8599081700467947
 40
0.9278830572157438
 40
1.0
 40
1.0
 40
1.0
 40
1.0
 10
-0.0487293527378306
 20
0.7161537841193224
 30
0.0
 10
-0.0486572586694186
 20
0.7162578452275343
 30
0.0
 10
-0.0485118531720425
 20
0.716467724591126
 30
0.0
 10
-0.0482878287652446
 20
0.716790872077895
 30
0.0
 10
-0.0480571062939781
 20
0.7171234726103345
 30
0.0
 10
-0.0478193341986407
 20
0.7174659848253511
 30
0.0
 10
-0.0475745617672612
 20
0.7178183139141256
 30
0.0
 10
-0.0473227470750505
 20
0.7181805034503173
 30
0.0
 10
-0.0470638931309223
 20
0.7185525446374385
 30
0.0
 10
-0.0467980117430256
 20
0.7189344279847881
 30
0.0
 10
-0.0465251339924613
 20
0.7193261279548357
 30
0.0
 10
-0.0462453105323049
 20
0.7197276078624415
 30
0.0
 10
-0.0459586047374669
 20
0.7201388120921536
 30
0.0
 10
-0.0456651257488569
 20
0.7205596889762002
 30
0.0
 10
-0.0453735680910793
 20
0.7209776829866341
 30
0.0
 10
-0.0450760597540889
 20
0.7214047645448356
 30
0.0
 10
-0.0447640757885467
 20
0.7218530695499634
 30
0.0
 10
-0.0444197114213724
 20
0.7223476868109178
 30
0.0
 10
-0.0440424837098794
 20
0.7228889810337182
 30
0.0
 10
-0.0436320356223369
 20
0.7234771808045429
 30
0.0
 10
-0.0431882235069923
 20
0.7241123684487321
 30
0.0
 10
-0.0427111730736072
 20
0.7247944445933905
 30
0.0
 10
-0.0422012942977775
 20
0.7255230319991832
 30
0.0
 10
-0.0418504982895524
 20
0.7260246200077352
 30
0.0
 10
-0.0416699143421334
 20
0.7262828291675848
 30
0.0
  0
SPLINE
  5
9B
330
1F
100
AcDbEntity
  8
0
  6
Continuous
 62
     7
370
    25
100
AcDbSpline
210
0.0
220
0.0
230
1.0
 70
     8
 71
     3
 72
    12
 73
     8
 74
     0
 42
0.00000001
 43
0.00000001
 40
0.0
 40
0.0
 40
0.0
 40
0.0
 40
0.2499999999999888
 40
0.2499999999999888
 40
0.4999999999999776
 40
0.4999999999999776
 40
1.0
 40
1.0
 40
1.0
 40
1.0
 10
-0.0399805873383467
 20
0.725194046837213
 30
0.0
 10
-0.0399821363332192
 20
0.725194018453015
 30
0.0
 10
-0.0400275975285439
 20
0.7252224984747748
 30
0.0
 10
-0.0401982890349506
 20
0.7253313983452823
 30
0.0
 10
-0.0403242089564925
 20
0.7254122669713946
 30
0.0
 10
-0.040792988815995
 20
0.7257143964560762
 30
0.0
 10
-0.0412307475530977
 20
0.725997729855939
 30
0.0
 10
-0.0416699143375068
 20
0.7262828291727966
 30
0.0
  0
SPLINE
  5
9C
330
1F
100
AcDbEntity
  8
0
  6
Continuous
 62
     7
370
    25
100
AcDbSpline
210
0.0
220
0.0
230
1.0
 70
     8
 71
     3
 72
    27
 73
    23
 74
     0
 42
0.00000001
 43
0.00000001
 40
0.0
 40
0.0
 40
0.0
 40
0.0
 40
0.0386748378454389
 40
0.0772421586959792
 40
0.1157214328239075
 40
0.1541322643931771
 40
0.1924943624963859
 40
0.230827511395545
 40
0.269151540186581
 40
0.3074862921178705
 40
0.3458515937992081
 40
0.3842672245394484
 40
0.4227528860492827
 40
0.4613281727382427
 40
0.50001254282523
 40
0.571747568283401
 40
0.6431691755530655
 40
0.7144031748154663
 40
0.7855763711416666
 40
0.8568158942878906
 40
0.9282485198825777
 40
1.0
 40
1.0
 40
1.0
 40
1.0
 10
-0.0399805873436629
 20
0.7251940468291772
 30
0.0
 10
-0.0400643388201762
 20
0.7250650263458168
 30
0.0
 10
-0.0402316089420504
 20
0.7248073440591944
 30
0.0
 10
-0.0404820237505366
 20
0.7244214584457074
 30
0.0
 10
-0.040731572335171
 20
0.724036821016973
 30
0.0
 10
-0.0409802503936737
 20
0.7236534300282008
 30
0.0
 10
-0.0412280588263976
 20
0.7232712863280565
 30
0.0
 10
-0.0414749971410038
 20
0.7228903900771498
 30
0.0
 10
-0.0417210652146669
 20
0.7225107416247823
 30
0.0
 10
-0.0419662628349503
 20
0.722132341255802
 30
0.0
 10
-0.0422105897899512
 20
0.721755189309188
 30
0.0
 10
-0.0424540459786462
 20
0.7213792859374104
 30
0.0
 10
-0.0426966308901637
 20
0.721004631933884
 30
0.0
 10
-0.04293834559301
 20
0.7206312256379671
 30
0.0
 10
-0.0432474960178368
 20
0.720153519165957
 30
0.0
 10
-0.0436211143211516
 20
0.7195759794810973
 30
0.0
 10
-0.0440550594766657
 20
0.7189048477605597
 30
0.0
 10
-0.0444805194562394
 20
0.7182464932181698
 30
0.0
 10
-0.0448975551555439
 20
0.7176008237887948
 30
0.0
 10
-0.0453059032981993
 20
0.7169682386659131
 30
0.0
 10
-0.0457065353996141
 20
0.7163472652812215
 30
0.0
 10
-0.0459653105953887
 20
0.7159458535025955
 30
0.0
 10
-0.0460949863245638
 20
0.7157447006643687
 30
0.0
  0
SPLINE
  5
9D
330
1F
100
AcDbEntity
  8
0
  6
Continuous
 62
     7
370
    25
100
AcDbSpline
210
0.0
220
0.0
230
1.0
 70
     8
 71
     3
 72
    16
 73
    12
 74
     0
 42
0.00000001
 43
0.00000001
 40
0.0
 40
0.0
 40
0.0
 40
0.0
 40
0.1249999999999804
 40
0.1249999999999804
 40
0.2499999999999609
 40
0.2499999999999609
 40
0.4999999999999739
 40
0.4999999999999739
 40
0.7499999999999869
 40
0.7499999999999869
 40
1.0
 40
1.0
 40
1.0
 40
1.0
 10
-0.0460949878370995
 20
0.7157447012040489
 30
0.0
 10
-0.0461413974669109
 20
0.715674979804477
 30
0.0
 10
-0.0462005299105315
 20
0.7156154267231021
 30
0.0
 10
-0.046344905133357
 20
0.715516259504424
 30
0.0
 10
-0.0464295517702595
 20
0.7154770036312311
 30
0.0
 10
-0.0467143508706839
 20
0.7153941002206246
 30
0.0
 10
-0.0469469767066681
 20
0.715385927310052
 30
0.0
 10
-0.0474499415912125
 20
0.7154637201940129
 30
0.0
 10
-0.0477204035550866
 20
0.7155513354029954
 30
0.0
 10
-0.0482478598817493
 20
0.7158028342742927
 30
0.0
 10
-0.048503563095464
 20
0.7159653921351522
 30
0.0
 10
-0.048729351997302
 20
0.7161537844937287
 30
0.0
  0
SPLINE
  5
9E
330
1F
100
AcDbEntity
  8
0
  6
Continuous
 62
     7
370
    25
100
AcDbSpline
210
0.0
220
0.0
230
1.0
 70
     8
 71
     3
 72
    12
 73
     8
 74
     0
 42
0.00000001
 43
0.00000001
 40
0.0
 40
0.0
 40
0.0
 40
0.0
 40
0.5000000000000633
 40
0.5000000000000633
 40
0.7500000000000316
 40
0.7500000000000316
 40
1.0
 40
1.0
 40
1.0
 40
1.0
 10
-0.0524849993644936
 20
0.7213876858054284
 30
0.0
 10
-0.0528271135663203
 20
0.7216741377471962
 30
0.0
 10
-0.0530915320748137
 20
0.7220123010780017
 30
0.0
 10
-0.0532836065348166
 20
0.7224891941371034
 30
0.0
 10
-0.05331488309342
 20
0.7226430932423978
 30
0.0
 10
-0.0533106502373366
 20
0.7229240609040075
 30
0.0
 10
-0.0532750815312918
 20
0.7230504276793788
 30
0.0
 10
-0.0532056192836416
 20
0.7231566001529874
 30
0.0
  0
SPLINE
  5
9F
330
1F
100
AcDbEntity
  8
0
  6
Continuous
 62
     7
370
    25
100
AcDbSpline
210
0.0
220
0.0
230
1.0
 70
     8
 71
     3
 72
    27
 73
    23
 74
     0
 42
0.00000001
 43
0.00000001
 40
0.0
 40
0.0
 40
0.0
 40
0.0
 40
0.038676873998493
 40
0.077245605626047
 40
0.1157257413841207
 40
0.15413696302697
 40
0.1924990583786282
 40
0.2308318913417614
 40
0.2691553713210862
 40
0.3074894222942005
 40
0.3458539517690774
 40
0.3842688198696635
 40
0.4227538087884344
 40
0.4613285928384717
 40
0.5000127093266826
 40
0.5717509271836095
 40
0.6431738363180278
 40
0.7144077297961797
 40
0.78557990690064
 40
0.8568179977679546
 40
0.9282492792204865
 40
1.0
 40
1.0
 40
1.0
 40
1.0
 10
-0.0532056200733124
 20
0.7231566006800051
 30
0.0
 10
-0.0531360038341585
 20
0.7232645993636935
 30
0.0
 10
-0.0529969660061514
 20
0.7234802947616371
 30
0.0
 10
-0.0527847693355195
 20
0.7238093428437821
 30
0.0
 10
-0.0525703268818089
 20
0.7241417709266704
 30
0.0
 10
-0.0523533539660147
 20
0.7244780105517851
 30
0.0
 10
-0.0521339268109129
 20
0.7248179461665556
 30
0.0
 10
-0.0519120252446209
 20
0.7251616083437976
 30
0.0
 10
-0.0516876548818314
 20
0.7255089885661703
 30
0.0
 10
-0.0514608144404563
 20
0.7258600887715156
 30
0.0
 10
-0.0512315045294502
 20
0.7262149080302279
 30
0.0
 10
-0.0509997251269398
 20
0.7265734463725496
 30
0.0
 10
-0.0507654768743884
 20
0.7269357028106754
 30
0.0
 10
-0.0505287584029613
 20
0.7273016794521123
 30
0.0
 10
-0.0502217281890165
 20
0.7277762341295387
 30
0.0
 10
-0.0498432481632132
 20
0.7283610058068423
 30
0.0
 10
-0.0493920199875739
 20
0.7290578421963996
 30
0.0
 10
-0.0489377437532845
 20
0.7297590524493165
 30
0.0
 10
-0.0484804287831444
 20
0.7304646242087961
 30
0.0
 10
-0.0480200749393788
 20
0.731174549992721
 30
0.0
 10
-0.0475566997985149
 20
0.7318888315264375
 30
0.0
 10
-0.047246611216923
 20
0.7323665532122192
 30
0.0
 10
-0.0470912210220111
 20
0.7326059469541177
 30
0.0
  0
SPLINE
  5
A0
330
1F
100
AcDbEntity
  8
0
  6
Continuous
 62
     7
370
    25
100
AcDbSpline
210
0.0
220
0.0
230
1.0
 70
     8
 71
     3
 72
    17
 73
    13
 74
     0
 42
0.00000001
 43
0.00000001
 40
0.0
 40
0.0
 40
0.0
 40
0.0
 40
0.0839998574271605
 40
0.1857776510463613
 40
0.2875554446655659
 40
0.3893332382847687
 40
0.4911110319039675
 40
0.5928888255231752
 40
0.6946666191423707
 40
0.796444412761575
 40
0.8982222063807801
 40
1.0
 40
1.0
 40
1.0
 40
1.0
 10
-0.0177079575935346
 20
0.7720854977274414
 30
0.0
 10
-0.0174031185308131
 20
0.7720846685409176
 30
0.0
 10
-0.0167289235172241
 20
0.7720828346767974
 30
0.0
 10
-0.015701954574931
 20
0.7718700821825634
 30
0.0
 10
-0.0146584533350653
 20
0.7714937725256612
 30
0.0
 10
-0.0136878649900967
 20
0.770952826049469
 30
0.0
 10
-0.0128143713153086
 20
0.7702670816273015
 30
0.0
 10
-0.0120600769918862
 20
0.769451952327697
 30
0.0
 10
-0.0114426743702444
 20
0.7685282830745457
 30
0.0
 10
-0.0109818369458051
 20
0.7675188627317359
 30
0.0
 10
-0.0106731708543658
 20
0.7664494827241314
 30
0.0
 10
-0.0106135361188099
 20
0.7657129945007105
 30
0.0
 10
-0.010583718751032
 20
0.7653447503890001
 30
0.0
  0
SPLINE
  5
A4
330
1F
100
AcDbEntity
  8
0
  6
Continuous
 62
     7
370
    25
100
AcDbSpline
210
0.0
220
0.0
230
1.0
 70
     8
 71
     3
 72
     8
 73
     4
 74
     0
 42
0.00000001
 43
0.00000001
 40
0.0
 40
0.0
 40
0.0
 40
0.0
 40
1.0
 40
1.0
 40
1.0
 40
1.0
 10
-0.0088304347123364
 20
0.7153755001400001
 30
0.0
 10
-0.0087746477897394
 20
0.713785552
 30
0.0
 10
-0.0092811171598534
 20
0.712181483806
 30
0.0
 10
-0.0102397890305194
 20
0.710911853237
 30
0.0
  0
SPLINE
  5
AA
330
1F
100
AcDbEntity
  8
0
  6
Continuous
 62
     7
370
    25
100
AcDbSpline
210
0.0
220
0.0
230
1.0
 70
     8
 71
     3
 72
    14
 73
    10
 74
     0
 42
0.00000001
 43
0.00000001
 40
0.0
 40
0.0
 40
0.0
 40
0.0
 40
0.0282887837910073
 40
0.1902406531591631
 40
0.3521925225273242
 40
0.5141443918954774
 40
0.6760962612636319
 40
0.8380481306317912
 40
1.0
 40
1.0
 40
1.0
 40
1.0
 10
-0.0285735767383038
 20
0.7386024176600078
 30
0.0
 10
-0.0286195558379062
 20
0.7386044220885982
 30
0.0
 10
-0.0289287629782576
 20
0.7386179017704071
 30
0.0
 10
-0.0294996977619764
 20
0.7385218035521046
 30
0.0
 10
-0.0302611649518424
 20
0.7383090321953932
 30
0.0
 10
-0.0309789026187515
 20
0.7379679754865034
 30
0.0
 10
-0.0316322386666506
 20
0.7375199151114405
 30
0.0
 10
-0.0322144467004966
 20
0.7369783646261128
 30
0.0
 10
-0.0325217529387249
 20
0.7365493000805422
 30
0.0
 10
-0.0326754060578391
 20
0.736334767807757
 30
0.0
  0
SPLINE
  5
AE
330
1F
100
AcDbEntity
  8
0
  6
Continuous
 62
     7
370
    25
100
AcDbSpline
210
0.0
220
0.0
230
1.0
 70
     8
 71
     3
 72
    35
 73
    31
 74
     0
 42
0.00000001
 43
0.00000001
 40
0.0
 40
0.0
 40
0.0
 40
0.0
 40
0.0624999999999963
 40
0.0624999999999963
 40
0.1249999999999926
 40
0.1249999999999926
 40
0.249999999999986
 40
0.249999999999986
 40
0.3749999999999795
 40
0.4062499999999722
 40
0.4062499999999722
 40
0.4218749999999671
 40
0.4218749999999671
 40
0.437499999999962
 40
0.4999999999999396
 40
0.4999999999999396
 40
0.5156249999999338
 40
0.5156249999999338
 40
0.531249999999928
 40
0.5624999999999275
 40
0.624999999999937
 40
0.624999999999937
 40
0.7499999999999502
 40
0.7499999999999502
 40
0.8124999999999626
 40
0.8124999999999626
 40
0.8749999999999751
 40
0.9374999999999876
 40
0.9374999999999876
 40
1.0
 40
1.0
 40
1.0
 40
1.0
 10
-0.05356814067277
 20
0.704195499737
 30
0.0
 10
-0.0532435476578388
 20
0.7046955200195002
 30
0.0
 10
-0.0529767560077786
 20
0.705106666655125
 30
0.0
 10
-0.0525295547192268
 20
0.7057960052223168
 30
0.0
 10
-0.0523490963249174
 20
0.7060742609886292
 30
0.0
 10
-0.0518938844657691
 20
0.7067762270435577
 30
0.0
 10
-0.0517055443752934
 20
0.7070668162922374
 30
0.0
 10
-0.0513310863945442
 20
0.7076445668508818
 30
0.0
 10
-0.0510980188510421
 20
0.708004176072353
 30
0.0
 10
-0.0506972609462629
 20
0.7086229535613435
 30
0.0
 10
-0.050564438634712
 20
0.7088280522695611
 30
0.0
 10
-0.0505184448063021
 20
0.7088990759084246
 30
0.0
 10
-0.0504195499453028
 20
0.7090518006345153
 30
0.0
 10
-0.0501554641507398
 20
0.7094596594116873
 30
0.0
 10
-0.0498197893764245
 20
0.7099782427220565
 30
0.0
 10
-0.0494673369561365
 20
0.7105229727741037
 30
0.0
 10
-0.0493949581658226
 20
0.7106348492704445
 30
0.0
 10
-0.0492545200544126
 20
0.7108519459885299
 30
0.0
 10
-0.0490546300840073
 20
0.7111609733520675
 30
0.0
 10
-0.0486582181960666
 20
0.7117739870201422
 30
0.0
 10
-0.0484200137922541
 20
0.7121425657922987
 30
0.0
 10
-0.0480299227885823
 20
0.712746220958382
 30
0.0
 10
-0.0478838979632836
 20
0.7129722618006237
 30
0.0
 10
-0.0476689892321141
 20
0.7133050402536188
 30
0.0
 10
-0.0475981044142746
 20
0.7134148219340434
 30
0.0
 10
-0.0474297662421646
 20
0.7136755297204296
 30
0.0
 10
-0.047234824156072
 20
0.7139774398455604
 30
0.0
 10
-0.0469412714907264
 20
0.7144323439592678
 30
0.0
 10
-0.0465757121601102
 20
0.7149990397228072
 30
0.0
 10
-0.0463567221780775
 20
0.7153385934765002
 30
0.0
 10
-0.04609498632432
 20
0.715744700664
 30
0.0
  0
SPLINE
  5
B0
330
1F
100
AcDbEntity
  8
0
  6
Continuous
 62
     7
370
    25
100
AcDbSpline
210
0.0
220
0.0
230
1.0
 70
     8
 71
     3
 72
     8
 73
     4
 74
     0
 42
0.00000001
 43
0.00000001
 40
0.0
 40
0.0
 40
0.0
 40
0.0
 40
1.0
 40
1.0
 40
1.0
 40
1.0
 10
-0.0295093963753289
 20
0.689368686913963
 30
0.0
 10
-0.0315635445008893
 20
0.686463183611595
 30
0.0
 10
-0.0340882975557691
 20
0.6829055272213168
 30
0.0
 10
-0.0366335994189659
 20
0.6793298966610126
 30
0.0
  0
SPLINE
  5
B2
330
1F
100
AcDbEntity
  8
0
  6
Continuous
 62
     7
370
    25
100
AcDbSpline
210
0.0
220
0.0
230
1.0
 70
     8
 71
     3
 72
     8
 73
     4
 74
     0
 42
0.00000001
 43
0.00000001
 40
0.0
 40
0.0
 40
0.0
 40
0.0
 40
1.0
 40
1.0
 40
1.0
 40
1.0
 10
-0.04029695126438
 20
0.684435176025
 30
0.0
 10
-0.0377516497282797
 20
0.6880108065695342
 30
0.0
 10
-0.0352268970515617
 20
0.6915684629422386
 30
0.0
 10
-0.03317274939793
 20
0.694473966146
 30
0.0
  0
SPLINE
  5
B3
330
1F
100
AcDbEntity
  8
0
  6
Continuous
 62
     7
370
    25
100
AcDbSpline
210
0.0
220
0.0
230
1.0
 70
     8
 71
     3
 72
    14
 73
    10
 74
     0
 42
0.00000001
 43
0.00000001
 40
0.0
 40
0.0
 40
0.0
 40
0.0
 40
0.25
 40
0.25
 40
0.5
 40
0.5
 40
0.75
 40
0.75
 40
1.0
 40
1.0
 40
1.0
 40
1.0
 10
-0.0350257031607124
 20
0.6781249167546649
 30
0.0
 10
-0.0350272521555451
 20
0.6781248883703181
 30
0.0
 10
-0.035070341772297
 20
0.6781562280338369
 30
0.0
 10
-0.035233107506229
 20
0.6782769197414935
 30
0.0
 10
-0.0353527195820398
 20
0.678366224298596
 30
0.0
 10
-0.0356503734520891
 20
0.6785892902636852
 30
0.0
 10
-0.035828298132234
 20
0.6787229639047351
 30
0.0
 10
-0.0362155250337546
 20
0.679014444355262
 30
0.0
 10
-0.0364246748978719
 20
0.6791721364796224
 30
0.0
 10
-0.0366335989708366
 20
0.6793298963188568
 30
0.0
  0
SPLINE
  5
B4
330
1F
100
AcDbEntity
  8
0
  6
Continuous
 62
     7
370
    25
100
AcDbSpline
210
0.0
220
0.0
230
1.0
 70
     8
 71
     3
 72
    14
 73
    10
 74
     0
 42
0.00000001
 43
0.00000001
 40
0.0
 40
0.0
 40
0.0
 40
0.0
 40
0.25
 40
0.25
 40
0.5
 40
0.5
 40
0.75
 40
0.75
 40
1.0
 40
1.0
 40
1.0
 40
1.0
 10
-0.0402969512645533
 20
0.6844351760253327
 30
0.0
 10
-0.0405058753265795
 20
0.6845929358771102
 30
0.0
 10
-0.0407144091928989
 20
0.6847506393008795
 30
0.0
 10
-0.0410992649710152
 20
0.6850421632230499
 30
0.0
 10
-0.0412754354584844
 20
0.6851758690192425
 30
0.0
 10
-0.0415687080831344
 20
0.6853990152888083
 30
0.0
 10
-0.0416856948300489
 20
0.6854883679636605
 30
0.0
 10
-0.0418427361988531
 20
0.6856091645873428
 30
0.0
 10
-0.0418827290316603
 20
0.6856405610078691
 30
0.0
 10
-0.0418811800240089
 20
0.685640589403155
 30
0.0
  0
SPLINE
  5
B6
330
1F
100
AcDbEntity
  8
0
  6
Continuous
 62
     7
370
    25
100
AcDbSpline
210
0.0
220
0.0
230
1.0
 70
     8
 71
     3
 72
     8
 73
     4
 74
     0
 42
0.00000001
 43
0.00000001
 40
0.0
 40
0.0
 40
0.0
 40
0.0
 40
1.0
 40
1.0
 40
1.0
 40
1.0
 10
-0.05901311424623
 20
0.7105181838510001
 30
0.0
 10
-0.0566801192052257
 20
0.7143896865789752
 30
0.0
 10
-0.0543666143384973
 20
0.7182417397526946
 30
0.0
 10
-0.05248499929836
 20
0.721387685916
 30
0.0
  0
SPLINE
  5
B7
330
1F
100
AcDbEntity
  8
0
  6
Continuous
 62
     7
370
    25
100
AcDbSpline
210
0.0
220
0.0
230
1.0
 70
     8
 71
     3
 72
     8
 73
     4
 74
     0
 42
0.00000001
 43
0.00000001
 40
0.0
 40
0.0
 40
0.0
 40
0.0
 40
1.0
 40
1.0
 40
1.0
 40
1.0
 10
-0.048729351831441
 20
0.7161537847710308
 30
0.0
 10
-0.0506109675533401
 20
0.7130078384688247
 30
0.0
 10
-0.0529244729589213
 20
0.7091557853057672
 30
0.0
 10
-0.0552574684288636
 20
0.7052842825680752
 30
0.0
  0
SPLINE
  5
B9
330
1F
100
AcDbEntity
  8
0
  6
Continuous
 62
     7
370
    25
100
AcDbSpline
210
0.0
220
0.0
230
1.0
 70
     8
 71
     3
 72
    14
 73
    10
 74
     0
 42
0.00000001
 43
0.00000001
 40
0.0
 40
0.0
 40
0.0
 40
0.0
 40
0.25
 40
0.25
 40
0.5
 40
0.5
 40
0.75
 40
0.75
 40
1.0
 40
1.0
 40
1.0
 40
1.0
 10
-0.0535681406731532
 20
0.7041954997363808
 30
0.0
 10
-0.0535696896680825
 20
0.7041954713522388
 30
0.0
 10
-0.0536148987205467
 20
0.7042237867129296
 30
0.0
 10
-0.0537858227423584
 20
0.7043328370513082
 30
0.0
 10
-0.0539114704604021
 20
0.7044135291223458
 30
0.0
 10
-0.0542241988812774
 20
0.7046150846419219
 30
0.0
 10
-0.0544111565388296
 20
0.7047358687869709
 30
0.0
 10
-0.0548180792915854
 20
0.7049992444870053
 30
0.0
 10
-0.0550378842800624
 20
0.7051417324148996
 30
0.0
 10
-0.0552574676722127
 20
0.7052842820737403
 30
0.0
  0
SPLINE
  5
BA
330
1F
100
AcDbEntity
  8
0
  6
Continuous
 62
     7
370
    25
100
AcDbSpline
210
0.0
220
0.0
230
1.0
 70
     8
 71
     3
 72
    14
 73
    10
 74
     0
 42
0.00000001
 43
0.00000001
 40
0.0
 40
0.0
 40
0.0
 40
0.0
 40
0.25
 40
0.25
 40
0.5
 40
0.5
 40
0.75
 40
0.75
 40
1.0
 40
1.0
 40
1.0
 40
1.0
 10
-0.059013114195275
 20
0.7105181839307476
 30
0.0
 10
-0.0592326975882617
 20
0.7106607335894423
 30
0.0
 10
-0.0594518865915599
 20
0.7108032328046863
 30
0.0
 10
-0.0598564382470569
 20
0.7110666519529388
 30
0.0
 10
-0.0600416417254532
 20
0.7111874682417604
 30
0.0
 10
-0.0603499889280089
 20
0.7113891040431332
 30
0.0
 10
-0.0604730113307103
 20
0.7114698442206068
 30
0.0
 10
-0.0606382110137906
 20
0.711578999451894
 30
0.0
 10
-0.0606803232951482
 20
0.7116073715577844
 30
0.0
 10
-0.060678774299835
 20
0.711607399941042
 30
0.0
  0
SPLINE
  5
BB
330
1F
100
AcDbEntity
  8
0
  6
Continuous
 62
     7
370
    25
100
AcDbSpline
210
0.0
220
0.0
230
1.0
 70
     8
 71
     3
 72
    23
 73
    19
 74
     0
 42
0.00000001
 43
0.00000001
 40
0.0
 40
0.0
 40
0.0
 40
0.0
 40
0.1250000000000064
 40
0.1250000000000064
 40
0.2500000000000128
 40
0.2500000000000128
 40
0.3750000000000192
 40
0.3750000000000192
 40
0.5000000000000255
 40
0.5000000000000255
 40
0.5625000000000256
 40
0.5625000000000256
 40
0.6250000000000256
 40
0.6875000000000258
 40
0.6875000000000258
 40
0.7500000000000259
 40
0.7500000000000259
 40
1.0
 40
1.0
 40
1.0
 40
1.0
 10
-0.0532056196753
 20
0.723156600421
 30
0.0
 10
-0.0535984487373399
 20
0.7225470921909654
 30
0.0
 10
-0.0539007812145078
 20
0.7220784559649334
 30
0.0
 10
-0.0543762346940388
 20
0.7213417013153415
 30
0.0
 10
-0.0545479318606149
 20
0.7210757427608621
 30
0.0
 10
-0.0548380096111908
 20
0.7206265232277352
 30
0.0
 10
-0.0549563944382822
 20
0.7204432568998926
 30
0.0
 10
-0.0552213185006514
 20
0.7200331407488438
 30
0.0
 10
-0.0553686653496986
 20
0.7198050691407849
 30
0.0
 10
-0.0556813326259376
 20
0.7193213455540275
 30
0.0
 10
-0.0557995786802452
 20
0.7191384329388423
 30
0.0
 10
-0.0560834302137993
 20
0.7186994362751892
 30
0.0
 10
-0.0564311591094417
 20
0.7181617691197589
 30
0.0
 10
-0.0568633312163972
 20
0.7174938615772186
 30
0.0
 10
-0.0573160691725775
 20
0.7167943841393454
 30
0.0
 10
-0.0575524067174149
 20
0.7164293570837007
 30
0.0
 10
-0.0587345476347019
 20
0.7146041154395686
 30
0.0
 10
-0.0597050482633938
 20
0.7131073846093182
 30
0.0
 10
-0.0606787742997
 20
0.711607399941
 30
0.0
  0
SPLINE
  5
C7
330
1F
100
AcDbEntity
  8
0
  6
Continuous
 62
     7
370
    25
100
AcDbSpline
210
0.0
220
0.0
230
1.0
 70
     8
 71
     3
 72
    29
 73
    25
 74
     0
 42
0.00000001
 43
0.00000001
 40
0.0
 40
0.0
 40
0.0
 40
0.0
 40
0.0209946009882459
 40
0.0418137471443053
 40
0.0625470918547618
 40
0.0832854013157734
 40
0.1041193768346256
 40
0.1251384813051737
 40
0.1875741443914954
 40
0.2500987239577013
 40
0.3125343870397377
 40
0.3750589666102731
 40
0.4374946296969975
 40
0.5000192092631414
 40
0.5624548723570063
 40
0.624979451915809
 40
0.6874151150061361
 40
0.7499396945682498
 40
0.8123753576533719
 40
0.8748999372208465
 40
0.9061309215305102
 40
0.9374498614871688
 40
0.9687029722631618
 40
1.0
 40
1.0
 40
1.0
 40
1.0
 10
-0.050635017851088
 20
0.6716612517029997
 30
0.0
 10
-0.0506357546099887
 20
0.6717051802518033
 30
0.0
 10
-0.0506372219705925
 20
0.6717926702323521
 30
0.0
 10
-0.0506286476157549
 20
0.6719233744880989
 30
0.0
 10
-0.0506121173282405
 20
0.6720527064618423
 30
0.0
 10
-0.0505868846622951
 20
0.6721806823520683
 30
0.0
 10
-0.0505531340881716
 20
0.6723073000915718
 30
0.0
 10
-0.0504833558769537
 20
0.6725140941397316
 30
0.0
 10
-0.0503487779395188
 20
0.6727907198398715
 30
0.0
 10
-0.0501085112980352
 20
0.6731035611805045
 30
0.0
 10
-0.0498130981105614
 20
0.6733653966474976
 30
0.0
 10
-0.0494713403998054
 20
0.6735625413050301
 30
0.0
 10
-0.0490982313656132
 20
0.6736913732328852
 30
0.0
 10
-0.0487070407975828
 20
0.673742725668774
 30
0.0
 10
-0.0483130334745733
 20
0.6737189617578851
 30
0.0
 10
-0.0479319687625428
 20
0.6736166969517028
 30
0.0
 10
-0.0475770512616839
 20
0.6734439603938237
 30
0.0
 10
-0.0472641195114508
 20
0.6732036337158429
 30
0.0
 10
-0.0470023596908799
 20
0.6729082741899499
 30
0.0
 10
-0.0468379311274399
 20
0.6726232313193578
 30
0.0
 10
-0.0467408372816365
 20
0.672379883372279
 30
0.0
 10
-0.0466867827512301
 20
0.6721909688381725
 30
0.0
 10
-0.0466499379551672
 20
0.6719976074890428
 30
0.0
 10
-0.0466416798247141
 20
0.6718669091058135
 30
0.0
 10
-0.0466375478604373
 20
0.671801514032
 30
0.0
  0
SPLINE
  5
C8
330
1F
100
AcDbEntity
  8
0
  6
Continuous
 62
     7
370
    25
100
AcDbSpline
210
0.0
220
0.0
230
1.0
 70
     8
 71
     3
 72
    29
 73
    25
 74
     0
 42
0.00000001
 43
0.00000001
 40
0.0
 40
0.0
 40
0.0
 40
0.0
 40
0.0209946009354827
 40
0.0418137470914548
 40
0.0625470918291293
 40
0.0832854013186225
 40
0.104119376841215
 40
0.1251384812653446
 40
0.1875741443492226
 40
0.250098723928849
 40
0.3125343870079525
 40
0.3750589665921057
 40
0.4374946296752396
 40
0.5000192092559443
 40
0.5624548723429451
 40
0.6249794519192133
 40
0.6874151150007533
 40
0.7499396945826632
 40
0.8123753576652188
 40
0.8748999372461888
 40
0.9061309215438504
 40
0.9374498614998633
 40
0.9687029722667001
 40
1.0
 40
1.0
 40
1.0
 40
1.0
 10
-0.0466375478604086
 20
0.6718015140320011
 30
0.0
 10
-0.0466368111112212
 20
0.6717575854893216
 30
0.0
 10
-0.046635343769961
 20
0.6716700955208607
 30
0.0
 10
-0.0466439181506902
 20
0.6715393912853451
 30
0.0
 10
-0.0466604484615574
 20
0.6714100593329559
 30
0.0
 10
-0.0466856811481192
 20
0.6712820834653737
 30
0.0
 10
-0.0467194317401698
 20
0.6711554657497595
 30
0.0
 10
-0.0467892099767203
 20
0.6709486717426247
 30
0.0
 10
-0.0469237879373388
 20
0.670672046102619
 30
0.0
 10
-0.0471640545831992
 20
0.6703592048360606
 30
0.0
 10
-0.0474594677543204
 20
0.6700973694352288
 30
0.0
 10
-0.0478012254298502
 20
0.6699002248289472
 30
0.0
 10
-0.0481743344164954
 20
0.6697713929353072
 30
0.0
 10
-0.048565524929525
 20
0.6697200405116738
 30
0.0
 10
-0.0489595321968262
 20
0.6697438044142106
 30
0.0
 10
-0.0493405968590038
 20
0.6698460691895803
 30
0.0
 10
-0.0496955143211601
 20
0.6700188056987872
 30
0.0
 10
-0.0500084460504058
 20
0.6702591323119432
 30
0.0
 10
-0.0502702058701919
 20
0.6705544917636173
 30
0.0
 10
-0.050434634453847
 20
0.6708395345684076
 30
0.0
 10
-0.0505317283279506
 20
0.6710828824644686
 30
0.0
 10
-0.0505857828860442
 20
0.671271796961815
 30
0.0
 10
-0.0506226277154788
 20
0.6714651582762751
 30
0.0
 10
-0.0506308858731589
 20
0.6715958566392939
 30
0.0
 10
-0.0506350178510592
 20
0.6716612517030007
 30
0.0
  0
SPLINE
  5
C9
330
1F
100
AcDbEntity
  8
0
  6
Continuous
 62
     7
370
    25
100
AcDbSpline
210
0.0
220
0.0
230
1.0
 70
     8
 71
     3
 72
    29
 73
    25
 74
     0
 42
0.00000001
 43
0.00000001
 40
0.0
 40
0.0
 40
0.0
 40
0.0
 40
0.0209946009361544
 40
0.0418137470924571
 40
0.0625470918301801
 40
0.0832854013194849
 40
0.1041193768417367
 40
0.1251384812654728
 40
0.1875741443492531
 40
0.2500987239288625
 40
0.3125343870161769
 40
0.3750589665924835
 40
0.4374946296844178
 40
0.5000192092559322
 40
0.5624548723488718
 40
0.6249794519194013
 40
0.6874151150082128
 40
0.7499396945826488
 40
0.8123753576684288
 40
0.8748999372461458
 40
0.9061309215457568
 40
0.9374498614998545
 40
0.968702972266975
 40
1.0
 40
1.0
 40
1.0
 40
1.0
 10
-0.0715901856848418
 20
0.6789522021160002
 30
0.0
 10
-0.0715894489356323
 20
0.6789082735733057
 30
0.0
 10
-0.0715879815943284
 20
0.6788207836048155
 30
0.0
 10
-0.0715965559749989
 20
0.6786900793692522
 30
0.0
 10
-0.0716130862858133
 20
0.678560747416814
 30
0.0
 10
-0.0716383189723284
 20
0.678432771549181
 30
0.0
 10
-0.0716720695643386
 20
0.6783061538335156
 30
0.0
 10
-0.0717418478008333
 20
0.67809935982629
 30
0.0
 10
-0.0718764257614007
 20
0.6778227341861506
 30
0.0
 10
-0.0721166924072618
 20
0.6775098929194131
 30
0.0
 10
-0.0724121055784089
 20
0.6772480575184155
 30
0.0
 10
-0.0727538632540494
 20
0.6770509129120303
 30
0.0
 10
-0.0731269722407916
 20
0.6769220810183394
 30
0.0
 10
-0.0735181627539533
 20
0.6768707285946641
 30
0.0
 10
-0.0739121700213643
 20
0.6768944924972135
 30
0.0
 10
-0.0742932346836659
 20
0.6769967572726711
 30
0.0
 10
-0.0746481521458929
 20
0.677169493781994
 30
0.0
 10
-0.0749610838751941
 20
0.6774098203952942
 30
0.0
 10
-0.0752228436949687
 20
0.6777051798471284
 30
0.0
 10
-0.0753872722785797
 20
0.6779902226520705
 30
0.0
 10
-0.0754843661526138
 20
0.6782335705482421
 30
0.0
 10
-0.0755384207106464
 20
0.6784224850456718
 30
0.0
 10
-0.0755752655400039
 20
0.6786158463602062
 30
0.0
 10
-0.0755835236976227
 20
0.6787465447232705
 30
0.0
 10
-0.0755876556754923
 20
0.6788119397869997
 30
0.0
  0
SPLINE
  5
CA
330
1F
100
AcDbEntity
  8
0
  6
Continuous
 62
     7
370
    25
100
AcDbSpline
210
0.0
220
0.0
230
1.0
 70
     8
 71
     3
 72
    29
 73
    25
 74
     0
 42
0.00000001
 43
0.00000001
 40
0.0
 40
0.0
 40
0.0
 40
0.0
 40
0.0209946009877696
 40
0.0418137471435664
 40
0.0625470918539195
 40
0.0832854013150189
 40
0.104119376834143
 40
0.1251384813051566
 40
0.1875741443959208
 40
0.2500987239579193
 40
0.3125343870448548
 40
0.3750589666102725
 40
0.4374946296968527
 40
0.5000192092631497
 40
0.5624548723573246
 40
0.6249794519158295
 40
0.6874151150070014
 40
0.749939694568285
 40
0.8123753576539761
 40
0.8748999372208558
 40
0.9061309215305936
 40
0.9374498614871818
 40
0.9687029722631769
 40
1.0
 40
1.0
 40
1.0
 40
1.0
 10
-0.075587655675486
 20
0.6788119397869998
 30
0.0
 10
-0.0755883924343867
 20
0.6788558683358025
 30
0.0
 10
-0.0755898597949904
 20
0.6789433583163498
 30
0.0
 10
-0.0755812854401528
 20
0.6790740625720946
 30
0.0
 10
-0.0755647551526382
 20
0.6792033945458373
 30
0.0
 10
-0.0755395224866928
 20
0.679331370436064
 30
0.0
 10
-0.0755057719125694
 20
0.6794579881755689
 30
0.0
 10
-0.0754359937013493
 20
0.6796647822237399
 30
0.0
 10
-0.0753014157639223
 20
0.6799414079238855
 30
0.0
 10
-0.0750611491224195
 20
0.6802542492645193
 30
0.0
 10
-0.0747657359349446
 20
0.680516084731495
 30
0.0
 10
-0.074423978224195
 20
0.680713229389036
 30
0.0
 10
-0.0740508691900113
 20
0.6808420613168847
 30
0.0
 10
-0.0736596786219807
 20
0.6808934137527742
 30
0.0
 10
-0.0732656712989706
 20
0.6808696498418854
 30
0.0
 10
-0.0728846065869388
 20
0.6807673850357018
 30
0.0
 10
-0.0725296890860802
 20
0.6805946484778232
 30
0.0
 10
-0.0722167573358467
 20
0.6803543217998409
 30
0.0
 10
-0.0719549975152782
 20
0.6800589622739484
 30
0.0
 10
-0.0717905689518372
 20
0.6797739194033564
 30
0.0
 10
-0.0716934751060346
 20
0.6795305714562789
 30
0.0
 10
-0.0716394205756282
 20
0.6793416569221726
 30
0.0
 10
-0.0716025757795653
 20
0.6791482955730428
 30
0.0
 10
-0.0715943176491122
 20
0.6790175971898136
 30
0.0
 10
-0.0715901856848353
 20
0.6789522021160002
 30
0.0
  0
SPLINE
  5
CB
330
1F
100
AcDbEntity
  8
0
  6
Continuous
 62
     7
370
    25
100
AcDbSpline
210
0.0
220
0.0
230
1.0
 70
     8
 71
     3
 72
     8
 73
     4
 74
     0
 42
0.00000001
 43
0.00000001
 40
0.0
 40
0.0
 40
0.0
 40
0.0
 40
1.0
 40
1.0
 40
1.0
 40
1.0
 10
-0.0415565495455872
 20
0.6694758051951191
 30
0.0
 10
-0.0415678419710119
 20
0.6694692693028329
 30
0.0
 10
-0.0423002728552401
 20
0.670017333530877
 30
0.0
 10
-0.0431691669945547
 20
0.6706744249280756
 30
0.0
  0
SPLINE
  5
CC
330
1F
100
AcDbEntity
  8
0
  6
Continuous
 62
     7
370
    25
100
AcDbSpline
210
0.0
220
0.0
230
1.0
 70
     8
 71
     3
 72
    11
 73
     7
 74
     0
 42
0.00000001
 43
0.00000001
 40
0.0
 40
0.0
 40
0.0
 40
0.0
 40
0.25
 40
0.5
 40
0.75
 40
1.0
 40
1.0
 40
1.0
 40
1.0
 10
-0.0427581829005012
 20
0.6811756093079453
 30
0.0
 10
-0.0429671069706796
 20
0.6813333691452809
 30
0.0
 10
-0.0433856444739887
 20
0.6816498928520168
 30
0.0
 10
-0.0439128556897871
 20
0.6820500222062682
 30
0.0
 10
-0.0442627535203621
 20
0.682317270434275
 30
0.0
 10
-0.0443439607745327
 20
0.6823809941429609
 30
0.0
 10
-0.0443424117797094
 20
0.6823810225269609
 30
0.0
  0
SPLINE
  5
CF
330
1F
100
AcDbEntity
  8
0
  6
Continuous
 62
     7
370
    25
100
AcDbSpline
210
0.0
220
0.0
230
1.0
 70
     8
 71
     3
 72
    11
 73
     7
 74
     0
 42
0.00000001
 43
0.00000001
 40
0.0
 40
0.0
 40
0.0
 40
0.0
 40
0.25
 40
0.5
 40
0.75
 40
1.0
 40
1.0
 40
1.0
 40
1.0
 10
-0.04307259420823
 20
0.66746828484
 30
0.0
 10
-0.0430741432030167
 20
0.6674682564556668
 30
0.0
 10
-0.0431610472746709
 20
0.6675325474002346
 30
0.0
 10
-0.0435166251347218
 20
0.6678025100100704
 30
0.0
 10
-0.0440458237790384
 20
0.6682068234367343
 30
0.0
 10
-0.0444630331028033
 20
0.6685267103953331
 30
0.0
 10
-0.04467067200198
 20
0.668686158004
 30
0.0
  0
SPLINE
  5
D0
330
1F
100
AcDbEntity
  8
0
  6
Continuous
 62
     7
370
    25
100
AcDbSpline
210
0.0
220
0.0
230
1.0
 70
     8
 71
     3
 72
    11
 73
     7
 74
     0
 42
0.00000001
 43
0.00000001
 40
0.0
 40
0.0
 40
0.0
 40
0.0
 40
0.25
 40
0.5
 40
0.75
 40
1.0
 40
1.0
 40
1.0
 40
1.0
 10
-0.0514259256282921
 20
0.6791085879280107
 30
0.0
 10
-0.0513106768785089
 20
0.6793436541843438
 30
0.0
 10
-0.0510788291444882
 20
0.6798152771173942
 30
0.0
 10
-0.0507839332875587
 20
0.680411456694601
 30
0.0
 10
-0.0505848239791387
 20
0.6808096282241441
 30
0.0
 10
-0.0505352055800997
 20
0.6809045503006782
 30
0.0
 10
-0.050533656585273
 20
0.6809045786850113
 30
0.0
  0
SPLINE
  5
D1
330
1F
100
AcDbEntity
  8
0
  6
Continuous
 62
     7
370
    25
100
AcDbSpline
210
0.0
220
0.0
230
1.0
 70
     8
 71
     3
 72
    13
 73
     9
 74
     0
 42
0.00000001
 43
0.00000001
 40
0.0
 40
0.0
 40
0.0
 40
0.0
 40
0.1905369832099509
 40
0.3810739664199922
 40
0.5716109496300129
 40
0.7621479328400474
 40
0.9526849160500753
 40
1.0
 40
1.0
 40
1.0
 40
1.0
 10
-0.0443424117799335
 20
0.682381022527191
 30
0.0
 10
-0.0445270933034221
 20
0.6821602062113522
 30
0.0
 10
-0.0448964563503996
 20
0.6817185735796744
 30
0.0
 10
-0.0455842029436232
 20
0.681189959127249
 30
0.0
 10
-0.0463450346183315
 20
0.6807765126897735
 30
0.0
 10
-0.0471670505010251
 20
0.6805137489517242
 30
0.0
 10
-0.0478087928901634
 20
0.6803916605954662
 30
0.0
 10
-0.0481672407036945
 20
0.6804059299235341
 30
0.0
 10
-0.048238545479774
 20
0.6804087684713066
 30
0.0
  0
SPLINE
  5
D2
330
1F
100
AcDbEntity
  8
0
  6
Continuous
 62
     7
370
    25
100
AcDbSpline
210
0.0
220
0.0
230
1.0
 70
     8
 71
     3
 72
    11
 73
     7
 74
     0
 42
0.00000001
 43
0.00000001
 40
0.0
 40
0.0
 40
0.0
 40
0.0
 40
0.3082224546707086
 40
0.6164449093414431
 40
0.9246673640121846
 40
1.0
 40
1.0
 40
1.0
 40
1.0
 10
-0.0525377626172379
 20
0.665927686161424
 30
0.0
 10
-0.05215932037949
 20
0.6657004894398773
 30
0.0
 10
-0.0514024359039943
 20
0.665246095996784
 30
0.0
 10
-0.0501321225472
 20
0.6648685695775326
 30
0.0
 10
-0.0491468261026191
 20
0.6647011145481353
 30
0.0
 10
-0.0486011529162239
 20
0.6647468160415688
 30
0.0
 10
-0.0484939792649801
 20
0.6647557921027729
 30
0.0
  0
SPLINE
  5
D3
330
1F
100
AcDbEntity
  8
0
  6
Continuous
 62
     7
370
    25
100
AcDbSpline
210
0.0
220
0.0
230
1.0
 70
     8
 71
     3
 72
    11
 73
     7
 74
     0
 42
0.00000001
 43
0.00000001
 40
0.0
 40
0.0
 40
0.0
 40
0.0
 40
0.25
 40
0.5
 40
0.75
 40
1.0
 40
1.0
 40
1.0
 40
1.0
 10
-0.05253776261724
 20
0.6659276861619999
 30
0.0
 10
-0.0525393116120633
 20
0.6659276577776669
 30
0.0
 10
-0.0524833541707616
 20
0.6660152015844794
 30
0.0
 10
-0.0522394166559495
 20
0.6663827443483856
 30
0.0
 10
-0.0518708750071391
 20
0.6669331785249792
 30
0.0
 10
-0.0515778641504233
 20
0.6673686645116665
 30
0.0
 10
-0.05143150657879
 20
0.667585730376
 30
0.0
  0
SPLINE
  5
D5
330
1F
100
AcDbEntity
  8
0
  6
Continuous
 62
     7
370
    25
100
AcDbSpline
210
0.0
220
0.0
230
1.0
 70
     8
 71
     3
 72
    11
 73
     7
 74
     0
 42
0.00000001
 43
0.00000001
 40
0.0
 40
0.0
 40
0.0
 40
0.0
 40
0.2526640034899692
 40
0.5053280069800395
 40
0.7579920104701279
 40
1.0
 40
1.0
 40
1.0
 40
1.0
 10
-0.0506054342561992
 20
0.6716617935179989
 30
0.0
 10
-0.0505662098742274
 20
0.6714009025747569
 30
0.0
 10
-0.0504877611102837
 20
0.6708791206882728
 30
0.0
 10
-0.0500022297699005
 20
0.6702351387415516
 30
0.0
 10
-0.0493353949308516
 20
0.6698004670570034
 30
0.0
 10
-0.0488208043294053
 20
0.6697588165944371
 30
0.0
 10
-0.0485690515747634
 20
0.6697384399714409
 30
0.0
  0
SPLINE
  5
D6
330
1F
100
AcDbEntity
  8
0
  6
Continuous
 62
     7
370
    25
100
AcDbSpline
210
0.0
220
0.0
230
1.0
 70
     8
 71
     3
 72
    11
 73
     7
 74
     0
 42
0.00000001
 43
0.00000001
 40
0.0
 40
0.0
 40
0.0
 40
0.0
 40
0.25
 40
0.5
 40
0.75
 40
1.0
 40
1.0
 40
1.0
 40
1.0
 10
-0.061726810156945
 20
0.6916274441019613
 30
0.0
 10
-0.0617283591517417
 20
0.6916274157176279
 30
0.0
 10
-0.0618200836339861
 20
0.691684887197052
 30
0.0
 10
-0.0621958902470265
 20
0.6919262320621928
 30
0.0
 10
-0.0627553803024092
 20
0.6922876920377932
 30
0.0
 10
-0.0631965537633037
 20
0.6925736767799481
 30
0.0
 10
-0.063416137155505
 20
0.6927162264389458
 30
0.0
  0
SPLINE
  5
D7
330
1F
100
AcDbEntity
  8
0
  6
Continuous
 62
     7
370
    25
100
AcDbSpline
210
0.0
220
0.0
230
1.0
 70
     8
 71
     3
 72
    12
 73
     8
 74
     0
 42
0.00000001
 43
0.00000001
 40
0.0
 40
0.0
 40
0.0
 40
0.0
 40
0.0104336507320099
 40
0.2578252380489703
 40
0.5052168253659397
 40
0.7526084126829022
 40
1.0
 40
1.0
 40
1.0
 40
1.0
 10
-0.0486443469770337
 20
0.6737254102436329
 30
0.0
 10
-0.0486551708829805
 20
0.6737272511856109
 30
0.0
 10
-0.0489226396912648
 20
0.6737727425784068
 30
0.0
 10
-0.0494612130407728
 20
0.6735771574133101
 30
0.0
 10
-0.0501033618339547
 20
0.6731371518577073
 30
0.0
 10
-0.050542992709403
 20
0.6724483059030371
 30
0.0
 10
-0.0505846204072668
 20
0.6719239643130116
 30
0.0
 10
-0.0506054342561987
 20
0.6716617935179989
 30
0.0
  0
SPLINE
  5
D8
330
1F
100
AcDbEntity
  8
0
  6
Continuous
 62
     7
370
    25
100
AcDbSpline
210
0.0
220
0.0
230
1.0
 70
     8
 71
     3
 72
    11
 73
     7
 74
     0
 42
0.00000001
 43
0.00000001
 40
0.0
 40
0.0
 40
0.0
 40
0.0
 40
0.25
 40
0.5
 40
0.75
 40
1.0
 40
1.0
 40
1.0
 40
1.0
 10
-0.0594337757782102
 20
0.6821643997090227
 30
0.0
 10
-0.0593631323532473
 20
0.682416487447022
 30
0.0
 10
-0.0592207759120859
 20
0.6829222604380175
 30
0.0
 10
-0.0590389998195441
 20
0.6835616067460508
 30
0.0
 10
-0.0589154324451107
 20
0.6839886052302641
 30
0.0
 10
-0.058883815310834
 20
0.6840903966256829
 30
0.0
 10
-0.0588822663160173
 20
0.6840904250100164
 30
0.0
  0
SPLINE
  5
D9
330
1F
100
AcDbEntity
  8
0
  6
Continuous
 62
     7
370
    25
100
AcDbSpline
210
0.0
220
0.0
230
1.0
 70
     8
 71
     3
 72
     8
 73
     4
 74
     0
 42
0.00000001
 43
0.00000001
 40
0.0
 40
0.0
 40
0.0
 40
0.0
 40
1.0
 40
1.0
 40
1.0
 40
1.0
 10
-0.050533656585251
 20
0.680904578685
 30
0.0
 10
-0.053211823370061
 20
0.682217682861
 30
0.0
 10
-0.056010170051501
 20
0.683285537603
 30
0.0
 10
-0.058882266315961
 20
0.68409042501
 30
0.0
  0
SPLINE
  5
DA
330
1F
100
AcDbEntity
  8
0
  6
Continuous
 62
     7
370
    25
100
AcDbSpline
210
0.0
220
0.0
230
1.0
 70
     8
 71
     3
 72
    11
 73
     7
 74
     0
 42
0.00000001
 43
0.00000001
 40
0.0
 40
0.0
 40
0.0
 40
0.0
 40
0.25
 40
0.5
 40
0.75
 40
1.0
 40
1.0
 40
1.0
 40
1.0
 10
-0.077782654559496
 20
0.68160456903396
 30
0.0
 10
-0.0780022379516873
 20
0.6817471186929578
 30
0.0
 10
-0.0784421611642521
 20
0.6820331263449899
 30
0.0
 10
-0.0789964045785452
 20
0.6823946824613677
 30
0.0
 10
-0.0793643546439803
 20
0.6826361712919814
 30
0.0
 10
-0.0794498636553597
 20
0.6826937566656108
 30
0.0
 10
-0.0794483146605364
 20
0.6826937850499439
 30
0.0
  0
SPLINE
  5
DC
330
1F
100
AcDbEntity
  8
0
  6
Continuous
 62
     7
370
    25
100
AcDbSpline
210
0.0
220
0.0
230
1.0
 70
     8
 71
     3
 72
     9
 73
     5
 74
     0
 42
0.00000001
 43
0.00000001
 40
0.0
 40
0.0
 40
0.0
 40
0.0
 40
0.5000000000000004
 40
1.0
 40
1.0
 40
1.0
 40
1.0
 10
-0.0733316274709119
 20
0.671886592898
 30
0.0
 10
-0.0696687542929986
 20
0.6720151152300001
 30
0.0
 10
-0.0623029170322148
 20
0.6711118381316666
 30
0.0
 10
-0.0555766328569019
 20
0.6679767299686666
 30
0.0
 10
-0.0525377626172419
 20
0.6659276861619999
 30
0.0
  0
SPLINE
  5
DD
330
1F
100
AcDbEntity
  8
0
  6
Continuous
 62
     7
370
    25
100
AcDbSpline
210
0.0
220
0.0
230
1.0
 70
     8
 71
     3
 72
    11
 73
     7
 74
     0
 42
0.00000001
 43
0.00000001
 40
0.0
 40
0.0
 40
0.0
 40
0.0
 40
0.25
 40
0.5
 40
0.75
 40
1.0
 40
1.0
 40
1.0
 40
1.0
 10
-0.073331627470919
 20
0.6718865928979995
 30
0.0
 10
-0.0733331764657424
 20
0.6718865645136661
 30
0.0
 10
-0.0733399890220655
 20
0.6719920963458227
 30
0.0
 10
-0.0733594644997797
 20
0.6724351254838381
 30
0.0
 10
-0.0733853688769366
 20
0.6730985962263228
 30
0.0
 10
-0.0734044121074868
 20
0.6736235076856666
 30
0.0
 10
-0.0734135922812465
 20
0.6738851460680001
 30
0.0
  0
SPLINE
  5
DE
330
1F
100
AcDbEntity
  8
0
  6
Continuous
 62
     7
370
    25
100
AcDbSpline
210
0.0
220
0.0
230
1.0
 70
     8
 71
     3
 72
    11
 73
     7
 74
     0
 42
0.00000001
 43
0.00000001
 40
0.0
 40
0.0
 40
0.0
 40
0.0
 40
0.2499999999999997
 40
0.4999999999999993
 40
0.7499999999999998
 40
1.0
 40
1.0
 40
1.0
 40
1.0
 10
-0.0588822663159616
 20
0.68409042501
 30
0.0
 10
-0.0596338635951549
 20
0.6843010555489998
 30
0.0
 10
-0.0610419491116954
 20
0.6850930893876406
 30
0.0
 10
-0.0623845140567109
 20
0.6870739052522423
 30
0.0
 10
-0.0626854760799555
 20
0.6894478453101405
 30
0.0
 10
-0.0621518201611416
 20
0.6909727357100001
 30
0.0
 10
-0.0617268101569216
 20
0.6916274441019999
 30
0.0
  0
SPLINE
  5
E0
330
1F
100
AcDbEntity
  8
0
  6
Continuous
 62
     7
370
    25
100
AcDbSpline
210
0.0
220
0.0
230
1.0
 70
     8
 71
     3
 72
    11
 73
     7
 74
     0
 42
0.00000001
 43
0.00000001
 40
0.0
 40
0.0
 40
0.0
 40
0.0
 40
0.2526640034909982
 40
0.5053280069819059
 40
0.7579920104728144
 40
1.0
 40
1.0
 40
1.0
 40
1.0
 10
-0.0755580720805659
 20
0.678812481601001
 30
0.0
 10
-0.0755188476984862
 20
0.6785515906578612
 30
0.0
 10
-0.0754403989343268
 20
0.6780298087715814
 30
0.0
 10
-0.0749548675939069
 20
0.677385826825226
 30
0.0
 10
-0.074288032755002
 20
0.6769511551409523
 30
0.0
 10
-0.0737734421537237
 20
0.6769095046784191
 30
0.0
 10
-0.0735216893991659
 20
0.6768891280554392
 30
0.0
  0
SPLINE
  5
E1
330
1F
100
AcDbEntity
  8
0
  6
Continuous
 62
     7
370
    25
100
AcDbSpline
210
0.0
220
0.0
230
1.0
 70
     8
 71
     3
 72
    12
 73
     8
 74
     0
 42
0.00000001
 43
0.00000001
 40
0.0
 40
0.0
 40
0.0
 40
0.0
 40
0.0104336507286671
 40
0.2578252380465263
 40
0.5052168253643804
 40
0.7526084126822442
 40
1.0
 40
1.0
 40
1.0
 40
1.0
 10
-0.0735969848014359
 20
0.680876098327631
 30
0.0
 10
-0.0736078087073825
 20
0.6808779392696097
 30
0.0
 10
-0.0738752775157445
 20
0.6809234306624354
 30
0.0
 10
-0.0744138508654245
 20
0.6807278454972195
 30
0.0
 10
-0.0750559996587274
 20
0.6802878399413609
 30
0.0
 10
-0.0754956305341139
 20
0.6795989939863206
 30
0.0
 10
-0.0755372582317481
 20
0.6790746523961076
 30
0.0
 10
-0.0755580720805652
 20
0.678812481601001
 30
0.0
  0
SPLINE
  5
E2
330
1F
100
AcDbEntity
  8
0
  6
Continuous
 62
     7
370
    25
100
AcDbSpline
210
0.0
220
0.0
230
1.0
 70
     8
 71
     3
 72
    22
 73
    18
 74
     0
 42
0.00000001
 43
0.00000001
 40
0.0
 40
0.0
 40
0.0
 40
0.0
 40
0.125
 40
0.125
 40
0.25
 40
0.25
 40
0.375
 40
0.375
 40
0.5
 40
0.5
 40
0.625
 40
0.625
 40
0.75
 40
0.75
 40
0.875
 40
0.875
 40
1.0
 40
1.0
 40
1.0
 40
1.0
 10
-0.0733316274709164
 20
0.671886592898149
 30
0.0
 10
-0.0739675429531922
 20
0.6718642799933251
 30
0.0
 10
-0.0746064611922019
 20
0.671929213580448
 30
0.0
 10
-0.0758433113447367
 20
0.6722287979339799
 30
0.0
 10
-0.0764411296481314
 20
0.6724634211822483
 30
0.0
 10
-0.0775515837320499
 20
0.6730850735013026
 30
0.0
 10
-0.0780641175124785
 20
0.6734720454705866
 30
0.0
 10
-0.0789661021700538
 20
0.6743698196022304
 30
0.0
 10
-0.0793554701959396
 20
0.6748805393000847
 30
0.0
 10
-0.079982319987747
 20
0.6759880810037142
 30
0.0
 10
-0.0802197441747561
 20
0.6765848012769092
 30
0.0
 10
-0.0805251288040736
 20
0.6778202524480279
 30
0.0
 10
-0.0805930611954597
 20
0.6784588698643242
 30
0.0
 10
-0.0805544097678314
 20
0.6797309186446666
 30
0.0
 10
-0.0804478294991208
 20
0.6803642331654338
 30
0.0
 10
-0.0800679987309949
 20
0.681578862777443
 30
0.0
 10
-0.0797947831207075
 20
0.682160066299609
 30
0.0
 10
-0.0794483146605059
 20
0.6826937850501844
 30
0.0
  0
SPLINE
  5
E5
330
1F
100
AcDbEntity
  8
0
  6
Continuous
 62
     7
370
    25
100
AcDbSpline
210
0.0
220
0.0
230
1.0
 70
     8
 71
     3
 72
    12
 73
     8
 74
     0
 42
0.00000001
 43
0.00000001
 40
0.0
 40
0.0
 40
0.0
 40
0.0
 40
0.2101528961429132
 40
0.420305792285862
 40
0.6304586884288043
 40
0.8406115845717482
 40
1.0
 40
1.0
 40
1.0
 40
1.0
 10
-0.0430430106232235
 20
0.6674688269379491
 30
0.0
 10
-0.0433301651948341
 20
0.6671344630783858
 30
0.0
 10
-0.0439044743380553
 20
0.6664657353592591
 30
0.0
 10
-0.044985083212004
 20
0.6656880294767927
 30
0.0
 10
-0.0461799034205349
 20
0.6651219829368029
 30
0.0
 10
-0.047359860438864
 20
0.6647920646701754
 30
0.0
 10
-0.0481341732785566
 20
0.6647669254178001
 30
0.0
 10
-0.0484681454021052
 20
0.664756082501256
 30
0.0
  0
SPLINE
  5
E7
330
1F
100
AcDbEntity
  8
0
  6
Continuous
 62
     7
370
    25
100
AcDbSpline
210
0.0
220
0.0
230
1.0
 70
     8
 71
     3
 72
    10
 73
     6
 74
     0
 42
0.00000001
 43
0.00000001
 40
0.0
 40
0.0
 40
0.0
 40
0.0
 40
0.3637330639121887
 40
0.7274661278243059
 40
1.0
 40
1.0
 40
1.0
 40
1.0
 10
-0.0505040730001591
 20
0.680905120783327
 30
0.0
 10
-0.0502396475910014
 20
0.6807923951789847
 30
0.0
 10
-0.0497107967726861
 20
0.6805669439702999
 30
0.0
 10
-0.0489293495937043
 20
0.6804055437837048
 30
0.0
 10
-0.0484264444750694
 20
0.6804082167157726
 30
0.0
 10
-0.0482110338171445
 20
0.6804093616197195
 30
0.0
  0
SPLINE
  5
E8
330
1F
100
AcDbEntity
  8
0
  6
Continuous
 62
     7
370
    25
100
AcDbSpline
210
0.0
220
0.0
230
1.0
 70
     8
 71
     3
 72
    11
 73
     7
 74
     0
 42
0.00000001
 43
0.00000001
 40
0.0
 40
0.0
 40
0.0
 40
0.0
 40
0.25
 40
0.5
 40
0.75
 40
1.0
 40
1.0
 40
1.0
 40
1.0
 10
-0.0616972265719791
 20
0.6916279862
 30
0.0
 10
-0.0621222365761991
 20
0.6909732778083336
 30
0.0
 10
-0.062655892495013
 20
0.6894483874088856
 30
0.0
 10
-0.0623549304717684
 20
0.6870744473509324
 30
0.0
 10
-0.0610123655267529
 20
0.6850936314858853
 30
0.0
 10
-0.0596042800102124
 20
0.6843015976470004
 30
0.0
 10
-0.0588526827310191
 20
0.6840909671080005
 30
0.0
  0
SPLINE
  5
EA
330
1F
100
AcDbEntity
  8
0
  6
Continuous
 62
     7
370
    25
100
AcDbSpline
210
0.0
220
0.0
230
1.0
 70
     8
 71
     3
 72
     8
 73
     4
 74
     0
 42
0.00000001
 43
0.00000001
 40
0.0
 40
0.0
 40
0.0
 40
0.0
 40
1.0
 40
1.0
 40
1.0
 40
1.0
 10
-0.05885268273102
 20
0.6840909671080001
 30
0.0
 10
-0.05598058646656
 20
0.6832860797010001
 30
0.0
 10
-0.05318223978512
 20
0.682218224959
 30
0.0
 10
-0.05050407300032
 20
0.680905120783
 30
0.0
  0
SPLINE
  5
EB
330
1F
100
AcDbEntity
  8
0
  6
Continuous
 62
     7
370
    25
100
AcDbSpline
210
0.0
220
0.0
230
1.0
 70
     8
 71
     3
 72
    17
 73
    13
 74
     0
 42
0.00000001
 43
0.00000001
 40
0.0
 40
0.0
 40
0.0
 40
0.0
 40
0.1016614880925589
 40
0.2033229761851546
 40
0.3049844642777625
 40
0.4066459523703654
 40
0.5083074404629626
 40
0.6099689285555632
 40
0.7116304166481666
 40
0.8132919047407686
 40
0.914953392833369
 40
1.0
 40
1.0
 40
1.0
 40
1.0
 10
-0.0106576778086745
 20
0.765343395142
 30
0.0
 10
-0.0106874951766529
 20
0.7657116392514962
 30
0.0
 10
-0.0107471299126097
 20
0.7664481274704886
 30
0.0
 10
-0.0110557960015033
 20
0.7675175075112034
 30
0.0
 10
-0.0115166334359562
 20
0.7685269277280445
 30
0.0
 10
-0.0121340360204825
 20
0.7694505974517281
 30
0.0
 10
-0.0128883304826986
 20
0.7702657249948857
 30
0.0
 10
-0.0137618236397183
 20
0.7709514759719747
 30
0.0
 10
-0.0147324139171967
 20
0.7714923979845599
 30
0.0
 10
-0.0157759079449568
 20
0.7718687989405735
 30
0.0
 10
-0.016806988160458
 20
0.7720820757054703
 30
0.0
 10
-0.0174853462240485
 20
0.7720837783910547
 30
0.0
 10
-0.0177943422087828
 20
0.7720845539740944
 30
0.0
  0
SPLINE
  5
EC
330
1F
100
AcDbEntity
  8
0
  6
Continuous
 62
     7
370
    25
100
AcDbSpline
210
0.0
220
0.0
230
1.0
 70
     8
 71
     3
 72
    14
 73
    10
 74
     0
 42
0.00000001
 43
0.00000001
 40
0.0
 40
0.0
 40
0.0
 40
0.0
 40
0.1622472508667487
 40
0.3244945017335641
 40
0.4867417526003814
 40
0.6489890034671904
 40
0.8112362543340013
 40
0.9734835052008147
 40
1.0
 40
1.0
 40
1.0
 40
1.0
 10
-0.0327493651156899
 20
0.736333412559904
 30
0.0
 10
-0.032595711993854
 20
0.7365479446115646
 30
0.0
 10
-0.032288405750182
 20
0.7369770087148855
 30
0.0
 10
-0.0317061977574995
 20
0.7375185625173041
 30
0.0
 10
-0.0310528615534131
 20
0.7379666102876542
 30
0.0
 10
-0.030335124470346
 20
0.7383077140986276
 30
0.0
 10
-0.0295736551015032
 20
0.7385203096520824
 30
0.0
 10
-0.0290056774751903
 20
0.738616384267535
 30
0.0
 10
-0.0286994315377025
 20
0.7386032073742456
 30
0.0
 10
-0.0286564117894981
 20
0.7386013563566086
 30
0.0
  0
SPLINE
  5
ED
330
1F
100
AcDbEntity
  8
0
  6
Continuous
 62
     7
370
    25
100
AcDbSpline
210
0.0
220
0.0
230
1.0
 70
     8
 71
     3
 72
    10
 73
     6
 74
     0
 42
0.00000001
 43
0.00000001
 40
0.0
 40
0.0
 40
0.0
 40
0.0
 40
0.2731699954839629
 40
0.6365849977419998
 40
1.0
 40
1.0
 40
1.0
 40
1.0
 10
-0.048238545479774
 20
0.6804087684713066
 30
0.0
 10
-0.0484546485009145
 20
0.680407608723814
 30
0.0
 10
-0.0489582467858616
 20
0.6804049060922394
 30
0.0
 10
-0.0497403810461874
 20
0.6805663891383598
 30
0.0
 10
-0.0502692314055411
 20
0.6807918488361753
 30
0.0
 10
-0.0505336565852179
 20
0.6809045786850831
 30
0.0
  0
SPLINE
  5
EE
330
1F
100
AcDbEntity
  8
0
  6
Continuous
 62
     7
370
    25
100
AcDbSpline
210
0.0
220
0.0
230
1.0
 70
     8
 71
     3
 72
    12
 73
     8
 74
     0
 42
0.00000001
 43
0.00000001
 40
0.0
 40
0.0
 40
0.0
 40
0.0
 40
0.1588846049884065
 40
0.3691634537413089
 40
0.5794423024942141
 40
0.7897211512471177
 40
1.0
 40
1.0
 40
1.0
 40
1.0
 10
-0.0484939792649801
 20
0.6647557921027729
 30
0.0
 10
-0.0481612649454318
 20
0.6647666172313976
 30
0.0
 10
-0.0473882135392078
 20
0.6647917690821422
 30
0.0
 10
-0.0462094903728268
 20
0.6651214690320252
 30
0.0
 10
-0.0450146658987386
 20
0.6656874798603476
 30
0.0
 10
-0.0439340581473221
 20
0.6664651951406719
 30
0.0
 10
-0.0433597488544493
 20
0.6671339216067806
 30
0.0
 10
-0.043072594208013
 20
0.667468284839835
 30
0.0
  0
LINE
  5
EF
330
1F
100
AcDbEntity
  8
0
  6
Continuous
 62
     7
370
    25
100
AcDbLine
 10
-0.0177075397
 20
0.7720981159
 30
0.0
 11
-0.0177814988
 21
0.7720967606
 31
0.0
  0
LINE
  5
F0
330
1F
100
AcDbEntity
  8
0
  6
Continuous
 62
     7
370
    25
100
AcDbLine
 10
-0.0484962009
 20
0.6647327748
 30
0.0
 11
-0.0484666173
 21
0.6647333169
 31
0.0
  0
LINE
  5
F1
330
1F
100
AcDbEntity
  8
0
  6
Continuous
 62
     7
370
    25
100
AcDbLine
 10
-0.0734488387
 20
0.6718834629
 30
0.0
 11
-0.0734192551
 21
0.671884005
 31
0.0
  0
LINE
  5
F2
330
1F
100
AcDbEntity
  8
0
  6
Continuous
 62
     7
370
    25
100
AcDbLine
 10
-0.0109149622
 20
0.7153037967
 30
0.0
 11
-0.0126682462
 21
0.765273047
 31
0.0
  0
LINE
  5
F3
330
1F
100
AcDbEntity
  8
0
  6
Continuous
 62
     7
370
    25
100
AcDbLine
 10
-0.0089043938
 20
0.7153741449
 30
0.0
 11
-0.0106576778
 21
0.7653433951
 31
0.0
  0
LINE
  5
F4
330
1F
100
AcDbEntity
  8
0
  6
Continuous
 62
     7
370
    25
100
AcDbLine
 10
-0.0219622512
 20
0.6988180581
 30
0.0
 11
-0.0119216439
 21
0.7121154775
 31
0.0
  0
LINE
  5
F5
330
1F
100
AcDbEntity
  8
0
  6
Continuous
 62
     7
370
    25
100
AcDbLine
 10
-0.0219622512
 20
0.6988180581
 30
0.0
 11
-0.0256256035
 21
0.7039233377
 31
0.0
  0
LINE
  5
F6
330
1F
100
AcDbEntity
  8
0
  6
Continuous
 62
     7
370
    25
100
AcDbLine
 10
-0.0254513533
 20
0.7041541085
 30
0.0
 11
-0.0256256035
 21
0.7039233377
 31
0.0
  0
LINE
  5
F7
330
1F
100
AcDbEntity
  8
0
  6
Continuous
 62
     7
370
    25
100
AcDbLine
 10
-0.0215718922
 20
0.7338561574
 30
0.0
 11
-0.021021954
 21
0.7181827131
 31
0.0
  0
LINE
  5
F8
330
1F
100
AcDbEntity
  8
0
  6
Continuous
 62
     7
370
    25
100
AcDbLine
 10
-0.0344386921
 20
0.7374221949
 30
0.0
 11
-0.0416699143
 21
0.7262828292
 31
0.0
  0
LINE
  5
F9
330
1F
100
AcDbEntity
  8
0
  6
Continuous
 62
     7
370
    25
100
AcDbLine
 10
-0.0416699143
 20
0.7262828292
 30
0.0
 11
-0.0454255609
 21
0.7315167309
 31
0.0
  0
LINE
  5
FA
330
1F
100
AcDbEntity
  8
0
  6
Continuous
 62
     7
370
    25
100
AcDbLine
 10
-0.0454255609
 20
0.7315167309
 30
0.0
 11
-0.0218588176
 21
0.7678202167
 31
0.0
  0
LINE
  5
FB
330
1F
100
AcDbEntity
  8
0
  6
Continuous
 62
     7
370
    25
100
AcDbLine
 10
-0.0103137481
 20
0.710910498
 30
0.0
 11
-0.0203543554
 21
0.6976130785
 31
0.0
  0
LINE
  5
FC
330
1F
100
AcDbEntity
  8
0
  6
Continuous
 62
     7
370
    25
100
AcDbLine
 10
-0.0331727494
 20
0.6944739661
 30
0.0
 11
-0.0295093967
 21
0.6893686867
 31
0.0
  0
LINE
  5
FD
330
1F
100
AcDbEntity
  8
0
  6
Continuous
 62
     7
370
    25
100
AcDbLine
 10
-0.0178365756
 20
0.7150596921
 30
0.0
 11
-0.0179105347
 21
0.7150583372
 31
0.0
  0
LINE
  5
FE
330
1F
100
AcDbEntity
  8
0
  6
Continuous
 62
     7
370
    25
100
AcDbLine
 10
-0.0195898596
 20
0.7650289424
 30
0.0
 11
-0.0196638187
 21
0.7650275874
 31
0.0
  0
LINE
  5
FF
330
1F
100
AcDbEntity
  8
0
  6
Continuous
 62
     7
370
    25
100
AcDbLine
 10
-0.0272098324
 20
0.705128751
 30
0.0
 11
-0.0270355822
 21
0.7053595217
 31
0.0
  0
LINE
  5
100
330
1F
100
AcDbEntity
  8
0
  6
Continuous
 62
     7
370
    25
100
AcDbLine
 10
-0.0350257032
 20
0.6781249168
 30
0.0
 11
-0.0203543554
 21
0.6976130785
 31
0.0
  0
LINE
  5
101
330
1F
100
AcDbEntity
  8
0
  6
Continuous
 62
     7
370
    25
100
AcDbLine
 10
-0.047091221
 20
0.732605947
 30
0.0
 11
-0.0235244777
 21
0.7689094327
 31
0.0
  0
LINE
  5
102
330
1F
100
AcDbEntity
  8
0
  6
Continuous
 62
     7
370
    25
100
AcDbLine
 10
-0.0230088556
 20
0.7181127986
 30
0.0
 11
-0.0235587938
 21
0.7337862429
 31
0.0
  0
LINE
  5
103
330
1F
100
AcDbEntity
  8
0
  6
Continuous
 62
     7
370
    25
100
AcDbLine
 10
-0.0524849993
 20
0.7213876859
 30
0.0
 11
-0.0487293523
 21
0.7161537844
 31
0.0
  0
LINE
  5
104
330
1F
100
AcDbEntity
  8
0
  6
Continuous
 62
     7
370
    25
100
AcDbLine
 10
-0.0327493651
 20
0.7363334126
 30
0.0
 11
-0.0399805873
 21
0.7251940468
 31
0.0
  0
LINE
  5
105
330
1F
100
AcDbEntity
  8
0
  6
Continuous
 62
     7
370
    25
100
AcDbLine
 10
-0.0106576778
 20
0.7653433951
 30
0.0
 11
-0.0105837188
 21
0.7653447504
 31
0.0
  0
LINE
  5
106
330
1F
100
AcDbEntity
  8
0
  6
Continuous
 62
     7
370
    25
100
AcDbLine
 10
-0.0105837188
 20
0.7653447504
 30
0.0
 11
-0.0088304347
 21
0.7153755001
 31
0.0
  0
LINE
  5
107
330
1F
100
AcDbEntity
  8
0
  6
Continuous
 62
     7
370
    25
100
AcDbLine
 10
-0.0088304347
 20
0.7153755001
 30
0.0
 11
-0.0089043938
 21
0.7153741449
 31
0.0
  0
LINE
  5
108
330
1F
100
AcDbEntity
  8
0
  6
Continuous
 62
     7
370
    25
100
AcDbLine
 10
-0.010239789
 20
0.7109118532
 30
0.0
 11
-0.0103137481
 21
0.710910498
 31
0.0
  0
LINE
  5
109
330
1F
100
AcDbEntity
  8
0
  6
Continuous
 62
     7
370
    25
100
AcDbLine
 10
-0.010239789
 20
0.7109118532
 30
0.0
 11
-0.0430430106
 21
0.6674688269
 31
0.0
  0
LINE
  5
10A
330
1F
100
AcDbEntity
  8
0
  6
Continuous
 62
     7
370
    25
100
AcDbLine
 10
-0.0415269146
 20
0.6694763087
 30
0.0
 11
-0.0415564981
 21
0.6694757667
 31
0.0
  0
LINE
  5
10B
330
1F
100
AcDbEntity
  8
0
  6
Continuous
 62
     7
370
    25
100
AcDbLine
 10
-0.0430725942
 20
0.6674682848
 30
0.0
 11
-0.0350257032
 21
0.6781249168
 31
0.0
  0
LINE
  5
10C
330
1F
100
AcDbEntity
  8
0
  6
Continuous
 62
     7
370
    25
100
AcDbLine
 10
-0.0326754061
 20
0.7363347678
 30
0.0
 11
-0.0327493651
 21
0.7363334126
 31
0.0
  0
LINE
  5
10D
330
1F
100
AcDbEntity
  8
0
  6
Continuous
 62
     7
370
    25
100
AcDbLine
 10
-0.0617268102
 20
0.6916274441
 30
0.0
 11
-0.0616972266
 21
0.6916279862
 31
0.0
  0
LINE
  5
10E
330
1F
100
AcDbEntity
  8
0
  6
Continuous
 62
     7
370
    25
100
AcDbLine
 10
-0.0617268102
 20
0.6916274441
 30
0.0
 11
-0.0535681407
 21
0.7041954997
 31
0.0
  0
LINE
  5
10F
330
1F
100
AcDbEntity
  8
0
  6
Continuous
 62
     7
370
    25
100
AcDbLine
 10
-0.0326754061
 20
0.7363347678
 30
0.0
 11
-0.0616972266
 21
0.6916279862
 31
0.0
  0
LINE
  5
110
330
1F
100
AcDbEntity
  8
0
  6
Continuous
 62
     7
370
    25
100
AcDbLine
 10
-0.0366335989
 20
0.6793298963
 30
0.0
 11
-0.0402969513
 21
0.684435176
 31
0.0
  0
LINE
  5
111
330
1F
100
AcDbEntity
  8
0
  6
Continuous
 62
     7
370
    25
100
AcDbLine
 10
-0.0418811766
 20
0.6856405868
 30
0.0
 11
-0.033811938
 21
0.6963590776
 31
0.0
  0
LINE
  5
112
330
1F
100
AcDbEntity
  8
0
  6
Continuous
 62
     7
370
    25
100
AcDbLine
 10
-0.0552574677
 20
0.7052842821
 30
0.0
 11
-0.0590131142
 21
0.7105181839
 31
0.0
  0
LINE
  5
113
330
1F
100
AcDbEntity
  8
0
  6
Continuous
 62
     7
370
    25
100
AcDbLine
 10
-0.0402969513
 20
0.684435176
 30
0.0
 11
-0.0427581829
 21
0.6811756093
 31
0.0
  0
LINE
  5
114
330
1F
100
AcDbEntity
  8
0
  6
Continuous
 62
     7
370
    25
100
AcDbLine
 10
-0.044670672
 20
0.668686158
 30
0.0
 11
-0.0366335989
 21
0.6793298963
 31
0.0
  0
LINE
  5
115
330
1F
100
AcDbEntity
  8
0
  6
Continuous
 62
     7
370
    25
100
AcDbLine
 10
-0.0777826546
 20
0.681604569
 30
0.0
 11
-0.0590131142
 21
0.7105181839
 31
0.0
  0
LINE
  5
116
330
1F
100
AcDbEntity
  8
0
  6
Continuous
 62
     7
370
    25
100
AcDbLine
 10
-0.0634161372
 20
0.6927162264
 30
0.0
 11
-0.0552574677
 21
0.7052842821
 31
0.0
  0
LINE
  5
117
330
1F
100
AcDbEntity
  8
0
  6
Continuous
 62
     7
370
    25
100
AcDbLine
 10
-0.0418811766
 20
0.6856405868
 30
0.0
 11
-0.0443424118
 21
0.6823810225
 31
0.0
  0
LINE
  5
118
330
1F
100
AcDbEntity
  8
0
  6
Continuous
 62
     7
370
    25
100
AcDbLine
 10
-0.0506054343
 20
0.6716617935
 30
0.0
 11
-0.0506350179
 21
0.6716612517
 31
0.0
  0
LINE
  5
119
330
1F
100
AcDbEntity
  8
0
  6
Continuous
 62
     7
370
    25
100
AcDbLine
 10
-0.0606787743
 20
0.7116073999
 30
0.0
 11
-0.0794483147
 21
0.682693785
 31
0.0
  0
LINE
  5
11A
330
1F
100
AcDbEntity
  8
0
  6
Continuous
 62
     7
370
    25
100
AcDbLine
 10
-0.0755580721
 20
0.6788124816
 30
0.0
 11
-0.0755876557
 21
0.6788119398
 31
0.0
  0
LINE
  5
11B
330
1F
100
AcDbEntity
  8
0
  6
Continuous
 62
     7
370
    25
100
AcDbLine
 10
-0.0430430106
 20
0.6674688269
 30
0.0
 11
-0.0430725942
 21
0.6674682848
 31
0.0
  0
LINE
  5
11C
330
1F
100
AcDbEntity
  8
0
  6
Continuous
 62
     7
370
    25
100
AcDbLine
 10
-0.0505336566
 20
0.6809045787
 30
0.0
 11
-0.050504073
 21
0.6809051208
 31
0.0
  0
LINE
  5
11D
330
1F
100
AcDbEntity
  8
0
  6
Continuous
 62
     7
370
    25
100
AcDbLine
 10
-0.0588526827
 20
0.6840909671
 30
0.0
 11
-0.0588822663
 21
0.684090425
 31
0.0
  0
ARC
  5
11E
330
1F
100
AcDbEntity
  8
0
  6
Continuous
 62
     7
370
    25
100
AcDbCircle
 10
-0.0159351194
 20
0.7151357792
 30
0.0
 40
0.0050229680289787
100
AcDbArc
 50
323.0370684075
 51
1.9168930041
  0
ARC
  5
11F
330
1F
100
AcDbEntity
  8
0
  6
Continuous
 62
     7
370
    25
100
AcDbCircle
 10
-0.0176654476
 20
0.7650964596
 30
0.0
 40
0.0050003204379927
100
AcDbArc
 50
2.0238336099
 51
146.9947073796
  0
ARC
  5
120
330
1F
100
AcDbEntity
  8
0
  6
Continuous
 62
     7
370
    25
100
AcDbCircle
 10
-0.0430086725
 20
0.7174112388
 30
0.0
 40
0.0220002490904944
100
AcDbArc
 50
322.9443804711
 51
2.0095809468
  0
ARC
  5
121
330
1F
100
AcDbEntity
  8
0
  6
Continuous
 62
     7
370
    25
100
AcDbCircle
 10
-0.0285679468
 20
0.7336090335
 30
0.0
 40
0.0070004178391604
100
AcDbArc
 50
2.0230354556
 51
146.9955055241
  0
ARC
  5
122
330
1F
100
AcDbEntity
  8
0
  6
Continuous
 62
     7
370
    25
100
AcDbCircle
 10
-0.0575447398
 20
0.6889047443
 30
0.0
 40
0.0070000501824719
100
AcDbArc
 50
147.0099392874
 51
254.3440432083
  0
ARC
  5
123
330
1F
100
AcDbEntity
  8
0
  6
Continuous
 62
     7
370
    25
100
AcDbCircle
 10
-0.0721220785
 20
0.63689399
 30
0.0
 40
0.0470149234248183
100
AcDbArc
 50
63.8831082563
 51
74.3429810975
  0
ARC
  5
124
330
1F
100
AcDbEntity
  8
0
  6
Continuous
 62
     7
370
    25
100
AcDbCircle
 10
-0.0483444103
 20
0.6853936648
 30
0.0
 40
0.0069998520047037
100
AcDbArc
 50
243.8817117534
 51
322.9442308449
  0
ARC
  5
125
330
1F
100
AcDbEntity
  8
0
  6
Continuous
 62
     7
370
    25
100
AcDbCircle
 10
-0.0486362903
 20
0.6717313166
 30
0.0
 40
0.00499991189971
100
AcDbArc
 50
236.009660727
 51
322.4797024311
  0
ARC
  5
126
330
1F
100
AcDbEntity
  8
0
  6
Continuous
 62
     7
370
    25
100
AcDbCircle
 10
-0.0721162065
 20
0.6369089991
 30
0.0
 40
0.0369989007161435
100
AcDbArc
 50
56.0090080666
 51
92.0095183308
  0
ARC
  5
127
330
1F
100
AcDbEntity
  8
0
  6
Continuous
 62
     7
370
    25
100
AcDbCircle
 10
-0.0735882427
 20
0.6788824159
 30
0.0
 40
0.00500032081817
100
AcDbArc
 50
147.0166223248
 51
272.0016256339
  0
ENDSEC
  0
SECTION
  2
OBJECTS
  0
DICTIONARY
  5
C
330
0
100
AcDbDictionary
281
     1
  3
ACAD_GROUP
350
D
  3
ACAD_LAYOUT
350
1A
  3
ACAD_MLINESTYLE
350
17
  3
ACAD_PLOTSETTINGS
350
19
  3
ACAD_PLOTSTYLENAME
350
E
  3
ACAD_SCALELIST
350
47
  3
DWGPROPS
350
128
  0
DICTIONARY
  5
D
102
{ACAD_REACTORS
330
C
102
}
330
C
100
AcDbDictionary
281
     1
  0
DICTIONARY
  5
1A
102
{ACAD_REACTORS
330
C
102
}
330
C
100
AcDbDictionary
281
     1
  3
Layout1
350
1E
  3
Layout2
350
26
  3
Model
350
22
  0
DICTIONARY
  5
17
102
{ACAD_REACTORS
330
C
102
}
330
C
100
AcDbDictionary
281
     1
  3
Standard
350
18
  0
DICTIONARY
  5
19
102
{ACAD_REACTORS
330
C
102
}
330
C
100
AcDbDictionary
281
     1
  0
ACDBDICTIONARYWDFLT
  5
E
102
{ACAD_REACTORS
330
C
102
}
330
C
100
AcDbDictionary
281
     1
  3
Normal
350
F
100
AcDbDictionaryWithDefault
340
F
  0
DICTIONARY
  5
47
102
{ACAD_REACTORS
330
C
102
}
330
C
100
AcDbDictionary
281
     1
  3
A0
350
48
  3
A1
350
49
  3
A2
350
4A
  3
A3
350
4B
  3
A4
350
4C
  3
A5
350
4D
  3
A6
350
4E
  3
A7
350
4F
  3
A8
350
50
  3
A9
350
51
  3
B0
350
52
  3
B1
350
53
  3
B2
350
54
  3
B3
350
55
  3
B4
350
56
  3
B5
350
57
  3
B6
350
58
  0
XRECORD
  5
128
102
{ACAD_REACTORS
330
C
102
}
330
C
100
AcDbXrecord
280
     1
  1
DWGPROPS COOKIE
  2

  3

  4

  6

  7

  8
ppare
  9

300
=
301
=
302
=
303
=
304
=
305
=
306
=
307
=
308
=
309
=
 40
0.0
 41
2460421.670485394
 42
2460421.672045267
  1

 90
        0
  0
LAYOUT
  5
1E
102
{ACAD_REACTORS
330
1A
102
}
330
1A
100
AcDbPlotSettings
  1

  2
none_device
  4

  6

 40
0.0
 41
0.0
 42
0.0
 43
0.0
 44
0.0
 45
0.0
 46
0.0
 47
0.0
 48
0.0
 49
0.0
140
0.0
141
0.0
142
1.0
143
1.0
 70
   688
 72
     1
 73
     0
 74
     5
  7

 75
    16
147
1.0
148
0.0
149
0.0
100
AcDbLayout
  1
Layout1
 70
     1
 71
     1
 10
0.0
 20
0.0
 11
420.0
 21
297.0
 12
0.0
 22
0.0
 32
0.0
 14
1.0000000000E+20
 24
1.0000000000E+20
 34
1.0000000000E+20
 15
-1.0000000000E+20
 25
-1.0000000000E+20
 35
-1.0000000000E+20
146
0.0
 13
0.0
 23
0.0
 33
0.0
 16
1.0
 26
0.0
 36
0.0
 17
0.0
 27
1.0
 37
0.0
 76
     0
330
1B
  0
LAYOUT
  5
26
102
{ACAD_REACTORS
330
1A
102
}
330
1A
100
AcDbPlotSettings
  1

  2
none_device
  4

  6

 40
0.0
 41
0.0
 42
0.0
 43
0.0
 44
0.0
 45
0.0
 46
0.0
 47
0.0
 48
0.0
 49
0.0
140
0.0
141
0.0
142
1.0
143
1.0
 70
   688
 72
     1
 73
     0
 74
     5
  7

 75
    16
147
1.0
148
0.0
149
0.0
100
AcDbLayout
  1
Layout2
 70
     1
 71
     2
 10
0.0
 20
0.0
 11
0.0
 21
0.0
 12
0.0
 22
0.0
 32
0.0
 14
0.0
 24
0.0
 34
0.0
 15
0.0
 25
0.0
 35
0.0
146
0.0
 13
0.0
 23
0.0
 33
0.0
 16
1.0
 26
0.0
 36
0.0
 17
0.0
 27
1.0
 37
0.0
 76
     0
330
23
  0
LAYOUT
  5
22
102
{ACAD_REACTORS
330
1A
102
}
330
1A
100
AcDbPlotSettings
  1

  2
none_device
  4
ANSI_A_(11.00_x_8.50_Inches)
  6

 40
6.35
 41
19.05
 42
6.35000508
 43
19.05000254
 44
279.4
 45
215.9
 46
222.3382286168
 47
-1341.3086153945
 48
0.0
 49
0.0
140
0.0
141
0.0
142
78.3772483161
143
1.0
 70
  1696
 72
     0
 73
     0
 74
     0
  7

 75
     0
147
0.0179189148
148
-1300.4909072572
149
0.0
100
AcDbLayout
  1
Model
 70
     1
 71
     0
 10
0.0
 20
0.0
 11
420.0
 21
297.0
 12
0.0
 22
0.0
 32
0.0
 14
-0.0805737355
 24
0.6647327748
 34
0.0
 15
-0.0088265367
 25
0.7720981159
 35
0.0
146
0.0
 13
0.0
 23
0.0
 33
0.0
 16
1.0
 26
0.0
 36
0.0
 17
0.0
 27
1.0
 37
0.0
 76
     0
330
1F
331
29
  0
MLINESTYLE
  5
18
102
{ACAD_REACTORS
330
17
102
}
330
17
100
AcDbMlineStyle
  2
Standard
 70
     0
  3

 62
   256
 51
90.0
 52
90.0
 71
     2
 49
0.5
 62
   256
  6
BYLAYER
 49
-0.5
 62
   256
  6
BYLAYER
  0
ACDBPLACEHOLDER
  5
F
102
{ACAD_REACTORS
330
E
102
}
330
E
  0
SCALE
  5
48
102
{ACAD_REACTORS
330
47
102
}
330
47
100
AcDbScale
 70
     0
300
1:1
140
1.0
141
1.0
290
     1
  0
SCALE
  5
49
102
{ACAD_REACTORS
330
47
102
}
330
47
100
AcDbScale
 70
     0
300
1:2
140
1.0
141
2.0
290
     0
  0
SCALE
  5
4A
102
{ACAD_REACTORS
330
47
102
}
330
47
100
AcDbScale
 70
     0
300
1:4
140
1.0
141
4.0
290
     0
  0
SCALE
  5
4B
102
{ACAD_REACTORS
330
47
102
}
330
47
100
AcDbScale
 70
     0
300
1:5
140
1.0
141
5.0
290
     0
  0
SCALE
  5
4C
102
{ACAD_REACTORS
330
47
102
}
330
47
100
AcDbScale
 70
     0
300
1:8
140
1.0
141
8.0
290
     0
  0
SCALE
  5
4D
102
{ACAD_REACTORS
330
47
102
}
330
47
100
AcDbScale
 70
     0
300
1:10
140
1.0
141
10.0
290
     0
  0
SCALE
  5
4E
102
{ACAD_REACTORS
330
47
102
}
330
47
100
AcDbScale
 70
     0
300
1:16
140
1.0
141
16.0
290
     0
  0
SCALE
  5
4F
102
{ACAD_REACTORS
330
47
102
}
330
47
100
AcDbScale
 70
     0
300
1:20
140
1.0
141
20.0
290
     0
  0
SCALE
  5
50
102
{ACAD_REACTORS
330
47
102
}
330
47
100
AcDbScale
 70
     0
300
1:30
140
1.0
141
30.0
290
     0
  0
SCALE
  5
51
102
{ACAD_REACTORS
330
47
102
}
330
47
100
AcDbScale
 70
     0
300
1:40
140
1.0
141
40.0
290
     0
  0
SCALE
  5
52
102
{ACAD_REACTORS
330
47
102
}
330
47
100
AcDbScale
 70
     0
300
1:50
140
1.0
141
50.0
290
     0
  0
SCALE
  5
53
102
{ACAD_REACTORS
330
47
102
}
330
47
100
AcDbScale
 70
     0
300
1:100
140
1.0
141
100.0
290
     0
  0
SCALE
  5
54
102
{ACAD_REACTORS
330
47
102
}
330
47
100
AcDbScale
 70
     0
300
2:1
140
2.0
141
1.0
290
     0
  0
SCALE
  5
55
102
{ACAD_REACTORS
330
47
102
}
330
47
100
AcDbScale
 70
     0
300
4:1
140
4.0
141
1.0
290
     0
  0
SCALE
  5
56
102
{ACAD_REACTORS
330
47
102
}
330
47
100
AcDbScale
 70
     0
300
8:1
140
8.0
141
1.0
290
     0
  0
SCALE
  5
57
102
{ACAD_REACTORS
330
47
102
}
330
47
100
AcDbScale
 70
     0
300
10:1
140
10.0
141
1.0
290
     0
  0
SCALE
  5
58
102
{ACAD_REACTORS
330
47
102
}
330
47
100
AcDbScale
 70
     0
300
100:1
140
100.0
141
1.0
290
     0
  0
ENDSEC
  0
EOF
